<?xml version="1.0" encoding="UTF-8"?>
<svg id="svg2" xmlns="http://www.w3.org/2000/svg" xmlns:xlink="http://www.w3.org/1999/xlink" viewBox="0 0 188.06 60.47">
  <defs>
    <style>
      .cls-1 {
        fill: none;
      }

      .cls-2 {
        clip-path: url(#clippath);
      }

      .cls-3 {
        fill: #0c0;
      }
    </style>
    <clipPath id="clippath">
      <rect class="cls-1" width="188.06" height="60.47"/>
    </clipPath>
  </defs>
  <g id="g8">
    <g id="g12">
      <g class="cls-2">
        <g id="g14">
          <g id="g20">
            <path id="path22" class="cls-3" d="M179.8,42.53c-5.05,0-8.86,3.84-8.86,8.93s3.84,8.93,8.93,8.93c2.7,0,5.25-1.04,6.89-2.8l-2.23-2.38c-.8,.8-2.33,1.9-4.66,1.9-2.85,0-5.05-1.82-5.47-4.53l-.06-.36h13.7v-.76c-.24-5.51-3.4-8.93-8.25-8.93m-5.39,7.27l.11-.4c.66-2.32,2.67-3.88,4.99-3.88,2.59,0,4.35,1.42,4.82,3.91l.07,.37h-9.99Z"/>
          </g>
          <g id="g24">
            <path id="path26" class="cls-3" d="M91.08,42.53c-5.05,0-8.86,3.84-8.86,8.93s3.84,8.93,8.93,8.93c2.7,0,5.26-1.04,6.89-2.8l-2.23-2.38c-.8,.8-2.32,1.9-4.66,1.9-2.85,0-5.05-1.82-5.47-4.53l-.06-.36h13.7v-.76c-.24-5.51-3.4-8.93-8.25-8.93m-5.39,7.27l.11-.4c.66-2.32,2.67-3.88,4.99-3.88,2.59,0,4.34,1.42,4.82,3.91l.07,.37h-10Z"/>
          </g>
          <g id="g28">
            <path id="path30" class="cls-3" d="M150.22,34.94c-1.33,0-2.42,1.09-2.42,2.42s1.09,2.42,2.42,2.42,2.42-1.09,2.42-2.42-1.09-2.42-2.42-2.42"/>
          </g>
          <path id="path32" class="cls-3" d="M102.37,60.11h3.32v-24.82h-3.32v24.82Z"/>
          <path id="path34" class="cls-3" d="M148.57,60.11h3.32v-17.29h-3.32v17.29Z"/>
          <g id="g36">
            <path id="path38" class="cls-3" d="M155.31,42.82v2.89h9.5l-9.51,13.23v1.18h14.28v-2.89h-9.53l9.53-13.26v-1.14h-14.28Z"/>
          </g>
          <g id="g40">
            <path id="path42" class="cls-3" d="M127.74,51.46c0,5.09,3.83,8.93,8.9,8.93,1.78,0,3.37-.52,4.61-1.51l.5-.4v1.63h3.32v-17.29h-3.32v1.66l-.5-.4c-1.26-1.01-2.86-1.54-4.61-1.54-5.07,0-8.9,3.84-8.9,8.93m13.96-3.22l.05,.08v6.28l-.05,.08c-1.05,1.59-2.97,2.58-5.03,2.58-3.19,0-5.51-2.44-5.51-5.79s2.32-5.79,5.51-5.79c2.05,0,3.98,.99,5.03,2.58"/>
          </g>
          <g id="g44">
            <path id="path46" class="cls-3" d="M117.95,42.53c-1.95,0-3.69,.68-4.79,1.87l-.54,.59v-9.69h-3.32v24.82h3.32v-11.03l.02-.05c.74-2.17,2.35-3.36,4.56-3.36,2.85,0,4.4,2.23,4.4,4.32v10.12h3.32v-10.19c0-4.49-2.73-7.39-6.96-7.39"/>
          </g>
          <g id="g48">
            <path id="path50" class="cls-3" d="M67.2,35.29h-7.75v24.82h7.75c7.42,0,13.02-5.33,13.02-12.41s-5.6-12.41-13.02-12.41m0,21.57h-4.22v-18.32h4.22c5.45,0,9.41,3.85,9.41,9.16s-3.96,9.16-9.41,9.16"/>
          </g>
          <path id="path52" class="cls-3" d="M123.97,29.55h3.32V4.73h-3.32V29.55Z"/>
          <g id="g54">
            <path id="path56" class="cls-3" d="M68.76,4.73l-10.21,24.82h3.77l2.28-5.66h11.06l2.28,5.66h3.8l-10.21-24.82h-2.77Zm-2.99,15.98l4.38-10.91,4.34,10.91h-8.72Z"/>
          </g>
          <g id="g58">
            <path id="path60" class="cls-3" d="M93.42,11.97c-1.95,0-3.69,.68-4.79,1.87l-.54,.59V4.73h-3.32V29.55h3.32v-11.03l.02-.05c.74-2.17,2.35-3.36,4.56-3.36,2.85,0,4.39,2.23,4.39,4.32v10.11h3.32v-10.19c0-4.49-2.73-7.39-6.96-7.39"/>
          </g>
          <g id="g62">
            <path id="path64" class="cls-3" d="M112.18,11.97c-5.11,0-8.97,3.84-8.97,8.93s3.86,8.93,8.97,8.93,8.97-3.84,8.97-8.93-3.86-8.93-8.97-8.93m0,14.73c-3.21,0-5.54-2.44-5.54-5.79s2.33-5.79,5.54-5.79,5.54,2.49,5.54,5.79-2.38,5.79-5.54,5.79"/>
          </g>
          <g id="g66">
            <path id="path68" class="cls-3" d="M138.98,11.97c-5.07,0-8.9,3.84-8.9,8.93s3.83,8.93,8.9,8.93c1.78,0,3.37-.52,4.61-1.51l.51-.4v1.63h3.32V4.73h-3.32V13.92l-.51-.4c-1.26-1.01-2.85-1.55-4.61-1.55m5.11,5.79v6.28l-.05,.08c-1.05,1.59-2.97,2.58-5.03,2.58-3.19,0-5.51-2.44-5.51-5.79s2.32-5.79,5.51-5.79c2.05,0,3.98,.99,5.03,2.58l.05,.08Z"/>
          </g>
          <g id="g70">
            <path id="path72" class="cls-3" d="M23.45,3.25c.9,0,1.62-.73,1.62-1.63C25.06,.72,24.33,0,23.43,0c-.9,0-1.62,.73-1.62,1.63,0,.89,.73,1.62,1.63,1.61"/>
          </g>
          <g id="g74">
            <path id="path76" class="cls-3" d="M23.45,3.25c.9,0,1.62-.73,1.62-1.63C25.06,.72,24.33,0,23.43,0c-.9,0-1.62,.73-1.62,1.63,0,.89,.73,1.62,1.63,1.61"/>
          </g>
          <g id="g78">
            <path id="path80" class="cls-3" d="M11.78,11.67h3.26s-.51-.54-2.54-2.66c-1.15-1.21-1.26-2.16,.19-2.17h.32s1.63-2.47,1.63-2.47c0,0-1.41-.04-2.02-.04-3.85,.02-4.56,3.83-2.59,5.67,1.47,1.37,1.75,1.68,1.75,1.68"/>
          </g>
          <g id="g82">
            <path id="path84" class="cls-3" d="M11.78,11.67h3.26s-.51-.54-2.54-2.66c-1.15-1.21-1.26-2.16,.19-2.17h.32s1.63-2.47,1.63-2.47c0,0-1.41-.04-2.02-.04-3.85,.02-4.56,3.83-2.59,5.67,1.47,1.37,1.75,1.68,1.75,1.68"/>
          </g>
          <g id="g86">
            <path id="path88" class="cls-3" d="M34.23,6.74c1.45,0,1.35,.95,.21,2.17-2.01,2.14-2.52,2.67-2.52,2.67h3.26s.28-.33,1.73-1.71c1.95-1.86,1.21-5.66-2.64-5.64-.61,0-2.02,.06-2.02,.06l1.65,2.46h.32Z"/>
          </g>
          <g id="g90">
            <path id="path92" class="cls-3" d="M34.23,6.74c1.45,0,1.35,.95,.21,2.17-2.01,2.14-2.52,2.67-2.52,2.67h3.26s.28-.33,1.73-1.71c1.95-1.86,1.21-5.66-2.64-5.64-.61,0-2.02,.06-2.02,.06l1.65,2.46h.32Z"/>
          </g>
          <g id="g94">
            <path id="path96" class="cls-3" d="M22.22,10.45l1.26,1.08,1.26-1.09-.03-6.17h-2.52s.03,6.18,.03,6.18Z"/>
          </g>
          <g id="g98">
            <path id="path100" class="cls-3" d="M22.22,10.45l1.26,1.08,1.26-1.09-.03-6.17h-2.52s.03,6.18,.03,6.18Z"/>
          </g>
          <g id="g102">
            <path id="path104" class="cls-3" d="M43.11,37.09c.63,2.96,.44,5.92-.59,8.82-1.27,3.56-3.25,5.94-5.73,6.89-.55,.21-1.58,.54-2.87,.55-.82,.01-1.91-.29-2.6-.61-.41-.15-1.2-.56-1.2-.56-2.21-1.22-5.32-3.67-5.31-5.32,0-.57,1.29-1.49,2.36-1.5,1.51,0,2.73-1.24,2.73-2.75v-.14l-.56-2.41-.02-.07c-.39-1.32-1.4-5.79,2.07-7.81l3.02-1.44-1.08-2.28-3.07,1.46-.08,.04c-3.45,1.97-4.68,5.96-3.29,10.7l.48,2.03c-.03,.08-.11,.14-.2,.14-1.01,0-2.16,.39-3.09,1.04-.19,.13-.37,.28-.53,.42-1.03-.91-2.49-1.43-3.64-1.43-.09,0-.17-.06-.21-.14l.46-2.03c1.35-4.75,.09-8.73-3.39-10.67l-3.17-1.47-1.06,2.29,3.04,1.41c3.49,1.98,2.52,6.46,2.14,7.79l-.56,2.48v.14c0,1.51,1.24,2.73,2.75,2.73,1.07,0,2.37,.9,2.37,1.48,.03,1.65-3.06,4.13-5.26,5.36-.21,.11-.41,.22-.62,.31-.73,.42-1.82,.89-3.09,.9-.34,0-1.5,.05-3.01-.53-2.48-.95-4.49-3.29-5.79-6.84-1.24-3.38-1.33-6.84-.3-10.31,.31-1.06,1.01-2.6,.99-2.62,1.6-3.46,4.25-6.71,7.68-9.42,.05-.04,5.14-3.97,9.35-6.79l-5.73-3.89-3.49,.02s-.31-.01-.46,0h-.01c-3.39,.32-6.33,1.62-8.73,3.88C1.42,19.15,0,23.26,.27,27.19c.12,1.66,.52,3.24,1.19,4.68,.38-.79,.92-1.81,1.62-2.98-.16-.67-.25-1.3-.29-1.88-.22-3.16,.9-6.53,2.74-8.22,1.97-1.86,4.39-2.94,7.19-3.21l7.07-.03c-4.03,2.77-8.41,6.15-8.46,6.19-2.82,2.22-5.15,4.79-6.88,7.54-1.1,1.8-2.13,4.16-2.12,4.19-1.72,4.47-1.79,9.11-.19,13.47,1.97,5.38,5.05,7.51,7.28,8.34,1.1,.41,2.26,.61,3.45,.6,1.82,0,3.38-.59,3.37-.6,.53-.2,1.5-.56,2.01-.84h0c.47-.27,3.54-2.04,5.3-4.39,1.75,2.28,4.73,4,5.3,4.32,0,0,1.36,.78,2.43,1.1,1.22,.33,2.52,.32,2.95,.32,1.18,0,2.35-.21,3.44-.63,2.23-.85,5.28-3,7.21-8.4,1.37-3.85,1.45-7.91,.25-11.87-.51,.67-1.17,1.44-2.03,2.21"/>
          </g>
          <g id="g106">
            <path id="path108" class="cls-3" d="M43.11,37.09c.63,2.96,.44,5.92-.59,8.82-1.27,3.56-3.25,5.94-5.73,6.89-.55,.21-1.58,.54-2.87,.55-.82,.01-1.91-.29-2.6-.61-.41-.15-1.2-.56-1.2-.56-2.21-1.22-5.32-3.67-5.31-5.32,0-.57,1.29-1.49,2.36-1.5,1.51,0,2.73-1.24,2.73-2.75v-.14l-.56-2.41-.02-.07c-.39-1.32-1.4-5.79,2.07-7.81l3.02-1.44-1.08-2.28-3.07,1.46-.08,.04c-3.45,1.97-4.68,5.96-3.29,10.7l.48,2.03c-.03,.08-.11,.14-.2,.14-1.01,0-2.16,.39-3.09,1.04-.19,.13-.37,.28-.53,.42-1.03-.91-2.49-1.43-3.64-1.43-.09,0-.17-.06-.21-.14l.46-2.03c1.35-4.75,.09-8.73-3.39-10.67l-3.17-1.47-1.06,2.29,3.04,1.41c3.49,1.98,2.52,6.46,2.14,7.79l-.56,2.48v.14c0,1.51,1.24,2.73,2.75,2.73,1.07,0,2.37,.9,2.37,1.48,.03,1.65-3.06,4.13-5.26,5.36-.21,.11-.41,.22-.62,.31-.73,.42-1.82,.89-3.09,.9-.34,0-1.5,.05-3.01-.53-2.48-.95-4.49-3.29-5.79-6.84-1.24-3.38-1.33-6.84-.3-10.31,.31-1.06,1.01-2.6,.99-2.62,1.6-3.46,4.25-6.71,7.68-9.42,.05-.04,5.14-3.97,9.35-6.79l-5.73-3.89-3.49,.02s-.31-.01-.46,0h-.01c-3.39,.32-6.33,1.62-8.73,3.88C1.42,19.15,0,23.26,.27,27.19c.12,1.66,.52,3.24,1.19,4.68,.38-.79,.92-1.81,1.62-2.98-.16-.67-.25-1.3-.29-1.88-.22-3.16,.9-6.53,2.74-8.22,1.97-1.86,4.39-2.94,7.19-3.21l7.07-.03c-4.03,2.77-8.41,6.15-8.46,6.19-2.82,2.22-5.15,4.79-6.88,7.54-1.1,1.8-2.13,4.16-2.12,4.19-1.72,4.47-1.79,9.11-.19,13.47,1.97,5.38,5.05,7.51,7.28,8.34,1.1,.41,2.26,.61,3.45,.6,1.82,0,3.38-.59,3.37-.6,.53-.2,1.5-.56,2.01-.84h0c.47-.27,3.54-2.04,5.3-4.39,1.75,2.28,4.73,4,5.3,4.32,0,0,1.36,.78,2.43,1.1,1.22,.33,2.52,.32,2.95,.32,1.18,0,2.35-.21,3.44-.63,2.23-.85,5.28-3,7.21-8.4,1.37-3.85,1.45-7.91,.25-11.87-.51,.67-1.17,1.44-2.03,2.21"/>
          </g>
          <g id="g110">
            <path id="path112" class="cls-3" d="M18.07,12.3l8.01,5.71c.09,.06,.62,.39,.62,.39,3.64,2.51,7.2,5.21,7.24,5.24,3.02,2.34,5.44,5.1,7.09,8.05,.69-1,1.08-2.07,1.27-2.75-1.75-2.67-4.06-5.15-6.83-7.3-.04-.03-3.2-2.43-6.63-4.82-1.46-.89-5.73-3.79-5.73-3.79-2.04-1.31-4.97-4-4.97-4-1.08-1.05-1.22-2.21,.1-2.21h2.57s-.01-2.52-.01-2.52h-2.53c-4.12,.03-4.75,3.43-2.52,5.84,.89,.96,2.32,2.17,2.32,2.17"/>
          </g>
          <g id="g114">
            <path id="path116" class="cls-3" d="M18.07,12.3l8.01,5.71c.09,.06,.62,.39,.62,.39,3.64,2.51,7.2,5.21,7.24,5.24,3.02,2.34,5.44,5.1,7.09,8.05,.69-1,1.08-2.07,1.27-2.75-1.75-2.67-4.06-5.15-6.83-7.3-.04-.03-3.2-2.43-6.63-4.82-1.46-.89-5.73-3.79-5.73-3.79-2.04-1.31-4.97-4-4.97-4-1.08-1.05-1.22-2.21,.1-2.21h2.57s-.01-2.52-.01-2.52h-2.53c-4.12,.03-4.75,3.43-2.52,5.84,.89,.96,2.32,2.17,2.32,2.17"/>
          </g>
          <g id="g118">
            <path id="path120" class="cls-3" d="M29.47,56.13c-1.51,1.25-3.86,1.77-5.91,1.82-2-.03-4.28-.51-5.81-1.68-.69,.27-1.7,.61-2.74,.85,.91,1.11,2.2,1.97,3.84,2.55,1.68,.6,3.35,.76,4.44,.8h0c.09,.01,.18,0,.28,0,.1,0,.2,0,.28,0h0c1.09-.06,2.76-.24,4.43-.85,1.65-.6,2.94-1.48,3.84-2.62-1.06-.26-2.04-.62-2.66-.88"/>
          </g>
          <g id="g122">
            <path id="path124" class="cls-3" d="M29.47,56.13c-1.51,1.25-3.86,1.77-5.91,1.82-2-.03-4.28-.51-5.81-1.68-.69,.27-1.7,.61-2.74,.85,.91,1.11,2.2,1.97,3.84,2.55,1.68,.6,3.35,.76,4.44,.8h0c.09,.01,.18,0,.28,0,.1,0,.2,0,.28,0h0c1.09-.06,2.76-.24,4.43-.85,1.65-.6,2.94-1.48,3.84-2.62-1.06-.26-2.04-.62-2.66-.88"/>
          </g>
          <g id="g126">
            <path id="path128" class="cls-3" d="M42.97,16.79c-2.37-2.19-5.22-3.46-8.51-3.79l-.28-.03c-.15-.01-.46,0-.46,0l-5.77,.03c.61-.46,1.2-.93,1.78-1.41,0,0,.09-.03,.35-.3,.27-.23,.73-.78,.73-.78,.12-.13,.26-.28,.42-.45,2.21-2.43,1.56-5.83-2.57-5.81h-2.53s.01,2.53,.01,2.53h2.57c1.39-.02,.96,1.17-.02,2.37-1.28,1.12-2.66,2.16-4.13,3.19,1.74,1.25,3.51,2.38,4.8,3.17l4.67-.02c2.8,.25,5.23,1.31,7.24,3.16,1.84,1.66,2.99,5.03,2.8,8.18-.06,.97-.25,2.1-.69,3.27-.45,1.21-1.27,2.85-2.74,4.03-.01,.01-.03,.02-.05,.03-.35,.32-.74,.63-1.17,.93-6.61,4.64-7.11,10.55-7.38,13.73-.02,.27-.05,.53-.07,.77-.01,.13-.03,.28-.04,.44-.04,.41-.08,.88-.16,1.4,.63,.32,1.5,.61,2.47,.53,.11-.65,.16-1.23,.2-1.7,.01-.15,.02-.28,.04-.41,.03-.25,.05-.52,.07-.81,.27-3.14,.67-7.88,6.26-11.84,.04-.05,.08-.09,.14-.13,3.06-2.19,4.23-4.86,4.25-4.89,.02-.05,.05-.1,.08-.14,.75-1.55,1.2-3.24,1.31-5.05,.24-3.93-1.22-8.04-3.61-10.2"/>
          </g>
          <g id="g130">
            <path id="path132" class="cls-3" d="M42.97,16.79c-2.37-2.19-5.22-3.46-8.51-3.79l-.28-.03c-.15-.01-.46,0-.46,0l-5.77,.03c.61-.46,1.2-.93,1.78-1.41,0,0,.09-.03,.35-.3,.27-.23,.73-.78,.73-.78,.12-.13,.26-.28,.42-.45,2.21-2.43,1.56-5.83-2.57-5.81h-2.53s.01,2.53,.01,2.53h2.57c1.39-.02,.96,1.17-.02,2.37-1.28,1.12-2.66,2.16-4.13,3.19,1.74,1.25,3.51,2.38,4.8,3.17l4.67-.02c2.8,.25,5.23,1.31,7.24,3.16,1.84,1.66,2.99,5.03,2.8,8.18-.06,.97-.25,2.1-.69,3.27-.45,1.21-1.27,2.85-2.74,4.03-.01,.01-.03,.02-.05,.03-.35,.32-.74,.63-1.17,.93-6.61,4.64-7.11,10.55-7.38,13.73-.02,.27-.05,.53-.07,.77-.01,.13-.03,.28-.04,.44-.04,.41-.08,.88-.16,1.4,.63,.32,1.5,.61,2.47,.53,.11-.65,.16-1.23,.2-1.7,.01-.15,.02-.28,.04-.41,.03-.25,.05-.52,.07-.81,.27-3.14,.67-7.88,6.26-11.84,.04-.05,.08-.09,.14-.13,3.06-2.19,4.23-4.86,4.25-4.89,.02-.05,.05-.1,.08-.14,.75-1.55,1.2-3.24,1.31-5.05,.24-3.93-1.22-8.04-3.61-10.2"/>
          </g>
          <g id="g134">
            <path id="path136" class="cls-3" d="M15.32,51.57c-.09-.54-.14-1.04-.18-1.46-.01-.16-.03-.31-.04-.44-.03-.24-.05-.5-.08-.77-.3-3.17-.86-9.08-7.5-13.66-.45-.31-.85-.63-1.22-.96-.4,1-.65,1.92-.79,2.62,.19,.14,.38,.28,.57,.42,5.68,3.91,6.13,8.68,6.43,11.83,.03,.29,.05,.56,.08,.81,.01,.12,.03,.26,.04,.41,.05,.47,.1,1.04,.21,1.69,.96,.11,1.83-.16,2.48-.47"/>
          </g>
          <g id="g138">
            <path id="path140" class="cls-3" d="M15.32,51.57c-.09-.54-.14-1.04-.18-1.46-.01-.16-.03-.31-.04-.44-.03-.24-.05-.5-.08-.77-.3-3.17-.86-9.08-7.5-13.66-.45-.31-.85-.63-1.22-.96-.4,1-.65,1.92-.79,2.62,.19,.14,.38,.28,.57,.42,5.68,3.91,6.13,8.68,6.43,11.83,.03,.29,.05,.56,.08,.81,.01,.12,.03,.26,.04,.41,.05,.47,.1,1.04,.21,1.69,.96,.11,1.83-.16,2.48-.47"/>
          </g>
        </g>
      </g>
    </g>
  </g>
</svg>