<svg xmlns="http://www.w3.org/2000/svg" width="205" height="52" fill="none"><g clip-path="url(#a)"><mask id="b" width="207" height="53" x="-1" y="-1" maskUnits="userSpaceOnUse" style="mask-type:luminance"><path fill="#fff" d="M-.262 52h205.263V-.003H-.262z"/></mask><g fill="#0C0" mask="url(#b)"><path d="M195.993 36.572c-5.514 0-9.674 3.302-9.674 7.682s4.193 7.684 9.753 7.684c2.951 0 5.735-.897 7.516-2.41l-2.434-2.05c-.877.69-2.539 1.634-5.082 1.634-3.112 0-5.51-1.564-5.967-3.892l-.061-.309H205v-.657c-.262-4.734-3.714-7.682-9.007-7.682m-5.885 6.255.123-.34c.724-1.996 2.912-3.337 5.449-3.337 2.826 0 4.743 1.224 5.26 3.36l.077.317zM99.15 36.572c-5.514 0-9.672 3.302-9.672 7.682s4.191 7.684 9.75 7.684c2.952 0 5.738-.897 7.519-2.41l-2.436-2.05c-.875.69-2.537 1.634-5.082 1.634-3.112 0-5.51-1.564-5.967-3.892l-.061-.309h14.958v-.657c-.265-4.734-3.716-7.682-9.009-7.682m-5.885 6.255.122-.34c.725-1.996 2.915-3.337 5.45-3.337 2.825 0 4.742 1.224 5.261 3.36l.077.317zm70.441-12.787c-1.456 0-2.64.933-2.64 2.08 0 1.146 1.184 2.08 2.64 2.08 1.455 0 2.64-.934 2.64-2.08 0-1.147-1.185-2.08-2.64-2.08m-52.234 21.65h3.624V30.35h-3.624zm50.427 0h3.624V36.82h-3.624zm7.36-14.872v2.486h10.374l-10.38 11.374v1.012h15.59v-2.485h-10.406l10.406-11.404v-.983zm-30.091 7.436c0 4.38 4.175 7.683 9.712 7.683 1.943 0 3.682-.449 5.029-1.297l.55-.348v1.398h3.625V36.819h-3.625v1.428l-.55-.347c-1.379-.868-3.118-1.328-5.029-1.328-5.537 0-9.712 3.303-9.712 7.682m15.235-2.767.056.068v5.4l-.056.066c-1.142 1.367-3.244 2.215-5.485 2.215-3.481 0-6.009-2.095-6.009-4.982s2.528-4.982 6.009-4.982c2.241 0 4.343.85 5.485 2.215m-25.925-4.915c-2.128 0-4.031.586-5.226 1.609l-.588.504v-8.337h-3.625V51.69h3.625v-9.482l.017-.043c.804-1.864 2.571-2.893 4.975-2.893 3.116 0 4.798 1.916 4.798 3.719v8.7h3.624v-8.76c0-3.864-2.984-6.359-7.6-6.359M73.09 30.348h-8.462v21.343h8.461c8.1 0 14.209-4.588 14.209-10.672 0-6.082-6.11-10.671-14.209-10.671m0 18.55h-4.603V33.14h4.602c5.953 0 10.272 3.314 10.272 7.879s-4.32 7.878-10.272 7.878m61.968-23.488h3.623V4.066h-3.623zM74.787 4.067 63.645 25.41h4.113l2.487-4.87h12.073l2.488 4.87h4.152L77.816 4.067zM71.52 17.81l4.782-9.386 4.74 9.386zm30.182-7.52c-2.126 0-4.031.588-5.226 1.61l-.588.503V4.067h-3.625v21.342h3.625v-9.483l.017-.041c.804-1.866 2.57-2.893 4.976-2.893 3.116 0 4.797 1.915 4.797 3.718v8.699h3.624v-8.761c0-3.862-2.984-6.357-7.6-6.357m20.482-.001c-5.581 0-9.79 3.303-9.79 7.683s4.209 7.683 9.79 7.683 9.79-3.303 9.79-7.683-4.209-7.682-9.79-7.682m0 12.665c-3.506 0-6.05-2.095-6.05-4.982s2.544-4.981 6.05-4.981c3.447 0 6.048 2.14 6.048 4.98s-2.601 4.983-6.048 4.983m29.249-12.666c-5.538 0-9.713 3.303-9.713 7.683s4.175 7.683 9.713 7.683c1.944 0 3.683-.45 5.028-1.298l.551-.347v1.398h3.624V4.067h-3.624v7.9l-.551-.348c-1.377-.869-3.116-1.328-5.028-1.328m5.579 4.984v5.398l-.055.066c-1.144 1.367-3.244 2.217-5.485 2.217-3.483 0-6.011-2.095-6.011-4.982s2.528-4.981 6.011-4.981c2.24 0 4.341.848 5.485 2.215zM25.329 2.788c.98-.003 1.77-.63 1.766-1.4S26.294-.004 25.315 0c-.98.003-1.77.63-1.766 1.4s.802 1.392 1.78 1.388"/><path d="M25.329 2.788c.98-.003 1.77-.63 1.766-1.4S26.294-.004 25.315 0c-.98.003-1.77.63-1.766 1.4s.802 1.392 1.78 1.388m-12.734 7.245 3.563-.013s-.56-.45-2.77-2.277c-1.26-1.044-1.378-1.86.207-1.866l.345-.003 1.784-2.126s-1.534-.035-2.203-.033c-4.202.015-4.978 3.29-2.833 4.873 1.601 1.18 1.907 1.445 1.907 1.445"/><path d="m12.595 10.033 3.563-.013s-.56-.45-2.77-2.277c-1.26-1.044-1.378-1.86.207-1.866l.345-.003 1.784-2.126s-1.534-.035-2.203-.033c-4.202.015-4.978 3.29-2.833 4.873 1.601 1.18 1.907 1.445 1.907 1.445M37.1 5.795c1.583-.004 1.475.813.228 1.866a369 369 0 0 1-2.746 2.296l3.56-.012s.306-.268 1.891-1.458C42.161 6.89 41.35 3.62 37.15 3.634c-.668.002-2.202.048-2.202.048l1.806 2.114z"/><path d="M37.1 5.795c1.583-.004 1.475.813.228 1.866a369 369 0 0 1-2.746 2.296l3.56-.012s.306-.268 1.891-1.458C42.161 6.89 41.35 3.62 37.15 3.634c-.668.002-2.202.048-2.202.048l1.806 2.114zM23.99 8.983l1.379.925 1.37-.934-.029-5.304-2.75.009z"/><path d="m23.99 8.983 1.379.925 1.37-.934-.029-5.304-2.75.009zm22.8 22.91c.693 2.548.48 5.09-.647 7.586-1.386 3.06-3.548 5.11-6.257 5.925-.602.18-1.729.462-3.13.474-.9.01-2.081-.245-2.838-.527-.448-.13-1.313-.485-1.313-.485-2.414-1.047-5.806-3.158-5.795-4.575.005-.494 1.413-1.283 2.578-1.288 1.648-.005 2.984-1.067 2.977-2.366v-.123l-.615-2.068-.02-.062c-.43-1.139-1.53-4.981 2.264-6.714l3.3-1.235-1.178-1.958-3.352 1.253-.09.038c-3.771 1.691-5.113 5.129-3.595 9.2l.52 1.747c-.034.07-.121.12-.223.121-1.099.004-2.358.337-3.368.892q-.315.174-.58.364c-1.124-.786-2.718-1.233-3.973-1.23-.102 0-.19-.049-.224-.119l.499-1.748c1.474-4.082.094-7.512-3.695-9.178l-3.455-1.265-1.159 1.966 3.315 1.212c3.812 1.706 2.754 5.556 2.338 6.697l-.612 2.135v.123c.01 1.299 1.355 2.352 3.004 2.346 1.166-.005 2.583.776 2.592 1.27.028 1.416-3.343 3.55-5.742 4.613q-.338.147-.68.27c-.792.363-1.985.768-3.37.772-.37.002-1.64.042-3.284-.453-2.708-.816-4.904-2.83-6.322-5.882-1.349-2.905-1.455-5.88-.326-8.863.335-.914 1.1-2.238 1.083-2.253 1.746-2.972 4.634-5.766 8.38-8.098.058-.034 5.614-3.415 10.21-5.84l-6.256-3.345-3.804.014s-.338-.011-.505.001h-.012c-3.705.273-6.914 1.397-9.531 3.34-2.61 1.886-4.16 5.425-3.862 8.806a9.6 9.6 0 0 0 1.295 4.027 34 34 0 0 1 1.767-2.565 8 8 0 0 1-.318-1.613c-.238-2.714.984-5.617 2.991-7.068 2.155-1.6 4.797-2.528 7.853-2.764l7.716-.027c-4.404 2.386-9.174 5.287-9.237 5.326-3.074 1.913-5.616 4.115-7.51 6.482-1.197 1.551-2.33 3.574-2.31 3.6-1.873 3.847-1.95 7.837-.207 11.586 2.15 4.63 5.508 6.454 7.946 7.168 1.2.351 2.471.522 3.762.517 1.987-.007 3.686-.509 3.678-.519.573-.172 1.641-.484 2.194-.726l.003-.001c.517-.23 3.863-1.754 5.79-3.771 1.906 1.96 5.16 3.437 5.789 3.711 0 0 1.487.67 2.654.95 1.335.283 2.755.277 3.218.276a13.2 13.2 0 0 0 3.756-.543c2.43-.732 5.768-2.578 7.866-7.223 1.5-3.312 1.582-6.804.27-10.21a15 15 0 0 1-2.213 1.897"/><path d="M46.79 31.893c.693 2.548.48 5.09-.647 7.586-1.386 3.06-3.548 5.11-6.257 5.925-.602.18-1.729.462-3.13.474-.9.01-2.081-.245-2.838-.527-.448-.13-1.313-.485-1.313-.485-2.414-1.047-5.806-3.158-5.795-4.575.005-.494 1.413-1.283 2.578-1.288 1.648-.005 2.984-1.067 2.977-2.366v-.123l-.615-2.068-.02-.062c-.43-1.139-1.53-4.981 2.264-6.714l3.3-1.235-1.178-1.958-3.352 1.253-.09.038c-3.771 1.691-5.113 5.129-3.595 9.2l.52 1.747c-.034.07-.121.12-.223.121-1.099.004-2.358.337-3.368.892q-.315.174-.58.364c-1.124-.786-2.718-1.233-3.973-1.23-.102 0-.19-.049-.224-.119l.499-1.748c1.474-4.082.094-7.512-3.695-9.178l-3.455-1.265-1.159 1.966 3.315 1.212c3.812 1.706 2.754 5.556 2.338 6.697l-.612 2.135v.123c.01 1.299 1.355 2.352 3.004 2.346 1.166-.005 2.583.776 2.592 1.27.028 1.416-3.343 3.55-5.742 4.613q-.338.147-.68.27c-.792.363-1.985.768-3.37.772-.37.002-1.64.042-3.284-.453-2.708-.816-4.904-2.83-6.322-5.882-1.349-2.905-1.455-5.88-.326-8.863.335-.914 1.1-2.238 1.083-2.253 1.746-2.972 4.634-5.766 8.38-8.098.058-.034 5.614-3.415 10.21-5.84l-6.256-3.345-3.804.014s-.338-.011-.505.001h-.012c-3.705.273-6.914 1.397-9.531 3.34-2.61 1.886-4.16 5.425-3.862 8.806a9.6 9.6 0 0 0 1.295 4.027 34 34 0 0 1 1.767-2.565 8 8 0 0 1-.318-1.613c-.238-2.714.984-5.617 2.991-7.068 2.155-1.6 4.797-2.528 7.853-2.764l7.716-.027c-4.404 2.386-9.174 5.287-9.237 5.326-3.074 1.913-5.616 4.115-7.51 6.482-1.197 1.551-2.33 3.574-2.31 3.6-1.873 3.847-1.95 7.837-.207 11.586 2.15 4.63 5.508 6.454 7.946 7.168 1.2.351 2.471.522 3.762.517 1.987-.007 3.686-.509 3.678-.519.573-.172 1.641-.484 2.194-.726l.003-.001c.517-.23 3.863-1.754 5.79-3.771 1.906 1.96 5.16 3.437 5.789 3.711 0 0 1.487.67 2.654.95 1.335.283 2.755.277 3.218.276a13.2 13.2 0 0 0 3.756-.543c2.43-.732 5.768-2.578 7.866-7.223 1.5-3.312 1.582-6.804.27-10.21a15 15 0 0 1-2.213 1.897"/><path d="m19.466 10.573 8.74 4.91c.098.052.676.332.676.332 3.968 2.16 7.858 4.483 7.9 4.507 3.3 2.016 5.941 4.385 7.743 6.922a7.6 7.6 0 0 0 1.391-2.363c-1.905-2.294-4.427-4.427-7.46-6.28-.046-.027-3.495-2.087-7.24-4.148-1.598-.767-6.25-3.256-6.25-3.256-2.23-1.128-5.428-3.44-5.428-3.44-1.175-.902-1.331-1.897.112-1.901l2.806-.01-.013-2.16-2.764.007c-4.5.016-5.188 2.941-2.746 5.015.97.825 2.533 1.865 2.533 1.865"/><path d="m19.466 10.573 8.74 4.91c.098.052.676.332.676.332 3.968 2.16 7.858 4.483 7.9 4.507 3.3 2.016 5.941 4.385 7.743 6.922a7.6 7.6 0 0 0 1.391-2.363c-1.905-2.294-4.427-4.427-7.46-6.28-.046-.027-3.495-2.087-7.24-4.148-1.598-.767-6.25-3.256-6.25-3.256-2.23-1.128-5.428-3.44-5.428-3.44-1.175-.902-1.331-1.897.112-1.901l2.806-.01-.013-2.16-2.764.007c-4.5.016-5.188 2.941-2.746 5.015.97.825 2.533 1.865 2.533 1.865m12.437 37.691c-1.652 1.075-4.209 1.52-6.446 1.566-2.181-.03-4.673-.44-6.336-1.447-.757.228-1.856.527-2.994.73.994.956 2.397 1.692 4.19 2.192 1.837.514 3.657.656 4.848.686V52l.304-.003.306.002v-.01c1.189-.04 3.01-.193 4.84-.718 1.806-.52 3.21-1.274 4.196-2.252a26 26 0 0 1-2.908-.755"/><path d="M31.903 48.264c-1.652 1.075-4.209 1.52-6.446 1.566-2.181-.03-4.673-.44-6.336-1.447-.757.228-1.856.527-2.994.73.994.956 2.397 1.692 4.19 2.192 1.837.514 3.657.656 4.848.686V52l.304-.003.306.002v-.01c1.189-.04 3.01-.193 4.84-.718 1.806-.52 3.21-1.274 4.196-2.252a26 26 0 0 1-2.908-.755M46.64 14.438c-2.582-1.88-5.7-2.975-9.287-3.26l-.308-.023c-.168-.01-.502.002-.502.002l-6.303.021a48 48 0 0 0 1.94-1.213s.1-.026.387-.257c.292-.198.8-.667.8-.667l.456-.39c2.417-2.091 1.698-5.012-2.8-4.997l-2.767.01.013 2.162 2.805-.01c1.517-.006 1.044 1.013-.018 2.052-1.396.962-2.902 1.854-4.513 2.742a97 97 0 0 0 5.24 2.728l5.102-.019c3.06.217 5.712 1.126 7.9 2.72 2.007 1.429 3.263 4.323 3.052 7.038a7.9 7.9 0 0 1-.756 2.812c-.487 1.044-1.389 2.45-2.995 3.462l-.05.026q-.578.414-1.272.8c-7.213 3.989-7.764 9.075-8.06 11.806q-.038.354-.075.664a9 9 0 0 0-.044.377c-.04.349-.089.758-.176 1.203.685.272 1.639.529 2.695.452.117-.559.175-1.059.22-1.464.015-.125.026-.242.042-.349q.041-.326.079-.698c.294-2.703.736-6.779 6.836-10.18a.7.7 0 0 1 .148-.114c3.341-1.884 4.62-4.18 4.634-4.203a.7.7 0 0 1 .09-.121 9.6 9.6 0 0 0 1.43-4.341c.264-3.382-1.327-6.911-3.943-8.77"/><path d="M46.64 14.438c-2.582-1.88-5.7-2.975-9.287-3.26l-.308-.023c-.168-.01-.502.002-.502.002l-6.303.021a48 48 0 0 0 1.94-1.213s.1-.026.387-.257c.292-.198.8-.667.8-.667l.456-.39c2.417-2.091 1.698-5.012-2.8-4.997l-2.767.01.013 2.162 2.805-.01c1.517-.006 1.044 1.013-.018 2.052-1.396.962-2.902 1.854-4.513 2.742a97 97 0 0 0 5.24 2.728l5.102-.019c3.06.217 5.712 1.126 7.9 2.72 2.007 1.429 3.263 4.323 3.052 7.038a7.9 7.9 0 0 1-.756 2.812c-.487 1.044-1.389 2.45-2.995 3.462l-.05.026q-.578.414-1.272.8c-7.213 3.989-7.764 9.075-8.06 11.806q-.038.354-.075.664a9 9 0 0 0-.044.377c-.04.349-.089.758-.176 1.203.685.272 1.639.529 2.695.452.117-.559.175-1.059.22-1.464.015-.125.026-.242.042-.349q.041-.326.079-.698c.294-2.703.736-6.779 6.836-10.18a.7.7 0 0 1 .148-.114c3.341-1.884 4.62-4.18 4.634-4.203a.7.7 0 0 1 .09-.121 9.6 9.6 0 0 0 1.43-4.341c.264-3.382-1.327-6.911-3.943-8.77M16.457 44.343a14 14 0 0 1-.2-1.255 17 17 0 0 0-.048-.377q-.044-.31-.084-.665c-.326-2.729-.935-7.81-8.19-11.749a13 13 0 0 1-1.33-.826 11 11 0 0 0-.858 2.25q.306.185.626.36c6.2 3.366 6.688 7.461 7.014 10.17q.043.37.086.698.023.16.045.348c.051.402.112.897.233 1.45 1.05.098 2.003-.136 2.705-.404"/><path d="M16.457 44.343a14 14 0 0 1-.2-1.255 17 17 0 0 0-.048-.377q-.044-.31-.084-.665c-.326-2.729-.935-7.81-8.19-11.749a13 13 0 0 1-1.33-.826 11 11 0 0 0-.858 2.25q.306.185.626.36c6.2 3.366 6.688 7.461 7.014 10.17q.043.37.086.698.023.16.045.348c.051.402.112.897.233 1.45 1.05.098 2.003-.136 2.705-.404"/></g></g><defs><clipPath id="a"><path fill="#fff" d="M0 0h205v52H0z"/></clipPath></defs></svg>