<?xml version="1.0" encoding="UTF-8"?>
<svg id="Layer_1" data-name="Layer 1" xmlns="http://www.w3.org/2000/svg" viewBox="0 0 211.64 72.34">
  <defs>
    <style>
      .cls-1 {
        fill: #00539f;
      }

      .cls-2 {
        fill: #00a0e0;
      }
    </style>
  </defs>
  <path class="cls-1" d="M22.41,18.56c-6.52,8.09-13.04,16.84-19.36,25.1-.36,.48-.56,1.1-.84,1.63-1,2.77-.24,6.07,1.72,7.91,3.64,.09,7.16,.18,10.96,0-.04-.35-.32-.57-.48-.88-1.32-2.15-1.32-5.32-.08-7.47,6.4-8.71,13-17.19,19.72-25.89,.08-.09,.2-.31,0-.4-1.68,.04-3.36,0-5.04-.04-1.28,0-2.52-.04-3.72-.04-.96,0-1.92,0-2.88,.09"/>
  <path class="cls-2" d="M29.49,26.26l-.04,.44,8.6,11.52c1.68,2.37,3.6,4.53,5.08,7.03,1.08,2.51,.68,5.85-.92,8l.04,.18h10.68c.68-.13,1.04-.92,1.52-1.49,1.16-2.29,1.24-5.45-.04-7.65-6.24-8.44-12.6-17.01-18.92-25.37l-.28-.04-5.72,7.39Z"/>
  <path class="cls-1" d="M25.49,34.96c-1.64,4.22,1.6,7.34,3.08,10.77,.92-2.2,2.84-4.09,3.4-6.55,1.16-3.74-1.6-6.73-3.28-9.63-1.12,1.76-2.4,3.52-3.2,5.41"/>
  <path class="cls-2" d="M139.08,30.43c-1.4,.88-2.72,2.42-4.08,3.47-1.96,2.33-5.52,0-7.4,2.51-.36,.22-.68,1.27-1.2,.88,0-.92,.2-2.11-.76-2.51-1.36-.22-2.88-.04-4.2,.13-.6,.09-1.2,.22-1.6,.7-.64,1.23,.96,1.54,1.08,2.64,.32,4.05,.32,7.96-.12,11.78-.2,.83-1.24,1.36-.92,2.37,.08,.48,.56,.57,.92,.75,1.52,.04,3.04,.22,4.64,.13,.8-.04,1.76,0,2.2-.83,.52-1.01-.52-1.63-.8-2.51-.4-2.64,0-5.85-.04-8.7l.24-.62c.92-1.89,3.04-1.63,4.72-1.67,.6,.18,1.48-.09,1.88,.66,.32,1.8,.12,3.91,.04,5.58,.08,2.42-.76,5.06,.6,7.08,1.92,1.54,4.52,1.01,6.76,.75,2.04-1.67-1.2-2.42-1.44-3.87-.24-3.43-.16-6.38,.04-9.89,.72-1.06,2.04-.26,2.84-1.14,.4-.7,.28-1.58,.28-2.46-.2-.75-.8-.75-1.44-.75-.48,0-.96,0-1.28-.31-.32-1.23,.24-2.46-.12-3.65-.08-.4-.44-.62-.84-.62,.04,.09,0,.09,0,.09m-73.19,10.51c.08-2.15,.88-4.09,1.52-6.02,.12-.4,.52-.79,.96-.88,1.32,.13,1.2,1.8,1.48,2.86,.12,1.32,.72,2.59,.64,3.91-.4,.57-1.24,.44-1.8,.53-1.04-.04-1.92-.04-2.8-.4m14.32-10.9c-2.32,1.14,.68,2.51,.36,4.13,.36,4.44,.32,9.63,.16,13.89-.12,.92-.04,1.98-.6,2.73-.24,.18-.52,.35-.84,.22-.56-.26-.76-1.01-1-1.58-1.68-6.55-3.04-13.23-4.76-19.74-.2-.48-.56-1.01-1-1.23l-2-.31c-.48,0-1-.04-1.56-.09-1.32-.09-2.68-.18-3.8,.4-.36,.31-.36,.79-.32,1.32,.92,1.1,.08,2.59-.16,3.78-1.52,4.18-2.76,8.4-4.32,12.53-.56,2.07-1.52,3.91-1.84,6.02,.32,1.63,2.12,1.23,3.36,1.41,.72-.09,1.6,.04,2-.75,.48-1.27-1.36-1.85-.64-3.3,.56-2.15,1.08-4.27,1.8-6.37l.32-.04,1.52,1.54c.76,.44,1.68,.4,2.6,.4,.68,0,1.36,0,1.96,.13,.56,.97,.56,2.33,.88,3.47,.96,1.63-.96,2.64-.44,4.18,.4,.66,1.24,.66,1.96,.79l9.24-.09c1.48-.04,3.12,.09,4.36-.53,1.08-1.49-1.12-2.2-.92-3.65-.28-6.33,.04-13.36,.24-20.13l-.12-.7c-.2-.62-.8-.62-1.24-.66-1.92,.57-3.56,1.54-5.2,2.24"/>
  <path class="cls-2" d="M144.64,35.36c-2.16,1.23-1.92,4-1.84,6.29,.2,2.42,2.28,3.69,4.16,4.35,1.44,.79,3.56,1.01,4.12,2.9,0,.53-.08,1.06-.48,1.41-1.52,.66-3.36,.26-4.64-.66-1.32-.57-1.12-2.9-2.84-2.68-1.2,.75-.64,2.9-.52,4.26,.08,2.33,2.48,1.85,3.88,2.37,2.72,.18,5.96,.48,8-1.58,1.2-1.36,1.48-3.61,1.36-5.45-.44-4.7-5.16-3.91-7.6-6.33-.4-.57-.76-1.28-.44-1.98,.52-1.01,1.64-.92,2.6-.97,.28,.4,.8,.22,1.08,.66,.72,1.01-.44,1.8-.48,2.86,.12,.48,.6,.66,1.04,.75,1.16,.26,1.84-.88,2.44-1.71,.6-1.14,1.28-2.81,.48-4.04l-.4-.31c-1.56-.79-3.36-1.19-5.12-1.19-1.66-.04-3.31,.32-4.8,1.06m48.91,.48c-1.64,1.89-1.04,5.06-.64,7.3,1.24,2.2,3.52,2.68,5.52,3.43,1,.48,2.48,.66,2.72,2.07-.08,.53-.16,1.1-.68,1.36-1.16,.62-2.68,.31-3.92-.04-1.28-.44-1.92-1.89-2.8-2.81-.28-.04-.56-.04-.84,0-1.12,.75-.4,2.37-.6,3.6l-.12,.13c-.42-.21-.79-.51-1.08-.88-1.32-3.87-2-8.09-3.12-12.13-.24-1.05-.6-2.07-1.24-2.99-.88-1.05-2.52-.7-3.6-.26-1.12,.48-2.12,1.36-3.28,1.76-.44-.26-.2-.88-.4-1.32-.8-1.01-2.24-.44-3.4-.4-1,.22-2.08,.22-2.84,1.1-.64,1.14,.84,1.85,.92,2.95,.28,3.39,.4,7.43,.16,11.04-.2,.83-1,1.41-.92,2.33,.16,1.06,1.2,1.06,1.96,1.23,.44-.04,.92,0,1.44,0,1.48,.04,3.08,.09,4.08-.97,.36-1.01-.56-1.54-.88-2.33-.44-2.77-.36-5.89-.32-8.62-.08-.66,.04-1.19,.36-1.63,.28-.35,.72-.35,1.12-.35h.12c.56,.26,.96,.75,1.16,1.32,1.04,3.6,1.72,7.56,2.64,11.3,.2,.66,.84,1.05,1.44,1.27,1.88,.13,3.72,.22,5.48-.4,.32-.13,.4-.62,.72-.62,1.56,1.36,3.68,1.32,5.68,1.28,.6,0,1.24-.04,1.8,0,1.36-.18,2.84-.18,3.92-1.1,1.92-1.32,2.24-3.74,2.08-6.11-.4-3.78-4.28-3.96-6.64-5.14-.8-.48-1.8-1.23-1.68-2.37,.12-.44,.12-.88,.48-1.19,.64-.57,1.64-.53,2.44-.31,.4,.26,.56,.7,.64,1.19,.16,.88-.72,1.41-.56,2.42,0,.26,.28,.44,.44,.57,1.04,.4,1.92-.17,2.68-.83,.92-1.14,1.28-2.86,1-4.44-.96-1.76-2.92-1.72-4.56-1.93-.4,0-.84-.04-1.28-.04-1.96-.13-4.08,.13-5.6,1.58m-29.96,14.24c-.96-1.19-1.16-2.73-1.28-4.35,0-2.46-.64-5.67,.48-8,.72-.62,2.08-.7,2.96-.22,1.28,1.67,1.12,4.13,1.4,6.2-.04,1.93,.56,4.22-.28,6.02-.16,.22-.44,.31-.52,.62v-.09c-.44,.09-.96,.22-1.48,.22-.48,.04-.92-.04-1.28-.4m-4.2-14.95c-2.36,1.58-2.56,4.66-2.76,7.52,0,3.87-.12,8.88,3.6,10.55,2.84,.97,6.32,.79,9.2-.04,1.68-.48,2.84-2.42,3.08-4.26,.2-3.82-.16-7.65-1.12-11.21-.4-1.32-1.44-2.46-2.68-2.86-1.48-.31-3.2-.57-4.88-.57-1.56,0-3.12,.22-4.44,.88m-64.39,15.12c-.84-1.36-.52-3.3-.6-4.97,.12-1.72-.16-3.56,.36-5.36,.28-.48,.76-.62,1.24-.7,1.48,.53,1.52,2.42,1.96,3.78,.28,2.07,.96,4.31,.36,6.38-.32,.62-.84,1.01-1.48,1.23-.17,.05-.34,.08-.52,.09-.44,0-.92-.18-1.32-.44m-1.28-21.81c-1.8,.83-3.52,1.76-5.2,3.03-1.36,1.32,.96,1.76,.72,3.08,.28,5.32,.28,10.42-.12,15.78-.28,.62-.64,1.23-.64,2.02,.16,.57,.64,.83,1.12,.97,2.76,.22,5.72,.26,8.56,.04,1.28-.31,2.64-.22,3.72-1.14,2.52-2.46,2-6.42,1.56-9.67-.72-2.55-1.08-5.41-3-7.43-1.96-1.45-3.8,.44-5.52,1.1l-.24-.26c.04-2.33,.36-4.92,.04-7.25-.21-.21-.5-.32-.8-.31-.08,.04-.12,.04-.2,.04"/>
  <path class="cls-1" d="M18.85,41.34h-1.32l-.12,.09c-.16,1.45-.04,2.99,.56,4.31,1.36,2.95,4.16,4.26,7.12,3.91,1.6,.26,3,1.54,3.36,3.25,.48-.92,1.04-2.29,2.12-2.77,2.04-.97,4.76-.04,6.48-1.67,2.16-1.49,3.24-4.35,2.68-7.03-.56,0-1.16,0-1.72-.04-2.08-.04-4.24-.13-5.84,1.14-1.8,1.14-2.96,3.08-3.6,5.14-.6-1.8-1.6-3.69-3.08-4.79-1.52-1.32-3.48-1.5-5.48-1.5-.36-.04-.76-.04-1.16-.04"/>
  <path class="cls-2" d="M111.68,50.52c-.88-.84-1.32-2.04-1.2-3.25,1.2-.84,2.68-.97,4.04-1.41,.52-.09,1.24,.04,1.36,.75,.16,1.58-.36,3.21-1.6,4.04-.44,.13-.92,.26-1.36,.26-.44-.04-.84-.13-1.24-.4m-1.36-9.36c.16-1.36,.04-3.12,1.32-3.78,.6-.18,1.36-.18,1.84,.31,.76,1.36,1,3.25,.6,4.97-.64,1.1-2.04,1.14-3.16,1.23-.92-.57-.52-1.8-.6-2.73m-4.16-4c-1.48,4.13-1.52,9.63-.32,13.8,.44,1.19,1.6,1.72,2.56,2.15,2.6,.62,5.4,.88,7.8-.35,1.72-1.01,2.84-3.03,2.72-5.14-.04-1.36-1.28-1.67-2.08-2.33v-.18c.72-.44,1.68-.53,2.04-1.49,.52-2.37-.04-4.75-1.04-6.77-.6-.92-1.28-1.67-2.24-1.98-1.24-.22-2.68-.48-4.12-.48-2.12,.04-4.2,.62-5.32,2.77m101.07-4.13h.68c.28,0,.64,.04,.64,.44,0,.48-.44,.48-.76,.48h-.52l-.04-.92Zm.76-.26h-1.04v2.64h.28v-1.23h.52l.68,1.23h.36l-.72-1.23c.44,0,.76-.22,.76-.75,0-.22-.08-.44-.28-.57-.16-.08-.34-.13-.52-.13t-.04,.04m-2.12,1.36c0-1.14,.84-2.07,1.88-2.11,1.04,0,1.92,.92,1.92,2.07s-.84,2.11-1.88,2.11-1.92-.92-1.92-2.07m1.88-2.42c-1.2,0-2.16,1.1-2.16,2.37s1,2.37,2.16,2.37,2.16-1.1,2.12-2.37c.04-1.32-.92-2.37-2.12-2.37"/>
</svg>