<?xml version="1.0" encoding="UTF-8"?>
<svg width="842px" height="842px" viewBox="0 0 842 842" version="1.1" xmlns="http://www.w3.org/2000/svg" xmlns:xlink="http://www.w3.org/1999/xlink">
    <title>circle-cta</title>
    <defs>
        <path d="M421,0 C653.51188,0 842,188.48812 842,421 C842,653.51188 653.51188,842 421,842 C188.48812,842 0,653.51188 0,421 C0,188.48812 188.48812,0 421,0 Z M420,155 C272.539972,155 153,274.539972 153,422 C153,569.460028 272.539972,689 420,689 C567.460028,689 687,569.460028 687,422 C687,274.539972 567.460028,155 420,155 Z" id="path-1"></path>
    </defs>
    <g id="Homepage" stroke="none" stroke-width="1" fill="none" fill-rule="evenodd" opacity="0.399981831">
        <g id="circle-cta">
            <mask id="mask-2" fill="white">
                <use xlink:href="#path-1"></use>
            </mask>
            <g id="Combined-Shape"></g>
            <g id="Group-17" opacity="0.628134084" mask="url(#mask-2)" stroke="#7662EE" stroke-linecap="square" stroke-width="3">
                <g transform="translate(304.500000, 420.500000) rotate(-11.000000) translate(-304.500000, -420.500000) translate(-685.000000, -26.000000)">
                    <line x1="998.487889" y1="0.772491349" x2="1561.51211" y2="892.227509" id="Line-3-Copy-48"></line>
                    <line x1="250.487889" y1="0.772491349" x2="813.512111" y2="892.227509" id="Line-3-Copy-12"></line>
                    <line x1="1248.48789" y1="0.772491349" x2="1811.51211" y2="892.227509" id="Line-3-Copy-49"></line>
                    <line x1="500.487889" y1="0.772491349" x2="1063.51211" y2="892.227509" id="Line-3-Copy-24"></line>
                    <line x1="750.487889" y1="0.772491349" x2="1313.51211" y2="892.227509" id="Line-3-Copy-36"></line>
                    <line x1="126.487889" y1="0.772491349" x2="689.512111" y2="892.227509" id="Line-3-Copy-6"></line>
                    <line x1="1124.48789" y1="0.772491349" x2="1687.51211" y2="892.227509" id="Line-3-Copy-52"></line>
                    <line x1="376.487889" y1="0.772491349" x2="939.512111" y2="892.227509" id="Line-3-Copy-13"></line>
                    <line x1="1374.48789" y1="0.772491349" x2="1937.51211" y2="892.227509" id="Line-3-Copy-53"></line>
                    <line x1="624.487889" y1="0.772491349" x2="1187.51211" y2="892.227509" id="Line-3-Copy-25"></line>
                    <line x1="874.487889" y1="0.772491349" x2="1437.51211" y2="892.227509" id="Line-3-Copy-37"></line>
                    <line x1="63.4878893" y1="0.772491349" x2="626.512111" y2="892.227509" id="Line-3-Copy-3"></line>
                    <line x1="1062.48789" y1="0.772491349" x2="1625.51211" y2="892.227509" id="Line-3-Copy-56"></line>
                    <line x1="312.487889" y1="0.772491349" x2="875.512111" y2="892.227509" id="Line-3-Copy-14"></line>
                    <line x1="1310.48789" y1="0.772491349" x2="1873.51211" y2="892.227509" id="Line-3-Copy-57"></line>
                    <line x1="562.487889" y1="0.772491349" x2="1125.51211" y2="892.227509" id="Line-3-Copy-26"></line>
                    <line x1="812.487889" y1="0.772491349" x2="1375.51211" y2="892.227509" id="Line-3-Copy-38"></line>
                    <line x1="188.487889" y1="0.772491349" x2="751.512111" y2="892.227509" id="Line-3-Copy-7"></line>
                    <line x1="1186.48789" y1="0.772491349" x2="1749.51211" y2="892.227509" id="Line-3-Copy-60"></line>
                    <line x1="438.487889" y1="0.772491349" x2="1001.51211" y2="892.227509" id="Line-3-Copy-15"></line>
                    <line x1="688.487889" y1="0.772491349" x2="1251.51211" y2="892.227509" id="Line-3-Copy-27"></line>
                    <line x1="936.487889" y1="0.772491349" x2="1499.51211" y2="892.227509" id="Line-3-Copy-39"></line>
                    <line x1="1020.48789" y1="0.772491349" x2="1583.51211" y2="892.227509" id="Line-3-Copy-64"></line>
                    <line x1="271.487889" y1="0.772491349" x2="834.512111" y2="892.227509" id="Line-3-Copy-16"></line>
                    <line x1="1269.48789" y1="0.772491349" x2="1832.51211" y2="892.227509" id="Line-3-Copy-65"></line>
                    <line x1="521.487889" y1="0.772491349" x2="1084.51211" y2="892.227509" id="Line-3-Copy-28"></line>
                    <line x1="770.487889" y1="0.772491349" x2="1333.51211" y2="892.227509" id="Line-3-Copy-40"></line>
                    <line x1="147.487889" y1="0.772491349" x2="710.512111" y2="892.227509" id="Line-3-Copy-8"></line>
                    <line x1="1145.48789" y1="0.772491349" x2="1708.51211" y2="892.227509" id="Line-3-Copy-68"></line>
                    <line x1="395.487889" y1="0.772491349" x2="958.512111" y2="892.227509" id="Line-3-Copy-17"></line>
                    <line x1="1394.48789" y1="0.772491349" x2="1957.51211" y2="892.227509" id="Line-3-Copy-69"></line>
                    <line x1="645.487889" y1="0.772491349" x2="1208.51211" y2="892.227509" id="Line-3-Copy-29"></line>
                    <line x1="895.487889" y1="0.772491349" x2="1458.51211" y2="892.227509" id="Line-3-Copy-41"></line>
                    <line x1="83.4878893" y1="0.772491349" x2="646.512111" y2="892.227509" id="Line-3-Copy-4"></line>
                    <line x1="1082.48789" y1="0.772491349" x2="1645.51211" y2="892.227509" id="Line-3-Copy-72"></line>
                    <line x1="333.487889" y1="0.772491349" x2="896.512111" y2="892.227509" id="Line-3-Copy-18"></line>
                    <line x1="1332.48789" y1="0.772491349" x2="1895.51211" y2="892.227509" id="Line-3-Copy-73"></line>
                    <line x1="583.487889" y1="0.772491349" x2="1146.51211" y2="892.227509" id="Line-3-Copy-30"></line>
                    <line x1="833.487889" y1="0.772491349" x2="1396.51211" y2="892.227509" id="Line-3-Copy-42"></line>
                    <line x1="209.487889" y1="0.772491349" x2="772.512111" y2="892.227509" id="Line-3-Copy-9"></line>
                    <line x1="1207.48789" y1="0.772491349" x2="1770.51211" y2="892.227509" id="Line-3-Copy-76"></line>
                    <line x1="458.487889" y1="0.772491349" x2="1021.51211" y2="892.227509" id="Line-3-Copy-19"></line>
                    <line x1="707.487889" y1="0.772491349" x2="1270.51211" y2="892.227509" id="Line-3-Copy-31"></line>
                    <line x1="957.487889" y1="0.772491349" x2="1520.51211" y2="892.227509" id="Line-3-Copy-43"></line>
                    <line x1="42.4878893" y1="0.772491349" x2="605.512111" y2="892.227509" id="Line-3-Copy-2"></line>
                    <line x1="1041.48789" y1="0.772491349" x2="1604.51211" y2="892.227509" id="Line-3-Copy-80"></line>
                    <line x1="292.487889" y1="0.772491349" x2="855.512111" y2="892.227509" id="Line-3-Copy-20"></line>
                    <line x1="1291.48789" y1="0.772491349" x2="1854.51211" y2="892.227509" id="Line-3-Copy-81"></line>
                    <line x1="541.487889" y1="0.772491349" x2="1104.51211" y2="892.227509" id="Line-3-Copy-32"></line>
                    <line x1="791.487889" y1="0.772491349" x2="1354.51211" y2="892.227509" id="Line-3-Copy-44"></line>
                    <line x1="167.487889" y1="0.772491349" x2="730.512111" y2="892.227509" id="Line-3-Copy-10"></line>
                    <line x1="1165.48789" y1="0.772491349" x2="1728.51211" y2="892.227509" id="Line-3-Copy-84"></line>
                    <line x1="417.487889" y1="0.772491349" x2="980.512111" y2="892.227509" id="Line-3-Copy-21"></line>
                    <line x1="1415.48789" y1="0.772491349" x2="1978.51211" y2="892.227509" id="Line-3-Copy-85"></line>
                    <line x1="666.487889" y1="0.772491349" x2="1229.51211" y2="892.227509" id="Line-3-Copy-33"></line>
                    <line x1="916.487889" y1="0.772491349" x2="1479.51211" y2="892.227509" id="Line-3-Copy-45"></line>
                    <line x1="105.487889" y1="0.772491349" x2="668.512111" y2="892.227509" id="Line-3-Copy-5"></line>
                    <line x1="1103.48789" y1="0.772491349" x2="1666.51211" y2="892.227509" id="Line-3-Copy-88"></line>
                    <line x1="354.487889" y1="0.772491349" x2="917.512111" y2="892.227509" id="Line-3-Copy-22"></line>
                    <line x1="1353.48789" y1="0.772491349" x2="1916.51211" y2="892.227509" id="Line-3-Copy-89"></line>
                    <line x1="604.487889" y1="0.772491349" x2="1167.51211" y2="892.227509" id="Line-3-Copy-34"></line>
                    <line x1="853.487889" y1="0.772491349" x2="1416.51211" y2="892.227509" id="Line-3-Copy-46"></line>
                    <line x1="229.487889" y1="0.772491349" x2="792.512111" y2="892.227509" id="Line-3-Copy-11"></line>
                    <line x1="1227.48789" y1="0.772491349" x2="1790.51211" y2="892.227509" id="Line-3-Copy-92"></line>
                    <line x1="479.487889" y1="0.772491349" x2="1042.51211" y2="892.227509" id="Line-3-Copy-23"></line>
                    <line x1="729.487889" y1="0.772491349" x2="1292.51211" y2="892.227509" id="Line-3-Copy-35"></line>
                    <line x1="978.487889" y1="0.772491349" x2="1541.51211" y2="892.227509" id="Line-3-Copy-47"></line>
                </g>
            </g>
        </g>
    </g>
</svg>