<svg width="842" height="842" viewBox="0 0 842 842" fill="none" xmlns="http://www.w3.org/2000/svg">
<mask id="mask0_615_2002" style="mask-type:luminance" maskUnits="userSpaceOnUse" x="0" y="0" width="842" height="842">
<g opacity="0.399982">
<path d="M421 0.5C653.236 0.5 841.5 188.764 841.5 421C841.5 653.236 653.236 841.5 421 841.5C188.764 841.5 0.5 653.236 0.5 421C0.5 188.764 188.764 0.5 421 0.5ZM420 154.5C272.264 154.5 152.5 274.264 152.5 422C152.5 569.736 272.264 689.5 420 689.5C567.736 689.5 687.5 569.736 687.5 422C687.5 274.264 567.736 154.5 420 154.5Z" fill="white" stroke="#2CF5D0"/>
</g>
</mask>
<g mask="url(#mask0_615_2002)">
<g opacity="0.628134">
<path d="M228.274 -18.7534L951.051 748.893" stroke="#2CF5D0" stroke-width="3" stroke-linecap="square"/>
<path d="M-505.983 123.972L216.794 891.618" stroke="#2CF5D0" stroke-width="3" stroke-linecap="square"/>
<path d="M473.681 -66.4556L1196.46 701.191" stroke="#2CF5D0" stroke-width="3" stroke-linecap="square"/>
<path d="M-260.576 76.2695L462.201 843.916" stroke="#2CF5D0" stroke-width="3" stroke-linecap="square"/>
<path d="M-15.1697 28.5674L707.608 796.214" stroke="#2CF5D0" stroke-width="3" stroke-linecap="square"/>
<path d="M-627.705 147.632L95.0725 915.279" stroke="#2CF5D0" stroke-width="3" stroke-linecap="square"/>
<path d="M351.959 -42.7954L1074.74 724.851" stroke="#2CF5D0" stroke-width="3" stroke-linecap="square"/>
<path d="M-382.298 99.9302L340.479 867.577" stroke="#2CF5D0" stroke-width="3" stroke-linecap="square"/>
<path d="M597.366 -90.4976L1320.14 677.149" stroke="#2CF5D0" stroke-width="3" stroke-linecap="square"/>
<path d="M-138.854 52.6094L583.923 820.256" stroke="#2CF5D0" stroke-width="3" stroke-linecap="square"/>
<path d="M106.552 4.90723L829.33 772.554" stroke="#2CF5D0" stroke-width="3" stroke-linecap="square"/>
<path d="M-689.547 159.653L33.23 927.3" stroke="#2CF5D0" stroke-width="3" stroke-linecap="square"/>
<path d="M291.098 -30.9648L1013.88 736.682" stroke="#2CF5D0" stroke-width="3" stroke-linecap="square"/>
<path d="M-445.122 112.142L277.655 879.788" stroke="#2CF5D0" stroke-width="3" stroke-linecap="square"/>
<path d="M534.542 -78.2856L1257.32 689.361" stroke="#2CF5D0" stroke-width="3" stroke-linecap="square"/>
<path d="M-199.716 64.4395L523.062 832.086" stroke="#2CF5D0" stroke-width="3" stroke-linecap="square"/>
<path d="M45.6914 16.7373L768.469 784.384" stroke="#2CF5D0" stroke-width="3" stroke-linecap="square"/>
<path d="M-566.844 135.802L155.933 903.449" stroke="#2CF5D0" stroke-width="3" stroke-linecap="square"/>
<path d="M412.82 -54.6255L1135.6 713.021" stroke="#2CF5D0" stroke-width="3" stroke-linecap="square"/>
<path d="M-321.437 88.0996L401.34 855.746" stroke="#2CF5D0" stroke-width="3" stroke-linecap="square"/>
<path d="M-76.0305 40.3975L646.747 808.044" stroke="#2CF5D0" stroke-width="3" stroke-linecap="square"/>
<path d="M167.413 -6.92285L890.191 760.724" stroke="#2CF5D0" stroke-width="3" stroke-linecap="square"/>
<path d="M249.87 -22.9512L972.647 744.695" stroke="#2CF5D0" stroke-width="3" stroke-linecap="square"/>
<path d="M-485.369 119.965L237.408 887.611" stroke="#2CF5D0" stroke-width="3" stroke-linecap="square"/>
<path d="M494.295 -70.4624L1217.07 697.184" stroke="#2CF5D0" stroke-width="3" stroke-linecap="square"/>
<path d="M-239.962 72.2627L482.815 839.909" stroke="#2CF5D0" stroke-width="3" stroke-linecap="square"/>
<path d="M4.46289 24.751L727.24 792.397" stroke="#2CF5D0" stroke-width="3" stroke-linecap="square"/>
<path d="M-607.091 143.625L115.687 911.271" stroke="#2CF5D0" stroke-width="3" stroke-linecap="square"/>
<path d="M372.573 -46.8022L1095.35 720.844" stroke="#2CF5D0" stroke-width="3" stroke-linecap="square"/>
<path d="M-363.647 96.3047L359.13 863.951" stroke="#2CF5D0" stroke-width="3" stroke-linecap="square"/>
<path d="M616.998 -94.3135L1339.78 673.333" stroke="#2CF5D0" stroke-width="3" stroke-linecap="square"/>
<path d="M-118.24 48.6025L604.537 816.249" stroke="#2CF5D0" stroke-width="3" stroke-linecap="square"/>
<path d="M127.166 0.899902L849.944 768.546" stroke="#2CF5D0" stroke-width="3" stroke-linecap="square"/>
<path d="M-669.915 155.837L52.8626 923.483" stroke="#2CF5D0" stroke-width="3" stroke-linecap="square"/>
<path d="M310.731 -34.7812L1033.51 732.865" stroke="#2CF5D0" stroke-width="3" stroke-linecap="square"/>
<path d="M-424.508 108.135L298.269 875.781" stroke="#2CF5D0" stroke-width="3" stroke-linecap="square"/>
<path d="M556.137 -82.4834L1278.91 685.163" stroke="#2CF5D0" stroke-width="3" stroke-linecap="square"/>
<path d="M-179.101 60.4326L543.676 828.079" stroke="#2CF5D0" stroke-width="3" stroke-linecap="square"/>
<path d="M66.3054 12.7305L789.083 780.377" stroke="#2CF5D0" stroke-width="3" stroke-linecap="square"/>
<path d="M-546.23 131.795L176.548 899.441" stroke="#2CF5D0" stroke-width="3" stroke-linecap="square"/>
<path d="M433.434 -58.6323L1156.21 709.014" stroke="#2CF5D0" stroke-width="3" stroke-linecap="square"/>
<path d="M-301.805 84.2837L420.973 851.93" stroke="#2CF5D0" stroke-width="3" stroke-linecap="square"/>
<path d="M-57.3796 36.772L665.398 804.418" stroke="#2CF5D0" stroke-width="3" stroke-linecap="square"/>
<path d="M188.027 -10.9302L910.805 756.716" stroke="#2CF5D0" stroke-width="3" stroke-linecap="square"/>
<path d="M-710.162 163.66L12.6158 931.307" stroke="#2CF5D0" stroke-width="3" stroke-linecap="square"/>
<path d="M270.484 -26.958L993.261 740.688" stroke="#2CF5D0" stroke-width="3" stroke-linecap="square"/>
<path d="M-464.755 115.958L258.023 883.604" stroke="#2CF5D0" stroke-width="3" stroke-linecap="square"/>
<path d="M515.891 -74.6602L1238.67 692.986" stroke="#2CF5D0" stroke-width="3" stroke-linecap="square"/>
<path d="M-220.33 68.4463L502.448 836.093" stroke="#2CF5D0" stroke-width="3" stroke-linecap="square"/>
<path d="M25.0771 20.7441L747.855 788.391" stroke="#2CF5D0" stroke-width="3" stroke-linecap="square"/>
<path d="M-587.458 139.809L135.319 907.456" stroke="#2CF5D0" stroke-width="3" stroke-linecap="square"/>
<path d="M392.206 -50.6182L1114.98 717.028" stroke="#2CF5D0" stroke-width="3" stroke-linecap="square"/>
<path d="M-342.051 92.1069L380.726 859.753" stroke="#2CF5D0" stroke-width="3" stroke-linecap="square"/>
<path d="M637.613 -98.3208L1360.39 669.326" stroke="#2CF5D0" stroke-width="3" stroke-linecap="square"/>
<path d="M-97.6262 44.5952L625.151 812.242" stroke="#2CF5D0" stroke-width="3" stroke-linecap="square"/>
<path d="M147.781 -3.10693L870.558 764.54" stroke="#2CF5D0" stroke-width="3" stroke-linecap="square"/>
<path d="M-648.319 151.639L74.4584 919.286" stroke="#2CF5D0" stroke-width="3" stroke-linecap="square"/>
<path d="M331.345 -38.7881L1054.12 728.858" stroke="#2CF5D0" stroke-width="3" stroke-linecap="square"/>
<path d="M-403.894 104.128L318.884 871.774" stroke="#2CF5D0" stroke-width="3" stroke-linecap="square"/>
<path d="M576.752 -86.4902L1299.53 681.156" stroke="#2CF5D0" stroke-width="3" stroke-linecap="square"/>
<path d="M-158.487 56.4253L564.29 824.072" stroke="#2CF5D0" stroke-width="3" stroke-linecap="square"/>
<path d="M85.938 8.91406L808.715 776.561" stroke="#2CF5D0" stroke-width="3" stroke-linecap="square"/>
<path d="M-526.597 127.979L196.18 895.625" stroke="#2CF5D0" stroke-width="3" stroke-linecap="square"/>
<path d="M453.067 -62.4487L1175.84 705.198" stroke="#2CF5D0" stroke-width="3" stroke-linecap="square"/>
<path d="M-281.19 80.2769L441.587 847.923" stroke="#2CF5D0" stroke-width="3" stroke-linecap="square"/>
<path d="M-35.7837 32.5742L686.994 800.221" stroke="#2CF5D0" stroke-width="3" stroke-linecap="square"/>
<path d="M208.641 -14.937L931.419 752.709" stroke="#2CF5D0" stroke-width="3" stroke-linecap="square"/>
</g>
</g>
</svg>
