<?xml version="1.0" encoding="UTF-8"?>
<svg id="Layer_1" data-name="Layer 1" xmlns="http://www.w3.org/2000/svg" viewBox="0 0 769.96 769.96">
  <defs>
    <style>
      .cls-1 {
        fill: #ffffff;
      }
    </style>
  </defs>
  <path class="cls-1" d="M384.98,769.96C172.71,769.96,0,597.27,0,384.98S172.71,0,384.98,0s384.98,172.69,384.98,384.98-172.71,384.98-384.98,384.98Zm0-705.8c-176.9,0-320.82,143.93-320.82,320.82s143.91,320.82,320.82,320.82,320.82-143.93,320.82-320.82S561.89,64.16,384.98,64.16Z"/>
  <path class="cls-1" d="M519.26,539.78c-8.21,0-16.42-3.13-22.68-9.4l-134.3-134.28c-6.02-6.02-9.4-14.16-9.4-22.68V194.59c0-17.73,14.36-32.08,32.08-32.08s32.08,14.35,32.08,32.08v165.55l124.9,124.88c12.53,12.53,12.53,32.83,0,45.37-6.27,6.27-14.47,9.4-22.68,9.4Z"/>
</svg>