<svg width="108" height="127" viewBox="0 0 108 127" fill="none" xmlns="http://www.w3.org/2000/svg">
<g clip-path="url(#clip0_389_1554)">
<path d="M105.575 95.9585L101.176 91.8858C102.281 88.5957 102.896 85.005 103.005 81.1994C103.188 74.7961 101.838 68.6916 99.2034 64.0106C98.1921 62.2139 97.3594 60.4137 96.7281 58.6595L96.3978 57.7417C95.2268 54.486 93.6118 51.4064 91.5982 48.5884L83.0041 36.5616C81.0064 33.7666 80.1488 30.3536 80.5883 26.9512L80.7534 25.6753C80.8839 24.6674 80.5723 23.6523 79.8984 22.8892C79.2246 22.1262 78.2533 21.6885 77.2332 21.6885C76.0568 21.6885 74.9248 21.8857 73.8701 22.2482V8.86585C73.8701 3.97712 69.8766 0 64.9687 0H27.7518C22.8438 0 18.8504 3.97712 18.8504 8.86585V26.0768L10.4533 22.3508C8.64124 21.547 6.6232 21.4931 4.77119 22.2013C2.91918 22.9087 1.45426 24.2925 0.647222 26.0971C-0.159815 27.9018 -0.213973 29.9115 0.497179 31.756C1.20744 33.6004 2.5969 35.0593 4.40896 35.8631L18.8513 42.2717V43.2284L16.1727 42.0401C12.7137 40.5051 8.64656 42.0586 7.10529 45.5035L6.64984 46.5221C5.10856 49.9669 6.66848 54.0174 10.1275 55.5524L17.7131 58.9185C18.0842 59.083 18.466 59.2121 18.8522 59.3085V60.3129L15.6364 58.8858C13.9611 58.1422 12.0949 58.0927 10.3823 58.747C8.66965 59.4013 7.31571 60.6807 6.56904 62.3492L6.11359 63.3678C5.36692 65.0363 5.3172 66.8949 5.9742 68.6005C6.63119 70.3061 7.91588 71.6545 9.59122 72.3981L15.3248 74.9428C16.2304 75.3443 17.1768 75.5344 18.1099 75.5344C18.3585 75.5344 18.6071 75.5211 18.8531 75.4937V77.6909L15.2778 76.1047C13.6024 75.3611 11.7362 75.3116 10.0236 75.9659C8.31096 76.6202 6.95614 77.8996 6.21036 79.5681C5.4637 81.2366 5.41398 83.0952 6.07097 84.8008C6.72796 86.5064 8.01265 87.8548 9.68799 88.5984L14.9129 90.9168C15.8069 91.3138 16.7551 91.5127 17.7051 91.5127C18.0886 91.5127 18.4722 91.4791 18.8522 91.4137V98.8109C18.8522 103.699 22.8456 107.676 27.7535 107.676H47.8904C51.4888 111.18 57.9096 113.338 64.8444 113.338C66.1575 113.338 67.467 113.261 68.7482 113.11L76.1562 123.745C77.4427 125.592 79.4705 126.767 81.7194 126.968C81.9484 126.989 82.1766 126.998 82.4039 126.998C84.4104 126.998 86.3352 126.21 87.769 124.782L105.778 106.847C107.25 105.381 108.039 103.433 108.002 101.36C107.964 99.2875 107.103 97.3688 105.578 95.9567L105.575 95.9585ZM81.9546 124.327C80.4942 124.197 79.1784 123.434 78.3421 122.234L70.4706 110.934C70.2193 110.573 69.8091 110.364 69.3768 110.364C69.3128 110.364 69.2489 110.368 69.185 110.378C67.7707 110.583 66.3093 110.687 64.8417 110.687C60.0119 110.687 55.5053 109.576 52.2718 107.678H70.665C73.1971 107.678 75.6289 106.746 77.5119 105.054C77.7783 104.815 77.9363 104.479 77.9505 104.122C77.9647 103.766 77.8342 103.418 77.5883 103.158C77.06 102.601 76.6019 101.972 76.2272 101.289C73.918 97.0823 72.6466 91.4623 72.6466 85.4666C72.6466 81.3117 73.2708 77.2603 74.4525 73.7483C76.3871 67.9984 77.2012 62.8426 76.8736 58.4243C76.6037 54.7902 75.2515 51.3268 72.9627 48.409C70.768 45.6105 69.5588 42.1135 69.5588 38.5625V31.985C69.5588 27.7718 73.0009 24.3437 77.2314 24.3437C77.5803 24.3437 77.7978 24.5312 77.8964 24.6435C77.9949 24.7558 78.1538 24.9945 78.1095 25.3385L77.9443 26.6144C77.4187 30.6817 78.4442 34.7614 80.8315 38.1019L89.4257 50.1287C91.2981 52.7486 92.7995 55.6116 93.8879 58.6382L94.2182 59.556C94.8992 61.4482 95.7941 63.3837 96.8773 65.3095C99.2797 69.5775 100.509 75.1948 100.34 81.1252C100.23 84.9705 99.5701 88.5657 98.3786 91.8125C98.1948 92.3138 98.3306 92.8762 98.7231 93.2396L103.761 97.9028C104.751 98.8197 105.31 100.066 105.334 101.411C105.359 102.757 104.846 104.023 103.89 104.975L85.8815 122.91C84.8445 123.942 83.4133 124.46 81.9529 124.329L81.9546 124.327ZM21.5139 98.8127V90.3624C22.5873 89.6524 23.4414 88.655 23.9785 87.4543C24.7252 85.7858 24.774 83.9272 24.1179 82.2216C23.6012 80.8794 22.6938 79.7591 21.5148 78.9801V74.636C22.7453 73.9402 23.7725 72.8623 24.3913 71.4794L24.8468 70.4609C26.3659 67.0655 24.8708 63.0822 21.5148 61.4995V59.4376C22.0057 59.3642 22.4923 59.2377 22.9664 59.0573C24.679 58.403 26.0329 57.1236 26.7796 55.4551L27.235 54.4365C27.9817 52.768 28.0314 50.9095 27.3744 49.2038C26.7174 47.4982 25.4328 46.1498 23.7574 45.4062L21.5139 44.4106V8.86585C21.5139 5.43959 24.3123 2.65259 27.7518 2.65259H64.9678C68.4072 2.65259 71.2057 5.43959 71.2057 8.86585V23.6258C68.5972 25.4958 66.8953 28.5463 66.8953 31.9841V38.5616C66.8953 42.7015 68.3043 46.7785 70.863 50.0403C72.8269 52.5435 73.9864 55.5099 74.2172 58.6188C74.5191 62.6843 73.7484 67.4908 71.9266 72.9048C70.6552 76.6847 69.9831 81.0279 69.9831 85.4657C69.9831 91.8991 71.3708 97.97 73.8905 102.561C74.1373 103.01 74.4116 103.441 74.7126 103.853C73.5087 104.614 72.1086 105.024 70.665 105.024H59.4704H27.7518C24.3123 105.024 21.5139 102.237 21.5139 98.8118V98.8127ZM8.64035 80.6486C9.09758 79.6273 9.92681 78.8439 10.9745 78.4434C11.4636 78.2568 11.9724 78.1631 12.4811 78.1631C13.0626 78.1631 13.6433 78.2851 14.1902 78.5274L19.415 80.8458C20.4405 81.3011 21.2271 82.127 21.6293 83.1703C22.0315 84.2146 22.0013 85.3516 21.5441 86.3738C21.0868 87.395 20.2576 88.1784 19.21 88.5789C18.1614 88.9795 17.0197 88.9494 15.9934 88.4941L10.7685 86.1757C9.74303 85.7203 8.95642 84.8945 8.55423 83.8511C8.15204 82.8069 8.18223 81.6698 8.63946 80.6486H8.64035ZM8.54358 64.4474L8.99903 63.4288C9.45626 62.4076 10.2855 61.6242 11.3331 61.2236C11.8223 61.0371 12.3319 60.9433 12.8398 60.9433C13.4213 60.9433 14.002 61.0654 14.5489 61.3076L20.2825 63.8524C22.3999 64.7923 23.3543 67.2715 22.4115 69.3804L21.956 70.399C21.0123 72.5078 18.5228 73.4583 16.4053 72.5193L10.6717 69.9745C9.64626 69.5192 8.85964 68.6942 8.45746 67.65C8.05527 66.6057 8.08546 65.4687 8.54269 64.4465L8.54358 64.4474ZM9.08071 47.6008L9.53617 46.5822C10.2322 45.0251 11.7717 44.0994 13.3822 44.0994C13.9531 44.0994 14.5329 44.2161 15.0869 44.4619L22.6725 47.828C23.6979 48.2834 24.4846 49.1084 24.8867 50.1526C25.2889 51.1968 25.2587 52.3339 24.8015 53.356L24.3461 54.3746C23.8888 55.3959 23.0596 56.1793 22.0119 56.5798C20.9634 56.9804 19.8217 56.9503 18.7953 56.4949L11.2097 53.1288C9.09225 52.1889 8.13784 49.7096 9.08071 47.6008ZM3.07987 27.1767C3.59748 26.0193 4.5368 25.1316 5.72472 24.678C6.27872 24.4666 6.85581 24.3605 7.43201 24.3605C8.09078 24.3605 8.74866 24.4985 9.36926 24.7735L18.8504 28.9805V39.368L5.49211 33.4404C4.32994 32.9249 3.43856 31.9894 2.9831 30.8063C2.52764 29.6233 2.56138 28.3341 3.07987 27.1767Z" fill="black"/>
<path d="M39.8378 8.93043H52.8818C53.6169 8.93043 54.2135 8.33624 54.2135 7.60413C54.2135 6.87201 53.6169 6.27783 52.8818 6.27783H39.8378C39.1027 6.27783 38.506 6.87201 38.506 7.60413C38.506 8.33624 39.1027 8.93043 39.8378 8.93043Z" fill="black"/>
<path d="M57.8181 8.93043C58.5533 8.93043 59.1499 8.33624 59.1499 7.60413C59.1499 6.87201 58.5533 6.27783 57.8181 6.27783H57.8172C57.0821 6.27783 56.4864 6.87201 56.4864 7.60413C56.4864 8.33624 57.083 8.93043 57.8181 8.93043Z" fill="black"/>
<path d="M35.7058 50.3348H45.1674V40.9119H35.7058V50.3348ZM38.3693 43.5645H42.5039V47.6822H38.3693V43.5645Z" fill="black"/>
<path d="M58.7077 40.9119H49.2461V50.3348H58.7077V40.9119ZM56.0442 47.6822H51.9096V43.5645H56.0442V47.6822Z" fill="black"/>
<path d="M35.7058 64.1902H45.1674V54.7673H35.7058V64.1902ZM38.3693 57.4199H42.5039V61.5376H38.3693V57.4199Z" fill="black"/>
<path d="M31.446 45.644V36.6897H40.4371V34.0371H28.7825V45.644H31.446Z" fill="black"/>
<path d="M53.6436 36.6907H62.6337V45.6441H65.2972V34.0381H53.6436V36.6907Z" fill="black"/>
<path d="M65.2981 71.0851V59.4783H62.6346V68.4325H53.6436V71.0851H65.2981Z" fill="black"/>
<path d="M31.446 59.479H28.7825V71.085H40.4371V68.4324H31.446V59.479Z" fill="black"/>
<path d="M52.1866 54.4915H48.9691V57.6958H52.1866V54.4915Z" fill="black"/>
<path d="M58.9847 61.2617H55.7672V64.4661H58.9847V61.2617Z" fill="black"/>
<path d="M58.9847 54.4915H55.7672V57.6958H58.9847V54.4915Z" fill="black"/>
<path d="M55.5861 57.876H52.3686V61.0803H55.5861V57.876Z" fill="black"/>
<path d="M52.1866 61.2617H48.9691V64.4661H52.1866V61.2617Z" fill="black"/>
</g>
<defs>
<clipPath id="clip0_389_1554">
<rect width="108" height="127" fill="white"/>
</clipPath>
</defs>
</svg>
