<?xml version="1.0" encoding="UTF-8"?>
<svg id="Layer_1" data-name="Layer 1" xmlns="http://www.w3.org/2000/svg" viewBox="0 0 360 360">
  <defs>
    <style>
      .cls-1 {
        fill: #fff;
      }
    </style>
  </defs>
  <path class="cls-1" d="M159.73,124.83c-5.97,0-11.94-.13-17.9,.03-11.86,.31-22.59,4.18-32.05,11.21-10.74,7.97-18.24,18.45-21.77,31.38-3.51,12.85-2.85,25.62,2.35,38.02,4.52,10.77,11.67,19.47,21.32,25.97,9.68,6.51,20.38,10.05,32.19,9.97,11.83-.08,23.67-.02,35.5-.02,4.46,0,6.68,2.22,6.73,6.73,.02,2.26-.01,4.52,0,6.78,.03,3.43-1.36,6.01-4.53,7.47-3.01,1.39-6.13,2.55-9.09,4.04-7.13,3.58-11.52,9.31-12.95,17.21-.8,4.43-2.52,5.86-6.99,5.86-5.66,0-11.32,.01-16.98,0-3.61-.01-5.64-1.71-6.26-5.27-1.66-9.63-7.48-15.72-16.33-19.24-3.17-1.26-6.27-2.8-9.54-3.74-6.96-2-13.48-.39-19.36,3.51-3.48,2.3-6.36,2.88-10.08-1.12-3.64-3.91-7.56-7.56-11.31-11.37-2.39-2.42-2.53-5.5-.61-8.2,4.69-6.56,6.43-13.78,3.51-21.42-2.2-5.77-3.92-11.82-8.31-16.6-3.74-4.07-8.09-6.85-13.53-7.78-4.26-.73-5.85-2.43-5.86-6.63,0-5.75-.01-11.51,0-17.26,0-3.65,1.67-5.73,5.2-6.31,9.83-1.61,15.98-7.53,19.42-16.54,1.89-4.95,4.6-9.68,4.4-15.24-.16-4.53-1.36-8.75-3.9-12.5-2.94-4.34-3.29-7.31,1.13-11.33,3.57-3.25,6.85-6.81,10.3-10.21,3.25-3.2,5.54-3.52,9.16-1.06,8.31,5.65,16.88,6.05,25.75,1.51,3.82-1.96,7.79-3.71,11.38-6.04,4.88-3.18,7.35-8.19,8.5-13.74,1-4.84,2.31-6.14,7.3-6.15,5.35,0,10.7,0,16.05,0,4.3,0,6.05,1.11,6.8,5.31,1.87,10.52,8.45,16.55,18.11,19.96,7.15,2.52,9.21,5.11,8.59,12.27-.21,2.5-.33,5.05-.98,7.45-.62,2.3-2.59,3.15-5,3.13-6.79-.06-13.58-.02-20.37-.02Z"/>
  <path class="cls-1" d="M184.87,161.83c10.7,0,21.4-.06,32.09,.04,2.46,.02,4.23-.79,5.92-2.51,6.34-6.45,12.79-12.79,19.18-19.2,2.41-2.42,5.28-3.63,8.7-3.62,10.39,.01,20.78-.02,31.17,.04,1.6,0,2.56-.35,3.36-1.91,3.92-7.61,10.14-11.13,18.84-11.17,10.27-.04,17.66,6.59,20.01,15.01,3.69,13.21-6.03,26.68-19.88,26.51-8.83-.11-15-3.68-19.19-11.26-.46-.84-1.77-1.71-2.7-1.72-8.84-.13-17.69-.2-26.53,.03-1.7,.04-3.73,1.07-5,2.28-6.53,6.26-12.87,12.71-19.26,19.11-2.92,2.93-6.25,4.48-10.55,4.46-23.35-.11-46.7-.05-70.05-.06-4.87,0-6.89-1.99-6.86-6.81,0-1.62-.13-3.33,.33-4.85,.96-3.2,3.18-4.36,7.71-4.37,10.9-.02,21.81,0,32.71,0Zm128.44-17.57c-.1-5.46-4.4-9.17-9.49-9.51-4.46-.29-9.64,5-9.64,9.51s5.18,9.8,9.64,9.51c5.08-.34,9.39-4.05,9.49-9.51Z"/>
  <path class="cls-1" d="M192.37,189.58c13.68,0,27.35-.03,41.03,.03,1.69,0,2.63-.41,3.46-2.05,5.69-11.19,21.16-14.42,31.17-6.57,6.61,5.19,9.32,12.03,7.96,20.02-1.63,9.56-7.66,15.78-17.26,17.4-9.03,1.52-17.62-2.51-21.71-10.5-.94-1.83-1.93-2.36-3.91-2.35-27.25,.07-54.5-.05-81.75,.14-4.32,.03-7.58-2.19-7.25-7.47,.04-.61,0-1.23,0-1.85,.05-4.7,2.15-6.79,6.92-6.8,13.78-.02,27.56,0,41.34,0Zm62.89,17.27c5.3,0,9.24-3.73,9.27-8.76,.03-5.75-3.76-9.74-9.25-9.74-5.36,0-9.25,3.95-9.27,9.42-.02,5.32,3.81,9.08,9.25,9.08Z"/>
  <path class="cls-1" d="M174.02,150.11c-8.03,0-16.05,0-24.08,0-3.63,0-5.74-2.1-5.83-5.77-.03-1.44-.07-2.88,0-4.31,.17-3.23,2.39-5.32,5.65-5.32,13.79,0,27.58-.04,41.36,.02,2.71,.01,4.89-.74,6.74-2.79,3.28-3.65,6.77-7.11,10.02-10.78,.55-.62,.79-2.08,.45-2.82-5.36-11.81,.82-26.43,14.69-29.5,10.96-2.43,22.47,4.62,24.94,15.98,2.17,10-3.58,21.85-14.15,24.4-3.12,.75-6.51,.4-9.76,.67-.94,.08-2.14,.24-2.72,.84-4.71,4.95-9.27,10.05-13.94,15.03-2.42,2.57-5.28,4.38-9,4.37-8.13,0-16.26,0-24.39,0Zm53.43-49.95c-5.4,0-9.19,3.74-9.23,9.12-.04,5.38,3.94,9.4,9.31,9.38,5.26-.02,9.21-3.94,9.22-9.15,0-5.64-3.69-9.35-9.29-9.35Z"/>
  <path class="cls-1" d="M206.26,244.74c-2.41-2.89-4.75-5.69-7.09-8.49-1.65-1.98-3.59-2.97-6.35-2.94-13.79,.13-27.58,.05-41.37,.07-2.75,0-5.37-.32-6.67-3.17-1.5-3.3-.93-9.54,1.19-11.22,1.1-.87,2.69-1.57,4.07-1.58,15.95-.11,31.9-.04,47.86-.08,5.9-.02,9.36,3.85,12.82,7.76,2.49,2.81,4.86,5.73,7.46,8.44,.62,.65,2.03,1.06,2.93,.86,10.92-2.39,22.37,5.61,24.36,16.54,2.34,12.81-6.68,23.23-17.4,24.86-9.53,1.45-19.26-3.51-22.82-13.22-2.2-6.02-1.71-11.89,1.02-17.82Zm18.44,19.46c5.33,.54,9.56-4.93,9.57-9.49,.01-4.62-4.54-8.84-9.42-9.04-5.97-.25-9.67,5.37-9.56,9.36,.13,4.33,3.79,9.47,9.41,9.17Z"/>
</svg>