<?xml version="1.0" encoding="UTF-8"?>
<svg id="Layer_1" data-name="Layer 1" xmlns="http://www.w3.org/2000/svg" viewBox="0 0 360 360">
  <defs>
    <style>
      .cls-1 {
        fill: #fff;
      }
    </style>
  </defs>
  <path class="cls-1" d="M177.9,264.16c-17.15-.12-37.13-1.64-56.99-4.77-.97-.15-1.94-.33-2.9-.51-8.62-1.66-11.85-5.42-10.48-13.9,3.34-20.72,13.23-37.25,32.09-47.62,1.9-1.04,3.83-2.04,5.79-2.93,6.27-2.85,12.15-3.91,19.11-.61,11.81,5.6,24.18,4.62,35.99-.73,4.11-1.86,7.82-2.08,11.91-.48,24.08,9.42,39.51,25.86,42.73,52.3,.09,.78,.14,1.57,.16,2.35,.26,8.17-1.58,10.28-9.85,11.64-21.4,3.52-42.93,5.26-67.56,5.28v-.02Z"/>
  <path class="cls-1" d="M215.07,183.93c1.41-1.59,2.45-3,3.71-4.14,6.81-6.13,14.6-10.57,23.31-13.47,2.59-.87,4.87-.71,7.38,.38,11.79,5.13,23.66,5.09,35.44-.06,2.71-1.19,5.19-1.19,7.95-.22,22.58,7.87,35.49,23.68,39.02,47.25,.15,.97,.27,1.95,.31,2.93,.28,6.24-1.86,8.62-8.01,9.12-8.61,.69-17.21,1.48-25.81,2.19-10.56,.87-21.16,1.43-31.68,2.68-5.03,.6-6.48-.73-8.3-5.2-6.39-15.69-17.19-27.53-32.12-35.54-2.42-1.3-5.03-2.23-7.49-3.45-1.18-.58-2.21-1.45-3.72-2.47h0Z"/>
  <path class="cls-1" d="M147.65,184.75c-2.25,1.12-3.91,2.1-5.68,2.82-16.62,6.79-28.82,18.13-35.96,34.73-.54,1.26-1.32,2.43-1.82,3.71-1.07,2.74-2.98,3.83-5.93,3.83-20.72,.07-41.26-1.85-61.66-5.34-4.91-.84-6.53-2.94-6.01-7.75,2.79-25.94,16.28-42.89,41.13-50.53,1.85-.57,4.35-.25,6.18,.53,12.12,5.11,24.06,4.83,36.13-.24,1.96-.83,4.7-.81,6.78-.19,9.61,2.85,17.73,8.38,25.11,15.03,.66,.6,.89,1.68,1.74,3.4h-.01Z"/>
  <path class="cls-1" d="M219.84,149.68c1.24,18.64-14.53,38.81-38.73,38.78-21.4-.03-38.63-18.01-38.35-38.82,.3-21.44,17.11-38.21,38.71-38.48,21.82-.27,39.42,18.61,38.37,38.52Z"/>
  <path class="cls-1" d="M301.07,129.76c.02,18.53-15.07,33.84-33.75,33.77-19.69-.08-34.05-14.73-34.08-33.94-.03-19.14,15-33.65,33.66-33.74,18.99-.1,34.14,14.98,34.16,33.91h.01Z"/>
  <path class="cls-1" d="M129.54,129.98c-.06,18.73-15.25,33.84-33.95,33.58-17.95-.25-33.71-13.03-33.66-33.86,.05-21.34,16.08-33.86,34.22-33.82,19.2,.05,33.74,15.96,33.39,34.1Z"/>
</svg>