<?xml version="1.0" encoding="UTF-8"?>
<svg id="Layer_1" data-name="Layer 1" xmlns="http://www.w3.org/2000/svg" viewBox="0 0 360 360">
  <defs>
    <style>
      .cls-1 {
        fill: #fff;
      }
    </style>
  </defs>
  <path class="cls-1" d="M107.26,113.38v-3.92c0-11.46-.01-22.91,.02-34.37,0-1.17,.07-2.4,.45-3.49,1.03-2.88,3.94-3.69,6.21-1.65,1.76,1.58,3.25,3.46,4.86,5.2,.71,.78,1.42,1.55,2.2,2.4,2.76-2.46,5.32-4.76,7.9-7.05,2.49-2.21,4-2.29,6.52-.15,2.62,2.24,5.14,4.6,8,7.18,1.36-1.48,2.63-2.87,3.92-4.26,1.1-1.19,2.11-2.48,3.35-3.51,2.37-1.96,5.64-.7,6.21,2.33,.16,.84,.08,1.72,.08,2.59v38.44h50.08c.7-2.18,.85-11.65,.17-16.01h-3.38c-7.14,0-14.27,.01-21.41,0-4.25,0-5.31-1.08-5.31-5.38V59.31c0-4.22,1.18-5.39,5.37-5.39h73.97c4.25,0,5.62,1.38,5.63,5.63,.02,10.7,.02,21.4,0,32.1,0,4.1-1.37,5.46-5.41,5.47-7.03,.02-14.06,0-21.09,0h-3.76v16.24h41.89c.86,0,1.74-.06,2.59,.05,2.02,.27,3.29,1.61,3.48,3.64,.08,.86,.03,1.73,.04,2.59,0,12,.16,24-.06,35.99-.12,6.33,.76,12.43,2.17,18.56,5.53,23.95,10.96,47.92,16.4,71.89,.24,1.04,.29,2.14,.29,3.21,.02,11.67,.01,23.35,.01,35.02,0,.54,.04,1.09-.03,1.62-.25,2-1.34,3.12-3.34,3.34-.96,.11-1.94,.04-2.92,.04H68.84c-4.65-.01-5.71-1.06-5.71-5.69,0-10.7-.04-21.4,.03-32.1,.02-2.24,.24-4.53,.73-6.72,5.83-25.87,11.74-51.72,17.59-77.59,.33-1.46,.45-2.99,.45-4.49,.03-14.05,.02-28.1,.02-42.15,0-.65-.01-1.3,0-1.95,.11-3.88,1.46-5.24,5.32-5.26,5.41-.03,10.81,0,16.22,0h3.76v.02h.01Zm7.99-29.91v60.95c4.33,.59,31.4,.41,33.74-.2v-60.26l-.76-.52c-.23,.48-.34,1.07-.69,1.44-2.72,2.8-4.57,2.86-7.46,.33-.41-.36-.76-.77-1.16-1.13-2.23-1.97-4.46-3.92-6.72-5.91-.73,.59-1.16,.9-1.56,1.26-2.17,1.94-4.3,3.91-6.5,5.83-2.86,2.5-4.55,2.4-7.13-.31-.42-.44-.93-.78-1.76-1.48h0Zm139.1,5.72c-.03-9.26,.05-18.25-.05-27.34h-69.2v27.34h69.25Zm-35.19,63.96h36.64c3.84,0,3.94-.1,3.95-4.06,.01-5.4,.02-10.8,0-16.21-.02-3.4-.33-3.7-3.71-3.75h-71.99c-.76,0-1.52-.05-2.27,.03-1.87,.2-2.4,.77-2.49,2.69-.07,1.4-.02,2.81-.02,4.21,0,4.65-.03,9.29,0,13.94,.03,2.77,.4,3.08,3.24,3.15,.65,.02,1.3,0,1.95,0h34.7Zm-92.88,40.86h26.6c.76,0,1.52,.04,2.27-.02,2.15-.17,2.92-.8,3.16-2.91,.36-3.1,.65-6.21,.81-9.33,.11-2.19-.89-3.15-3.06-3.32-.54-.04-1.08,0-1.62,0h-52.23c-.65,0-1.3-.02-1.95,.02-1.33,.08-2.28,.76-2.63,2.03-.93,3.32-1.89,6.64-2.65,10.01-.46,2.05,.62,3.28,2.75,3.49,.86,.09,1.73,.04,2.59,.04h25.96Zm138.62,43.44c4,0,8,.05,12-.02,2.62-.04,3.51-1.17,2.94-3.65-.7-3.04-1.54-6.06-2.29-9.09-.45-1.82-1.62-2.8-3.46-2.8-7.46-.03-14.92-.07-22.37,.02-2.41,.03-3.49,1.44-3.11,3.87,.47,2.98,1.08,5.93,1.75,8.87,.59,2.57,.87,2.76,3.51,2.8,3.67,.04,7.35,0,11.02,0h.01Zm-124.67,0c3.56,0,7.12,.02,10.69,0,3.03-.02,3.76-.65,4.09-3.7,.29-2.67,.49-5.35,.67-8.03,.16-2.31-1.03-3.8-3.35-3.82-7.45-.08-14.9-.08-22.34,0-2.19,.02-3.08,.93-3.45,3.11-.46,2.75-.86,5.52-1.19,8.29-.4,3.41,.21,4.1,3.55,4.14,3.78,.04,7.56,0,11.33,0h0Zm41.29,.02c3.67,0,7.34,.02,11.01,0,3.41-.02,4.07-.59,4.03-3.9-.03-2.9-.23-5.8-.44-8.69-.14-1.87-1.18-2.94-3.16-2.95-7.45-.07-14.9-.08-22.35,0-2.11,.02-3.02,.97-3.22,3.2-.26,2.89-.4,5.79-.43,8.69-.04,3.06,.56,3.62,3.55,3.65,3.67,.04,7.34,0,11.01,0h0Zm41.97,0c3.66,0,7.33,.02,10.99,0,3.29-.03,4.09-.9,3.66-4.06-.36-2.66-.78-5.31-1.23-7.95-.47-2.73-1.35-3.54-4.05-3.56-7.01-.04-14.01-.05-21.02,0-3.12,.02-4.22,1.28-4.01,4.44,.17,2.57,.4,5.13,.65,7.69,.25,2.55,1.15,3.4,3.69,3.43,3.77,.04,7.54,0,11.32,0h0Zm-125.52,0c3.88,0,7.77,.03,11.65,0,2.22-.03,3.01-.6,3.44-2.59,.66-3.04,1.29-6.1,1.77-9.18,.39-2.45-.64-3.74-3.14-3.77-7.34-.08-14.68-.08-22.01,0-2.42,.03-3.12,.75-3.81,3.18-.73,2.59-1.39,5.2-2.02,7.81-.88,3.6-.18,4.52,3.44,4.55,3.56,.02,7.12,0,10.68,0h0Zm4.99-21.61c3.35,0,6.69,.02,10.04,0,3.21-.03,3.86-.56,4.55-3.8,.54-2.53,1.02-5.07,1.5-7.6,.59-3.06-.29-4.16-3.48-4.17-6.59-.04-13.17-.03-19.76,0-2.97,0-3.45,.39-4.27,3.32-.75,2.7-1.45,5.41-2.1,8.13-.68,2.84,.23,4.05,3.14,4.11,3.45,.07,6.91,.02,10.37,.02h0Zm157.08-.02c3.66,0,7.33,.06,10.99-.02,2.64-.06,3.6-1.37,2.99-3.97-.68-2.93-1.42-5.85-2.21-8.75-.63-2.3-1.25-2.81-3.64-2.83-6.9-.04-13.79-.05-20.69,0-2.73,.02-3.66,1.22-3.17,3.92,.52,2.85,1.12,5.69,1.71,8.53,.52,2.52,1.12,3.07,3.67,3.11,3.45,.05,6.9,0,10.34,0h.01Zm-39.06,.01c3.46,0,6.92,.04,10.37,0,2.92-.04,3.88-1.1,3.54-4-.34-2.88-.8-5.75-1.27-8.62-.39-2.37-1-2.9-3.43-2.94-3.46-.06-6.92-.02-10.37-.02s-7.13-.05-10.7,.03c-2.11,.05-3.3,1.3-3.17,3.25,.18,2.79,.39,5.58,.78,8.34,.52,3.68,.9,3.94,4.52,3.96,3.24,.02,6.48,0,9.72,0h0Zm-78.8,0c3.56,0,7.11,.04,10.67,0,2.2-.03,3.46-.79,3.63-2.44,.36-3.41,.62-6.85,.7-10.27,.05-2.16-.72-2.81-3.02-2.83-7-.06-14.01,0-21.01-.04-1.78,0-2.91,.72-3.21,2.49-.53,3.18-1.11,6.35-1.45,9.55-.27,2.61,.64,3.49,3.35,3.55,3.45,.07,6.9,.02,10.35,.02v-.02h-.01Zm39.25-.01c3.35,0,6.71-.16,10.05,.05,3.45,.22,4.67-1.47,4.46-4.71-.17-2.47-.3-4.94-.43-7.41-.14-2.61-.93-3.46-3.58-3.5-3.67-.06-7.35-.02-11.03-.02-3.14,0-6.27-.04-9.41,.02-2.22,.04-3.28,.8-3.43,2.62-.26,3.11-.43,6.23-.46,9.35-.02,2.75,.89,3.55,3.77,3.59,3.35,.05,6.7,0,10.05,0h0Zm73.68-21.83h0c3.45,0,6.9,.08,10.35-.03,2.49-.08,3.47-1.43,2.91-3.85-.71-3.03-1.53-6.04-2.36-9.05-.43-1.57-1.34-2.66-3.18-2.66-6.57,.02-13.15-.05-19.72,.04-2.46,.03-3.38,1.08-3.04,3.48,.44,3.08,1.03,6.15,1.71,9.19,.5,2.21,1.34,2.83,3.63,2.87,3.23,.06,6.47,.02,9.7,.02h0Zm-36.75,0c3.23,0,6.47,.04,9.7,0,3.03-.05,3.91-.96,3.59-3.92-.31-2.88-.75-5.75-1.23-8.6-.4-2.37-1.21-3.03-3.75-3.04-6.25-.04-12.5-.05-18.76,0-2.88,.02-3.66,.83-3.54,3.71,.12,2.89,.37,5.78,.67,8.67,.23,2.32,1.14,3.12,3.62,3.17,3.23,.07,6.47,.02,9.7,.02h0Zm-36.77-.01h0c3.45,0,6.9,.05,10.35-.03,2.11-.04,3.35-1.23,3.31-3.15-.07-3.11-.21-6.22-.45-9.32-.16-2.05-1.06-3.03-3.05-3.05-6.68-.09-13.36-.07-20.05,0-1.78,.02-2.83,1.01-2.97,2.75-.24,2.99-.43,6-.46,9-.03,2.83,1,3.76,3.95,3.8,3.12,.04,6.25,0,9.38,0h0Zm-.63,62.68c-5.59,0-10.36,4.71-10.34,10.24,0,5.47,4.87,10.69,10.26,10.45,6.64-.3,10.41-5.09,10.48-10.54,.06-4.59-3.99-10.37-10.4-10.15Zm42.69-143.48v-15.81h-8.07v15.81h8.07Zm-66.39,24.4v7.11c1.45,0,2.64,.07,3.82-.02,2.12-.16,3.61-1.57,3.69-3.38,.07-1.55-1.66-3.49-3.48-3.69-1.26-.14-2.55-.03-4.03-.03h0Zm-50.17-.24c-2.03,.33-3.84,.37-5.47,.95-1.56,.56-2.07,2.1-1.66,3.76,.36,1.48,1.31,2.48,2.87,2.61,1.36,.11,2.73,.02,4.26,.02v-7.35h0Z"/>
</svg>