<?xml version="1.0" encoding="UTF-8"?>
<svg id="Layer_1" data-name="Layer 1" xmlns="http://www.w3.org/2000/svg" viewBox="0 0 360 360">
  <defs>
    <style>
      .cls-1 {
        fill: #fff;
      }
    </style>
  </defs>
  <path class="cls-1" d="M152.1,268.41c.18,1.44,.42,2.82,.52,4.21,.41,5.79-1.41,10.84-5.47,14.95-8.54,8.65-17.18,17.2-25.77,25.8-1.68,1.69-3.69,2.5-6.08,2.38-1.75-.09-3.28-.7-4.58-1.88-.47-.42-.9-.88-1.35-1.33-20.27-20.27-40.54-40.54-60.81-60.81-.35-.35-.68-.71-1.05-1.04-2.87-2.61-2.99-8.03,0-10.82,.21-.19,.4-.4,.6-.6,8.35-8.35,16.7-16.69,25.04-25.04,2.59-2.59,5.6-4.44,9.18-5.29,3.7-.88,7.37-.81,11,.42,.52,.18,1.06,.32,1.67,.51,.37-.56,.72-1.07,1.06-1.59,9.55-14.98,23.03-24.34,40.38-28.02,13.38-2.84,26.26-1.11,38.5,5.03,3.35,1.68,6.84,2.45,10.56,2.45,15.32,0,30.63,.05,45.95-.03,5.49-.03,10.39,1.39,14.68,4.84,.21,.17,.47,.28,.79,.46,1.55-1.47,3.09-2.9,4.6-4.36,4.7-4.54,9.38-9.1,14.07-13.64,4.85-4.69,9.67-9.4,14.57-14.03,3.33-3.14,7.35-4.88,11.91-5.25,8.01-.65,14.45,2.31,19.1,8.84,5.33,7.46,4.87,17.74-.96,24.91-16.88,20.77-33.77,41.53-50.63,62.32-2.75,3.4-6.14,5.73-10.39,6.76-1.71,.41-3.45,.56-5.22,.56-23.89-.01-47.78,0-71.67-.02-5.29,0-10.11,1.46-14.51,4.33-2.12,1.39-4.01,3.05-5.67,4.97h-.01Zm-6.7-9.91c.49-.43,1.03-.86,1.52-1.34,6.63-6.4,14.59-9.64,23.77-9.66,24.1-.05,48.2-.02,72.3-.02,.7,0,1.41,0,2.11,0,1.93-.05,3.54-.81,4.82-2.24,.61-.68,1.17-1.4,1.75-2.11,16.43-20.23,32.86-40.46,49.3-60.69,1.48-1.82,2.13-3.85,2.21-6.2,.13-3.82-3.12-8.9-9.01-8.99-2.67-.04-4.92,.98-6.81,2.84-1.6,1.57-3.21,3.15-4.83,4.71-4.95,4.78-9.91,9.56-14.86,14.33-3.64,3.51-7.3,7-10.93,10.53-1.25,1.22-2.42,2.53-3.72,3.91,.03,.19,.09,.53,.15,.87,.35,2.08,.55,4.15,.29,6.28-.8,6.37-3.81,11.38-9.11,14.98-3.66,2.48-7.75,3.53-12.15,3.53h-31.83c-4.29,0-8.57,0-12.86,0-.83,0-1.69-.07-2.49-.29-2.74-.76-4.44-3.31-4.19-6.05,.2-2.2,2.07-4.92,5.3-5.11,.63-.04,1.26-.03,1.9-.03h33.31c3.58,0,7.17,.04,10.75-.02,1.25-.02,2.55-.14,3.73-.51,3.72-1.15,6.15-4.47,6.26-8.36,.12-3.9-2.1-7.25-5.76-8.73-1.46-.59-2.96-.77-4.53-.77-15.6,.02-31.2,0-46.8,.02-2.33,0-4.62-.23-6.9-.68-2.91-.57-5.65-1.61-8.3-2.95-8.51-4.29-17.52-5.88-26.97-4.77-6.49,.76-12.6,2.76-18.32,5.92-7.85,4.34-14.19,10.28-18.84,17.97-.5,.83-.94,1.7-1.43,2.59,.33,.41,.56,.75,.84,1.05,7.57,7.93,38.53,38.7,40.32,40.04v-.03Zm-29.49,43.91c.56-.55,1.1-1.09,1.64-1.63,6.51-6.51,13.02-13.02,19.53-19.53,.6-.6,1.21-1.18,1.79-1.79,2.88-3.03,3.06-7.3,.44-10.54-.53-.65-1.14-1.24-1.73-1.84-14.51-14.51-29.02-29.02-43.53-43.53-.45-.45-.89-.9-1.35-1.33-3.56-3.38-8.61-2.58-11.36,.24-7.12,7.29-14.38,14.44-21.58,21.64-.39,.39-.73,.83-1.01,1.15,19.05,19.05,38.02,38.02,57.16,57.16h0Z"/>
  <path class="cls-1" d="M133.46,128.21c0,.24-.04,.43,.03,.5,6.24,6.56,12.49,13.11,18.74,19.67,.99-.23,1.44-.99,2.01-1.57,2.45-2.51,4.87-5.06,7.3-7.6,3.16-3.3,6.31-6.6,9.47-9.9,.24-.25,.45-.52,.8-.93-.39-.12-.62-.24-.85-.26-.56-.04-1.12,0-1.69-.03-2.99-.1-5.47-2.61-5.45-5.6,.02-2.89,.22-5.76,.76-8.59,1.9-9.93,6.46-18.5,13.35-25.85,7.83-8.35,17.4-13.64,28.6-15.94,5.4-1.11,10.86-1.31,16.35-.72,8.31,.9,16.04,3.51,23.04,8.06,12.9,8.38,21.1,20.09,23.9,35.24,3.07,16.55-.74,31.55-11.49,44.57-8.12,9.85-18.61,15.93-31.12,18.34-10.61,2.05-20.97,.92-30.97-3.25-.71-.3-1.43-.61-2.05-1.05-1.78-1.26-2.41-3.04-2.07-5.16,.33-2.06,1.54-3.42,3.52-4.06,1.17-.38,2.35-.35,3.51,.09,.79,.3,1.56,.64,2.34,.94,15.42,5.99,32.36,2.63,44.31-8.05,8.01-7.17,12.89-16.12,14.17-26.78,1.66-13.8-2.47-25.82-12.16-35.81-6.51-6.72-14.49-10.79-23.71-12.32-10.73-1.78-20.7,.39-29.78,6.31-9.62,6.27-16.07,14.94-19.11,26.08-.13,.47-.23,.95-.34,1.43-.09,.41-.17,.82-.29,1.37,.53,.08,.98,.21,1.43,.21,2.53,.02,5.06,0,7.59,.02,.77,0,1.54,.08,2.29,.24,3.39,.75,4.98,4.82,3.04,7.9-.26,.41-.59,.79-.93,1.14-4.48,4.66-8.96,9.31-13.44,13.97-4.72,4.91-9.42,9.84-14.14,14.76-1.31,1.37-2.69,2.68-3.95,4.09-2.04,2.28-5.78,2.32-8.05-.07-5.31-5.62-10.68-11.17-16.03-16.74-4.77-4.96-9.55-9.91-14.33-14.87-.54-.56-1.08-1.11-1.58-1.7-2.8-3.32-.71-7.96,2.92-8.56,.69-.11,1.39-.16,2.09-.17,2.6-.02,5.2,0,7.8-.01,.41,0,.82-.07,1.33-.11,.13-.81,.29-1.55,.37-2.31,.96-9.23,3.42-18.06,7.28-26.49,10.07-21.98,29.3-39.05,52.2-46.36,9.31-2.98,18.86-4.37,28.64-4.09,21.82,.64,40.86,8.3,56.89,23.06,14.09,12.97,22.86,29.01,26.33,47.88,.42,2.28,.73,4.58,.96,6.88,.21,2.04-.58,3.74-2.32,4.86-1.8,1.16-3.71,1.2-5.59,.14-1.44-.82-2.21-2.12-2.47-3.73-.25-1.59-.43-3.2-.69-4.79-1.67-10.33-5.36-19.9-11.03-28.7-7.55-11.72-17.58-20.74-30-27.05-7.19-3.65-14.8-6.02-22.77-7.24-5.31-.81-10.63-1.04-15.97-.72-9.78,.6-19.12,2.99-27.97,7.22-6.89,3.3-13.18,7.49-18.78,12.69-12.22,11.34-20.06,25.15-23.34,41.53-.68,3.39-1.05,6.8-1.15,10.24-.12,4.07-2.74,6.98-6.8,7.56-.33,.05-.65,.11-.96,.16v.03Z"/>
  <path class="cls-1" d="M212.99,98.06c0-1.13,0-2.18,.02-3.23,0-.56-.03-1.13,.05-1.68,.3-1.95,2.01-3.42,3.95-3.45,1.85-.03,3.55,1.29,3.95,3.16,.16,.75,.18,1.53,.22,2.3,.04,.9,.04,1.81,.06,2.77,.77,.21,1.44,.4,2.1,.57,2.13,.55,4.1,1.46,5.89,2.74,1.83,1.3,2.52,3.33,1.89,5.36-.85,2.75-3.73,4.11-6.4,3.02-.52-.21-1.01-.5-1.5-.76-2.19-1.18-4.52-1.46-6.95-1.06-1.79,.29-3.17,1.19-3.74,2.99-.59,1.86-.4,3.59,1.07,5.06,.96,.96,2.07,1.69,3.25,2.31,1.62,.84,3.28,1.61,4.9,2.43,2.32,1.17,4.62,2.37,6.67,4,4.28,3.4,5.96,7.84,5.34,13.21-.42,3.68-1.78,6.91-4.49,9.51-1.65,1.59-3.63,2.62-5.76,3.41-.66,.24-1.34,.42-2.03,.64-.51,.68-.25,1.48-.3,2.23-.08,1.05-.03,2.11-.22,3.14-.37,2-2.12,3.34-4.07,3.25-2.05-.09-3.69-1.67-3.87-3.76-.06-.63-.02-1.26-.02-1.9v-2.38c-.5-.14-.89-.27-1.28-.34-2.49-.46-4.91-1.19-7.22-2.24-.64-.29-1.28-.6-1.86-.99-2.22-1.48-2.91-4.16-1.74-6.48,1.19-2.35,3.78-3.15,6.32-2.3,.53,.18,1,.51,1.5,.76,2.57,1.27,5.26,1.94,8.14,1.66,.42-.04,.84-.06,1.25-.16,3.98-.92,5.49-5.53,2.74-8.57-.83-.92-1.87-1.71-2.93-2.37-1.61-1-3.32-1.81-4.98-2.74-1.9-1.06-3.84-2.06-5.65-3.26-1.27-.85-2.45-1.89-3.5-3.01-2.09-2.23-3.14-4.93-3.2-8.03-.05-2.35,.22-4.63,1.11-6.81,1.63-4.02,4.56-6.67,8.61-8.11,.85-.3,1.71-.56,2.66-.88h.02Z"/>
  <path class="cls-1" d="M304.42,142.28c.17,2.3-1.89,5.17-5.25,5.15-2.89-.02-5.2-2.37-5.19-5.26,0-2.97,2.46-5.36,5.4-5.26,2.55,.08,5.25,2.26,5.04,5.38h0Z"/>
  <path class="cls-1" d="M304.09,128.94c.13,2.66-1.96,5.2-5.09,5.34-2.89,.13-5.41-2.39-5.39-5.3,.02-2.88,2.35-5.19,5.25-5.21s5.21,2.26,5.23,5.17Z"/>
  <path class="cls-1" d="M87.95,247.45c-3.76,0-6.65-2.89-6.67-6.66-.02-3.72,2.94-6.66,6.66-6.66s6.71,2.76,6.68,6.66c-.03,4.49-3.65,6.74-6.68,6.66h0Z"/>
</svg>