<?xml version="1.0" encoding="UTF-8"?>
<svg id="Layer_1" data-name="Layer 1" xmlns="http://www.w3.org/2000/svg" viewBox="0 0 360 360">
  <defs>
    <style>
      .cls-1 {
        fill: #fff;
      }
    </style>
  </defs>
  <path class="cls-1" d="M180.79,237.19H74.4c-4.59-.03-7.97-3.28-8.2-7.88-.02-.45,0-.89,0-1.34V94.36c0-1.15,.03-2.29,.36-3.42,.91-3.12,3.49-5.35,6.74-5.73,.82-.1,1.66-.1,2.49-.1h211.83c4.06,.02,7.76,2.96,8.1,7.84,.04,.51,.01,1.02,.01,1.53V227.9c0,.89-.07,1.79-.19,2.67-.54,3.98-4.51,6.85-7.76,6.62-.57-.04-1.15,0-1.72,0h-105.27Zm-99.78-15.49c.96,0,1.78,.02,2.6,.02h194.56c.51,0,1.02,.02,1.53,0,.37-.02,.73-.09,1.09-.14,.32-.89,.19-1.72,.19-2.54V103.45c0-.51,.02-1.02-.01-1.53-.02-.36-.11-.72-.18-1.17-.93-.02-1.75-.05-2.57-.05H83.66c-.51,0-1.02-.01-1.53,0-.36,.01-.73,.08-1.07,.12-.09,.3-.2,.48-.2,.66-.01,39.74-.02,79.49-.02,119.23,0,.25,.07,.49,.15,1h.02Z"/>
  <path class="cls-1" d="M180.79,272.4H89.56c-3.77,0-7.53-.15-11.26-.76-3.16-.52-6.26-1.28-9.25-2.39-1.31-.48-2.53-1.22-3.77-1.87-6.45-3.38-12.88-6.78-19.33-10.14-2.29-1.19-3.37-3.08-3.26-5.61,.1-2.39,1.34-4.09,3.53-5.03,.63-.27,1.35-.35,2.04-.44,.57-.07,1.15-.02,1.72-.02,33.28,0,66.57,.02,99.85-.04,2.67,0,4.88,.6,6.67,2.62,.59,.66,1.3,1.22,1.99,1.8,1.97,1.66,4.26,2.53,6.83,2.66,.57,.03,1.15,.03,1.72,.03h27.79c.96,0,1.92,0,2.87-.13,2.2-.31,4.17-1.19,5.84-2.66,.91-.8,1.81-1.62,2.68-2.46,1.31-1.25,2.84-1.92,4.67-1.83,.32,.02,.64,0,.96,0h100.23c.64,0,1.28-.02,1.92,.03,2.46,.21,4.44,1.89,5.08,4.28,.63,2.35-.27,4.86-2.26,6.27-.31,.22-.64,.42-.98,.6-6.5,3.4-13.05,6.73-19.5,10.23-3.36,1.83-6.93,2.89-10.62,3.68-4.39,.94-8.85,1.16-13.33,1.16h-91.61v.02h0Z"/>
</svg>