<?xml version="1.0" encoding="UTF-8"?>
<svg id="Layer_1" data-name="Layer 1" xmlns="http://www.w3.org/2000/svg" viewBox="0 0 360 360">
  <defs>
    <style>
      .cls-1 {
        fill: #282b4a;
      }
    </style>
  </defs>
  <path class="cls-1" d="M181.17,261.68c-19.1,.73-38.04-1.28-56.95-3.62-3.12-.39-6.23-1.28-9.21-2.31-4.42-1.52-6.92-4.83-6.59-9.53,.33-4.71,.85-9.48,2.03-14.03,5.12-19.8,17.72-33.27,36.1-41.68,4.46-2.04,8.52-1.76,13.02,.55,9.51,4.88,19.61,7.96,30.39,4.97,4.72-1.31,9.31-3.33,13.68-5.58,3.45-1.78,6.46-2.25,10.15-.76,22.49,9.05,35.9,25.39,40.05,49.28,.47,2.72,.86,5.49,.91,8.25,.08,4.74-1.38,6.84-6.17,8.1-4.78,1.26-9.7,2.1-14.59,2.84-17.5,2.63-35.07,4.19-52.81,3.53Zm.11-5.76c3.76-.19,7.53-.5,11.29-.56,16.3-.25,32.44-2.13,48.51-4.66,5.61-.88,7.34-3.16,6.48-8.53-2.79-17.3-10.5-31.71-25.97-40.75-11.55-6.75-8.65-6.52-20.81-2.11-1.31,.47-2.58,1.05-3.9,1.48-13.64,4.5-27.03,3.77-39.76-2.85-3.72-1.94-6.6-1.66-9.97,0-18.81,9.21-29.41,24.19-31.72,45-.66,5.97,.02,6.81,6.02,7.78,19.81,3.22,39.76,4.8,59.82,5.21Z"/>
  <path class="cls-1" d="M220.55,150.56c1.54,21.73-18.52,39.8-39.25,39.84-19.99,.04-39.8-17.21-39.67-39.79,.13-22.82,19.9-39.93,40.48-39.53,20.59,.4,39.99,18.88,38.44,39.48Zm-6.32,.36c-.69-20.3-16.21-32.55-32.54-32.93-17.7-.42-33.47,15.15-33.13,32.89,.34,17.89,14.07,32.57,32.78,32.6,19.3,.02,32.19-15.2,32.89-32.55Z"/>
  <path class="cls-1" d="M104.06,224.94c.59,5.51,.06,6.48-4.94,6.37-11.31-.24-22.62-.6-33.9-1.38-7.5-.52-14.95-1.82-22.42-2.81-1.57-.21-3.16-.44-4.68-.88-4.68-1.34-6.55-3.75-6.62-8.54-.18-13.06,4.74-24.33,12.27-34.67,4.67-6.41,10.67-11.15,17.96-14.28,4.59-1.97,8.88-2.34,13.61,.34,14.01,7.93,28.09,7.39,41.83-.89,2.99-1.8,5.83-2.38,8.87-.49,6.05,3.76,12.12,7.5,18.07,11.42,1.39,.91,3.35,2.54,1.78,4.32-.9,1.02-3.24,1.28-4.81,1.06-1.42-.2-2.69-1.51-4.02-2.33-3.71-2.28-7.43-4.56-11.14-6.86-2.25-1.39-4.23-1-6.68,.03-5.27,2.21-10.68,4.35-16.25,5.51-10.27,2.15-20.23,.19-29.4-4.71-4.08-2.18-7.24-1.69-11.02,.49-14.75,8.5-22.24,21.59-24.64,38.01-.49,3.37,.44,4.71,4.13,5.19,10.81,1.38,21.64,2.8,32.5,3.66,8.5,.68,17.06,.53,25.58,.81,1.34,.04,2.67,.41,3.92,.62Z"/>
  <path class="cls-1" d="M258.77,224.37c21.96,.17,43.47-1.03,65.31-5.06,0-2.97,.38-5.71-.06-8.32-2.66-15.71-11.34-27.19-25.03-35.13-3.07-1.78-5.71-1.83-8.91-.18-15.17,7.86-30.49,7.92-45.66-.01-3.19-1.67-5.98-1.78-8.92,.18-3.3,2.21-6.75,4.23-9.85,6.69-3.19,2.53-6.29,3.02-9.69,1.2-.98-2.43,.31-3.58,1.91-4.59,6.37-4.05,12.78-8.05,19.1-12.18,2.63-1.72,4.74-.92,7.11,.57,6.48,4.09,13.51,6.66,21.23,7.09,7.58,.42,14.71-1.49,21.09-5.31,4.89-2.93,9.3-2.62,14.12-.43,16.54,7.51,25.35,21.04,29.53,38.04,.89,3.61,1.05,7.45,1.09,11.19,.05,4.33-1.75,6.48-5.89,7.84-1.31,.43-2.7,.77-4.07,.89-15.21,1.32-30.43,2.63-45.65,3.86-4.15,.34-8.33,.7-12.47,.52-4.05-.17-4.53-1.12-4.31-6.86Z"/>
  <path class="cls-1" d="M95.9,98.22c20.11-.21,35.02,16.95,34.79,35.45-.23,19.04-16.24,34.88-35.73,34.58-19.44-.3-34.7-16.72-34.49-35.23,.24-20.67,17.18-35.48,35.42-34.8Zm-28.34,34.87c-.08,15.39,12.54,28.29,27.81,28.41,15.07,.13,28.41-12.98,28.47-27.97,.06-15.4-12.6-27.85-28-28.26-15.11-.41-28.59,13.16-28.28,27.82Z"/>
  <path class="cls-1" d="M301.77,133.81c1.18,18.04-15.76,34.81-34.85,34.39-19.88-.44-34.81-15.21-34.77-35.3,.04-19.69,15.38-34.55,35.37-34.74,18.45-.17,35.83,16.2,34.25,35.64Zm-62.5-.66c-1.06,13.31,10.5,28.04,27.54,28.29,15.08,.21,27.97-11.77,28.56-27.73,.57-15.5-12.56-28.05-28.23-28.46-15.39-.4-29.03,14.2-27.87,27.9Z"/>
</svg>