<svg width="152" height="31" viewBox="0 0 152 31" fill="none" xmlns="http://www.w3.org/2000/svg">
<g clip-path="url(#clip0_357_1451)">
<path d="M0.240234 16.19C0.850234 13.83 1.72023 11.62 3.41023 9.76997C6.92023 5.93997 12.6102 4.69997 17.4402 6.77997C22.1402 8.78997 25.1502 13.75 24.8002 18.8C24.7402 19.7 24.3602 19.89 23.5302 19.89C17.5402 19.86 11.5602 19.88 5.57023 19.88C5.10023 19.88 4.63023 19.88 3.97023 19.88C4.74023 22.76 6.35023 24.74 8.89023 25.94C12.1902 27.51 16.1402 26.84 18.7102 24.2C19.4702 23.42 20.0502 23.31 20.9302 23.85C21.4902 24.2 22.1302 24.42 22.8202 24.75C20.9102 27.5 18.4002 29.17 15.2702 29.95C14.9702 30.03 14.6702 30.14 14.3802 30.24H10.5502C10.2602 30.14 9.97023 30.02 9.67023 29.94C6.36023 29.1 3.71023 27.3 2.03023 24.34C1.23023 22.93 0.830234 21.29 0.240234 19.76C0.240234 18.57 0.240234 17.38 0.240234 16.19ZM4.01023 16.23H21.0402C20.2602 12.06 16.4702 9.13997 12.1102 9.26997C8.24023 9.37997 4.51023 12.55 4.02023 16.23H4.01023Z" fill="#282B4A"/>
<path d="M109.75 30.24C107 29.76 104.43 28.88 102.35 26.92C100.19 24.88 98.6501 22.41 98.5701 19.46C98.4001 13.2 98.5201 6.93997 98.5201 0.589966H101.96V9.49997C103.96 7.71997 105.97 6.59997 108.33 6.09997C114.96 4.69997 121.64 9.05997 122.87 15.62C124.15 22.46 119.55 28.96 112.71 29.98C112.36 30.03 112.02 30.14 111.67 30.23H109.75V30.24ZM110.77 26.72C115.67 26.72 119.63 22.84 119.63 18.01C119.63 13.24 115.7 9.27997 110.91 9.25997C106.03 9.22997 102.03 13.11 101.97 17.93C101.91 22.71 105.91 26.71 110.77 26.72Z" fill="#282B4A"/>
<path d="M136.82 30.24C136.52 30.14 136.23 30.02 135.93 29.95C129.8 28.52 125.9 22.92 126.56 16.49C127.13 10.91 132.41 6.09003 138.07 5.97003C144.64 5.83003 149.96 10.09 150.89 16.23C151.84 22.49 147.81 28.39 141.55 29.94C141.25 30.01 140.96 30.14 140.66 30.24C139.38 30.24 138.1 30.24 136.83 30.24H136.82ZM138.75 26.72C143.63 26.72 147.6 22.78 147.58 17.96C147.56 13.23 143.57 9.27003 138.78 9.26003C133.93 9.25003 129.9 13.2 129.89 17.99C129.89 22.8 133.87 26.73 138.75 26.72Z" fill="#282B4A"/>
<path d="M38.5801 30.24C37.2801 29.77 35.8801 29.46 34.6801 28.81C30.0801 26.31 27.7701 22.36 28.1201 17.18C28.4601 12.09 31.2201 8.45996 36.0301 6.67996C40.8301 4.89996 45.2001 5.92996 48.9901 9.35996C49.1401 9.48996 49.2501 9.65996 49.4601 9.91996C48.6001 10.62 47.7401 11.31 46.8101 12.06C44.8001 10.06 42.1001 8.96996 38.8601 9.49996C36.6801 9.85996 34.8901 10.92 33.4901 12.6C30.6101 16.04 30.9001 20.95 34.1201 24.15C37.1601 27.18 42.7001 28.15 47.1501 23.83C47.9101 24.63 48.6601 25.42 49.4901 26.3C47.8301 28.19 45.6701 29.34 43.1901 29.96C42.8401 30.05 42.5001 30.15 42.1601 30.24H38.5701H38.5801Z" fill="#282B4A"/>
<path d="M74.1701 19.71C75.0401 22.88 76.8501 25 79.8001 26.02C83.7101 27.36 87.0001 26.21 89.8101 23.12C90.8101 23.56 91.8401 24.02 93.0101 24.55C91.1701 27.27 88.7701 29.05 85.6601 29.71C80.5601 30.79 76.1901 29.38 73.0101 25.23C69.9001 21.17 69.5601 16.64 72.0001 12.16C74.4701 7.63 78.5301 5.54 83.6901 5.8C90.3101 6.13 95.5501 12.21 95.0901 18.83C95.0301 19.7 94.5801 19.73 93.9201 19.73C87.8101 19.72 81.7101 19.73 75.6001 19.73C75.1701 19.73 74.7401 19.73 74.1601 19.73L74.1701 19.71ZM91.2201 16.27C90.4401 11.92 86.1701 8.83 81.7801 9.3C77.9401 9.71 74.2201 13.14 74.2801 16.27H91.2301H91.2201Z" fill="#282B4A"/>
<path d="M53.9501 29.4C53.9301 29 53.8901 28.62 53.8901 28.23C53.8901 24.22 53.8901 20.21 53.8901 16.21C53.9001 10.57 58.3601 5.95996 64.0301 5.77996C65.8601 5.71996 67.7001 5.77996 69.6401 5.77996V9.07996C69.2601 9.10996 68.8401 9.15996 68.4201 9.16996C66.8601 9.19996 65.3001 9.12996 63.7501 9.24996C60.4001 9.51996 57.6201 12.19 57.4701 15.52C57.2901 19.56 57.3901 23.61 57.3701 27.66C57.3701 28.21 57.3701 28.76 57.3701 29.41H53.9401L53.9501 29.4Z" fill="#282B4A"/>
</g>
<defs>
<clipPath id="clip0_357_1451">
<rect width="151.2" height="30.24" fill="white"/>
</clipPath>
</defs>
</svg>
