<?xml version="1.0" encoding="UTF-8"?>
<svg id="Layer_1" data-name="Layer 1" xmlns="http://www.w3.org/2000/svg" viewBox="0 0 151 30">
  <defs>
    <style>
      .cls-1 {
        fill: #fff;
      }
    </style>
  </defs>
  <g id="Typography">
    <g id="ecrebo-logo">
      <path id="Shape" class="cls-1" d="M110.74,26.5c-4.87,0-8.87-3.98-8.87-8.83s4-8.83,8.87-8.83,8.87,3.98,8.87,8.83-4,8.83-8.87,8.83m0-21.07c-3.51,0-6.63,1.46-8.87,3.79V0h-3.51V17.67c0,6.8,5.56,12.23,12.28,12.23s12.38-5.44,12.38-12.23-5.46-12.23-12.28-12.23m27.98,3.4c-4.87,0-8.87,3.98-8.87,8.83s4,8.83,8.87,8.83,8.87-3.98,8.87-8.83-4-8.83-8.87-8.83m0,21.17c-6.82,0-12.28-5.53-12.28-12.23s5.56-12.23,12.28-12.23,12.28,5.53,12.28,12.23-5.56,12.23-12.28,12.23m-81.59-.78h-3.41V15.92c0-5.83,4.78-10.58,10.63-10.58h5.26v3.4h-5.26c-3.9,0-7.12,3.2-7.12,7.09v13.4h-.1Zm-16.86-2.72c2.63,0,5.07-1.17,6.73-3.01l2.44,2.43c-2.24,2.52-5.56,4.08-9.16,4.08-6.82,0-12.38-5.53-12.38-12.33s5.56-12.23,12.28-12.23c3.61,0,6.92,1.55,9.16,4.08l-2.44,2.43c-1.66-1.84-4-3.01-6.73-3.01-4.87,0-8.87,3.98-8.87,8.83,.1,4.76,4.09,8.74,8.97,8.74m33.63-10.49c.78-4.08,4.39-7.18,8.68-7.18s7.9,3.11,8.68,7.18h-17.35Zm20.96,3.5c.1-.58,.1-1.17,.1-1.84,0-.58,0-1.07-.1-1.65-.78-6.02-5.95-10.68-12.19-10.68-6.82,0-12.28,5.53-12.28,12.23s5.56,12.23,12.28,12.23c4.29,0,8.09-2.23,10.24-5.53l-3.22-1.46c-1.66,2.14-4.19,3.5-7.02,3.5-4.29,0-7.8-3.01-8.68-6.99h20.86v.19ZM3.61,16.02c.78-4.08,4.39-7.18,8.68-7.18s7.9,3.11,8.68,7.18H3.61Zm20.86,3.5c.1-.58,.1-1.17,.1-1.84,0-.58,0-1.07-.1-1.65-.78-6.02-5.95-10.68-12.19-10.68C5.46,5.44,0,10.87,0,17.67s5.46,12.33,12.28,12.33c4.29,0,8.09-2.23,10.33-5.53l-3.22-1.46c-1.66,2.14-4.19,3.5-7.02,3.5-4.29,0-7.8-3.01-8.68-6.99H24.47Z"/>
    </g>
  </g>
</svg>