<svg width="416" height="418" viewBox="0 0 416 418" fill="none" xmlns="http://www.w3.org/2000/svg">
<g clip-path="url(#clip0_322_216)">
<path d="M414.432 383.699L414.403 391.685C410.274 399.317 406.123 406.993 401.848 414.898L397.581 414.883C403.179 404.476 408.827 394.106 414.432 383.699ZM380.305 415.694C380.407 415.398 380.531 415.103 380.669 414.822C381.004 414.072 381.418 413.344 381.811 412.616C388.674 399.925 395.551 387.234 402.428 374.542C406.462 367.097 410.447 359.624 414.546 352.215L414.518 360.057C408.673 370.889 402.93 381.505 397.187 392.121C393.094 399.688 388.936 407.226 384.908 414.837C384.799 415.046 384.69 415.248 384.581 415.457C383.686 417.158 382.416 417.153 380.965 416.902C380.669 416.851 380.196 415.997 380.305 415.694ZM364.427 413.499C371.362 400.635 378.305 387.778 385.24 374.913C389.101 367.771 392.946 360.622 396.814 353.48C402.768 342.489 408.736 331.52 414.661 320.523L414.632 328.538C411.215 334.815 407.792 341.092 404.397 347.384C399.424 356.587 394.495 365.819 389.515 375.023C382.623 387.772 375.703 400.506 368.818 413.255C368.462 413.918 368.135 414.422 367.794 414.775C366.932 415.696 365.993 415.642 364.242 414.762C364.141 414.718 364.04 414.668 363.932 414.609C364.092 414.242 364.23 413.852 364.427 413.499ZM349.406 409.899C354.291 400.782 359.256 391.702 364.17 382.607C369.143 373.396 374.087 364.171 379.052 354.961C386.111 341.895 393.184 328.828 400.251 315.769C405.085 306.847 409.876 297.918 414.775 289.039L414.747 296.881C409.898 305.832 405.151 314.603 400.418 323.374C395.475 332.527 390.56 341.701 385.616 350.854C377.583 365.722 369.543 380.59 361.51 395.45C358.616 400.798 355.745 406.153 352.837 411.486C351.965 413.093 350.309 413.643 348.97 412.649C347.601 411.64 348.984 410.692 349.406 409.899ZM46.6969 185.506C51.654 176.57 56.4382 167.532 61.2872 158.53C65.9181 149.961 70.5418 141.385 75.1799 132.816C82.0497 120.125 88.934 107.441 95.7967 94.742C100.689 85.6973 105.553 76.6309 110.438 67.5862C117.388 54.729 124.353 41.8791 131.31 29.0292C135.461 21.3611 139.633 13.7002 143.777 6.03208C144.722 4.28079 145.61 2.49319 146.621 0.525512L151.415 0.542891C151.097 0.715042 150.822 0.930676 150.669 1.1973C145.152 11.2723 139.699 21.3837 134.247 31.495C129.303 40.6478 124.389 49.8152 119.438 58.968C112.575 71.6666 105.684 84.3506 98.8212 97.0492C93.9287 106.094 89.0649 115.153 84.1796 124.205C77.2297 137.055 70.2582 149.905 63.3155 162.762C58.4229 171.807 53.5664 180.873 48.6739 189.918C48.3831 190.444 47.9338 190.89 47.5057 191.444C45.8593 189.453 45.4539 187.747 46.6969 185.506ZM38.938 168.523C40.4984 166.34 41.5403 163.788 42.8199 161.402C47.698 152.35 52.5617 143.291 57.4542 134.247C64.3241 121.548 71.2157 108.864 78.0783 96.1725C83.08 86.9116 88.0456 77.6289 93.04 68.368C100.128 55.2441 107.223 42.1276 114.326 29.011C118.39 21.5014 122.489 14.0064 126.553 6.49679C127.593 4.58698 128.596 2.64094 129.731 0.464295L134.273 0.480757C133.976 0.75408 133.714 1.0853 133.555 1.38801C126.365 14.5909 119.219 27.8156 112.073 41.0475C103.836 56.283 95.6065 71.5256 87.377 86.7611C80.1145 100.202 72.8448 113.636 65.5895 127.077C57.7452 141.635 49.9225 156.207 42.0711 170.765C41.3004 172.2 40.4361 173.583 39.5641 175.082C37.7671 172.822 37.2251 170.928 38.938 168.523ZM31.2301 151.431C34.0655 146.127 36.937 140.844 39.7941 135.554C46.7512 122.697 53.7155 109.855 60.6654 96.9976C65.5798 87.8952 70.4654 78.7783 75.387 69.676C82.3879 56.7107 89.4032 43.7527 96.4184 30.8019C100.54 23.1842 104.684 15.581 108.806 7.96332C110.136 5.52021 111.423 3.05528 112.819 0.402999L117.318 0.419304C116.992 0.685302 116.716 1.03813 116.484 1.49944C115.24 3.90676 113.946 6.27779 112.659 8.66329C107.73 17.8234 102.808 26.9907 97.8577 36.1435C90.1372 50.4276 82.3806 64.6971 74.6601 78.974C69.6876 88.1845 64.751 97.4095 59.7785 106.62C51.8107 121.38 43.8213 136.14 35.8319 150.892C34.6178 153.141 33.3749 155.375 32.0956 157.695C30.148 155.125 29.9578 153.803 31.2301 151.431ZM24.5115 132.344C26.2617 129.62 27.6804 126.679 29.2217 123.818C34.107 114.766 38.978 105.707 43.8633 96.6623C50.9732 83.4808 58.1048 70.3138 65.2219 57.1395C69.1694 49.8389 73.0953 42.531 77.0428 35.2232C83.1058 24.0092 89.176 12.8025 95.2318 1.58127C95.428 1.22093 95.5739 0.824302 95.7562 0.341153L100.443 0.358139C100.138 0.616994 99.8771 0.969878 99.6372 1.41671C90.9932 17.4594 82.2988 33.4731 73.6188 49.494C67.4104 60.9746 61.1876 72.4479 54.9937 83.9286C45.3465 101.823 35.7138 119.726 26.0666 137.613C25.7758 138.154 25.3985 138.651 24.9265 139.371C23.6575 136.854 22.9502 134.779 24.5115 132.344ZM18.2646 112.622C21.5429 106.669 24.7707 100.687 27.9985 94.7056C32.9638 85.4952 37.9076 76.2774 42.8802 67.0669C49.9101 54.0512 56.9544 41.0355 63.9988 28.0271C68.0916 20.467 72.2133 12.9215 76.299 5.35424C77.1641 3.75431 77.9787 2.12531 78.9314 0.280172L83.5383 0.29687C83.2848 0.512582 83.0672 0.786193 82.9219 1.03118C81.2141 4.00728 79.6001 7.02705 77.9717 10.0468C72.9554 19.3654 67.9607 28.6985 62.93 38.0099C55.2604 52.1859 47.5548 66.3401 39.8924 80.5233C33.8585 91.6868 27.8678 102.872 21.8483 114.043C20.8741 115.859 19.835 117.632 18.7449 119.563C16.8644 116.422 16.8617 115.166 18.2646 112.622ZM12.5484 91.8984C16.8587 84.1081 20.9889 76.2233 25.2199 68.3893C32.1626 55.5321 39.1269 42.6823 46.0841 29.8324C50.2641 22.1138 54.4586 14.4025 58.6387 6.67667C59.7365 4.64432 60.7982 2.59739 62.0488 0.21898L66.5691 0.235364C66.3083 0.472713 66.0761 0.775156 65.9163 1.03453C64.8992 2.73501 64.0046 4.51537 63.0595 6.25943C55.8261 19.6427 48.5854 33.0259 41.3591 46.4164C33.653 60.7078 25.9614 75.0137 18.2552 89.3051C16.5832 92.4041 14.8678 95.4885 12.8979 99.0774C12.2146 96.3382 11.2038 94.3198 12.5484 91.8984ZM7.74147 69.3586C10.2854 64.7897 12.7213 60.1554 15.2075 55.5501C19.0606 48.408 22.9064 41.2587 26.7739 34.1167C32.6115 23.3279 38.4779 12.5537 44.3155 1.765C44.57 1.29655 44.7379 0.791688 44.9785 0.157109L49.9537 0.175142C49.2009 0.677886 48.6276 1.4629 48.0822 2.50798C43.1378 11.9352 38.0563 21.2897 32.9965 30.6587C25.0869 45.3176 17.1484 59.962 9.20996 74.6136C8.95552 75.082 8.62184 75.5069 8.32416 75.9535C7.75478 73.6624 6.46954 71.6358 7.74147 69.3586ZM4.56267 43.8929C6.89485 39.9659 8.90276 35.8499 11.0836 31.8357C15.1183 24.3766 19.1891 16.9392 23.2166 9.48003C24.8595 6.44592 26.4448 3.38995 28.1898 0.0962579L32.7895 0.11293C32.536 0.343084 32.3111 0.63111 32.1585 0.890515C29.7455 5.19273 27.3902 9.52404 25.0493 13.8626C19.1388 24.8244 13.25 35.7935 7.33963 46.748C6.46725 48.3624 5.5444 49.9549 4.65041 51.5547C4.03889 48.9385 2.99339 46.5229 4.56267 43.8929ZM9.48242 3.42956C10.0422 2.4062 10.5658 1.36105 11.2422 0.0348311L15.7409 0.0511366C15.4656 0.302875 15.2333 0.641422 15.0151 1.05945C12.0704 6.64509 9.0607 12.2016 6.0583 17.7509C4.83696 20.0139 3.56521 22.2406 2.19878 24.6908C1.89801 23.9965 1.71901 23.577 1.53278 23.1575L1.55241 17.7418C4.19816 12.9711 6.85109 8.20758 9.48242 3.42956Z" fill="#2CF5D0" fill-opacity="0.41"/>
<path d="M56.2149 207.211C58.0177 203.91 59.7986 200.667 61.5651 197.41C69.4382 182.866 77.3185 168.33 85.1772 153.779C90.1789 144.518 95.1445 135.243 100.146 125.982C107.009 113.283 113.893 100.606 120.763 87.9076C124.681 80.6647 128.578 73.4 132.497 66.157C139.505 53.199 146.513 40.241 153.535 27.2902C155.062 24.4796 156.689 21.7126 156.088 18.3021C155.953 17.5434 155.855 16.7848 155.657 15.506C154.516 17.5237 153.594 19.0946 152.736 20.6945C146.716 31.8653 140.733 43.0507 134.699 54.2142C126.208 69.9253 117.666 85.6073 109.168 101.318C104.159 110.572 99.2079 119.862 94.2063 129.116C86.3767 143.609 78.5182 158.095 70.6814 172.588C65.2727 182.584 59.8785 192.587 54.4842 202.59C53.7572 203.938 54.322 205.514 56.2294 207.211L56.2149 207.211Z" fill="#2CF5D0" fill-opacity="0.41"/>
<path d="M158.124 42.2615C156.656 44.928 155.166 47.5799 153.719 50.2609C147.838 61.165 141.985 72.0837 136.097 82.9805C128.434 97.1565 120.729 111.311 113.059 125.487C108.05 134.74 103.099 144.03 98.0903 153.284C91.2277 165.983 84.3434 178.667 77.4735 191.358C72.8645 199.869 68.2555 208.388 63.6609 216.914C62.5704 218.932 62.8269 219.886 65.0355 222.154C66.0821 220.295 67.1212 218.515 68.1026 216.699C77.0589 200.145 86.0152 183.59 94.9571 167.029C99.9006 157.876 104.808 148.701 109.752 139.549C117.501 125.214 125.28 110.894 133.029 96.5594C137.784 87.7814 142.516 78.9889 147.256 70.2109C151 63.2778 154.708 56.3301 158.488 49.4189C159.818 46.9902 158.967 44.7053 158.11 42.2759L158.124 42.2615Z" fill="#2CF5D0" fill-opacity="0.41"/>
<path d="M74.3861 236.218C75.2508 234.705 76.1372 233.228 76.9514 231.722C81.8367 222.677 86.7004 213.618 91.593 204.566C98.5648 191.658 105.558 178.758 112.537 165.85C117.422 156.806 122.286 147.739 127.179 138.695C134.041 126.003 140.926 113.319 147.796 100.621C151.714 93.3777 155.618 86.1203 159.529 78.8629C160.809 76.4773 161.944 74.0046 163.382 71.7208C164.857 69.3793 163.701 67.4182 162.981 64.8016C161.986 66.5166 161.209 67.7702 160.511 69.0675C154.629 79.9716 148.777 90.8902 142.888 101.787C135.226 115.963 127.52 130.117 119.851 144.293C114.813 153.605 109.84 162.945 104.802 172.256C97.9683 184.897 91.1058 197.531 84.265 210.165C80.4848 217.148 76.7117 224.132 72.9531 231.122C71.739 233.378 72.0028 234.318 74.4005 236.219L74.3861 236.218Z" fill="#2CF5D0" fill-opacity="0.41"/>
<path d="M168.829 85.2151C167.091 88.3789 165.5 91.2471 163.944 94.1299C155.017 110.634 146.089 127.13 137.169 143.641C132.197 152.852 127.267 162.077 122.288 171.28C115.534 183.762 108.752 196.23 101.998 208.713C98.0215 216.064 94.0738 223.429 90.0972 230.788C87.64 235.335 85.1901 239.89 82.6968 244.423C81.323 246.916 81.4432 247.632 84.0135 249.728C84.9145 248.171 85.8371 246.666 86.6731 245.109C95.3534 229.016 104.012 212.915 112.692 196.829C119.032 185.082 125.385 173.335 131.732 161.595C140.906 144.608 150.081 127.629 159.263 110.642C162.607 104.451 165.864 98.2095 169.381 92.1205C170.791 89.6704 170.04 87.7325 168.836 85.2152L168.829 85.2151Z" fill="#2CF5D0" fill-opacity="0.41"/>
<path d="M175.868 103.568C174.145 106.688 172.655 109.347 171.201 112.035C166.236 121.246 161.299 130.471 156.319 139.674C148.599 153.958 140.849 168.228 133.122 182.505C128.396 191.232 123.693 199.967 118.975 208.695C111.799 221.977 104.624 235.252 97.4488 248.535C95.6168 251.922 93.7776 255.302 91.9673 258.696C91.2185 260.095 91.6488 260.912 94.0687 262.661C95.7188 259.656 97.3759 256.68 98.9971 253.689C107.125 238.67 115.245 223.643 123.358 208.61C129.24 197.705 135.092 186.787 140.981 175.89C148.643 161.714 156.356 147.56 164.018 133.376C168.395 125.283 172.706 117.153 177.082 109.06C178.231 106.934 176.524 105.671 175.868 103.568Z" fill="#2CF5D0" fill-opacity="0.41"/>
<path d="M104.089 275.392C105.593 272.704 106.909 270.441 108.152 268.135C115.996 253.577 123.819 239.012 131.67 224.454C138.918 211.013 146.188 197.579 153.451 184.138C161.571 169.112 169.691 154.093 177.819 139.073C179.993 135.052 182.209 131.059 184.405 127.045C185.924 124.263 185.84 123.649 183.503 120.854C182.616 122.403 181.737 123.88 180.923 125.393C175.79 134.921 170.694 144.471 165.547 153.998C158.829 166.43 152.062 178.833 145.337 191.265C140.386 200.418 135.479 209.585 130.536 218.738C123.615 231.537 116.68 244.329 109.759 257.129C107.243 261.785 104.75 266.448 102.256 271.125C101.18 273.15 103.178 273.728 104.089 275.385L104.089 275.392Z" fill="#2CF5D0" fill-opacity="0.41"/>
<path d="M192.251 135.992C190.353 139.436 188.747 142.319 187.184 145.223C180.314 157.98 173.458 170.743 166.581 183.492C157.479 200.371 148.348 217.235 139.232 234.107C131.969 247.54 124.714 260.974 117.452 274.408C115.939 277.211 114.377 279.986 112.879 282.804C112.138 284.195 112.81 285.988 114.296 286.376C114.664 286.471 115.424 285.889 115.679 285.435C118.332 280.65 120.927 275.836 123.53 271.021C130.654 257.854 137.778 244.695 144.888 231.52C149.861 222.317 154.79 213.092 159.762 203.889C166.509 191.406 173.291 178.946 180.045 166.471C184.654 157.959 189.241 149.441 193.836 140.915C194.926 138.89 192.958 137.958 192.258 135.992L192.251 135.992Z" fill="#2CF5D0" fill-opacity="0.41"/>
<path d="M201.187 150.849C199.682 153.566 198.229 156.117 196.833 158.704C187.164 176.642 177.509 194.595 167.833 212.54C160.585 225.981 153.322 239.415 146.053 252.848C138.587 266.65 131.106 280.444 123.64 294.245C122.513 296.328 124.744 296.603 125.547 298.043C126.157 297.186 126.65 296.617 127.006 295.968C132.895 285.072 138.74 274.153 144.636 263.256C152.298 249.08 160.004 234.933 167.666 220.757C172.726 211.395 177.735 202.004 182.795 192.643C189.505 180.211 196.237 167.786 202.968 155.368C203.826 153.783 203.526 152.894 201.187 150.856L201.187 150.849Z" fill="#2CF5D0" fill-opacity="0.41"/>
<path d="M413.932 266.622C411.163 265.659 410.237 266.002 409.053 268.186C399.551 285.735 390.028 303.276 380.534 320.832C374.5 331.989 368.538 343.188 362.504 354.345C354.013 370.049 345.486 385.738 336.973 401.435C335.853 403.496 334.712 405.542 333.672 407.647C333.359 408.281 332.294 409.224 333.571 409.726C334.595 410.127 336.014 411.013 336.93 409.399C338.354 406.891 339.742 404.362 341.116 401.825C349.099 387.073 357.088 372.327 365.056 357.567C370.108 348.206 375.118 338.815 380.177 329.453C387.84 315.284 395.538 301.13 403.208 286.961C406.668 280.561 410.092 274.14 413.524 267.726C413.691 267.423 413.772 267.069 413.94 266.63L413.932 266.622Z" fill="#2CF5D0" fill-opacity="0.41"/>
<path d="M137.005 308.591C137.775 307.258 138.581 305.939 139.315 304.584C146.193 291.828 153.041 279.057 159.926 266.308C169.922 247.786 179.94 229.279 189.943 210.764C196.289 199.017 202.629 187.277 208.982 175.53C210.066 173.519 211.149 171.501 212.297 169.527C213.816 166.911 213.724 166.354 211.002 164.236C210.275 165.475 209.52 166.671 208.844 167.918C202.933 178.873 197.059 189.849 191.134 200.796C181.669 218.302 172.161 235.786 162.688 253.299C156.654 264.462 150.678 275.655 144.651 286.818C141.598 292.483 138.494 298.119 135.405 303.761C133.965 306.392 134.136 306.985 136.997 308.598L137.005 308.591Z" fill="#2CF5D0" fill-opacity="0.41"/>
<path d="M317.683 405.935C320.993 407.319 321.079 407.37 322.518 404.754C326.545 397.432 330.5 390.067 334.477 382.723C341.543 369.664 348.617 356.605 355.668 343.539C360.641 334.336 365.577 325.111 370.55 315.907C377.434 303.158 384.348 290.424 391.247 277.682C393.166 274.143 395.085 270.598 396.99 267.052C397.208 266.648 397.325 266.186 397.486 265.761C394.782 264.487 393.871 264.787 392.599 267.144C383.657 283.698 374.694 300.245 365.759 316.807C359.732 327.971 353.763 339.163 347.729 350.32C339.1 366.29 330.435 382.246 321.791 398.217C320.424 400.739 319.101 403.283 317.698 405.935L317.683 405.935Z" fill="#2CF5D0" fill-opacity="0.41"/>
<path d="M148.471 318.836C149.438 317.121 150.375 315.528 151.247 313.907C158.125 301.15 164.98 288.379 171.858 275.623C180.109 260.323 188.375 245.037 196.633 229.744C203.896 216.303 211.151 202.862 218.421 189.428C219.853 186.783 221.335 184.167 222.753 181.515C224.091 179 223.884 178.313 221.248 176.549C220.361 178.091 219.453 179.619 218.61 181.175C212.648 192.238 206.708 203.322 200.74 214.378C193.048 228.612 185.321 242.823 177.622 257.05C172.759 266.044 167.924 275.053 163.061 284.047C157.856 293.676 152.643 303.297 147.431 312.925C147.256 313.242 147.089 313.559 146.922 313.884C145.938 315.787 146.454 317.437 148.471 318.836Z" fill="#2CF5D0" fill-opacity="0.41"/>
<path d="M302.917 401.867C305.684 403.473 306.247 403.403 307.534 401.046C311.612 393.616 315.639 386.157 319.681 378.705C326.755 365.646 333.821 352.587 340.873 339.521C345.787 330.426 350.673 321.309 355.587 312.214C362.421 299.573 369.283 286.954 376.117 274.313C377.971 270.882 379.781 267.43 381.606 263.999C379.387 262.46 378.036 262.795 376.851 264.993C369.966 277.742 363.053 290.477 356.161 303.218C351.385 312.047 346.63 320.89 341.854 329.726C334.875 342.626 327.882 355.526 320.91 368.434C315.908 377.688 310.936 386.963 305.948 396.224C304.931 398.112 303.92 400 302.917 401.874L302.917 401.867Z" fill="#2CF5D0" fill-opacity="0.41"/>
<path d="M231.907 188.177C230.57 190.577 229.196 192.962 227.895 195.377C221.876 206.54 215.899 217.733 209.865 228.889C201.374 244.593 192.833 260.275 184.342 275.979C179.304 285.283 174.316 294.616 169.3 303.935C165.592 310.817 161.849 317.678 158.206 324.59C157.864 325.232 157.787 326.459 158.176 326.958C159.57 328.754 160.257 328.576 161.354 326.544C169.271 311.892 177.202 297.255 185.119 282.603C190.092 273.4 195.028 264.175 200.001 254.972C206.885 242.223 213.799 229.488 220.698 216.746C225.19 208.444 229.669 200.135 234.176 191.847C235.39 189.62 233.036 189.387 232.492 188.151C232.297 188.157 232.109 188.164 231.914 188.177L231.907 188.177Z" fill="#2CF5D0" fill-opacity="0.41"/>
<path d="M363.184 260.243C362.894 260.516 362.149 260.932 361.8 261.573C358.42 267.677 355.098 273.811 351.783 279.944C344.659 293.111 337.527 306.278 330.417 319.459C325.365 328.828 320.355 338.219 315.288 347.581C307.626 361.757 299.927 375.918 292.251 390.087C291.189 392.04 290.077 393.978 289.124 395.982C288.87 396.523 288.872 397.736 289.146 397.874C290.083 398.354 291.228 399.196 292.215 397.929C292.73 397.274 293.116 396.51 293.515 395.775C302.443 379.271 311.377 362.774 320.283 346.263C325.393 336.793 330.454 327.294 335.572 317.824C342.318 305.342 349.108 292.874 355.861 280.399C359.009 274.583 362.142 268.752 365.247 262.915C366.272 260.998 365.848 260.339 363.177 260.257L363.184 260.243Z" fill="#2CF5D0" fill-opacity="0.41"/>
<path d="M243.141 198.71C242.16 200.469 241.142 202.22 240.183 204.007C234.17 215.178 228.18 226.356 222.153 237.519C214.491 251.695 206.785 265.842 199.123 280.011C194.092 289.315 189.105 298.649 184.088 307.967C179.443 316.594 174.769 325.206 170.166 333.855C169.839 334.475 169.698 335.586 170.035 336.086C171.228 337.837 172.319 337.668 173.337 335.78C181.035 321.488 188.72 307.197 196.426 292.913C203.674 279.472 210.944 266.045 218.199 252.612C226.428 237.376 234.658 222.148 242.887 206.912C243.542 205.694 244.246 204.506 244.886 203.28C246.268 200.606 246.189 200.404 243.141 198.725L243.141 198.71Z" fill="#2CF5D0" fill-opacity="0.41"/>
<path d="M347.697 255.688C347.464 256.301 347.288 256.943 346.976 257.512C343.632 263.703 340.259 269.879 336.915 276.063C329.812 289.179 322.717 302.296 315.636 315.412C310.634 324.673 305.676 333.956 300.674 343.21C293.812 355.908 286.927 368.585 280.058 381.276C278.313 384.505 276.583 387.741 274.845 390.97C274.431 391.734 273.915 392.57 275.09 393.058C276.143 393.495 277.331 394.344 278.204 392.737C279.207 390.885 280.203 389.032 281.206 387.18C287.08 376.276 292.933 365.357 298.828 354.461C306.491 340.285 314.196 326.13 321.866 311.954C326.904 302.643 331.884 293.31 336.915 283.991C341.342 275.79 345.798 267.603 350.211 259.394C351.331 257.311 350.807 256.479 348.46 256.427C348.208 256.173 347.964 255.927 347.712 255.673L347.697 255.688Z" fill="#2CF5D0" fill-opacity="0.41"/>
<path d="M181.581 344.309C182.344 344.86 183.071 345.556 183.944 345.935C184.218 346.051 185.05 345.405 185.305 344.929C189.034 338.126 192.705 331.293 196.391 324.469C203.457 311.402 210.531 298.344 217.59 285.27C222.533 276.117 227.448 266.943 232.391 257.79C239.312 244.99 246.247 232.198 253.175 219.399C254.462 217.021 255.749 214.635 256.992 212.235C257.734 210.801 257.226 209.434 255.675 208.995C255.25 208.871 254.345 209.38 254.091 209.841C251.336 214.778 248.668 219.765 245.978 224.731C238.941 237.739 231.897 250.748 224.867 263.763C219.953 272.866 215.067 281.983 210.145 291.078C203.341 303.668 196.507 316.244 189.696 328.827C187.209 333.433 184.759 338.052 182.302 342.672C182.076 343.09 181.909 343.545 181.581 344.294L181.581 344.309Z" fill="#2CF5D0" fill-opacity="0.41"/>
<path d="M260.186 386.989C260.842 387.366 261.468 387.954 262.161 388.05C262.76 388.132 263.728 387.846 264.033 387.392C265.064 385.844 265.872 384.157 266.752 382.514C274.727 367.761 282.709 353.016 290.684 338.256C295.569 329.211 300.425 320.152 305.318 311.107C312.29 298.207 319.283 285.307 326.255 272.406C329.425 266.533 332.587 260.659 335.713 254.763C336.113 254.007 337.041 253.042 335.505 252.423C334.316 251.942 333.241 251.447 332.354 253.119C326.785 263.57 321.151 273.984 315.51 284.398C307.84 298.566 300.142 312.713 292.48 326.889C287.362 336.352 282.301 345.851 277.191 355.321C271.825 365.266 266.439 375.205 261.066 385.143C260.812 385.619 260.593 386.116 260.179 386.981L260.186 386.989Z" fill="#2CF5D0" fill-opacity="0.41"/>
<path d="M266.944 217.817C266.748 218.062 266.372 218.414 266.139 218.854C262.686 225.189 259.24 231.531 255.809 237.88C248.714 250.996 241.611 264.106 234.53 277.23C229.529 286.491 224.57 295.773 219.569 305.027C211.739 319.52 203.881 334.006 196.044 348.499C195.528 349.45 195.098 350.452 194.539 351.375C193.921 352.398 194.258 352.977 195.181 353.572C196.888 354.676 197.011 354.669 197.992 352.853C205.829 338.36 213.695 323.881 221.517 309.388C226.664 299.868 231.746 290.311 236.886 280.784C244.577 266.557 252.305 252.345 260.004 238.119C263.093 232.411 266.168 226.689 269.222 220.952C269.913 219.647 268.714 217.802 266.944 217.817Z" fill="#2CF5D0" fill-opacity="0.41"/>
<path d="M246.437 380.974C247.057 381.381 247.647 382.026 248.347 382.158C248.924 382.269 249.922 381.962 250.198 381.515C251.621 379.217 252.894 376.824 254.173 374.446C260.055 363.541 265.9 352.63 271.796 341.733C279.458 327.557 287.164 313.41 294.826 299.234C299.857 289.923 304.844 280.59 309.868 271.278C313.808 263.978 317.77 256.684 321.724 249.391C322.124 248.656 322.784 247.828 321.58 247.296C320.513 246.823 319.318 245.8 318.373 247.588C316.403 251.307 314.389 255.004 312.39 258.708C304.466 273.36 296.535 287.997 288.618 302.656C283.645 311.859 278.709 321.084 273.736 330.288C266.844 343.037 259.938 355.771 253.039 368.513C251.091 372.109 249.15 375.705 247.216 379.309C246.991 379.727 246.809 380.174 246.437 380.981L246.437 380.974Z" fill="#2CF5D0" fill-opacity="0.41"/>
<path d="M206.753 360.38C207.488 360.888 208.179 361.555 208.994 361.854C209.347 361.986 210.201 361.49 210.441 361.058C214.977 352.785 219.455 344.475 223.947 336.18C230.817 323.496 237.694 310.812 244.557 298.128C248.534 290.776 252.474 283.411 256.451 276.067C263.401 263.217 270.358 250.382 277.307 237.532C278.82 234.728 280.238 231.867 281.808 229.099C282.673 227.572 281.699 227.135 280.676 226.496C279.452 225.74 278.972 226.432 278.463 227.383C271.797 239.772 265.138 252.161 258.449 264.528C248.984 282.026 239.483 299.51 230.018 317.008C224.129 327.898 218.277 338.817 212.403 349.714C210.803 352.676 209.182 355.623 207.576 358.585C207.321 359.054 207.132 359.566 206.76 360.388L206.753 360.38Z" fill="#2CF5D0" fill-opacity="0.41"/>
<path d="M292.312 233.593C292.124 233.816 291.733 234.147 291.5 234.572C287.523 241.923 283.583 249.296 279.614 256.647C272.671 269.497 265.707 282.34 258.757 295.197C253.893 304.191 249.059 313.193 244.202 322.187C237.172 335.195 230.128 348.204 223.091 361.212C222.233 362.798 221.397 364.398 220.496 365.961C219.835 367.107 219.68 367.937 221.078 368.765C222.44 369.579 223.076 369.213 223.738 367.973C226.69 362.46 229.706 356.983 232.68 351.484C239.913 338.101 247.147 324.725 254.373 311.334C259.396 302.023 264.384 292.69 269.414 283.378C277.106 269.152 284.826 254.94 292.532 240.721C293.223 239.452 293.855 238.155 294.56 236.894C295.454 235.294 294.514 233.666 292.319 233.593L292.312 233.593Z" fill="#2CF5D0" fill-opacity="0.41"/>
<path d="M232.856 374.65C233.685 375.115 234.434 375.703 235.285 375.937C235.696 376.046 236.521 375.616 236.761 375.198C238.628 371.905 240.402 368.554 242.205 365.224C251.213 348.562 260.227 331.899 269.22 315.23C275.13 304.275 281.005 293.299 286.922 282.351C293.727 269.761 300.567 257.185 307.386 244.609C307.561 244.292 307.742 243.975 307.881 243.643C308.245 242.771 309.18 241.893 307.601 241.144C306.253 240.503 305.409 240.233 304.5 241.956C298.269 253.696 291.916 265.364 285.584 277.054C277.907 291.222 270.209 305.384 262.546 319.56C257.538 328.813 252.579 338.096 247.585 347.364C242.932 355.991 238.272 364.618 233.619 373.244C233.423 373.612 233.227 373.98 232.863 374.657L232.856 374.65Z" fill="#2CF5D0" fill-opacity="0.41"/>
<path d="M414.319 414.944L414.318 415.261C414.376 415.153 414.434 415.045 414.492 414.944L414.319 414.944Z" fill="#2CF5D0" fill-opacity="0.41"/>
<path d="M384.581 415.457C384.69 415.248 384.799 415.046 384.908 414.837L380.67 414.822C380.532 415.103 380.408 415.399 380.306 415.694C380.196 415.997 380.67 416.851 380.966 416.902C382.416 417.153 383.687 417.158 384.581 415.457Z" fill="#2CF5D0" fill-opacity="0.41"/>
<path d="M367.794 414.775L364.242 414.762C365.993 415.642 366.932 415.696 367.794 414.775Z" fill="#2CF5D0" fill-opacity="0.41"/>
<path d="M414.319 414.944L414.318 415.261C414.376 415.153 414.434 415.045 414.492 414.944L414.319 414.944Z" fill="#2CF5D0" fill-opacity="0.41"/>
</g>
<defs>
<clipPath id="clip0_322_216">
<rect width="414.377" height="415.64" fill="white" transform="matrix(-0.999993 -0.00362449 -0.00362449 0.999993 415.991 1.50195)"/>
</clipPath>
</defs>
</svg>
