<?xml version="1.0" encoding="UTF-8"?>
<svg id="Layer_1" data-name="Layer 1" xmlns="http://www.w3.org/2000/svg" viewBox="0 0 209.01 71.13">
  <defs>
    <style>
      .cls-1 {
        fill: #e0922f;
      }

      .cls-1, .cls-2, .cls-3 {
        fill-rule: evenodd;
      }

      .cls-2 {
        fill: #cc2229;
      }
    </style>
  </defs>
  <path class="cls-3" d="M73.71,51.13c1.18,.28,2.62,.47,3.85,.47s2.72-.2,3.94-.51c3.68-.92,6.77-3.57,8.07-6.91,.63-1.55,1.08-3.29,1.08-4.94s-.45-3.4-1.04-4.89c-1.34-3.23-4.39-5.91-8.03-6.87-1.3-.3-2.62-.46-3.95-.47-1.33,.01-2.65,.18-3.94,.51-3.63,.92-6.72,3.67-8.06,6.93-.59,1.49-1,3.29-1,4.99,0,1.61,.41,3.48,1.02,5.15h-11.26c-2.5,0-4.53-1.96-4.53-4.27l-.04-20.98h-6.93v20.98c0,5.88,5.18,10.67,11.53,10.67h12.73v-4.08c1.61,1.98,3.99,3.6,6.54,4.21m-2.21-9.21c-.06-.73-.24-1.68-.24-2.47,0-.85,.14-1.96,.27-2.71,.09-.67,.46-1.45,.74-2.03,.89-1.9,3.05-3.1,5.33-3.1s4.45,1.2,5.38,3.1c.31,.6,.63,1.43,.73,2.05,.14,.69,.31,1.71,.31,2.49s-.24,1.87-.35,2.63c-.06,.67-.44,1.45-.71,2-.96,1.93-3.07,3.23-5.39,3.23s-4.4-1.3-5.29-3.19c-.28-.58-.71-1.36-.78-1.99m44.1,4.23c-1.78,3.45-5.59,5.64-9.74,5.64-2.5,0-5.15-.96-7.06-2.48v1.68h-6.43V19.35h6.53v10.01c1.93-1.5,4.4-2.33,6.96-2.34,1.65,0,3.46,.4,4.88,1.04,2.26,1.07,4.19,3.17,5.21,5.41,.75,1.81,1.27,3.92,1.27,5.94,0,2.25-.58,4.72-1.61,6.75m-16.54-10.09c.13-.53,.54-1.11,.85-1.58,1.09-1.54,2.85-2.46,4.74-2.47,1.1,0,2.3,.32,3.15,.89,1.34,.95,2.41,2.54,2.62,4.14,.1,.66,.2,1.61,.2,2.34,0,.66-.14,1.45-.2,2.09-.1,1.04-.69,2.14-1.28,3.03-.95,1.39-2.74,2.32-4.59,2.32-2.28,0-4.37-1.34-5.12-3.3-.47-1.27-.81-2.91-.81-4.3,0-1.02,.2-2.25,.44-3.16m26.47,14.94h-6.62V19.36h6.62v31.64Zm18.62-7.25c.1-.94,.26-2.18,.26-3.16,0-.51-.1-1.07-.1-1.55-.56,.28-1.36,.6-2.04,.73l-4.09,.89c-.69,.13-1.41,.4-2.06,.66-.71,.29-1.48,.76-1.91,1.3-.39,.4-.55,.98-.55,1.5,0,.23,.06,.51,.14,.7,.41,.91,1.3,1.77,2.33,2.09,.7,.2,1.43,.3,2.16,.31,1.65-.02,3.26-.54,4.6-1.49,.65-.47,1.2-1.23,1.27-1.98m6.42,4.01c0,1.18,.3,2.31,.85,3.23h-6.42c-.14-.69-.27-1.39-.38-2.09-2.11,1.67-4.87,2.63-7.68,2.63-2.5,0-5.12-.83-7.07-2.22-1.41-.99-2.44-2.54-2.65-4.19,0-.15-.02-.4-.02-.56,0-2.18,1.2-4.23,3.15-5.43,1.37-.86,2.88-1.46,4.47-1.77,1.65-.42,3.74-.63,5.31-.82,.55-.1,1.48-.29,2.06-.32,1.14-.13,1.98-1.02,1.98-2.05,0-.32-.06-.63-.19-.92-.35-.64-.93-1.13-1.61-1.38-.91-.42-1.89-.64-2.89-.63-.85,0-1.75,.15-2.58,.47-1.3,.47-2.19,1.62-2.3,2.91h-5.73c.1-1.14,.49-2.47,1-3.48,.48-.87,1.16-1.6,1.99-2.14,.69-.45,1.58-.92,2.37-1.14,1.75-.53,3.56-.8,5.39-.82,2.13,0,4.47,.4,6.31,1.07,1.55,.63,2.93,1.71,3.74,3.03,.55,1.11,.92,2.76,.92,4.02l-.03,12.62Zm7.16,3.24l-7.66-23.26h6.52l4.64,14.78,4.14-14.78h5.98l4.73,14.94,4.16-14.94h6.59l-7.44,23.26h-6.08l-4.77-15.69-4.71,15.69h-6.1Zm41.83-19.11c1.28,.38,2.24,1.49,2.34,2.72h5.94c-.04-2.6-1.69-5.06-4.19-6.17-3.7-1.58-7.18-1.74-11.06-.69-3.91,1.07-5.83,3.25-5.83,6.7,0,1.72,.85,3.46,2.23,4.57,1.55,1.23,3.88,1.87,5.84,2.21l5.28,.95c2.14,.35,3.4,2.42,1.55,3.98-1.75,1.45-4.33,1.33-6.39,.6-1.61-.56-2.77-2.03-2.91-3.63h-5.97c.06,1.42,.48,2.91,1.26,4.08,.89,1.32,2.36,2.59,3.91,3.23,3.82,1.51,7.32,1.6,11.22,.62,3.78-.98,6.02-3.57,6.02-7.08,0-2.53-1.1-4.61-3.5-5.81-1.35-.63-2.79-1.07-4.26-1.3l-6.48-1.07c-1.89-.25-2.65-1.99-1.32-3.23,1.79-1.45,4.17-1.21,6.32-.67"/>
  <path class="cls-2" d="M17.4,19.36H.23v15.82c0,8.72,7.96,15.83,17.7,15.83h17.7l.03-15.38h-11.47c-3.73,0-6.78-2.71-6.78-6.05v-10.22Z"/>
  <path class="cls-1" d="M23.66,19.36h-5.21v10.23c0,2.81,2.58,5.1,5.73,5.11h11.44v-4.67h-7.25c-2.59,0-4.71-1.88-4.71-4.18v-6.48Zm5.72,0h-4.67v6.49c0,1.79,1.64,3.23,3.64,3.24h7.26v-4.13h-3.43c-1.52,0-2.76-1.12-2.79-2.5v-3.1Zm6.22,0h-5.16v3.1c.03,.87,.79,1.56,1.72,1.56h3.44v-4.66Z"/>
</svg>