<?xml version="1.0" encoding="UTF-8"?>
<svg id="Layer_1" data-name="Layer 1" xmlns="http://www.w3.org/2000/svg" viewBox="0 0 7000 7000">
  <defs>
    <style>
      .cls-1 {
        fill: #545454;
      }
    </style>
  </defs>
  <path class="cls-1" d="M2355.98,4536.2c-890.52,0-1688.13-540.3-2020.46-1359.81C-117.65,2058.86,422.81,786.93,1535.69,335.64c1268.92-514.57,2699.63,256.87,2960.5,1604.22,260.03,1343.03-765.53,2596.35-2140.21,2596.34ZM1040.93,1041.05c-725.12,725.12-725.12,1904.98,0,2630.1,725.12,725.12,1904.98,725.12,2630.1,0,725.12-725.12,725.12-1904.98,0-2630.1-725.12-725.12-1904.98-725.12-2630.1,0Z"/>
  <rect class="cls-1" x="3787.79" y="3673.12" width="530.34" height="759.92" transform="translate(-1678.87 4053) rotate(-45)"/>
  <path class="cls-1" d="M6707.6,6707.72c-156.26,156.26-409.8,156.49-566.29,0l-2102.82-2102.82,566.29-566.29,2102.82,2102.82c156.38,156.38,156.38,409.91,0,566.29Z"/>
</svg>