<?xml version="1.0" encoding="UTF-8"?>
<svg id="_ÎÓÈ_1" data-name="—ÎÓÈ_1" xmlns="http://www.w3.org/2000/svg" viewBox="0 0 545.69 799.33">
  <defs>
    <style>
      .cls-1 {
        fill: #282b4a;
      }
    </style>
  </defs>
  <path class="cls-1" d="M272.85,0C122.16,0,0,122.07,0,272.66c0,12.14,2.21,26.89,5.41,41.89,9.31,43.63,26.11,85.3,49.07,123.54,62.47,104.06,218.49,361.24,218.49,361.24,0,0,153.32-253.27,213.13-352.16,22.81-37.72,40.25-78.48,51.22-121.18,4.85-18.88,8.37-37.91,8.37-53.33C545.69,122.07,423.54,0,272.85,0Zm-1.51,399.66c-70.14,0-127.01-56.86-127.01-127.01s56.86-127.01,127.01-127.01,127.01,56.86,127.01,127.01-56.86,127.01-127.01,127.01Z"/>
</svg>