<?xml version="1.0" encoding="UTF-8"?>
<svg id="Layer_1" data-name="Layer 1" xmlns="http://www.w3.org/2000/svg" viewBox="0 0 150 800">
  <defs>
    <style>
      .cls-1 {
        fill: #fff;
      }
    </style>
  </defs>
  <path class="cls-1" d="M150,400c0,41.42-33.58,75-75,75S0,441.42,0,400s33.58-75,75-75,75,33.58,75,75Zm0,325c0,41.42-33.58,75-75,75h0c-41.42,0-75-33.58-75-75H0c0-41.42,33.58-75,75-75s75,33.58,75,75Zm0-650c0,41.42-33.58,75-75,75S0,116.42,0,75,33.58,0,75,0s75,33.58,75,75Z"/>
</svg>