<?xml version="1.0" encoding="UTF-8"?>
<svg id="Layer_1" data-name="Layer 1" xmlns="http://www.w3.org/2000/svg" viewBox="0 0 896.35 135.68">
  <defs>
    <style>
      .cls-1 {
        font-family: PulpDisplay-SemiBold, 'PulpDisplay-SemiBold', 'Pulp Display';
        font-size: 136px;
      }

      .cls-1, .cls-2 {
        fill: #184325;
      }
    </style>
  </defs>
  <g>
    <path class="cls-2" d="M372.61,125.42V27.77h34c10.34,0,18.54,2.83,24.62,8.5,6.07,5.67,9.11,12.85,9.11,21.56,0,7.89-2.38,14.44-7.14,19.65-4.76,5.21-9.86,7.82-15.3,7.82l28.02,40.26h-20.26l-25.57-37.4h-10.2v37.54l-17.27-.27Zm36.86-53.18c3.99,0,7.32-1.25,10-3.74,2.67-2.49,4.01-6.05,4.01-10.68s-1.68-8.09-5.03-10.68c-3.36-2.58-6.94-3.88-10.74-3.88h-17.68v28.97h19.45Z"/>
    <path class="cls-2" d="M464.27,65.44c6.8-6.07,15.1-9.11,24.89-9.11,4.62,0,8.98,.77,13.06,2.31,4.08,1.54,7.75,3.83,11.02,6.87,3.26,3.04,5.71,7.16,7.34,12.38,1.63,5.21,2.22,11.22,1.77,18.02l-51.27,.54c0,3.45,1.47,6.96,4.42,10.54,2.95,3.58,7.14,5.51,12.58,5.78,8.16,.45,14.01-2.72,17.54-9.52l15.5,4.62c-2,4.9-5.76,9.29-11.29,13.19-5.53,3.9-12.33,5.85-20.4,5.85-10.61,0-19.15-3.38-25.64-10.13-6.48-6.75-9.72-15.12-9.72-25.09,0-11.42,3.4-20.17,10.2-26.25Zm40.66,18.09c0-3.54-1.72-6.78-5.17-9.72-3.45-2.95-7.89-4.19-13.33-3.74-3.72,.27-7.05,1.68-10,4.22-2.95,2.54-4.6,5.67-4.96,9.38l33.46-.14Z"/>
    <path class="cls-2" d="M633.73,58.51l-21.08,67.18h-17.54l-14.69-46.78-14.42,46.65h-17.54l-21.9-67.32h17.41l13.87,45.29,14.69-45.7h16.59l14.82,46.24,12.51-45.56h17.27Z"/>
    <path class="cls-2" d="M661.74,127.46c-6.98,.36-12.74-1.16-17.27-4.56-4.53-3.4-7.16-8-7.89-13.8-1.18-13.24,6.34-20.99,22.58-23.26,6.71-1.09,13.1-1.72,19.18-1.9,.45-.82,.75-1.81,.88-2.99,.14-1.18,.04-2.42-.27-3.74-.32-1.31-1.16-2.58-2.52-3.81-1.36-1.22-3.13-2.11-5.3-2.65-4.44-1.09-8.34-.84-11.7,.75-3.36,1.59-5.62,4.51-6.8,8.77l-14.55-4.22c1.45-6.62,5.89-12.01,13.33-16.18,3.72-2.08,8.16-3.33,13.33-3.74,5.17-.41,10.15,.25,14.96,1.97,5.71,2.18,10.02,5.3,12.92,9.38,2.9,4.08,4.35,8.57,4.35,13.46l.41,44.61h-16.46l-.54-8.16c-4.54,6.35-10.74,9.7-18.63,10.06Zm6.39-13.46c4.44-1,7.77-3.1,10-6.32,2.22-3.22,3.06-6.64,2.52-10.27-1.9,.09-4.6,.14-8.09,.14s-6.1,.07-7.82,.2c-1.72,.14-3.63,.43-5.71,.88-2.09,.46-3.58,1.29-4.49,2.52-.91,1.22-1.36,2.83-1.36,4.83,0,3.26,1.43,5.67,4.28,7.21,2.86,1.54,6.41,1.82,10.68,.82Z"/>
    <path class="cls-2" d="M708.25,125.28V58.78h16.32v9.93c2.08-5.17,6.12-8.84,12.1-11.02,2.36-.91,5.28-1.25,8.77-1.02,3.49,.23,6.37,1.02,8.64,2.38l-4.49,14.82c-2.54-1.45-5.89-1.88-10.06-1.29-4.17,.59-7.48,2.24-9.93,4.96-2.27,2.54-3.67,5.46-4.22,8.77-.54,3.31-.82,9.54-.82,18.7v20.4l-16.32-.14Z"/>
    <path class="cls-2" d="M825.35,26.28l.27,99.28-16.05-.14-.68-7.48c-4.54,6.53-11.47,9.79-20.81,9.79-3.81,0-7.59-.86-11.36-2.58-3.76-1.72-7.23-4.17-10.4-7.34-3.17-3.17-5.64-7.32-7.41-12.44-1.77-5.12-2.43-10.72-1.97-16.8,.36-5.17,1.5-9.79,3.4-13.87,1.9-4.08,4.24-7.34,7-9.79,2.76-2.45,5.67-4.35,8.7-5.71,3.04-1.36,6.19-2.22,9.45-2.58,9.79-1.18,17.63,1.63,23.53,8.43l-.14-38.62,16.46-.14Zm-16.46,65.55c0-5.89-1.54-10.72-4.62-14.48-3.08-3.76-7.44-5.69-13.06-5.78-4.99-.09-9.23,1.81-12.72,5.71-3.49,3.9-5.24,8.8-5.24,14.69s1.79,10.43,5.37,14.42c3.58,3.99,7.96,5.89,13.12,5.71,4.26-.18,7.73-1.43,10.4-3.74,2.67-2.31,4.46-4.85,5.37-7.62,.91-2.76,1.36-5.73,1.36-8.91Z"/>
    <path class="cls-2" d="M879.34,77.96c-1-2.63-2.83-4.62-5.51-5.98-2.68-1.36-5.37-2.04-8.09-2.04s-5.26,.59-7.34,1.77c-2.09,1.18-3.13,2.68-3.13,4.49,0,2.18,1.09,3.79,3.26,4.83,2.18,1.04,6.44,2.29,12.78,3.74,1.99,.46,3.54,.82,4.62,1.09,12.78,3.08,19.18,10.02,19.18,20.81,0,5.35-2.54,10.2-7.62,14.55-5.08,4.35-12.2,6.53-21.35,6.53-7.8,0-14.19-1.88-19.18-5.64-4.99-3.76-8.48-8.23-10.47-13.4l14.82-6.39c.82,2.36,2.33,4.54,4.56,6.53,2.22,2,4.64,3.31,7.28,3.94,3.17,.73,6.46,.57,9.86-.48,3.4-1.04,5.19-2.97,5.37-5.78,.18-2.45-1.09-4.4-3.81-5.85-2.72-1.45-6.6-2.67-11.63-3.67-5.03-1-7.96-1.63-8.77-1.9-4.17-1.36-7.75-3.65-10.74-6.87-2.99-3.22-4.49-6.73-4.49-10.54,0-5.26,2.08-10.06,6.26-14.42,4.17-4.35,9.93-6.98,17.27-7.89,3.72-.45,7.59-.23,11.63,.68,4.03,.91,7.93,2.74,11.7,5.51,3.76,2.77,6.41,6.23,7.96,10.4l-14.42,5.98Z"/>
  </g>
  <path class="cls-2" d="M355.31,117.9c0-11.92,.13-18.96,0-30.89,0-3.23-.06-6.47-.51-9.64-1.21-8.69-4.44-16.3-12.24-21.18-13-7.99-32.54-5.71-43.32,5.01-.38,.44-.89,.76-1.33,1.14l-7.55-6.03c-12.94-8.06-32.54-5.71-43.26,5.01-.44,.44-.89,.76-1.33,1.14-8.75-10.15-18.9-13.89-30.51-11.8,1.33-4.69,2.6-12.05,1.9-18.46-1.08-9.89-7.42-15.54-7.42-15.54,0,0-4.69-5.77-7.48-3.43-1.4,1.14-1.4,2.92-1.4,3.04l.57,4.76c.13,1.14-.06,2.28-.57,3.3-1.21,2.54-4.31,7.17-11.61,11.48-7.23,4.31-12.49,10.66-14.71,14.59-1.14,2.03-1.65,3.36-2.22,6.03-2.73,11.54,1.33,14.21,3.3,17.12,1.46,1.59,2.28,2.03,2.73,2.03,.32,.06,.51-.25,.38-.51-.06-.38-.13-1.27,.25-3.68,.57-3.42,3.74-13.57,12.24-21.63,.89-.89,.7-.63,1.78-1.59,4.5-4.31,8.31-7.93,10.78-13.07,.89-1.84,4-7.74,3.93-6.03,0,.7-.06,1.2-.51,2.6-.25,.7-.25,.76-.38,1.02-.06,.13-.13,.44-.51,1.2-.13,.32-.32,.76-.51,1.14s-.57,1.21-1.33,2.47c0,0-.95,1.59-1.97,2.98-2.73,3.93-9.77,11.1-9.77,11.1-8.56,8.75-10.47,21.18-11.99,26.38-.63,2.22-.7,2.6-1.02,4.06-.19,1.02-.44,1.97-.57,3.11-.44,3.36-.44,4.25-.51,6.34-.06,.51-.06,.95-.06,1.33v.06l.06,10.72c.06,8.06,.06,16.05,0,24.1h17.95c.25-12.5,.44-25.05,.89-37.55,.06-3.68,.19-7.68,.44-10.78,.06-.57,.13-1.14,.25-1.71,.57-2.79,1.71-5.05,1.9-5.36l.06-.09c1.78-2.66,9.13-10.02,19.54-6.47,1.01,.38,3.55,2.22,4.12,2.85,1.08,.95,2.47,2.98,3.74,5.14,2.92,5.01,2.98,10.27,2.98,15.73,.06,10.66,.06,21.37,0,32.09,0,2.03,0,4.12,.06,6.15l20.68-.06c.19-5.14,.13-10.15,.32-15.16,.32-10.97-.76-21.95,1.27-32.79,1.52-8.31,6.28-13.51,14.46-15.03,5.84-1.02,12.3,2.6,13.32,8.44,1.01,5.64,1.14,11.35,1.33,17.06,.32,9.26,0,18.65,.13,27.91,.06,3.3-.25,6.28-.06,9.39l21.63,.19,.06-15.29c.32-10.91-.7-21.88,1.27-32.85,1.52-8.25,6.28-13.45,14.52-14.9,5.84-1.08,12.37,2.47,13.45,8.31,1.01,5.65,1.01,11.42,1.21,17.13,.32,9.32,0,18.65,.13,27.97,0,3.3-.32,6.53-.06,9.7l21.06-.06c0-.89,.06-5.26,0-6.6v-3.17Z"/>
  <text class="cls-1" transform="translate(-4.8 126.08)"><tspan x="0" y="0">2x</tspan></text>
</svg>