<?xml version="1.0" encoding="UTF-8"?>
<svg id="Layer_1" data-name="Layer 1" xmlns="http://www.w3.org/2000/svg" viewBox="0 0 397.87 135.68">
  <defs>
    <style>
      .cls-1 {
        fill: #184325;
      }
    </style>
  </defs>
  <path class="cls-1" d="M1.06,126.54V28.89H35.06c10.34,0,18.54,2.83,24.62,8.5,6.07,5.67,9.11,12.85,9.11,21.56,0,7.89-2.38,14.44-7.14,19.65-4.76,5.21-9.86,7.82-15.3,7.82l28.02,40.26h-20.26l-25.57-37.4h-10.2v37.54l-17.27-.27Zm36.86-53.18c3.99,0,7.32-1.25,10-3.74,2.67-2.49,4.01-6.05,4.01-10.68s-1.68-8.09-5.03-10.68c-3.36-2.58-6.94-3.88-10.74-3.88H18.46v28.97h19.45Z"/>
  <path class="cls-1" d="M99.79,126.67h-19.99l23.26-33.73-23.26-33.46h19.99l13.46,20.13,12.92-20.13,19.99,.14-23.26,32.91,23.94,34.14h-19.99l-14.01-21.62-13.06,21.62Z"/>
  <path class="cls-1" d="M215.25,110.08v16.59h-60.25V29.03h18.36V110.08h41.89Z"/>
  <path class="cls-1" d="M241.77,44.39c-2.09,2-4.62,2.99-7.62,2.99s-5.53-1-7.62-2.99c-2.09-1.99-3.13-4.49-3.13-7.48s1.04-5.48,3.13-7.48c2.08-1.99,4.62-2.99,7.62-2.99s5.53,1,7.62,2.99c2.08,2,3.13,4.49,3.13,7.48s-1.04,5.49-3.13,7.48Zm1.22,14.55V126.95h-17.41V58.95h17.41Z"/>
  <path class="cls-1" d="M258.5,59.63h16.05v9.52c4.71-6.8,10.47-10.61,17.27-11.42,6.62-.82,12.15,0,16.59,2.45,4.44,2.45,7.62,5.62,9.52,9.52,1.99,4.26,2.99,11.47,2.99,21.62v35.36h-17v-36.18c0-6.34-1.02-10.92-3.06-13.74-2.04-2.81-6.05-4.17-12.04-4.08-3.45,.09-6.57,1.9-9.38,5.44-2.81,3.54-4.22,8.52-4.22,14.96v33.59h-16.73V59.63Z"/>
  <path class="cls-1" d="M376.14,126.67l-26.93-31.14v31.14h-17.41V27.12h17.54v59.02l25.3-27.06h20.67l-28.15,31.42,31.55,36.18h-22.58Z"/>
</svg>