<?xml version="1.0" encoding="UTF-8"?>
<svg id="Layer_1" data-name="Layer 1" xmlns="http://www.w3.org/2000/svg" viewBox="0 0 454.72 247.36">
  <defs>
    <style>
      .cls-1 {
        fill: #fff;
      }
    </style>
  </defs>
  <path class="cls-1" d="M400.81,208.92c0-22.98,.24-36.55,0-59.53,0-6.23-.12-12.47-.98-18.58-2.32-16.75-8.56-31.41-23.59-40.83-25.06-15.4-62.71-11-83.49,9.66-.73,.86-1.71,1.47-2.57,2.2l-14.55-11.61c-24.94-15.52-62.71-11-83.36,9.66-.86,.86-1.71,1.47-2.57,2.2-16.87-19.56-36.43-26.77-58.8-22.74,2.57-9.05,5.01-23.22,3.67-35.57-2.08-19.07-14.3-29.95-14.3-29.95,0,0-9.05-11.12-14.42-6.6-2.69,2.2-2.69,5.62-2.69,5.87l1.1,9.17c.24,2.2-.12,4.4-1.1,6.36-2.32,4.89-8.31,13.81-22.37,22.13-13.93,8.31-24.08,20.53-28.36,28.11-2.2,3.91-3.18,6.48-4.28,11.61-5.26,22.25,2.57,27.38,6.36,33,2.81,3.06,4.4,3.91,5.26,3.91,.61,.12,.98-.49,.73-.98-.12-.73-.24-2.44,.49-7.09,1.1-6.6,7.21-26.16,23.59-41.68,1.71-1.71,1.35-1.22,3.42-3.06,8.68-8.31,16.01-15.28,20.78-25.18,1.71-3.55,7.7-14.91,7.58-11.61,0,1.34-.12,2.32-.98,5.01-.49,1.35-.49,1.47-.73,1.96-.12,.24-.24,.85-.98,2.32-.24,.61-.61,1.47-.98,2.2s-1.1,2.32-2.57,4.77c0,0-1.83,3.06-3.79,5.75-5.26,7.58-18.82,21.39-18.82,21.39-16.5,16.87-20.17,40.83-23.1,50.85-1.22,4.28-1.34,5.01-1.96,7.82-.37,1.96-.86,3.79-1.1,5.99-.86,6.48-.86,8.19-.98,12.22-.12,.98-.12,1.83-.12,2.57v.12l.12,20.66c.12,15.52,.12,30.93,0,46.45h34.59c.49-24.08,.86-48.28,1.71-72.36,.12-7.09,.37-14.79,.86-20.78,.12-1.1,.24-2.2,.49-3.3,1.1-5.38,3.3-9.72,3.67-10.33l.12-.18c3.42-5.13,17.6-19.31,37.65-12.47,1.96,.73,6.85,4.28,7.94,5.5,2.08,1.83,4.77,5.74,7.21,9.9,5.62,9.66,5.74,19.8,5.74,30.31,.12,20.53,.12,41.19,0,61.85,0,3.91,0,7.95,.12,11.86l39.85-.12c.37-9.9,.24-19.56,.61-29.22,.61-21.15-1.47-42.29,2.44-63.2,2.93-16.01,12.1-26.04,27.87-28.97,11.25-1.96,23.71,5.01,25.67,16.26,1.96,10.88,2.2,21.88,2.57,32.88,.61,17.85,0,35.94,.24,53.78,.12,6.36-.49,12.1-.12,18.09l41.68,.37,.12-29.46c.61-21.03-1.35-42.17,2.44-63.32,2.93-15.89,12.1-25.91,27.99-28.73,11.25-2.08,23.84,4.77,25.91,16.01,1.96,10.88,1.96,22,2.32,33,.61,17.97,0,35.94,.24,53.91,0,6.36-.61,12.59-.12,18.7l40.58-.12c0-1.71,.12-10.15,0-12.71v-6.11Z"/>
</svg>