<svg xmlns="http://www.w3.org/2000/svg" width="369" height="374" fill="none"><g fill="#7662EE" fill-opacity=".31" clip-path="url(#a)"><path d="M-3.344 343.49v7.167L7.85 371.53h3.831c-4.991-9.357-10.028-18.682-15.026-28.04m30.532 28.824a7 7 0 0 0-.324-.784c-.298-.674-.668-1.328-1.018-1.983a43947 43947 0 0 0-18.384-34.235c-3.598-6.694-7.15-13.414-10.806-20.075v7.037a29303 29303 0 0 0 15.454 28.83c3.65 6.805 7.358 13.583 10.949 20.426.097.188.194.369.292.557.797 1.53 1.938 1.53 3.24 1.309.267-.045.695-.81.597-1.082m14.262-1.918c-6.184-11.567-12.375-23.128-18.56-34.695-3.442-6.422-6.871-12.85-10.32-19.272-5.309-9.882-10.631-19.745-15.914-29.634v7.193c3.046 5.644 6.1 11.289 9.127 16.946 4.434 8.275 8.83 16.576 13.27 24.851 6.145 11.464 12.317 22.914 18.455 34.378.318.596.61 1.05.915 1.367.771.83 1.614.784 3.189 0q.134-.058.279-.136c-.143-.331-.266-.68-.441-.998m13.496-3.182c-4.356-8.197-8.783-16.362-13.165-24.54-4.434-8.282-8.843-16.577-13.27-24.858-6.295-11.749-12.602-23.497-18.903-35.24-4.311-8.022-8.583-16.051-12.952-24.035v7.038c4.323 8.048 8.557 15.935 12.777 23.821 4.408 8.23 8.79 16.479 13.198 24.709 7.163 13.369 14.333 26.737 21.496 40.1 2.58 4.808 5.14 9.623 7.734 14.418.778 1.445 2.262 1.944 3.468 1.056 1.232-.9-.007-1.756-.383-2.469m272.481-200.387c-4.421-8.035-8.687-16.161-13.011-24.255-4.129-7.705-8.252-15.417-12.388-23.122-6.126-11.411-12.265-22.816-18.384-34.234-4.363-8.133-8.7-16.285-13.056-24.418-6.197-11.56-12.408-23.115-18.611-34.669-3.702-6.895-7.423-13.783-11.118-20.678-.843-1.575-1.634-3.182-2.535-4.951h-4.304c.285.156.532.35.668.59 4.92 9.059 9.782 18.15 14.644 27.242 4.408 8.23 8.79 16.473 13.205 24.703 6.119 11.418 12.265 22.823 18.384 34.241 4.363 8.133 8.7 16.279 13.056 24.418 6.197 11.554 12.414 23.108 18.605 34.669 4.362 8.132 8.693 16.284 13.056 24.417.259.473.661.875 1.043 1.374 1.485-1.782 1.854-3.311.746-5.327m7.02-15.215c-1.393-1.964-2.32-4.258-3.461-6.403-4.35-8.139-8.687-16.284-13.05-24.417-6.126-11.418-12.271-22.823-18.391-34.235-4.46-8.327-8.887-16.674-13.341-25q-9.48-17.7-18.981-35.389c-3.623-6.752-7.279-13.492-10.903-20.244-.927-1.717-1.822-3.467-2.833-5.424h-4.078c.266.246.5.544.642.817a11718 11718 0 0 1 19.156 35.66c7.345 13.7 14.683 27.405 22.021 41.104 6.476 12.085 12.959 24.165 19.428 36.25 6.995 13.09 13.97 26.193 20.971 39.283.688 1.29 1.459 2.534 2.237 3.882 1.621-2.022 2.113-3.72.583-5.884m6.976-15.313c-2.529-4.769-5.089-9.519-7.637-14.276-6.204-11.561-12.414-23.108-18.611-34.669-4.382-8.184-8.739-16.382-13.127-24.566a31458 31458 0 0 0-18.754-34.954c-3.676-6.85-7.371-13.687-11.047-20.536-1.186-2.197-2.333-4.413-3.578-6.798h-4.039c.292.24.538.557.746.972 1.108 2.164 2.262 4.296 3.41 6.441 4.395 8.237 8.784 16.48 13.198 24.71 6.885 12.843 13.802 25.674 20.686 38.511 4.434 8.282 8.836 16.576 13.27 24.858a34082 34082 0 0 0 21.353 39.808c1.083 2.022 2.191 4.031 3.332 6.117 1.757-2.3 1.932-3.486.798-5.618m6.093-17.108c-1.562-2.449-2.826-5.093-4.201-7.666-4.356-8.139-8.699-16.285-13.055-24.417-6.34-11.853-12.7-23.692-19.046-35.538-3.52-6.564-7.021-13.135-10.541-19.706-5.406-10.083-10.819-20.16-16.219-30.25-.175-.323-.305-.68-.467-1.114h-4.207c.272.233.506.55.72.953 7.707 14.424 15.461 28.824 23.201 43.229 5.536 10.323 11.085 20.64 16.608 30.962 8.602 16.09 17.192 32.187 25.794 48.271.259.486.596.933 1.018 1.581 1.147-2.255 1.789-4.114.395-6.305m5.672-17.678a2143 2143 0 0 1-8.68-16.11c-4.427-8.281-8.836-16.57-13.27-24.851a36290 36290 0 0 0-18.831-35.103c-3.65-6.798-7.326-13.583-10.969-20.387-.771-1.439-1.497-2.903-2.346-4.562h-4.136c.227.194.421.44.551.661 1.523 2.676 2.962 5.392 4.414 8.107 4.473 8.379 8.927 16.77 13.413 25.143 6.839 12.746 13.71 25.474 20.543 38.227 5.38 10.037 10.722 20.095 16.09 30.139.868 1.633 1.795 3.227 2.768 4.964 1.698-2.813 1.704-3.94.453-6.228m5.199-18.578c-3.844-7.005-7.526-14.095-11.299-21.139-6.191-11.56-12.401-23.115-18.605-34.669-3.727-6.94-7.467-13.874-11.195-20.82-.979-1.828-1.925-3.669-3.04-5.807h-4.058c.233.214.44.486.583.72.908 1.529 1.705 3.13 2.548 4.697 6.45 12.034 12.906 24.068 19.35 36.108 6.872 12.85 13.73 25.714 20.602 38.564 1.491 2.786 3.02 5.56 4.777 8.787.623-2.456 1.537-4.264.337-6.441m4.389-20.212c-2.269-4.109-4.441-8.275-6.658-12.416-3.435-6.422-6.865-12.85-10.313-19.272-5.206-9.701-10.437-19.39-15.643-29.09-.227-.421-.376-.875-.59-1.445h-4.466c.674.454 1.186 1.16 1.672 2.1 4.409 8.476 8.94 16.887 13.452 25.311 7.053 13.18 14.132 26.349 21.211 39.523.226.421.525.803.79 1.205.519-2.054 1.679-3.868.545-5.916m2.937-22.843c-2.081-3.532-3.87-7.232-5.815-10.841-3.598-6.707-7.228-13.395-10.82-20.102C347.613 6.21 346.2 3.461 344.644.5h-4.129c.227.207.428.467.564.7a820 820 0 0 1 6.34 11.664c5.27 9.857 10.521 19.72 15.791 29.57.778 1.45 1.602 2.883 2.399 4.322.557-2.346 1.504-4.51.104-6.876m-4.285-36.328c-.5-.92-.966-1.86-1.569-3.052h-4.039c.247.227.454.531.648.907 2.626 5.022 5.31 10.019 7.987 15.008 1.089 2.035 2.223 4.038 3.442 6.24.272-.621.434-.997.603-1.373v-4.86c-2.36-4.29-4.726-8.573-7.072-12.87m-42.617 182.722c-1.607-2.968-3.195-5.884-4.771-8.813-7.02-13.077-14.047-26.147-21.055-39.231-4.46-8.327-8.888-16.667-13.348-24.994-6.119-11.418-12.258-22.817-18.384-34.235-3.494-6.513-6.969-13.045-10.463-19.557a36097 36097 0 0 0-18.76-34.948c-1.362-2.527-2.814-5.015-2.263-8.074.124-.68.214-1.361.396-2.508 1.018 1.815 1.841 3.227 2.606 4.666 5.367 10.044 10.702 20.101 16.083 30.14 7.572 14.126 15.189 28.227 22.767 42.354 4.466 8.32 8.881 16.673 13.341 24.994 6.981 13.031 13.989 26.057 20.977 39.088 4.823 8.988 9.633 17.983 14.443 26.977.648 1.212.136 2.625-1.582 4.141zM227.862 37.917c1.309 2.397 2.638 4.782 3.928 7.193 5.244 9.804 10.463 19.622 15.714 29.42 6.832 12.746 13.704 25.473 20.543 38.22 4.466 8.32 8.881 16.673 13.347 24.994 6.12 11.418 12.259 22.823 18.385 34.235 4.11 7.653 8.22 15.313 12.317 22.979.972 1.814.739 2.67-1.252 4.698-.933-1.672-1.86-3.273-2.735-4.906a59894 59894 0 0 1-23.947-44.661c-4.408-8.23-8.784-16.479-13.192-24.709-6.91-12.889-13.846-25.765-20.757-38.654-4.239-7.893-8.459-15.8-12.686-23.692-3.339-6.234-6.645-12.481-10.016-18.695-1.186-2.184-.414-4.232.364-6.41zm74.542 174.33c-.771-1.361-1.562-2.689-2.288-4.044-4.356-8.132-8.693-16.278-13.056-24.417-6.217-11.606-12.453-23.206-18.676-34.812-4.356-8.132-8.693-16.285-13.056-24.417-6.119-11.412-12.258-22.817-18.384-34.235-3.495-6.513-6.976-13.038-10.463-19.564-1.141-2.145-2.152-4.367-3.436-6.422-1.316-2.106-.272-3.862.382-6.208.889 1.543 1.582 2.67 2.205 3.837 5.244 9.804 10.462 19.622 15.713 29.42 6.833 12.746 13.704 25.473 20.543 38.22 4.493 8.372 8.927 16.771 13.419 25.143 6.094 11.366 12.213 22.726 18.313 34.086a7441 7441 0 0 1 10.087 18.844c1.083 2.029.843 2.871-1.316 4.569zM218.112 76.429c1.549 2.844 2.969 5.423 4.356 8.016 7.961 14.84 15.921 29.672 23.875 44.518 4.434 8.282 8.829 16.577 13.27 24.852 6.022 11.224 12.07 22.434 18.093 33.658 3.546 6.61 7.066 13.233 10.612 19.849 2.191 4.089 4.375 8.184 6.599 12.26 1.225 2.243 1.115 2.884-1.199 4.757-.804-1.4-1.628-2.754-2.373-4.154-7.74-14.47-15.461-28.947-23.201-43.411-5.653-10.562-11.318-21.125-16.978-31.681-8.181-15.274-16.362-30.542-24.549-45.815-2.982-5.567-5.886-11.179-9.024-16.654-1.257-2.204-.577-3.94.512-6.195zm-6.379 16.446c1.536 2.806 2.865 5.197 4.162 7.614 4.427 8.282 8.829 16.577 13.27 24.852 6.884 12.844 13.794 25.674 20.685 38.512 4.214 7.847 8.408 15.701 12.615 23.549 6.399 11.943 12.797 23.879 19.195 35.822 1.634 3.046 3.274 6.085 4.888 9.137.668 1.258.279 1.99-1.9 3.552-1.471-2.703-2.949-5.379-4.395-8.068a42169 42169 0 0 1-21.723-40.534c-5.244-9.804-10.462-19.622-15.713-29.42-6.833-12.747-13.711-25.474-20.543-38.227-3.903-7.277-7.747-14.587-11.65-21.864-1.024-1.912.513-3.04 1.109-4.925m63.879 154.43c-1.342-2.417-2.515-4.452-3.624-6.526-6.995-13.09-13.97-26.186-20.971-39.276-6.463-12.086-12.945-24.165-19.422-36.251a86748 86748 0 0 0-21.729-40.52c-1.938-3.616-3.915-7.206-5.873-10.816-1.355-2.501-1.277-3.052.83-5.553.79 1.393 1.575 2.722 2.301 4.082 4.577 8.567 9.121 17.153 13.71 25.72 5.99 11.179 12.026 22.331 18.022 33.509 4.414 8.23 8.79 16.473 13.198 24.703 6.172 11.509 12.356 23.011 18.527 34.52 2.243 4.186 4.467 8.379 6.69 12.584.96 1.821-.836 2.333-1.659 3.817zM196.92 121.919c1.692 3.098 3.125 5.69 4.519 8.302 6.126 11.47 12.239 22.946 18.371 34.409 8.116 15.177 16.258 30.341 24.388 45.511 6.476 12.079 12.945 24.158 19.421 36.237 1.349 2.521 2.742 5.016 4.078 7.549.661 1.251.052 2.858-1.284 3.202-.33.084-1.011-.441-1.238-.849-2.366-4.303-4.68-8.632-7.001-12.961-6.353-11.839-12.706-23.672-19.046-35.518-4.434-8.275-8.829-16.569-13.263-24.845-6.016-11.223-12.064-22.428-18.086-33.645-4.11-7.653-8.201-15.312-12.298-22.979-.972-1.82.798-2.65 1.433-4.413zm-8.07 13.304c1.342 2.443 2.638 4.737 3.883 7.064 8.621 16.129 17.23 32.271 25.859 48.407a28782 28782 0 0 0 19.421 36.243c6.658 12.41 13.328 24.813 19.986 37.223 1.005 1.872-.998 2.112-1.725 3.402-.544-.771-.985-1.283-1.303-1.866-5.25-9.799-10.462-19.616-15.72-29.414-6.832-12.747-13.704-25.467-20.536-38.214-4.512-8.418-8.979-16.861-13.49-25.279a22397 22397 0 0 0-17.989-33.516c-.765-1.425-.493-2.222 1.614-4.043zM-2.515 238.427c2.49-.856 3.32-.544 4.376 1.419 8.473 15.779 16.965 31.552 25.431 47.338 5.38 10.031 10.696 20.101 16.077 30.133 7.571 14.12 15.175 28.227 22.766 42.341.999 1.854 2.016 3.694 2.943 5.586.28.571 1.232 1.419.085 1.867-.92.356-2.198 1.147-3.015-.305a385 385 0 0 1-3.734-6.811c-7.117-13.265-14.242-26.523-21.347-39.795-4.505-8.417-8.971-16.861-13.483-25.279-6.833-12.74-13.698-25.467-20.537-38.207-3.086-5.754-6.139-11.528-9.199-17.296-.149-.272-.22-.589-.37-.985zm248.469 38.563c-.687-1.198-1.406-2.384-2.061-3.603-6.133-11.469-12.239-22.952-18.378-34.416-8.914-16.654-17.847-33.295-26.767-49.943-5.659-10.562-11.312-21.119-16.977-31.681-.966-1.808-1.932-3.623-2.956-5.398-1.355-2.353-1.271-2.852 1.18-4.744.648 1.115 1.322 2.19 1.925 3.312 5.27 9.849 10.508 19.719 15.791 29.562 8.441 15.741 16.92 31.462 25.366 47.208 5.381 10.038 10.71 20.102 16.084 30.14 2.722 5.093 5.49 10.161 8.245 15.235 1.284 2.365 1.128 2.896-1.445 4.335zM83.437 363.76c-2.975 1.232-3.053 1.277-4.337-1.075-3.59-6.584-7.117-13.207-10.663-19.81-6.301-11.742-12.609-23.485-18.897-35.233-4.434-8.275-8.836-16.57-13.27-24.845-6.139-11.464-12.304-22.914-18.455-34.371a2742 2742 0 0 1-5.122-9.558c-.194-.363-.298-.778-.44-1.16 2.43-1.134 3.247-.862 4.382 1.257 7.973 14.885 15.966 29.763 23.933 44.655 5.374 10.038 10.696 20.101 16.077 30.133 7.695 14.36 15.422 28.707 23.13 43.067 1.218 2.268 2.398 4.556 3.65 6.94zm152.191-77.613c-.863-1.542-1.699-2.974-2.477-4.432-6.132-11.47-12.245-22.953-18.378-34.423-7.357-13.758-14.728-27.502-22.092-41.253-6.476-12.086-12.946-24.171-19.428-36.25-1.277-2.379-2.6-4.731-3.864-7.116-1.193-2.261-1.005-2.877 1.368-4.452.791 1.387 1.601 2.761 2.353 4.161 5.316 9.947 10.612 19.913 15.934 29.854 6.859 12.798 13.75 25.577 20.615 38.369 4.336 8.088 8.647 16.188 12.984 24.275 4.642 8.658 9.29 17.309 13.938 25.966q.231.427.453.862 1.317 2.567-1.406 4.439m-138.921 74.01c-2.49 1.432-2.995 1.368-4.142-.751-3.637-6.681-7.228-13.388-10.833-20.089a26000 26000 0 0 1-18.896-35.233c-4.382-8.178-8.739-16.375-13.12-24.553-6.095-11.367-12.214-22.713-18.307-34.08-1.654-3.084-3.268-6.188-4.895-9.273 1.997-1.374 3.209-1.069 4.266.907 6.139 11.464 12.304 22.914 18.449 34.371 4.259 7.939 8.499 15.89 12.758 23.835 6.223 11.599 12.459 23.199 18.676 34.805 4.46 8.32 8.894 16.66 13.34 24.987.908 1.698 1.81 3.396 2.704 5.081zm64.443-191.535c1.193 2.158 2.418 4.303 3.578 6.474 5.368 10.038 10.696 20.101 16.077 30.133 7.571 14.12 15.188 28.221 22.76 42.341 4.492 8.366 8.939 16.758 13.412 25.137 3.306 6.189 6.645 12.358 9.893 18.572.304.577.369 1.679.019 2.126-1.257 1.607-1.873 1.445-2.852-.383-7.06-13.174-14.132-26.335-21.192-39.509-4.434-8.275-8.835-16.57-13.269-24.845-6.139-11.464-12.304-22.914-18.456-34.371-4.006-7.465-7.999-14.937-12.019-22.389-1.082-2.003 1.031-2.204 1.524-3.312.175.007.343.013.518.026zM43.064 232.867c.26.246.927.622 1.238 1.199a1831 1831 0 0 1 8.933 16.518c6.353 11.839 12.712 23.678 19.052 35.531 4.506 8.424 8.972 16.868 13.49 25.285 6.833 12.747 13.698 25.48 20.544 38.221.946 1.756 1.938 3.499 2.787 5.3.227.486.22 1.575-.026 1.698-.843.428-1.873 1.18-2.755.039-.46-.59-.804-1.277-1.16-1.938-7.96-14.839-15.928-29.672-23.869-44.519-4.557-8.514-9.069-17.055-13.633-25.57-6.016-11.224-12.07-22.435-18.093-33.652-2.806-5.23-5.6-10.472-8.368-15.721-.915-1.724-.532-2.313 1.867-2.378zm107.967-54.829c.875 1.581 1.782 3.156 2.638 4.763 5.361 10.044 10.703 20.095 16.077 30.133 6.832 12.746 13.704 25.467 20.536 38.207 4.486 8.366 8.933 16.758 13.406 25.137 4.142 7.756 8.311 15.5 12.414 23.277.292.557.415 1.555.11 2.002-1.076 1.568-2.055 1.413-2.962-.285-6.865-12.85-13.717-25.701-20.589-38.544-6.463-12.086-12.945-24.159-19.415-36.238-7.338-13.699-14.676-27.391-22.014-41.091-.584-1.095-1.213-2.164-1.783-3.266-1.232-2.404-1.161-2.585 1.582-4.082zM56.982 228.83c.208.551.363 1.127.642 1.639 2.982 5.567 5.99 11.12 8.972 16.68q9.501 17.691 18.974 35.382c4.46 8.327 8.881 16.674 13.341 24.994 6.12 11.418 12.259 22.817 18.384 34.229 1.556 2.903 3.099 5.812 4.648 8.715.37.687.83 1.439-.226 1.873-.947.389-2.016 1.147-2.794-.298-.895-1.665-1.783-3.331-2.678-4.996-5.238-9.805-10.456-19.622-15.713-29.42-6.833-12.747-13.704-25.474-20.543-38.22-4.493-8.373-8.933-16.765-13.42-25.144-3.947-7.374-7.92-14.736-11.856-22.116-.998-1.873-.525-2.618 1.582-2.657l.674-.674zm148.839 80.069c-.687.492-1.342 1.115-2.126 1.452-.247.103-.992-.48-1.219-.908-3.326-6.117-6.599-12.26-9.886-18.397-6.301-11.749-12.608-23.491-18.903-35.246-4.408-8.23-8.79-16.479-13.198-24.709-6.172-11.509-12.356-23.011-18.534-34.52a404 404 0 0 1-3.403-6.441c-.661-1.29-.201-2.514 1.193-2.903.382-.11 1.192.35 1.419.764 2.457 4.439 4.836 8.924 7.235 13.389 6.275 11.696 12.556 23.393 18.825 35.096 4.382 8.185 8.738 16.382 13.127 24.56 6.068 11.321 12.161 22.629 18.235 33.944 2.217 4.14 4.402 8.294 6.593 12.448.201.376.35.784.642 1.458zm-70.705 38.045c-.59.337-1.154.862-1.776.946-.538.072-1.407-.188-1.679-.596-.921-1.393-1.64-2.909-2.425-4.387-7.111-13.265-14.229-26.523-21.34-39.795-4.356-8.132-8.687-16.278-13.05-24.411-6.216-11.599-12.452-23.199-18.67-34.798a2487 2487 0 0 1-8.433-15.864c-.356-.68-1.186-1.549.195-2.099 1.07-.428 2.035-.869 2.826.635 4.966 9.396 9.99 18.76 15.02 28.124 6.839 12.74 13.704 25.46 20.537 38.207 4.563 8.508 9.075 17.049 13.632 25.564 4.784 8.943 9.588 17.879 14.379 26.815.226.428.421.875.79 1.653zm-5.517-151.837c.175.22.512.538.72.933a5497 5497 0 0 1 9.212 17.108c6.327 11.794 12.66 23.581 18.974 35.381 4.46 8.328 8.881 16.674 13.341 24.995 6.982 13.031 13.989 26.056 20.977 39.088.461.856.843 1.756 1.342 2.586.551.92.247 1.438-.583 1.97-1.536.985-1.647.978-2.522-.655-6.988-13.031-14.002-26.05-20.977-39.082-4.59-8.56-9.121-17.153-13.704-25.72-6.859-12.792-13.75-25.571-20.615-38.363a2519 2519 0 0 1-8.22-15.435c-.615-1.173.467-2.826 2.055-2.806m17.879 146.485c-.557.362-1.089.939-1.718 1.056-.518.097-1.413-.182-1.659-.583-1.271-2.068-2.405-4.219-3.546-6.357-5.245-9.805-10.456-19.616-15.714-29.414-6.832-12.747-13.704-25.467-20.536-38.214-4.486-8.372-8.933-16.764-13.413-25.136-3.513-6.565-7.046-13.123-10.573-19.681-.356-.661-.946-1.406.136-1.879.96-.421 2.036-1.335 2.879.272 1.756 3.344 3.552 6.668 5.335 9.999 7.066 13.174 14.138 26.336 21.198 39.516 4.434 8.276 8.835 16.57 13.269 24.845 6.146 11.464 12.304 22.914 18.456 34.371q2.605 4.85 5.193 9.708c.2.376.363.777.693 1.503zm35.693-18.352c-.661.453-1.284 1.049-2.016 1.315-.318.117-1.083-.33-1.297-.719-4.045-7.439-8.038-14.911-12.044-22.37-6.126-11.405-12.259-22.81-18.378-34.215-3.546-6.61-7.06-13.233-10.606-19.836-6.197-11.554-12.401-23.096-18.598-34.65-1.348-2.521-2.612-5.093-4.013-7.582-.771-1.373.104-1.762 1.025-2.332 1.102-.674 1.53-.052 1.983.803 5.945 11.14 11.883 22.279 17.847 33.399 8.44 15.734 16.913 31.455 25.353 47.189 5.251 9.791 10.469 19.609 15.707 29.407 1.426 2.663 2.872 5.314 4.304 7.977.227.421.396.881.726 1.62zm-76.397-114.058c.169.201.519.499.726.881 3.546 6.61 7.06 13.239 10.599 19.849 6.191 11.554 12.401 23.102 18.599 34.662 4.337 8.088 8.647 16.182 12.978 24.269 6.268 11.697 12.55 23.393 18.825 35.09.765 1.426 1.51 2.864 2.314 4.271.59 1.03.726 1.775-.531 2.514-1.225.726-1.796.395-2.386-.719-2.632-4.958-5.322-9.883-7.973-14.827-6.45-12.034-12.901-24.061-19.344-36.101-4.48-8.373-8.927-16.765-13.413-25.137-6.858-12.792-13.743-25.571-20.614-38.356-.616-1.141-1.18-2.307-1.809-3.441-.797-1.439.052-2.897 2.023-2.955zm52.917 126.778c-.745.415-1.419.94-2.184 1.147-.37.097-1.109-.291-1.323-.667-1.666-2.962-3.248-5.975-4.855-8.969-8.032-14.982-16.07-29.964-24.089-44.953-5.271-9.85-10.508-19.719-15.785-29.563-6.068-11.32-12.168-22.628-18.249-33.936-.155-.285-.317-.571-.44-.869-.325-.784-1.16-1.574.259-2.242 1.212-.57 1.97-.81 2.78.739 5.556 10.556 11.222 21.048 16.868 31.558 6.846 12.741 13.711 25.474 20.544 38.221 4.466 8.32 8.887 16.667 13.341 25 4.148 7.757 8.304 15.514 12.453 23.271l.674 1.27z"/><path d="M23.35 372.087c-.097-.188-.194-.369-.291-.557h3.805c.123.253.234.518.324.784.098.272-.33 1.037-.596 1.082-1.303.221-2.444.221-3.241-1.309m15.072-.557h3.189c-1.575.784-2.418.829-3.19 0"/></g><defs><clipPath id="a"><path fill="#fff" d="M-3.5.5h372v373h-372z"/></clipPath></defs></svg>