<?xml version="1.0" encoding="UTF-8"?>
<svg id="_ÎÓÈ_1" data-name="—ÎÓÈ_1" xmlns="http://www.w3.org/2000/svg" viewBox="0 0 2000 2000">
  <defs>
    <style>
      .cls-1 {
        fill: #282b4a;
      }
    </style>
  </defs>
  <path class="cls-1" d="M1775.05,1502.59l-67.07-62.02c16.85-50.11,26.22-104.79,27.88-162.75,2.79-97.52-17.79-190.48-57.96-261.77-15.42-27.37-28.12-54.78-37.73-81.49l-5.03-13.97c-17.86-49.58-42.48-96.48-73.17-139.4l-131.02-183.15c-30.45-42.57-43.53-94.54-36.83-146.36l2.51-19.43c1.98-15.34-2.77-30.81-13.04-42.42-10.27-11.62-25.08-18.28-40.63-18.28-17.94,0-35.19,3.01-51.27,8.52V176.23c0-74.45-60.87-135.02-135.7-135.02H588.64c-74.83,0-135.7,60.57-135.7,135.02V438.35l-128.01-56.75c-27.62-12.25-58.39-13.06-86.63-2.28-28.24,10.77-50.57,31.84-62.88,59.33-12.31,27.48-13.12,58.09-2.29,86.18,10.83,28.09,32.01,50.31,59.63,62.55l220.17,97.6v14.57l-40.84-18.1c-52.73-23.38-114.74,.29-138.24,52.75l-6.95,15.51c-23.5,52.46,.29,114.15,53.02,137.53l115.64,51.26c5.66,2.51,11.47,4.47,17.36,5.94v15.3l-49.03-21.73c-25.54-11.32-53.99-12.07-80.1-2.11-26.11,9.96-46.76,29.44-58.14,54.86l-6.95,15.51c-11.38,25.41-12.13,53.71-2.12,79.69,10.01,25.98,29.6,46.52,55.14,57.84l87.41,38.75c13.8,6.12,28.24,9.01,42.46,9.01,3.8,0,7.58-.21,11.32-.61v33.46l-54.5-24.16c-25.54-11.32-53.99-12.07-80.1-2.11-26.11,9.96-46.76,29.44-58.14,54.86-11.38,25.41-12.13,53.71-2.12,79.69,10.01,25.98,29.6,46.52,55.14,57.84l79.66,35.31c13.63,6.04,28.08,9.07,42.57,9.07,5.84,0,11.69-.52,17.49-1.5v112.66c0,74.44,60.88,135.01,135.7,135.01h306.98c54.86,53.37,152.74,86.23,258.46,86.23,20.02,0,39.98-1.17,59.51-3.47l112.94,161.97c19.62,28.13,50.53,46.02,84.8,49.08,3.49,.31,6.97,.46,10.43,.46,30.59,0,59.94-12,81.8-33.75l274.54-273.13c22.44-22.32,34.48-52,33.9-83.57-.58-31.57-13.7-60.79-36.94-82.28Zm-360.09,432.03c-22.26-1.99-42.33-13.6-55.07-31.87l-120-172.09c-3.83-5.49-10.09-8.69-16.68-8.69-.97,0-1.95,.07-2.93,.21-21.56,3.12-43.84,4.7-66.21,4.7-73.64,0-142.33-16.91-191.63-45.83h280.4c38.6,0,75.67-14.19,104.38-39.95,4.06-3.64,6.47-8.76,6.69-14.19,.22-5.43-1.77-10.72-5.52-14.68-8.06-8.49-15.04-18.07-20.75-28.47-35.2-64.07-54.59-149.65-54.59-240.97,0-63.27,9.52-124.98,27.53-178.46,29.49-87.57,41.91-166.09,36.91-233.38-4.11-55.34-24.73-108.08-59.62-152.53-33.46-42.62-51.89-95.87-51.89-149.95v-100.18c0-64.17,52.47-116.37,116.97-116.37,5.31,0,8.64,2.86,10.14,4.56,1.51,1.7,3.93,5.34,3.25,10.59l-2.51,19.43c-8.01,61.94,7.62,124.07,44.02,174.94l131.02,183.15c28.54,39.9,51.43,83.5,68.03,129.6l5.03,13.97c10.38,28.82,24.02,58.3,40.54,87.62,36.63,65,55.38,150.55,52.79,240.86-1.68,58.56-11.74,113.32-29.9,162.76-2.8,7.63-.74,16.2,5.25,21.73l76.79,71.01c15.09,13.96,23.61,32.93,23.99,53.43,.38,20.5-7.44,39.77-22.01,54.27l-274.54,273.13c-15.8,15.72-37.62,23.61-59.89,21.61Zm-921.41-388.57v-128.68c16.37-10.81,29.38-26,37.57-44.29,11.38-25.41,12.13-53.71,2.12-79.69-7.88-20.45-21.71-37.5-39.69-49.37v-66.16c18.76-10.6,34.42-27.01,43.85-48.07l6.95-15.51c23.16-51.71,.36-112.37-50.8-136.48v-31.4c7.48-1.12,14.9-3.04,22.13-5.8,26.11-9.96,46.76-29.44,58.14-54.86l6.95-15.51c11.38-25.41,12.13-53.71,2.12-79.69-10.01-25.98-29.6-46.52-55.14-57.84l-34.2-15.16V176.23c0-52.18,42.66-94.62,95.1-94.62h567.35c52.44,0,95.1,42.45,95.1,94.62v224.78c-39.76,28.49-65.71,74.93-65.71,127.29v100.18c0,63.05,21.48,125.13,60.49,174.82,29.93,38.13,47.61,83.3,51.13,130.64,4.6,61.91-7.15,135.11-34.92,217.57-19.39,57.56-29.63,123.71-29.63,191.29,0,97.98,21.15,190.44,59.56,260.35,3.76,6.84,7.95,13.41,12.54,19.67-18.36,11.6-39.69,17.84-61.7,17.84h-170.66s-483.55,0-483.55,0c-52.44,0-95.1-42.44-95.1-94.61Zm-196.25-276.62c6.97-15.56,19.61-27.48,35.59-33.58,7.46-2.85,15.22-4.26,22.97-4.26,8.87,0,17.72,1.86,26.06,5.55l79.66,35.31c15.64,6.93,27.62,19.51,33.75,35.41,6.13,15.9,5.67,33.22-1.3,48.78h0c-6.97,15.56-19.61,27.48-35.59,33.58-15.98,6.1-33.39,5.64-49.03-1.29l-79.66-35.31c-15.64-6.93-27.62-19.51-33.75-35.41-6.13-15.9-5.67-33.22,1.3-48.78Zm-1.47-246.73l6.95-15.51c6.97-15.56,19.61-27.48,35.59-33.58,7.45-2.84,15.22-4.26,22.97-4.26,8.87,0,17.72,1.86,26.06,5.55l87.41,38.75c32.28,14.31,46.84,52.07,32.45,84.19l-6.95,15.51h0c-14.38,32.11-52.34,46.59-84.62,32.29l-87.41-38.75c-15.64-6.93-27.62-19.5-33.75-35.41-6.13-15.9-5.67-33.22,1.3-48.78Zm8.19-256.55l6.95-15.51c10.62-23.71,34.08-37.81,58.63-37.81,8.7,0,17.54,1.77,25.99,5.52l115.64,51.26c15.64,6.93,27.62,19.5,33.75,35.41,6.13,15.9,5.67,33.22-1.3,48.78l-6.95,15.51c-6.97,15.56-19.61,27.48-35.59,33.58-15.98,6.1-33.4,5.64-49.03-1.29l-115.64-51.26c-32.28-14.31-46.84-52.07-32.45-84.19Zm-91.49-311.06c7.89-17.63,22.22-31.14,40.33-38.05,8.45-3.22,17.25-4.83,26.03-4.83,10.05,0,20.08,2.1,29.53,6.29l144.53,64.07v158.19l-203.65-90.28c-17.72-7.85-31.3-22.1-38.25-40.12-6.95-18.02-6.42-37.65,1.47-55.28Z"/>
  <path class="cls-1" d="M772.89,177.22h198.85c11.21,0,20.3-9.04,20.3-20.2s-9.09-20.2-20.3-20.2h-198.85c-11.21,0-20.3,9.04-20.3,20.2s9.09,20.2,20.3,20.2Z"/>
  <path class="cls-1" d="M1047,177.22c11.21,0,20.3-9.04,20.3-20.2s-9.09-20.2-20.3-20.2h-.01c-11.21,0-20.29,9.04-20.29,20.2s9.1,20.2,20.31,20.2Z"/>
  <path class="cls-1" d="M709.9,807.77h144.24v-143.5h-144.24v143.5Zm40.6-103.11h63.03v62.71h-63.03v-62.71Z"/>
  <path class="cls-1" d="M1060.56,664.26h-144.24v143.5h144.24v-143.5Zm-40.6,103.11h-63.03v-62.71h63.03v62.71Z"/>
  <path class="cls-1" d="M709.9,1018.78h144.24v-143.5h-144.24v143.5Zm40.6-103.11h63.03v62.71h-63.03v-62.71Z"/>
  <polygon class="cls-1" points="644.96 736.33 644.96 599.97 782.02 599.97 782.02 559.57 604.35 559.57 604.35 736.33 644.96 736.33"/>
  <polygon class="cls-1" points="983.35 599.98 1120.41 599.98 1120.41 736.34 1161.02 736.34 1161.02 559.58 983.35 559.58 983.35 599.98"/>
  <polygon class="cls-1" points="1161.02 1123.78 1161.02 947.02 1120.42 947.02 1120.42 1083.38 983.35 1083.38 983.35 1123.78 1161.02 1123.78"/>
  <polygon class="cls-1" points="644.96 947.03 604.35 947.03 604.35 1123.78 782.02 1123.78 782.02 1083.39 644.96 1083.39 644.96 947.03"/>
  <rect class="cls-1" x="912.1" y="871.07" width="49.05" height="48.8"/>
  <rect class="cls-1" x="1015.74" y="974.18" width="49.05" height="48.8"/>
  <rect class="cls-1" x="1015.74" y="871.07" width="49.05" height="48.8"/>
  <rect class="cls-1" x="963.92" y="922.62" width="49.05" height="48.8"/>
  <rect class="cls-1" x="912.1" y="974.18" width="49.05" height="48.8"/>
</svg>