<svg width="195" height="113" viewBox="0 0 195 113" fill="none" xmlns="http://www.w3.org/2000/svg">
<path d="M9 95.4749C9 46.0551 48.8556 6 98.0291 6C147.203 6 187.058 46.0551 187.058 95.4749" stroke="#F94554" stroke-width="12" stroke-miterlimit="10" stroke-linecap="round"/>
<path d="M144.105 101.155L99 108L99.1585 93L144.094 99.2205C145.294 99.387 145.306 100.979 144.105 101.166V101.155Z" fill="black"/>
<path d="M104 100.5C104 103.133 102.165 105.331 99.6934 105.873C99.3115 105.958 98.9084 106 98.4947 106C95.4609 106 93 103.537 93 100.5C93 97.4633 95.4609 95 98.4947 95C101.528 95 103.989 97.4633 103.989 100.5H104Z" fill="white" stroke="black" stroke-width="4" stroke-miterlimit="10"/>
</svg>
