<?xml version="1.0" encoding="UTF-8"?>
<svg id="Layer_1" data-name="Layer 1" xmlns="http://www.w3.org/2000/svg" viewBox="0 0 159.39 152.18">
  <defs>
    <style>
      .cls-1 {
        fill: #184325;
      }
    </style>
  </defs>
  <path class="cls-1" d="M152.03,95.46c6.86,.83,9.07,5.06,6,11.47-4.09,8.57-10.64,14.88-18.35,20.13-8.35,5.68-16.46,11.75-25.09,16.96-7.23,4.38-14.84,9.04-23.75,8.02-6.35-.73-12.68-2.52-18.76-4.61-9.6-3.31-18.88-7.57-28.49-10.85-7.74-2.64-15.76-2.71-23.59,.23-.71,.27-1.46,.75-2.15,.69-.94-.08-1.85-.59-2.77-.91,.42-1.12,.57-2.95,1.3-3.23,3-1.14,6.13-2.05,9.29-2.59,11.93-2.02,22.72,2.09,33.53,6.34,8.56,3.37,17.24,6.48,25.94,9.48,5.99,2.07,11.77,.99,17.45-1.7,14.06-6.67,26.54-15.77,38.87-25.11,5.67-4.29,10.14-9.59,12.77-16.27,1.07-2.72,.47-3.78-2.25-3.14-3.82,.89-7.73,2.16-11.06,4.17-9.85,5.97-19.42,12.41-29.13,18.62-7.07,4.53-14.67,5.3-22.76,3.35-7.2-1.73-14.48-3.14-21.73-4.68-1.68-.36-2.4-2.69-.93-4.04,1.12-1.04,2.74-2.12,4.16-2.15,4.81-.1,9.64,.61,14.43,.37,10.17-.52,20.52-.55,29.41-6.84,3.46-2.45,3.35-5.61-.43-7.49-2.23-1.11-4.45-1.31-7.11-1.07-9.01,.82-18.1,1.53-27.11,1.12-4.31-.19-8.69-2.62-12.72-4.67-11.14-5.69-22.33-5.85-33.69-1.02-8.3,3.53-16.71,6.47-25.87,6.56-1.9,.02-3.82,.57-5.7,.4-.68-.06-1.62-1.43-1.73-2.29-.08-.62,1-1.99,1.6-2.01,11.4-.42,22.04-3.66,32.59-7.85,12.97-5.15,25.55-3.38,37.7,3.49,3.25,1.84,7.38,2.86,11.13,2.93,7.58,.14,15.19-.45,22.75-1.13,1.91-.17,3.74-1.73,5.52-2.79,5.23-3.09,10.3-6.48,15.67-9.3,3.16-1.66,6.76-2.11,10.15-.06,.41,.25,1.01,.48,1.13,.84,1.07,3.39,3.4,3.05,6.29,2.79,4.58-.41,6.41,1.8,7.49,7.83Zm-65.01,25.02c7.69,3.28,15.21,3.24,22.39-1.2,3.97-2.46,7.97-4.86,11.93-7.34,7.9-4.94,15.69-10.07,23.72-14.77,1.8-1.05,2.03-2.34,1.52-3.46-.37-.83-2.32-1.71-3.17-1.42-3.39,1.18-6.78,2.54-9.87,4.35-3.77,2.2-7.27,4.88-10.84,7.43-.57,.41-1.18,1.2-1.21,1.83-.21,4.58-3.25,7.03-6.81,8.82-6.99,3.52-14.42,5.49-22.32,5.4-1.78-.02-3.57,.23-5.35,.36Zm49.15-31.54c-1.81-.65-3.14-1.65-4.26-1.44-6.47,1.17-11.46,5.07-16.58,9.23,1.78,1.3,3.28,2.39,4.66,3.4,5.09-3.52,10.1-6.98,16.17-11.18Z"/>
  <path class="cls-1" d="M43.44,59.38c-.66-6.81,3.55-11.53,7.06-16.49,6.73-9.5,13.54-18.94,20.42-28.33,3.59-4.9,6.68-10.15,12.66-12.93,12.39-5.77,27.03,4.72,26.94,17.06-.05,6.59-3.02,11.53-6.53,16.43-8.28,11.56-16.71,23.01-24.98,34.58-4.71,6.6-10.99,10.19-18.99,8.78-8.07-1.42-13.72-6.43-16.2-14.49-.44-1.44-.27-3.07-.38-4.61Zm46.62-13.7c.6-.55,1.02-.83,1.29-1.21,3.95-5.5,7.99-10.93,11.78-16.54,2.55-3.77,3.66-8,2.22-12.55-3.04-9.61-15.79-15.42-24.36-6.06-4.03,4.41-7.24,9.58-10.78,14.43-1.18,1.61-3.26,3.46-3.05,4.94,.19,1.42,2.76,2.59,4.36,3.74,6.1,4.4,12.23,8.74,18.54,13.24Zm-26.34-12.99c-4.28,6.02-8.09,11.61-12.15,17.02-5.4,7.19-4.88,14.85,1.9,20.65,5.41,4.63,13.91,5.77,18.94-.5,5.18-6.45,10.09-13.12,15.3-19.93-8.19-5.88-15.98-11.48-23.98-17.23Z"/>
  <path class="cls-1" d="M123.97,74.55c-11.45,.75-21.44-9.53-21.08-21.2,.37-11.93,8.75-21.04,21.1-21.16,12.05-.12,21.43,8.96,21.37,22.05-.05,10.41-9.33,21.21-21.39,20.31Zm15.98-25.48c-1.87-8.18-10.64-13.56-19.28-11.83-7.4,1.47-13.73,8.89-12.88,16.18,10.71-1.45,21.43-2.9,32.17-4.35Zm-31.77,8.98c3.35,10.15,12.29,13.63,19.96,11.43,7.92-2.27,13.62-9.88,12.22-15.84-10.7,1.47-21.41,2.93-32.18,4.41Z"/>
  <path class="cls-1" d="M51.85,59.83c.94-2.2,1.8-5.05,3.3-7.52,2.37-3.91,5.12-7.58,7.78-11.3,.99-1.38,2.31-2.51,4.07-1.26,1.83,1.3,.66,2.78-.17,4.02-2.52,3.71-5.21,7.3-7.67,11.04-1.56,2.37-3.09,4.79-1.87,7.98,.29,.75-.62,1.96-.98,2.95-1.13-.51-2.58-.75-3.3-1.61-.71-.84-.67-2.31-1.15-4.3Z"/>
</svg>