<?xml version="1.0" encoding="UTF-8"?>
<svg id="Layer_1" data-name="Layer 1" xmlns="http://www.w3.org/2000/svg" viewBox="0 0 133.35 177.13">
  <defs>
    <style>
      .cls-1 {
        fill: #184325;
      }
    </style>
  </defs>
  <path class="cls-1" d="M128.73,24.3c-3.09-.58-6.2-1.09-9.26-1.81-5.45-1.26-10.82-2.79-16.05-4.76-4.02-1.51-8.04-3.06-11.95-4.81-3.87-1.71-7.62-3.67-11.4-5.56-1.29-.64-2.54-1.35-3.78-2.07-2.94-1.71-5.86-3.46-8.82-5.14-.37-.21-1.02-.19-1.41-.02-1.09,.5-2.13,1.15-3.18,1.75-3.7,2.09-7.35,4.3-11.1,6.26-3.62,1.89-7.32,3.64-11.06,5.29-3.39,1.5-6.81,2.94-10.32,4.13-4.77,1.62-9.62,3.09-14.48,4.4-3.39,.91-6.86,1.47-10.31,2.15-1.78,.35-3.59,.61-5.44,.92v1.23c0,25.32,0,50.65,0,75.97,0,.76-.21,1.53-.14,2.29,.16,1.87,.36,3.76,.67,5.62,.71,4.18,2.12,8.15,3.9,11.98,1.93,4.15,4.25,8.07,6.9,11.79,2.64,3.7,5.57,7.14,8.67,10.44,1.52,1.62,3.15,3.14,4.81,4.64,2.2,2,4.4,4.02,6.73,5.86,3.58,2.82,7.2,5.6,10.96,8.2,3.58,2.47,7.3,4.76,11.05,6.97,4.07,2.4,8.25,4.61,12.38,6.93,.41,.23,.73,.23,1.14,0,2.93-1.59,5.9-3.08,8.78-4.74,3.82-2.2,7.62-4.46,11.34-6.84,4.86-3.13,9.58-6.45,14-10.19,2.29-1.93,4.67-3.78,6.83-5.84,4.44-4.21,8.7-8.61,12.37-13.53,2.44-3.28,4.71-6.66,6.6-10.29,1.99-3.82,3.72-7.76,4.82-11.95,.76-2.9,1.36-5.83,1.37-8.83,0-26.18,0-52.37,0-78.55v-1.15c-1.57-.25-3.09-.46-4.61-.74Zm-2.93,8.5c0,24.24,0,48.49,0,72.74,0,3.46-.82,6.77-1.98,9.98-1.76,4.88-4.15,9.45-7.21,13.63-1.95,2.66-3.99,5.24-6.12,7.75-1.78,2.1-3.65,4.17-5.67,6.04-3.24,3-6.52,5.99-10.01,8.68-4.49,3.47-9.13,6.76-13.84,9.93-3.53,2.38-7.27,4.45-10.93,6.64-.61,.36-1.34,.56-1.84,1.03-.92,.83-1.66,.49-2.55,0-6.29-3.48-12.42-7.21-18.3-11.33-3.67-2.57-7.15-5.42-10.7-8.17-4.3-3.35-8.16-7.21-11.86-11.19-2.5-2.67-4.68-5.63-6.91-8.53-2.39-3.11-4.3-6.51-5.96-10.05-1.58-3.34-2.77-6.8-3.51-10.42-.17-.82-.2-1.66-.2-2.5-.02-12.37,0-24.75,0-37.11s0-25-.02-37.5c0-.82,.18-1.13,1.05-1.34,4.4-1.04,8.82-2.07,13.16-3.35,4.19-1.24,8.34-2.68,12.44-4.2,3.59-1.34,7.1-2.86,10.62-4.38,2.79-1.2,5.57-2.44,8.27-3.84,4.3-2.24,8.53-4.62,12.8-6.93,.24-.13,.65-.16,.87-.03,5.46,2.89,10.82,5.98,16.37,8.69,6.09,2.97,12.37,5.5,18.75,7.78,6.39,2.28,12.89,4.08,19.45,5.73,1.01,.26,2.04,.43,3.07,.6,.56,.09,.83,.33,.76,.92-.03,.24,0,.5,0,.75Z"/>
  <path class="cls-1" d="M30.39,88.41c.13-10.6,3.99-19.61,11.8-26.78,7.41-6.8,16.28-9.9,26.3-9.46,18.43,.8,34.85,15.88,34.55,37.04-.27,19.23-15.98,36.15-37.58,35.59-18.85-.5-35.18-16.05-35.08-36.39Zm4.63,.12c-.03,17.62,14.24,31.23,30.56,31.66,18.83,.5,32.7-14.28,32.87-31.25,.18-18.19-14.09-31.5-30.3-32.18-18.96-.79-33.36,14.71-33.13,31.76Z"/>
  <path class="cls-1" d="M43.21,88.23c2.04-2.03,4.17-4.15,6.29-6.28,.5-.51,.75-.05,1.03,.23,3.3,3.3,6.61,6.6,9.9,9.9,.22,.22,.37,.51,.53,.75,7.56-7.56,14.96-14.96,22.34-22.34,2.36,2.36,4.61,4.61,6.78,6.77-9.66,9.66-19.33,19.33-28.93,28.92-5.87-5.87-11.87-11.87-17.96-17.96Z"/>
</svg>