<?xml version="1.0" encoding="UTF-8"?>
<svg id="Layer_1" data-name="Layer 1" xmlns="http://www.w3.org/2000/svg" viewBox="0 0 139.18 156.8">
  <defs>
    <style>
      .cls-1, .cls-2 {
        fill: #184325;
      }

      .cls-2 {
        fill-rule: evenodd;
      }
    </style>
  </defs>
  <g id="subscribe">
    <g id="bell">
      <path class="cls-2" d="M133.26,129.5H5.92c-5.1,0-7.8-5.9-4.42-9.64l16.14-17.86c2.42-2.68,3.76-6.13,3.76-9.71v-26.68c0-26.86,22.85-48.49,50.52-47.22,25.93,1.2,45.87,23.1,45.87,48.55v25.35c0,3.58,1.34,7.03,3.76,9.71l16.14,17.86c3.38,3.74,.67,9.64-4.42,9.64Zm-63.67,27.3c-12.24,0-22.16-9.73-22.16-21.73h44.31c0,12-9.92,21.73-22.16,21.73Z"/>
      <path class="cls-1" d="M69.59,36.17h0c-4.84,0-8.76-3.92-8.76-8.76V8.76c0-4.84,3.92-8.76,8.76-8.76h0c4.84,0,8.76,3.92,8.76,8.76V27.41c0,4.84-3.92,8.76-8.76,8.76Z"/>
    </g>
    <g id="lines">
      <path class="cls-1" d="M10.17,56.11h.02c1.72,0,3.2-1.22,3.53-2.91,3.65-18.24,16.68-33.2,33.92-39.84,1.39-.53,2.29-1.87,2.29-3.36h0c0-2.53-2.54-4.29-4.91-3.38C25.51,14.14,10.78,31.09,6.63,51.75c-.45,2.25,1.24,4.36,3.54,4.36Z"/>
      <path class="cls-1" d="M129.02,56.11h-.02c-1.72,0-3.2-1.22-3.53-2.91-3.65-18.24-16.68-33.2-33.92-39.84-1.39-.53-2.29-1.87-2.29-3.36h0c0-2.53,2.54-4.29,4.91-3.38,19.51,7.51,34.25,24.46,38.4,45.12,.45,2.25-1.24,4.36-3.54,4.36Z"/>
    </g>
  </g>
</svg>