<?xml version="1.0" encoding="UTF-8"?>
<svg id="Layer_1" data-name="Layer 1" xmlns="http://www.w3.org/2000/svg" viewBox="0 0 177.35 177.45">
  <defs>
    <style>
      .cls-1 {
        fill: #184325;
      }
    </style>
  </defs>
  <path class="cls-1" d="M144.49,122.69c.77-.11,1.45-.22,2.13-.29,8.14-.84,15.33,1.4,21.5,6.78,3.63,3.17,6.21,7.08,7.78,11.64,.71,2.06,1.2,4.19,1.33,6.38,.08,1.43,.17,2.87,.09,4.3-.18,3.46-1.02,6.78-2.48,9.93-1.51,3.25-3.58,6.11-6.21,8.54-4.31,3.97-9.36,6.42-15.18,7.22-5.44,.75-10.63-.16-15.57-2.53-.88-.42-1.73-.91-2.55-1.43-.41-.26-.67-.19-1.02,.06-2.69,1.88-5.64,3.14-8.86,3.75-3.65,.69-7.25,.43-10.79-.65-.37-.11-.67-.13-1.03,.02-1.83,.75-3.74,1.03-5.71,1.03-31.33,0-62.66-.01-93.99,0-6.04,0-11.28-3.8-13.22-9.4C.24,166.7,0,165.32,0,163.89,0,121.31,0,78.72,.01,36.13c0-4.38,1.87-7.92,5.25-10.67,2.06-1.68,4.46-2.59,7.09-2.92,.61-.08,1.23-.08,1.84-.08,3.6,0,7.2,0,10.79,0,.3,0,.6,0,.97,0,0-1.4-.05-2.71,.02-4.02,.04-.73,.15-1.49,.41-2.17,.99-2.65,3.34-4.23,6.19-4.23,4.37,0,8.74,0,13.11,0,.28,0,.56,0,.83,0C48.37,3.77,55.35,.04,61.01,0c6.13-.05,12.98,4.01,14.76,12.04h.8c4.37,0,8.74-.02,13.11,0,2.49,.01,4.44,1.07,5.77,3.22,.68,1.11,.9,2.34,.92,3.6,.02,1.15,0,2.31,0,3.56,.34,.01,.64,.03,.94,.03,3.6,0,7.2,0,10.79,0,1.47,0,2.91,.17,4.33,.6,2.23,.68,4.16,1.83,5.81,3.48,2,2,3.3,4.37,3.81,7.15,.17,.93,.27,1.88,.27,2.82,.02,13.96,.01,27.91,.01,41.87v.97c1.25,.19,2.42,.3,3.57,.54,4.46,.92,8.32,2.96,11.59,6.16,3.52,3.45,5.73,7.59,6.62,12.43,.22,1.2,.36,2.44,.36,3.66,.03,6.53,.02,13.06,.02,19.58v.97Zm-46.53,31.62c-.45,0-.81,0-1.17,0-23.93,0-47.86,0-71.78,0-.26,0-.51,.01-.77,0-1.17-.07-2.13-.86-2.46-2-.34-1.18,.07-2.36,1.04-3.07,.66-.48,1.41-.57,2.19-.57,24,0,48.01,0,72.01,0h.88c.15-1.24,.1-10.29-.07-10.87h-1.14c-23.9,0-47.8,0-71.71,0-.26,0-.51,.01-.77,0-1.33-.09-2.45-1.17-2.57-2.54-.11-1.35,.71-2.61,2-2.93,.44-.11,.91-.15,1.37-.15,24,0,48.01,0,72.01,0h.9v-10.87c-.39,0-.74,0-1.1,0-23.9,0-47.8,0-71.71,0-.26,0-.51,0-.77,0-1.52-.05-2.55-1.19-2.71-2.57-.16-1.38,.82-2.67,2.24-2.97,.37-.08,.76-.09,1.14-.09,18.89,0,37.78,0,56.67,0,5.14,0,10.28,0,15.42,0,.27,0,.54-.01,.84-.02,0-.38,0-.66,0-.94,0-4.06-.02-8.12,.01-12.18,.01-1.25,.11-2.51,.32-3.74,.92-5.22,3.34-9.65,7.25-13.25,3.01-2.78,6.51-4.61,10.49-5.56,.22-.05,.43-.13,.68-.21,0-.29,0-.54,0-.8,0-14.16,0-28.32-.01-42.48,0-.68-.1-1.38-.26-2.05-.88-3.65-4.07-6.32-8.16-6.36-3.73-.03-7.45,0-11.18,0-.22,0-.45,.02-.75,.03,0,.32,0,.59,0,.87-.03,1.2,0,2.41-.11,3.61-.29,3.3-3.06,5.81-6.36,5.81-19.17,0-38.35,0-57.52,0-3.08,0-5.83-2.27-6.29-5.3-.2-1.31-.1-2.66-.13-3.99,0-.33,0-.65,0-1.04h-.93c-3.52,0-7.04,0-10.56,0-.51,0-1.03,.03-1.53,.09-4.03,.42-7.35,4.01-7.34,8.24,.02,42.36,0,84.71,.02,127.07,0,.53,.05,1.07,.14,1.6,.66,3.79,4.15,6.73,7.98,6.73,30.48,0,60.96,0,91.44,0h.74c-2.4-2.33-4.33-4.91-5.74-7.88-1.42-3.01-2.09-6.2-2.21-9.62Zm40.89-29.89v-.87c0-7.09,0-14.18,0-21.28,0-1.21-.13-2.41-.43-3.58-1.44-5.71-4.84-9.84-10.22-12.24-4-1.78-8.14-1.97-12.31-.61-4.39,1.43-7.71,4.21-10.01,8.19-1.38,2.39-2.23,4.99-2.24,7.75-.05,7.73-.02,15.47-.02,23.2,0,.19,.04,.39,.07,.64h.89c3.49,0,6.99,0,10.48,0,6.89,0,13.77,0,20.66,0,.33,0,.68-.01,.97-.14,.7-.3,1.38-.68,2.14-1.07ZM61.09,32.8c9.33,0,18.65,0,27.98,0,.26,0,.51,0,.77-.01,.4-.02,.69-.24,.82-.61,.08-.23,.08-.5,.08-.76,0-2.34,0-4.68,0-7.01,0-1.85,0-3.7,0-5.55,0-.84-.33-1.15-1.17-1.18-.21,0-.41,0-.62,0-5.22,0-10.43-.02-15.65,.01-1.7,.01-2.89-1.33-2.95-2.88-.16-4.05-2.11-6.97-5.88-8.5-6.21-2.51-12.46,2.39-12.52,8.29,0,.52-.11,1.09-.34,1.55-.54,1.1-1.51,1.53-2.72,1.53-5.27,0-10.53,0-15.8,0-.23,0-.47-.02-.69,.01-.48,.06-.73,.32-.79,.8-.02,.2,0,.41,0,.62,0,4.03,0,8.07,0,12.1,0,1.45,.14,1.59,1.57,1.59,9.3,0,18.6,0,27.9,0Zm69.11,136.47c-5.12-5.28-7.87-11.51-8.03-18.78-.16-7.27,2.28-13.65,7.09-19.2h-25.63v.87c0,7.53,0,15.06,0,22.59,0,.84,.07,1.7,.23,2.52,.74,3.99,2.56,7.4,5.65,10.06,4.34,3.74,9.36,5.17,15.02,4.13,1.98-.36,3.84-1.08,5.66-2.19Zm41.28-22.33c-1.11-10.79-11.25-20.15-23.55-19.06-12.26,1.09-19.42,11.26-19.84,19.06h43.39Zm-43.44,5.72c.96,9.79,9.91,19.55,22.51,19.12,12.2-.42,20.12-10.2,20.93-19.12h-43.43Z"/>
  <path class="cls-1" d="M58.99,73.25c2.89,3.4,5.75,6.77,8.65,10.18,1.18-1.42,2.32-2.79,3.47-4.17,1.87-2.25,3.73-4.5,5.6-6.74,.79-.96,1.82-1.23,2.98-.92,1.88,.51,2.73,2.86,1.36,4.52-1.37,1.66-2.75,3.32-4.12,4.97-1.78,2.15-3.57,4.3-5.36,6.45-.06,.08-.11,.17-.18,.29,.93,1.1,1.86,2.19,2.78,3.28,1.91,2.25,3.79,4.52,5.75,6.72,1.06,1.19,.99,3.12,0,4.04-1.23,1.14-3.07,1.09-4.17-.2-1.92-2.27-3.84-4.54-5.77-6.8-.73-.86-1.46-1.71-2.26-2.64-.28,.31-.54,.58-.77,.87-2.36,2.84-4.71,5.69-7.07,8.53-.7,.84-1.6,1.21-2.67,1.01-1.06-.19-1.85-.77-2.17-1.84-.31-1.02-.16-1.98,.54-2.82,2.64-3.17,5.27-6.35,7.91-9.53,.16-.2,.31-.4,.5-.64-.81-.96-1.6-1.9-2.39-2.83-2.72-3.2-5.46-6.4-8.16-9.62-.36-.43-.73-.61-1.3-.6-1.7,.04-3.39,.01-5.09,.01h-.86c0,.33,0,.61,0,.88,0,3.21,0,6.43,0,9.64,0,1.42-.96,2.54-2.32,2.73-1.45,.21-2.74-.62-3.12-2.01-.07-.27-.1-.55-.1-.83,0-9.77,0-19.53,0-29.3,0-1.69,1.16-2.84,2.86-2.85,3.47,0,6.94-.05,10.41,.01,2.56,.04,4.82,.98,6.72,2.68,2.45,2.18,3.72,4.95,3.68,8.23-.04,3.43-1.44,6.25-4.13,8.4-.36,.29-.73,.54-1.17,.87Zm-12.79-4.1c.31,.01,.58,.04,.86,.04,1.93,0,3.85,0,5.78,0,.49,0,.97-.03,1.45-.11,2.66-.41,4.61-2.91,4.35-5.66-.28-2.95-2.82-4.74-5.1-4.72-2.18,.01-4.37,0-6.55,0-.25,0-.5,.03-.79,.04v10.41Z"/>
  <path class="cls-1" d="M61.15,9.42c1.65,.07,2.81,1.13,2.81,2.76,0,1.64-1.01,2.75-2.81,2.85-1.52,.09-2.81-1.29-2.8-2.86,0-1.55,1.25-2.77,2.8-2.76Z"/>
</svg>