<?xml version="1.0" encoding="UTF-8"?>
<svg id="Layer_1" data-name="Layer 1" xmlns="http://www.w3.org/2000/svg" viewBox="0 0 151.37 160.98">
  <defs>
    <style>
      .cls-1 {
        fill: #184325;
      }
    </style>
  </defs>
  <path class="cls-1" d="M135.92,160.98H14.67c-7.43-2.34-12.54-7.01-14.67-14.63V26.19C6.54,10.23,16.27,11.71,33,12.87c.06,.24,.16,.49,.17,.73,.02,5.26,0,10.53,.05,15.79,.09,8.03,7.23,13.09,14.82,10.72,4.8-1.5,8.27-5.92,8.33-12.22,.04-5.09,0-10.18,0-15.28h38.61c0,5.27-.04,10.26,.01,15.26,.08,7.43,5.24,12.92,11.98,12.98,5.34,.05,11.83-5,11.24-12.98-.37-5.06-.07-10.17-.07-15.53,6.23,0,12.07-.57,17.75,.13,8.38,1.03,13.01,6.79,15.46,14.49v119.38c-.95,2.09-1.75,4.27-2.87,6.27-2.73,4.91-7.67,6.65-12.58,8.37ZM7.72,58.72c0,1.67,0,3.06,0,4.45,0,25.28,.1,50.57-.05,75.85-.06,9.34,4.54,14.21,14.05,14.23,36.29,.08,72.58,.05,108.86,.01,8.22,0,13.06-5.01,13.06-13.24,0-25.8,0-51.59,0-77.39v-3.91H7.72Z"/>
  <path class="cls-1" d="M108.12,0c4.79,1.94,6.55,5.45,6.26,10.59-.34,6.01-.07,12.05-.08,18.08,0,5.23-2.47,8.03-7.27,8.3-4.11,.23-7.93-3.08-8.09-7.68-.25-7.17-.21-14.36-.01-21.54,.12-4.28,3.11-6.48,6.89-7.75h2.32Z"/>
  <path class="cls-1" d="M45.56,0c5.68,1.96,7.19,6.27,6.99,11.8-.2,5.64,.02,11.29-.07,16.93-.06,3.81-2.14,6.57-5.55,7.87-3.05,1.16-6.2,.55-8.19-2.32-.94-1.36-1.56-3.2-1.61-4.85-.19-6.15-.07-12.31-.07-18.47,0-7.64,.44-8.33,6.95-10.96h1.54Z"/>
  <path class="cls-1" d="M50.65,98.51H28.87v-21.99h21.78v21.99Z"/>
  <path class="cls-1" d="M100.69,76.4h21.87v21.99h-21.87v-21.99Z"/>
  <path class="cls-1" d="M28.78,112.62h21.92v21.93H28.78v-21.93Z"/>
  <path class="cls-1" d="M100.58,134.53v-21.88h21.92v21.88h-21.92Z"/>
  <path class="cls-1" d="M64.95,98.34v-21.77h21.26v21.77h-21.26Z"/>
  <path class="cls-1" d="M65.15,112.61h21.13v21.86h-21.13v-21.86Z"/>
</svg>