<?xml version="1.0" encoding="UTF-8"?>
<svg id="Layer_1" data-name="Layer 1" xmlns="http://www.w3.org/2000/svg" viewBox="0 0 146.97 162.98">
  <defs>
    <style>
      .cls-1 {
        fill: #184325;
      }
    </style>
  </defs>
  <path class="cls-1" d="M32.78,35.1c-3.08-4.6-6.81-8.9-9.08-13.87-2.86-6.27,.19-11.59,4.77-16.18C33.14,.37,38.72-.63,44.81,.83c7.69,1.84,13.95,6.29,19.54,11.68,3.07,2.96,5.84,6.23,7.89,8.43,9.22-6.56,17.29-13.39,26.35-18.45,9.65-5.39,20.11-1.61,24.55,7.25,3.99,7.96,1,17.53-7.24,23.09-.82,.55-1.73,.98-4.07,2.27,10.95,0,20.21,.19,29.46-.09,4.19-.13,5.68,1.6,5.68,5.44-.02,14.37-.04,28.75,0,43.12,.02,5.08-3.44,5.46-7.86,5.51,0,2.06,0,4.05,0,6.04,0,20.35-.19,40.7,.13,61.04,.09,5.57-1.78,6.91-7.04,6.82-16.98-.29-33.97-.11-50.96-.11-22.43,0-44.87-.12-67.3,.09-4.68,.04-6.1-1.39-6.06-6.06,.21-22.38,.09-44.77,.09-67.69C.78,89.79-.16,85.72,.02,79.83c.38-12.31,.11-24.64,.11-36.96q0-7.77,7.52-7.77c8.74,0,17.49,0,25.13,0Zm34.18,120.74V89.37H15.04v66.46h51.92Zm13.16-66.65v66.46h51.93V89.19h-51.93Zm-.09-47.09v39.71h59.76V42.1h-59.76Zm-13.06,39.78V42.3H7.2v39.59h59.77Zm-7.61-52.65c.5-.74,1-1.47,1.49-2.21-2.52-2.17-4.87-4.57-7.59-6.44-3.56-2.45-7.25-4.88-11.23-6.49-1.34-.54-3.7,1.46-5.6,2.3,.86,1.49,1.37,3.76,2.65,4.35,6.65,3.07,13.49,5.71,20.27,8.49Zm27.1-2.12c.38,.6,.75,1.19,1.13,1.79,6.59-2.4,13.29-4.55,19.71-7.36,1.72-.75,2.55-3.51,3.79-5.34-2.56-.64-5.95-2.64-7.52-1.67-6.02,3.68-11.45,8.31-17.1,12.58Z"/>
</svg>