<?xml version="1.0" encoding="UTF-8"?>
<svg id="Layer_1" data-name="Layer 1" xmlns="http://www.w3.org/2000/svg" viewBox="0 0 141.39 157.92">
  <defs>
    <style>
      .cls-1 {
        fill: #184325;
      }
    </style>
  </defs>
  <path class="cls-1" d="M0,51.84c.18-.5,.44-.98,.52-1.49,1.59-10.04,4.22-19.85,6.66-29.71,1.17-4.71,2.39-9.41,3.63-14.11C11.94,2.26,14.94,0,19.4,0c37.03,0,74.05,0,111.08,0,.35,0,.7-.02,1.04,0,1.66,.13,2.77,1.13,2.96,2.79,.34,2.89,.66,5.79,.94,8.69,.49,5.12,.97,10.24,1.4,15.36,.29,3.5,.47,7.01,.72,10.51,.25,3.5,.55,7,.77,10.5,.18,2.82,.27,5.64,.42,8.45,.17,3.21,.37,6.42,.53,9.63,.14,2.77,.24,5.54,.36,8.31,.17,4.11,.36,8.21,.52,12.32,.14,3.51,.28,7.03,.37,10.54,.12,4.66,.2,9.32,.31,13.97,.09,3.91,.23,7.83,.29,11.74,.09,6.7,.14,13.39,.21,20.09,.04,3.77,.08,7.54,.08,11.32,0,.68-.11,1.39-.35,2.02-.42,1.06-1.29,1.59-2.44,1.65-.4,.02-.8,0-1.19,0-36.93,0-73.85,0-110.78,0-1.05,0-2.05-.14-3.05-.49-6.08-2.15-12.17-4.26-18.25-6.38-.28-.1-.56-.21-.83-.33-1.2-.53-1.91-1.41-1.85-2.77,.09-2.03,.19-4.05,.34-6.08,.3-4.34,.6-8.68,.96-13.02,.43-5.22,.92-10.43,1.37-15.65,.35-4.14,.63-8.28,1.02-12.42,.52-5.61,1.11-11.21,1.66-16.82,.31-3.2,.58-6.4,.93-9.59,.56-5.11,1.17-10.21,1.74-15.32,.16-1.42,.29-2.85,.45-4.39-.45-.05-.82-.12-1.2-.12-2.19-.01-4.38-.09-6.56,.02-1.5,.08-2.49-.43-3.08-1.78-.06-.13-.18-.23-.27-.34,0-.2,0-.4,0-.6ZM129.72,4.94c-.61,0-1.05,0-1.49,0-36.23,0-72.45,0-108.68,0-2.39,0-3.43,.83-4.02,3.13-1.56,6.09-3.2,12.16-4.67,18.27-1.75,7.31-3.36,14.66-5.02,22-.08,.37-.1,.76-.15,1.2h6.06c.56-3.94,1.08-7.8,1.66-11.65,1.03-6.95,2.19-13.88,3.85-20.72,.21-.88,.04-1.85,.12-2.77,.07-.77,.09-1.6,.41-2.28,.43-.94,1.7-1.32,2.72-1.05,.94,.25,1.7,1.2,1.79,2.32,.26,2.95,.5,5.91,.74,8.87,.35,4.24,.72,8.47,1.05,12.71,.18,2.32,.27,4.65,.42,6.97,.25,3.65,.54,7.29,.77,10.94,.15,2.32,.22,4.64,.35,6.97,.18,3.36,.39,6.71,.55,10.07,.14,2.97,.2,5.94,.32,8.91,.18,4.55,.4,9.1,.58,13.65,.12,3.17,.22,6.34,.3,9.5,.11,4.31,.21,8.62,.3,12.93,.05,2.38,.08,4.76,.1,7.14,.07,6.79,.14,13.59,.2,20.38,.02,2.98,0,5.96,0,8.94,0,.49,0,.97,0,1.54h108.56c0-.6,0-1.08,0-1.57-.06-2.87-.15-5.75-.19-8.62-.11-8.28-.19-16.57-.31-24.85-.06-4.26-.18-8.52-.29-12.78-.09-3.52-.19-7.03-.3-10.55-.09-2.82-.19-5.64-.3-8.46-.19-4.85-.38-9.69-.6-14.54-.18-3.9-.38-7.81-.59-11.71-.19-3.51-.38-7.01-.6-10.52-.28-4.49-.58-8.98-.89-13.47-.27-3.85-.57-7.69-.89-11.53-.42-5.03-.85-10.05-1.31-15.07-.12-1.37-.34-2.74-.54-4.3ZM22.92,151.94c.04-.42,.09-.71,.09-1-.09-10.07-.18-20.14-.3-30.21-.07-5.65-.18-11.3-.3-16.95-.08-3.96-.2-7.92-.3-11.89-.04-1.39-.04-2.78-.11-4.16-.15-3.31-.33-6.62-.48-9.93-.13-2.87-.2-5.74-.34-8.61-.16-3.31-.37-6.62-.55-9.93-.13-2.37-.21-4.75-.35-7.12-.3-4.79-.62-9.57-.94-14.36-.06-.95-.18-1.89-.27-2.84-.29,.69-.44,1.36-.53,2.04-1.19,9.06-2.43,18.12-3.55,27.2-.79,6.47-1.44,12.97-2.1,19.46-.64,6.34-1.21,12.7-1.8,19.05-.42,4.53-.81,9.06-1.19,13.59-.51,6.21-1.02,12.42-1.49,18.63-.29,3.84-.53,7.68-.8,11.66,5.08,1.78,10.16,3.56,15.32,5.36Z"/>
  <path class="cls-1" d="M50.92,105.79c.15-5.35,1.97-9.94,5.73-13.7,7.34-7.34,14.64-14.73,22.05-22,5.36-5.25,11.83-6.99,19.05-4.92,7.06,2.02,11.63,6.81,13.31,13.92,1.6,6.76,0,12.92-4.97,17.95-7.44,7.52-14.91,15.01-22.46,22.43-5.16,5.07-11.44,6.68-18.38,4.85-7.14-1.88-11.7-6.61-13.68-13.75-.24-.85-.39-1.74-.51-2.62-.1-.73-.1-1.48-.14-2.16Zm42.38-2.94c3-3,6.04-5.99,9.03-9.04,3.4-3.46,5-7.6,4.15-12.44-.99-5.65-4.27-9.54-9.73-11.33-5.56-1.82-10.47-.38-14.63,3.61-2.87,2.75-5.63,5.6-8.43,8.41-.24,.24-.44,.5-.56,.63,6.73,6.73,13.39,13.38,20.17,20.15Zm-24.02-16.38c-3.13,3.12-6.31,6.18-9.36,9.38-3.09,3.25-4.46,7.16-3.92,11.67,.4,3.33,1.8,6.19,4.2,8.48,5.84,5.57,14.48,5.41,20.2-.28,2.71-2.7,5.41-5.4,8.11-8.1,.34-.34,.67-.71,.93-.99-6.73-6.73-13.39-13.39-20.16-20.16Z"/>
  <path class="cls-1" d="M77.55,35.46c-10.98,0-21.96,0-32.94-.01-.58,0-1.21-.03-1.72-.26-1.06-.46-1.26-1.43-1.19-2.5,.07-1.03,.69-1.64,1.59-1.94,.5-.17,1.08-.19,1.62-.19,21.81,0,43.62,0,65.43,0,1.88,0,2.61,.44,3.07,1.77,.5,1.45-.48,2.98-2.01,3.12-.39,.04-.79,0-1.19,0-10.88,0-21.76,0-32.64,0Z"/>
</svg>