<svg xmlns="http://www.w3.org/2000/svg" width="142" height="76" fill="none"><g clip-path="url(#a)"><mask id="b" width="45" height="27" x="34" y="14" maskUnits="userSpaceOnUse" style="mask-type:luminance"><path fill="#fff" d="m34.179 15.603 44.395 25.379S56.167 16.803 56.108 16.755c-2.376-.977-9.222-2.112-14.96-2.112-2.807-.002-5.349.267-6.97.96"/></mask><g mask="url(#b)"><path fill="url(#c)" d="M78.574 14.64H34.18v26.34h44.395z"/></g><mask id="d" width="24" height="41" x="55" y="0" maskUnits="userSpaceOnUse" style="mask-type:luminance"><path fill="#fff" d="M56.108 16.753c.037.058 22.464 24.227 22.464 24.227L61.434 0c-4.07 3.059-6.008 13.662-5.326 16.753"/></mask><g mask="url(#d)"><path fill="url(#e)" d="M78.572 0H55.426v40.98h23.146z"/></g><mask id="f" width="46" height="27" x="45" y="18" maskUnits="userSpaceOnUse" style="mask-type:luminance"><path fill="#fff" d="m45.899 19.025 44.456 25.413S67.918 20.225 67.86 20.178c-2.383-.978-9.236-2.115-14.985-2.115-2.808 0-5.35.269-6.975.962"/></mask><g mask="url(#f)"><path fill="url(#g)" d="M90.355 18.063H45.9V44.44h44.456z"/></g><mask id="h" width="24" height="42" x="67" y="3" maskUnits="userSpaceOnUse" style="mask-type:luminance"><path fill="#fff" d="M67.86 20.177c.038.06 22.495 24.26 22.495 24.26L73.192 3.402c-4.074 3.062-6.017 13.677-5.333 16.774"/></mask><g mask="url(#h)"><path fill="url(#i)" d="M90.355 3.403h-23.18v41.033h23.18z"/></g><path fill="#323232" d="M1.136 56.282q.74.459 1.81.902 1.068.446 2.548.446.556 0 1.083-.104a3.3 3.3 0 0 0 .936-.32q.411-.22.675-.573.264-.352.264-.872 0-.538-.289-.912a2.5 2.5 0 0 0-.767-.631 5.6 5.6 0 0 0-1.11-.448q-.631-.187-1.293-.372a44 44 0 0 1-1.703-.5 6.5 6.5 0 0 1-1.545-.704 3.7 3.7 0 0 1-1.122-1.11q-.435-.675-.435-1.71.002-.998.501-1.766a4.05 4.05 0 0 1 1.374-1.275 7 7 0 0 1 2.006-.768q1.137-.26 2.405-.259c.582 0 1.12.035 1.623.106q.752.103 1.35.248.594.144 1.004.3.408.156.62.28.741.333.74.934-.001.25-.277.674a3.9 3.9 0 0 1-.78.842q-.662-.415-1.703-.79a6.6 6.6 0 0 0-2.232-.374q-.474 0-.978.075a3.6 3.6 0 0 0-.909.247q-.411.177-.672.488-.267.314-.266.768 0 .438.266.757.264.322.711.56.45.24 1.044.427.593.185 1.227.374.845.248 1.716.54a7.5 7.5 0 0 1 1.583.737q.71.444 1.162 1.12.448.674.45 1.691-.001 1.1-.49 1.94a4.3 4.3 0 0 1-1.361 1.42q-.87.584-2.097.874a11.7 11.7 0 0 1-2.681.29c-1.266 0-2.295-.1-3.077-.3q-1.174-.3-1.704-.55a2 2 0 0 1-.528-.392.75.75 0 0 1-.21-.519q-.001-.352.357-.852.348-.504.774-.94m24.618-1.764c0 .693-.113 1.358-.33 1.993a4.2 4.2 0 0 1-1.083 1.68q-.752.727-1.94 1.162-1.192.437-2.882.436-1.69 0-2.865-.426c-.782-.285-1.42-.663-1.913-1.143a4.3 4.3 0 0 1-1.083-1.66 5.7 5.7 0 0 1-.345-1.98c0-.707.135-1.373.396-2.003a4.7 4.7 0 0 1 1.176-1.661q.78-.714 1.967-1.13 1.188-.414 2.774-.414 1.662 0 2.838.415 1.172.414 1.902 1.12a4.2 4.2 0 0 1 1.056 1.64q.332.938.332 1.971m-3.617.023q0-.56-.105-1.11a2.5 2.5 0 0 0-.396-.964 2.14 2.14 0 0 0-.792-.674q-.503-.26-1.269-.259-.763 0-1.28.27a2.3 2.3 0 0 0-.82.694q-.305.427-.434.966a4.6 4.6 0 0 0-.132 1.098q0 .56.117 1.12.117.561.41 1.008.29.446.805.714.514.271 1.28.273.794 0 1.308-.273.514-.267.804-.714.294-.447.396-1.008.107-.561.108-1.14m16.483 4.936h-2.403q-.66.001-.833-.28c-.117-.187-.171-.46-.171-.82q-.45.478-1.371.881-.928.405-2.51.405-1.876.001-2.775-.58-.899-.58-1.16-1.534a5.5 5.5 0 0 1-.174-1.039q-.039-.56-.037-1.098v-5.749a3 3 0 0 1 .42-.052q.368-.03.795-.03c.281 0 .565.02.843.063q.424.062.768.238.341.175.555.497.21.32.21.841v4.067q0 .48.039.86.039.385.21.663.172.282.557.438.38.155 1.068.155.976 0 1.677-.322.7-.32.699-.8v-6.618a3 3 0 0 1 .423-.052q.37-.03.794-.03c.281 0 .565.024.843.075q.422.072.768.268.341.198.555.54.21.343.21.86zm2.249-1.494a3 3 0 0 1-.24-.872 8 8 0 0 1-.054-.914v-9.625l.396-.043q.183-.018.396-.029a6 6 0 0 1 1.266.052q.425.063.765.25a1.5 1.5 0 0 1 .555.507q.213.322.213.841v1.452h3.695v2.117h-3.695v4.44q0 1.452 1.503 1.452.37 0 .701-.093t.607-.207c.183-.077.34-.157.461-.24q.184-.123.264-.188.397.456.607.791.21.329.212.62 0 .27-.279.53-.276.258-.777.476-.503.217-1.214.352a8 8 0 0 1-1.56.136q-1.666.001-2.561-.5-.893-.495-1.261-1.305m16.938-4.232q0-.459-.04-.85a1.6 1.6 0 0 0-.21-.677q-.173-.278-.557-.435-.382-.156-1.068-.156c-.65 0-1.213.11-1.68.323q-.697.32-.698.796v6.723h-3.59V44.847q.05-.018.422-.052.367-.03.792-.03.426.002.843.063.424.063.768.238c.227.117.415.284.554.497q.21.32.21.841v4.129a5 5 0 0 1 .531-.394q.314-.207.765-.382a5.4 5.4 0 0 1 1.044-.28q.593-.105 1.359-.104 1.875-.001 2.774.58.9.581 1.16 1.536.132.476.174 1.037.04.562.04 1.098v5.853h-3.593zm12.03 3.961q.661 0 1.16-.113.502-.113.9-.28.395-.165.687-.361l.528-.363q.316.311.66.799t.344.796q-.001.459-.662.83-.554.334-1.57.57-1.015.24-2.392.24-1.239 0-2.442-.25a6 6 0 0 1-2.138-.871 4.7 4.7 0 0 1-1.518-1.669c-.389-.699-.584-1.578-.584-2.648q0-1.306.518-2.25.514-.944 1.371-1.565a5.8 5.8 0 0 1 1.94-.912 8.5 8.5 0 0 1 2.22-.292c.99 0 1.823.121 2.51.363q1.029.362 1.677.975.647.614.938 1.402t.289 1.66v.291q0 .164-.013.353l-.026.363q-.016.175-.04.279H66.43q.107 1.14.9 1.899c.528.505 1.361.754 2.508.754m1.187-4.209c0-.664-.16-1.204-.488-1.618q-.488-.623-1.755-.624-1.108 0-1.743.593-.634.59-.633 1.65zm15.574 3.567q0 1.618.606 2.386a5.6 5.6 0 0 1-1.743.27c-.633 0-1.115-.097-1.437-.291a1.3 1.3 0 0 1-.623-.83q-.58.478-1.53.81-.953.33-2.325.33c-.477 0-.95-.05-1.427-.155a4.1 4.1 0 0 1-1.293-.509 2.85 2.85 0 0 1-.95-.942q-.373-.59-.373-1.444 0-1.056.648-1.723a4.5 4.5 0 0 1 1.626-1.044 8.7 8.7 0 0 1 2.114-.53c.755-.096 1.454-.16 2.087-.187q.316-.02.62-.02h.568v-.375q0-.788-.543-1.122-.54-.331-1.755-.332-1.135 0-2.02.292-.885.29-1.731.665a3.1 3.1 0 0 1-.594-.778q-.224-.423-.223-.634 0-.268.409-.549.41-.28 1.121-.497a11.4 11.4 0 0 1 1.638-.352 13 13 0 0 1 1.955-.136q1.426 0 2.415.227.993.23 1.61.706.623.479.886 1.193.263.717.264 1.67zm-3.38-2.407h-.37a4 4 0 0 0-.371.021q-.661.04-1.308.137-.646.092-1.149.29-.499.199-.819.528-.316.333-.315.85 0 .581.42.987.421.404 1.428.405a4.2 4.2 0 0 0 1.743-.374q.342-.166.542-.363.198-.196.198-.365zm14.796-3.857q0 .311-.25.735a7 7 0 0 1-.542.799 7 7 0 0 0-.633-.33 7 7 0 0 0-.872-.342 8 8 0 0 0-1.005-.26 5 5 0 0 0-1.029-.105q-.291 0-.608.03a2.3 2.3 0 0 0-.567.125 1.1 1.1 0 0 0-.42.271.63.63 0 0 0-.174.467q.002.705 1.928 1.038.793.124 1.572.321.78.198 1.398.55.623.354 1.004.892.385.54.384 1.35c0 .553-.14 1.045-.41 1.473a3.4 3.4 0 0 1-1.123 1.077 5.7 5.7 0 0 1-1.676.664 9.2 9.2 0 0 1-2.1.227q-1.19.002-1.98-.134a8 8 0 0 1-1.322-.323 5 5 0 0 1-.804-.363q-.435-.239-.435-.653 0-.353.264-.737.265-.384.609-.799.236.166.593.344.357.173.82.33.46.155.99.26.525.102 1.082.103.342 0 .714-.042.37-.04.647-.167.278-.124.462-.33a.8.8 0 0 0 .184-.542q0-.601-.594-.86-.593-.26-1.782-.444a13 13 0 0 1-1.476-.332q-.716-.21-1.269-.55a2.7 2.7 0 0 1-.882-.861c-.223-.344-.33-.767-.33-1.264q0-.748.423-1.307a3.6 3.6 0 0 1 1.121-.957 5.8 5.8 0 0 1 1.626-.591 9.3 9.3 0 0 1 1.926-.196q1.058 0 1.89.125a8.3 8.3 0 0 1 1.436.332q1.16.372 1.21.976m2.063 7.177a3 3 0 0 1-.237-.872 8 8 0 0 1-.054-.914v-9.625l.396-.043q.183-.018.396-.029.21-.01.423-.011c.281 0 .565.023.843.063q.424.063.768.25c.227.125.415.292.552.507q.213.322.213.841v1.452h3.698v2.117h-3.698v4.44q0 1.452 1.505 1.452.368 0 .699-.093t.606-.207a2.7 2.7 0 0 0 .462-.24q.185-.123.264-.188c.267.305.467.566.609.791q.21.329.21.62 0 .27-.276.53-.278.258-.78.476a6 6 0 0 1-1.215.352 8 8 0 0 1-1.559.136q-1.664.001-2.561-.5-.894-.495-1.264-1.305m15.073-.271a5.4 5.4 0 0 0 1.161-.113 5.4 5.4 0 0 0 .897-.28q.398-.165.687-.361l.53-.363q.315.311.66.799.341.489.342.796 0 .459-.66.83-.553.334-1.569.57-1.018.24-2.393.24-1.242 0-2.441-.25a6 6 0 0 1-2.139-.871 4.7 4.7 0 0 1-1.518-1.669c-.391-.699-.584-1.578-.584-2.648q.001-1.306.516-2.25a4.7 4.7 0 0 1 1.373-1.565c.57-.415 1.22-.72 1.941-.912a8.5 8.5 0 0 1 2.219-.292c.988 0 1.821.121 2.511.363q1.029.362 1.676.975.645.614.939 1.402a4.8 4.8 0 0 1 .288 1.66v.291q0 .164-.015.353l-.024.363q-.016.175-.039.279h-7.763q.105 1.14.9 1.899.788.756 2.505.754m1.188-4.209q.001-.997-.489-1.618-.49-.623-1.755-.624-1.108 0-1.743.593-.633.59-.633 1.65zm8.31-2.865a3.5 3.5 0 0 1 .435-.414 3.2 3.2 0 0 1 .648-.415q.367-.188.833-.311.463-.125.988-.125.317 0 .674.042.355.04.66.156.303.114.487.31.186.198.185.489.002.436-.291 1.038-.289.601-.581 1.016a4.2 4.2 0 0 0-.9-.447 3.2 3.2 0 0 0-1.053-.156q-.819 0-1.374.375-.554.374-.555.893v6.39h-3.59v-9.814l.315-.042a4 4 0 0 1 .372-.03q.21-.01.501-.01.846 0 1.466.259c.416.17.672.437.78.796m9.508 8.839h-3.617v-9.814l.315-.042a4 4 0 0 1 .371-.03q.21-.012.501-.01.847-.002 1.465.24.622.24.779.84.447-.477 1.371-.883.926-.402 2.511-.403 1.871-.001 2.774.58.897.582 1.161 1.536a5.3 5.3 0 0 1 .171 1.037q.04.56.039 1.1v5.85h-3.591v-5.725q0-.458-.039-.853a1.6 1.6 0 0 0-.212-.674q-.174-.281-.553-.435c-.259-.104-.613-.156-1.073-.156q-.976.001-1.676.32-.698.324-.699.8v6.722zM44.483 69.965h-3.656v-1.458h5.824v5.809q-.181.184-.667.46-.484.277-1.254.556-.768.276-1.816.472-1.046.194-2.327.194-2.009 0-3.475-.534-1.462-.532-2.415-1.498a6.05 6.05 0 0 1-1.413-2.286q-.457-1.325-.457-2.906 0-1.54.472-2.843a5.8 5.8 0 0 1 1.435-2.237q.964-.931 2.468-1.465 1.502-.536 3.54-.536.94.001 1.855.175a9 9 0 0 1 1.62.45q.705.277 1.149.617t.445.645q0 .247-.21.555-.207.309-.47.553h-.445a5 5 0 0 0-.613-.482 4.6 4.6 0 0 0-.902-.46 7.2 7.2 0 0 0-2.588-.473q-1.592.002-2.638.472-1.044.472-1.672 1.243a4.45 4.45 0 0 0-.875 1.757 8.2 8.2 0 0 0-.246 2.03q0 1.087.273 2.112a4.7 4.7 0 0 0 .941 1.828q.669.799 1.75 1.294 1.086.491 2.706.493a8 8 0 0 0 1.344-.103q.617-.102 1.086-.246a4.6 4.6 0 0 0 .77-.298q.303-.153.456-.276v-3.614zm4.588-3.959q.208-.022.328-.022h.141q.602 0 1.086.237.484.235.586.79.366-.431 1.098-.81.73-.38 1.698-.38.285 0 .611.043.329.04.614.134.29.092.472.257.18.165.18.43 0 .33-.207.709-.21.38-.418.626a2.7 2.7 0 0 0-.731-.38q-.392-.133-.992-.133-.445 0-.849.114-.404.11-.718.307a1.8 1.8 0 0 0-.496.441.85.85 0 0 0-.184.513v6.815h-2.22zm18.612 4.821q0 1.007-.315 1.94a4.3 4.3 0 0 1-1.004 1.653q-.694.716-1.792 1.148-1.096.431-2.664.43c-1.03 0-1.907-.136-2.64-.409-.73-.274-1.325-.64-1.774-1.098a4.1 4.1 0 0 1-.993-1.62 6.2 6.2 0 0 1-.312-1.98q-.002-1.027.366-1.95a4.4 4.4 0 0 1 1.095-1.61q.733-.69 1.819-1.097c.72-.274 1.571-.41 2.544-.41 1.01 0 1.88.138 2.6.41q1.085.41 1.763 1.097.68.688.992 1.591.315.9.315 1.905m-2.351.021q0-.638-.144-1.261a3.1 3.1 0 0 0-.509-1.127q-.366-.505-1.019-.81-.654-.31-1.696-.31-.993 0-1.66.31a2.8 2.8 0 0 0-1.058.81q-.39.501-.562 1.127a4.7 4.7 0 0 0-.169 1.261q0 .635.142 1.283a3.1 3.1 0 0 0 .535 1.179c.264.355.609.645 1.046.872.435.224.993.34 1.672.34q1.043 0 1.723-.34.681-.339 1.046-.86a3.2 3.2 0 0 0 .509-1.18 6 6 0 0 0 .144-1.294m12.785-2.381q-.444-.41-1.148-.77-.707-.36-1.91-.359-.992 0-1.695.265-.706.267-1.164.751-.455.48-.665 1.127t-.21 1.388q0 .758.21 1.425.21.668.665 1.162.458.49 1.19.78.73.287 1.75.287.706 0 1.266-.174.561-.174.954-.4.524-.266.838-.576c.068.056.152.127.244.215q.145.136.289.288.142.156.235.317.091.165.092.31 0 .286-.547.658-.496.348-1.425.593-.927.245-2.26.246-.837 0-1.841-.184a5.3 5.3 0 0 1-1.882-.74c-.584-.37-1.073-.885-1.477-1.547q-.6-.996-.6-2.638-.002-1.519.627-2.504a4.8 4.8 0 0 1 1.542-1.55 6.2 6.2 0 0 1 1.946-.79q1.029-.224 1.816-.224.94.001 1.687.152.745.157 1.278.392.534.236.824.5.287.267.288.513-.001.248-.208.555-.209.311-.418.534h-.29zm4.148 2.731q.08 1.494 1.007 2.411.928.915 2.86.913.73 0 1.307-.123.575-.121.993-.298.417-.173.691-.378.271-.206.457-.37.287.285.511.616.222.328.223.512 0 .164-.132.338t-.443.36q-.602.346-1.542.583-.94.238-2.27.236a9.3 9.3 0 0 1-2.313-.276 5.3 5.3 0 0 1-1.894-.893 4.25 4.25 0 0 1-1.28-1.611q-.47-.994-.47-2.431-.001-1.291.481-2.237a4.6 4.6 0 0 1 1.267-1.548q.784-.606 1.789-.893a7.5 7.5 0 0 1 2.077-.29q1.33 0 2.285.35.954.347 1.555.935.597.585.887 1.354.286.77.286 1.59 0 .288-.012.585-.015.298-.066.565zm6.113-1.314q-.001-.552-.142-1.027a2.06 2.06 0 0 0-.484-.83q-.337-.36-.902-.564-.563-.205-1.37-.206-1.358 0-2.235.698-.876.697-.98 1.93zm4.453-3.878q.208-.022.328-.022h.141q.602 0 1.086.237.484.235.586.79.366-.431 1.098-.81.73-.38 1.696-.38.288 0 .613.043.327.042.614.134.29.092.472.257.18.165.18.43 0 .33-.207.709-.212.38-.418.626a2.7 2.7 0 0 0-.731-.38q-.395-.133-.995-.133-.44 0-.848.114a2.7 2.7 0 0 0-.716.307 1.8 1.8 0 0 0-.499.441.85.85 0 0 0-.18.513v6.815h-2.222v-9.691zm15.161 2.298q-.443-.432-1.293-.749a5.1 5.1 0 0 0-1.816-.319q-.338 0-.745.052a3.2 3.2 0 0 0-.756.185q-.353.134-.586.378a.85.85 0 0 0-.235.616.8.8 0 0 0 .196.555q.195.224.547.39.353.164.824.276.465.112 1.019.215.783.143 1.513.36.735.212 1.293.554.56.339.89.851.325.513.325 1.273t-.391 1.325a3.2 3.2 0 0 1-1.046.943 5.4 5.4 0 0 1-1.528.576 8.4 8.4 0 0 1-1.816.194q-.916 0-1.647-.113a8 8 0 0 1-1.23-.277q-.651-.204-.914-.42c-.173-.142-.261-.292-.261-.442q0-.268.183-.555.183-.286.469-.657.182.122.511.296a7 7 0 0 0 1.789.637q.55.112 1.178.112.467 0 .914-.071.441-.072.797-.236.354-.165.575-.452.223-.288.222-.72 0-.43-.237-.708a1.8 1.8 0 0 0-.628-.461 4.3 4.3 0 0 0-.875-.298q-.483-.113-.98-.194a13 13 0 0 1-1.45-.318 4.8 4.8 0 0 1-1.229-.523 2.8 2.8 0 0 1-.861-.81q-.326-.483-.327-1.202 0-.676.367-1.2.365-.523.992-.86a5.4 5.4 0 0 1 1.425-.515 7.7 7.7 0 0 1 1.657-.175q.992 0 1.818.164.824.164 1.32.39.52.227.704.42c.122.13.183.26.183.38 0 .152-.051.326-.144.524a4 4 0 0 1-.352.586z"/></g><defs><linearGradient id="c" x1="56.379" x2="56.379" y1="6.885" y2="37.487" gradientUnits="userSpaceOnUse"><stop stop-color="#F3270B"/><stop offset=".207" stop-color="#F3270B"/><stop offset=".851" stop-color="#971404"/><stop offset="1" stop-color="#971404"/></linearGradient><linearGradient id="e" x1="67" x2="67" y1="6.886" y2="37.489" gradientUnits="userSpaceOnUse"><stop stop-color="#F3270B"/><stop offset=".207" stop-color="#F3270B"/><stop offset=".851" stop-color="#971404"/><stop offset="1" stop-color="#971404"/></linearGradient><linearGradient id="g" x1="45.899" x2="82.881" y1="31.254" y2="31.254" gradientUnits="userSpaceOnUse"><stop stop-color="#2FB33D"/><stop offset=".212" stop-color="#2FB33D"/><stop offset=".825" stop-color="#00652F"/><stop offset="1" stop-color="#00652F"/></linearGradient><linearGradient id="i" x1="86.697" x2="68.424" y1="23.92" y2="23.92" gradientUnits="userSpaceOnUse"><stop stop-color="#7BCC49"/><stop offset=".157" stop-color="#7BCC49"/><stop offset=".845" stop-color="#16A03A"/><stop offset="1" stop-color="#16A03A"/></linearGradient><clipPath id="a"><path fill="#fff" d="M0 0h142v76H0z"/></clipPath></defs></svg>