<?xml version="1.0" encoding="UTF-8"?>
<svg id="svg2" xmlns="http://www.w3.org/2000/svg" xmlns:xlink="http://www.w3.org/1999/xlink" viewBox="0 0 820.98 395.8">
  <defs>
    <style>
      .cls-1 {
        fill: none;
      }

      .cls-2 {
        fill: url(#linear-gradient);
      }

      .cls-3 {
        clip-path: url(#clippath);
      }

      .cls-4 {
        fill: #323232;
      }

      .cls-5 {
        clip-path: url(#clippath-1);
      }

      .cls-6 {
        clip-path: url(#clippath-3);
      }

      .cls-7 {
        clip-path: url(#clippath-2);
      }

      .cls-8 {
        fill: url(#linear-gradient-3);
      }

      .cls-9 {
        fill: url(#linear-gradient-4);
      }

      .cls-10 {
        fill: url(#linear-gradient-2);
      }
    </style>
    <clipPath id="clippath">
      <path class="cls-1" d="M259.84,81.26l181.64,132.17s-91.68-125.92-91.92-126.17c-9.72-5.09-37.73-11-61.21-11-11.48,0-21.88,1.39-28.51,5"/>
    </clipPath>
    <linearGradient id="linear-gradient" x1="30" y1="3.3" x2="38.97" y2="3.3" gradientTransform="translate(409.25 -497.19) rotate(90) scale(17.77)" gradientUnits="userSpaceOnUse">
      <stop offset="0" stop-color="#f3270b"/>
      <stop offset=".21" stop-color="#f3270b"/>
      <stop offset=".85" stop-color="#971404"/>
      <stop offset="1" stop-color="#971404"/>
    </linearGradient>
    <clipPath id="clippath-1">
      <path class="cls-1" d="M349.56,87.25c.15,.3,91.91,126.17,91.91,126.17L371.35,0c-16.65,15.93-24.58,71.15-21.79,87.25"/>
    </clipPath>
    <linearGradient id="linear-gradient-2" x1="30" y1="1.13" x2="38.97" y2="1.13" gradientTransform="translate(414.21 -497.19) rotate(90) scale(17.77)" gradientUnits="userSpaceOnUse">
      <stop offset="0" stop-color="#f3270b"/>
      <stop offset=".21" stop-color="#f3270b"/>
      <stop offset=".85" stop-color="#971404"/>
      <stop offset="1" stop-color="#971404"/>
    </linearGradient>
    <clipPath id="clippath-2">
      <path class="cls-1" d="M307.78,99.08l181.89,132.35s-91.8-126.1-92.04-126.35c-9.75-5.09-37.79-11.01-61.31-11.01-11.49,0-21.89,1.4-28.54,5.01"/>
    </clipPath>
    <linearGradient id="linear-gradient-3" x1="48.5" y1="-.38" x2="57.47" y2="-.38" gradientTransform="translate(-510.44 169.18) scale(16.87)" gradientUnits="userSpaceOnUse">
      <stop offset="0" stop-color="#2fb33d"/>
      <stop offset=".21" stop-color="#2fb33d"/>
      <stop offset=".83" stop-color="#00652f"/>
      <stop offset="1" stop-color="#00652f"/>
    </linearGradient>
    <clipPath id="clippath-3">
      <path class="cls-1" d="M397.64,105.08c.16,.31,92.04,126.34,92.04,126.34L419.46,17.72c-16.67,15.95-24.62,71.23-21.82,87.36"/>
    </clipPath>
    <linearGradient id="linear-gradient-4" x1="20.16" y1="31.31" x2="29.13" y2="31.31" gradientTransform="translate(642.74 385.51) rotate(-180) scale(8.34)" gradientUnits="userSpaceOnUse">
      <stop offset="0" stop-color="#7bcc49"/>
      <stop offset=".16" stop-color="#7bcc49"/>
      <stop offset=".84" stop-color="#16a03a"/>
      <stop offset="1" stop-color="#16a03a"/>
    </linearGradient>
  </defs>
  <g class="cls-3">
    <rect class="cls-2" x="259.84" y="76.25" width="181.64" height="137.17"/>
  </g>
  <g class="cls-5">
    <rect class="cls-10" x="346.77" width="94.7" height="213.42"/>
  </g>
  <g class="cls-7">
    <rect class="cls-8" x="307.78" y="94.07" width="181.89" height="137.37"/>
  </g>
  <g class="cls-6">
    <rect class="cls-9" x="394.84" y="17.72" width="94.84" height="213.7"/>
  </g>
  <path class="cls-4" d="M124.65,293.11c2.02,1.59,4.48,3.16,7.4,4.7,2.92,1.55,6.39,2.32,10.43,2.32,1.52,0,2.99-.18,4.43-.54,1.44-.36,2.72-.91,3.83-1.67,1.12-.76,2.04-1.75,2.76-2.98,.72-1.22,1.08-2.74,1.08-4.54s-.39-3.45-1.18-4.75c-.8-1.29-1.84-2.39-3.14-3.29-1.3-.91-2.81-1.68-4.54-2.33-1.72-.65-3.49-1.29-5.29-1.94-2.31-.8-4.63-1.66-6.97-2.6-2.34-.93-4.45-2.16-6.32-3.67-1.87-1.52-3.4-3.44-4.59-5.78s-1.78-5.31-1.78-8.91,.69-6.53,2.05-9.19c1.37-2.66,3.25-4.88,5.62-6.64,2.38-1.77,5.11-3.1,8.21-4,3.1-.91,6.38-1.35,9.84-1.35,2.38,0,4.58,.18,6.64,.55,2.05,.36,3.89,.79,5.52,1.29,1.62,.51,2.99,1.02,4.11,1.57,1.11,.54,1.96,1.02,2.54,1.45,2.02,1.16,3.02,2.78,3.02,4.87,0,.86-.38,2.04-1.13,3.51-.76,1.48-1.82,2.93-3.19,4.38-1.8-1.44-4.13-2.81-6.97-4.11-2.84-1.29-5.89-1.95-9.13-1.95-1.29,0-2.63,.13-4,.39-1.36,.25-2.61,.68-3.72,1.29-1.12,.61-2.04,1.46-2.75,2.54-.73,1.09-1.09,2.42-1.09,4s.36,2.83,1.09,3.94c.72,1.12,1.69,2.09,2.91,2.92,1.22,.83,2.65,1.57,4.27,2.22s3.29,1.29,5.02,1.95c2.3,.86,4.65,1.8,7.02,2.81s4.54,2.3,6.48,3.84,3.52,3.49,4.75,5.83c1.22,2.34,1.84,5.28,1.84,8.81,0,3.82-.67,7.18-2,10.1-1.34,2.92-3.18,5.39-5.57,7.4-2.37,2.03-5.24,3.54-8.58,4.55-3.35,1-7.01,1.51-10.97,1.51-5.18,0-9.39-.52-12.59-1.56-3.2-1.05-5.52-2-6.97-2.87-.86-.57-1.58-1.26-2.16-2.04-.57-.8-.86-1.7-.86-2.7,0-1.23,.48-2.7,1.46-4.44,.95-1.75,2.01-3.38,3.17-4.89"/>
  <path class="cls-4" d="M225.37,283.92c0,3.61-.46,7.07-1.35,10.38-.9,3.32-2.38,6.23-4.43,8.75s-4.7,4.54-7.94,6.05c-3.25,1.52-7.18,2.27-11.79,2.27s-8.52-.74-11.72-2.22-5.81-3.45-7.83-5.95c-2.02-2.48-3.5-5.36-4.43-8.65-.94-3.27-1.41-6.72-1.41-10.31s.55-7.15,1.62-10.43c1.08-3.27,2.68-6.15,4.81-8.65,2.13-2.48,4.81-4.44,8.05-5.88s7.02-2.16,11.35-2.16,8.4,.72,11.61,2.16c3.2,1.44,5.79,3.38,7.78,5.83,1.98,2.46,3.43,5.3,4.32,8.54,.91,3.26,1.36,6.68,1.36,10.27m-14.8,.12c0-1.95-.14-3.87-.43-5.78-.29-1.9-.83-3.58-1.62-5.02s-1.87-2.61-3.24-3.51c-1.37-.91-3.1-1.35-5.19-1.35s-3.83,.47-5.24,1.41c-1.4,.93-2.52,2.14-3.35,3.61-.83,1.48-1.43,3.16-1.78,5.03-.36,1.87-.54,3.78-.54,5.72s.16,3.89,.48,5.83c.32,1.95,.88,3.7,1.68,5.25,.79,1.55,1.89,2.79,3.29,3.72,1.4,.94,3.15,1.42,5.24,1.42s3.95-.48,5.35-1.42c1.4-.93,2.5-2.17,3.29-3.72,.8-1.55,1.34-3.3,1.62-5.25,.29-1.94,.44-3.93,.44-5.94"/>
  <path class="cls-4" d="M278.01,309.75h-9.83c-1.8,0-2.94-.48-3.41-1.46-.48-.97-.7-2.39-.7-4.27-1.23,1.66-3.1,3.19-5.61,4.59-2.53,1.41-5.95,2.11-10.27,2.11-5.11,0-8.9-1-11.35-3.02s-4.04-4.68-4.75-7.99c-.36-1.66-.59-3.46-.71-5.41-.11-1.95-.15-3.85-.15-5.72v-29.94c.14-.06,.72-.16,1.72-.27s2.09-.16,3.25-.16,2.31,.11,3.45,.33c1.16,.22,2.2,.63,3.14,1.24,.93,.61,1.69,1.47,2.27,2.59,.57,1.11,.86,2.57,.86,4.38v21.18c0,1.66,.05,3.16,.16,4.48,.11,1.34,.39,2.48,.86,3.45,.47,.98,1.23,1.74,2.28,2.28,1.04,.54,2.49,.81,4.37,.81,2.66,0,4.95-.56,6.86-1.68,1.91-1.11,2.86-2.5,2.86-4.16v-34.47c.15-.06,.73-.16,1.73-.27,1.01-.11,2.09-.16,3.25-.16s2.31,.13,3.45,.39c1.15,.25,2.2,.72,3.14,1.4,.93,.69,1.69,1.62,2.27,2.81,.57,1.19,.86,2.69,.86,4.48v42.46h0Z"/>
  <path class="cls-4" d="M287.21,301.97c-.5-1.44-.83-2.95-.98-4.54-.14-1.59-.22-3.17-.22-4.76v-50.13l1.62-.22c.5-.06,1.04-.12,1.62-.15,.57-.04,1.15-.06,1.73-.06,1.15,0,2.31,.12,3.45,.33,1.16,.22,2.2,.65,3.13,1.3,.94,.65,1.7,1.52,2.27,2.64,.58,1.12,.87,2.58,.87,4.38v7.56h15.12v11.03h-15.12v23.12c0,5.04,2.05,7.56,6.15,7.56,1.01,0,1.96-.16,2.87-.48,.9-.32,1.73-.69,2.48-1.08,.75-.4,1.39-.82,1.89-1.25s.86-.75,1.08-.98c1.08,1.59,1.91,2.95,2.48,4.12,.57,1.14,.87,2.22,.87,3.23,0,.94-.38,1.86-1.14,2.76-.75,.9-1.82,1.72-3.18,2.48-1.37,.75-3.03,1.36-4.97,1.83-1.95,.48-4.07,.71-6.38,.71-4.54,0-8.04-.86-10.48-2.6-2.43-1.72-4.16-3.99-5.16-6.8"/>
  <path class="cls-4" d="M356.51,279.93c0-1.59-.05-3.07-.16-4.43-.11-1.37-.39-2.54-.86-3.52-.48-.97-1.23-1.72-2.28-2.27-1.04-.54-2.5-.81-4.37-.81-2.66,0-4.96,.57-6.87,1.68-1.9,1.11-2.86,2.5-2.86,4.15v35.01h-14.69v-76.18c.14-.06,.72-.16,1.73-.27,1-.11,2.09-.16,3.24-.16s2.31,.12,3.45,.33c1.16,.22,2.2,.63,3.14,1.24,.93,.61,1.7,1.48,2.27,2.59s.86,2.57,.86,4.38v21.5c.58-.65,1.3-1.33,2.17-2.05,.86-.72,1.9-1.38,3.13-1.99,1.22-.61,2.65-1.1,4.27-1.46,1.62-.36,3.47-.54,5.56-.54,5.11,0,8.9,1,11.35,3.02,2.45,2.02,4.04,4.68,4.75,8,.36,1.65,.59,3.45,.71,5.4,.11,1.95,.16,3.86,.16,5.72v30.48h-14.7v-29.82h0Z"/>
  <path class="cls-4" d="M405.73,300.56c1.8,0,3.39-.2,4.75-.59,1.37-.39,2.59-.88,3.68-1.46,1.08-.57,2.01-1.2,2.81-1.88,.79-.69,1.52-1.32,2.16-1.89,.86,1.08,1.77,2.47,2.7,4.16,.94,1.7,1.41,3.08,1.41,4.15,0,1.59-.91,3.03-2.71,4.32-1.51,1.16-3.65,2.15-6.42,2.97-2.77,.83-6.04,1.25-9.79,1.25-3.38,0-6.71-.44-9.99-1.3-3.27-.86-6.19-2.37-8.75-4.54-2.56-2.16-4.63-5.06-6.21-8.69-1.59-3.64-2.39-8.22-2.39-13.79,0-4.54,.71-8.44,2.12-11.72,1.4-3.27,3.27-6,5.61-8.15,2.34-2.16,4.99-3.75,7.94-4.75,2.96-1.01,5.98-1.52,9.08-1.52,4.05,0,7.46,.63,10.27,1.89s5.09,2.95,6.86,5.08c1.77,2.13,3.04,4.56,3.84,7.3,.79,2.74,1.18,5.61,1.18,8.64v1.52c0,.57-.02,1.18-.05,1.84-.04,.65-.07,1.27-.11,1.89-.04,.61-.1,1.09-.16,1.45h-31.77c.29,3.96,1.52,7.26,3.68,9.89,2.16,2.63,5.57,3.93,10.26,3.93m4.86-21.92c0-3.46-.66-6.27-2-8.43-1.33-2.16-3.72-3.25-7.18-3.25-3.02,0-5.4,1.03-7.13,3.09-1.73,2.05-2.59,4.91-2.59,8.59h18.9Z"/>
  <path class="cls-4" d="M474.31,297.21c0,5.62,.83,9.77,2.48,12.43-1.29,.5-2.5,.87-3.61,1.08-1.12,.22-2.29,.33-3.52,.33-2.59,0-4.56-.51-5.88-1.52-1.34-1.01-2.18-2.45-2.55-4.32-1.58,1.66-3.67,3.06-6.26,4.22-2.6,1.15-5.77,1.72-9.51,1.72-1.95,0-3.89-.26-5.84-.81-1.95-.54-3.71-1.42-5.29-2.65-1.59-1.22-2.88-2.86-3.89-4.91-1.01-2.05-1.52-4.55-1.52-7.52,0-3.67,.88-6.65,2.65-8.97,1.77-2.3,3.98-4.12,6.65-5.44,2.66-1.34,5.54-2.26,8.65-2.76,3.09-.5,5.95-.83,8.54-.97,.86-.07,1.71-.11,2.54-.11h2.32v-1.95c0-2.74-.74-4.68-2.22-5.84-1.48-1.15-3.87-1.73-7.18-1.73-3.1,0-5.85,.51-8.27,1.52-2.41,1.01-4.77,2.16-7.08,3.46-1-1.23-1.82-2.58-2.43-4.05s-.91-2.57-.91-3.3c0-.93,.56-1.89,1.67-2.86,1.12-.97,2.65-1.84,4.59-2.59,1.95-.75,4.18-1.36,6.7-1.83,2.52-.48,5.19-.71,8-.71,3.89,0,7.18,.39,9.88,1.18,2.71,.8,4.9,2.03,6.59,3.68,1.7,1.66,2.9,3.73,3.62,6.21,.72,2.49,1.08,5.39,1.08,8.7v20.31h0Zm-13.83-12.53h-1.51c-.51,0-1.01,.04-1.52,.11-1.8,.14-3.59,.38-5.35,.71-1.76,.32-3.33,.83-4.7,1.51-1.36,.69-2.48,1.61-3.35,2.75-.87,1.16-1.29,2.63-1.29,4.43,0,2.02,.57,3.73,1.72,5.14,1.15,1.4,3.09,2.11,5.84,2.11,1.36,0,2.66-.19,3.88-.55,1.23-.36,2.31-.83,3.25-1.4,.93-.58,1.68-1.21,2.22-1.89s.81-1.32,.81-1.9v-11.02h0Z"/>
  <path class="cls-4" d="M521.01,264.59c0,1.08-.34,2.36-1.02,3.83-.68,1.48-1.43,2.87-2.22,4.16-.65-.5-1.51-1.08-2.59-1.72-1.09-.65-2.27-1.25-3.57-1.78-1.29-.54-2.66-1-4.11-1.35-1.44-.37-2.84-.55-4.21-.55-.8,0-1.62,.05-2.49,.16-.86,.11-1.63,.32-2.32,.65-.68,.32-1.26,.8-1.72,1.41-.48,.61-.71,1.43-.71,2.43,0,2.45,2.64,4.25,7.89,5.41,2.16,.43,4.31,.99,6.43,1.67,2.13,.69,4.03,1.64,5.72,2.86,1.7,1.23,3.07,2.78,4.11,4.65,1.05,1.87,1.57,4.22,1.57,7.03s-.57,5.44-1.68,7.67-2.65,4.1-4.59,5.61c-1.95,1.52-4.23,2.67-6.86,3.46-2.64,.79-5.5,1.18-8.59,1.18s-5.95-.22-8.1-.7c-2.16-.47-3.96-1.02-5.41-1.68-1.01-.43-2.11-1.06-3.29-1.89-1.19-.83-1.78-1.96-1.78-3.4,0-1.23,.36-2.5,1.08-3.84,.73-1.33,1.55-2.72,2.49-4.16,.65,.58,1.45,1.17,2.43,1.79,.97,.6,2.09,1.18,3.35,1.72s2.61,.99,4.05,1.35c1.44,.36,2.91,.54,4.43,.54,.93,0,1.91-.07,2.92-.22,1.01-.14,1.89-.43,2.65-.87,.76-.43,1.38-1,1.89-1.72,.5-.73,.75-1.66,.75-2.82,0-2.09-.81-3.58-2.43-4.48-1.61-.9-4.05-1.67-7.29-2.31-2.08-.44-4.11-1.01-6.04-1.73-1.95-.73-3.68-1.68-5.19-2.86-1.51-1.19-2.72-2.69-3.61-4.49-.91-1.79-1.35-3.99-1.35-6.58s.57-4.86,1.73-6.81c1.16-1.96,2.68-3.61,4.59-4.98,1.9-1.36,4.13-2.39,6.65-3.08,2.52-.68,5.15-1.02,7.88-1.02,2.89,0,5.46,.22,7.73,.65,2.26,.43,4.22,1.01,5.88,1.73,3.16,1.29,4.81,2.99,4.95,5.08"/>
  <path class="cls-4" d="M529.45,301.97c-.5-1.44-.83-2.95-.97-4.54s-.22-3.17-.22-4.76v-50.13l1.62-.22c.5-.06,1.04-.12,1.62-.15,.57-.04,1.15-.06,1.73-.06,1.15,0,2.31,.12,3.45,.33,1.16,.22,2.2,.65,3.14,1.3,.93,.65,1.7,1.52,2.26,2.64,.58,1.12,.87,2.58,.87,4.38v7.56h15.13v11.03h-15.13v23.12c0,5.04,2.05,7.56,6.16,7.56,1,0,1.96-.16,2.86-.48s1.73-.69,2.48-1.08c.75-.4,1.39-.82,1.89-1.25s.86-.75,1.08-.98c1.09,1.59,1.91,2.95,2.49,4.12,.57,1.14,.86,2.22,.86,3.23,0,.94-.38,1.86-1.13,2.76-.76,.9-1.82,1.72-3.19,2.48-1.37,.75-3.02,1.36-4.97,1.83-1.95,.48-4.07,.71-6.38,.71-4.54,0-8.03-.86-10.48-2.6-2.44-1.72-4.16-3.99-5.17-6.8"/>
  <path class="cls-4" d="M591.13,300.56c1.79,0,3.38-.2,4.75-.59,1.36-.39,2.59-.88,3.67-1.46,1.09-.57,2.02-1.2,2.81-1.88,.8-.69,1.52-1.32,2.17-1.89,.86,1.08,1.76,2.47,2.7,4.16,.93,1.7,1.4,3.08,1.4,4.15,0,1.59-.9,3.03-2.7,4.32-1.51,1.16-3.65,2.15-6.42,2.97-2.78,.83-6.04,1.25-9.79,1.25-3.39,0-6.72-.44-9.99-1.3s-6.2-2.37-8.75-4.54c-2.56-2.16-4.63-5.06-6.21-8.69-1.6-3.64-2.39-8.22-2.39-13.79,0-4.54,.71-8.44,2.11-11.72,1.41-3.27,3.28-6,5.62-8.15,2.33-2.16,4.99-3.75,7.94-4.75,2.95-1.01,5.98-1.52,9.08-1.52,4.04,0,7.45,.63,10.27,1.89,2.81,1.26,5.09,2.95,6.86,5.08,1.76,2.13,3.04,4.56,3.84,7.3,.79,2.74,1.18,5.61,1.18,8.64v1.52c0,.57-.02,1.18-.06,1.84-.04,.65-.07,1.27-.1,1.89-.04,.61-.1,1.09-.16,1.45h-31.76c.29,3.96,1.51,7.26,3.68,9.89,2.15,2.63,5.57,3.93,10.25,3.93m4.86-21.92c0-3.46-.66-6.27-2-8.43s-3.73-3.25-7.18-3.25c-3.02,0-5.4,1.03-7.13,3.09-1.73,2.05-2.59,4.91-2.59,8.59h18.9Z"/>
  <path class="cls-4" d="M629.98,263.72c.43-.65,1.03-1.37,1.78-2.16,.75-.8,1.63-1.52,2.65-2.16,1-.65,2.14-1.19,3.41-1.62,1.26-.43,2.61-.65,4.04-.65,.87,0,1.78,.07,2.76,.22,.97,.14,1.87,.41,2.7,.81s1.49,.93,1.99,1.62c.51,.68,.76,1.53,.76,2.54,0,1.51-.39,3.32-1.19,5.41-.79,2.08-1.58,3.85-2.38,5.29-1.22-1.01-2.45-1.78-3.68-2.33-1.22-.54-2.65-.81-4.31-.81-2.23,0-4.11,.65-5.62,1.95-1.51,1.3-2.27,2.85-2.27,4.65v33.28h-14.69v-51.11l1.29-.22c.44-.07,.94-.13,1.52-.15,.57-.04,1.26-.06,2.05-.06,2.31,0,4.31,.45,6,1.35,1.7,.89,2.75,2.28,3.19,4.15"/>
  <path class="cls-4" d="M668.89,309.75h-14.8v-51.11l1.29-.22c.43-.07,.93-.13,1.52-.16,.57-.04,1.26-.05,2.05-.05,2.3,0,4.31,.41,5.99,1.25,1.7,.83,2.76,2.29,3.19,4.38,1.22-1.66,3.09-3.19,5.61-4.6,2.52-1.39,5.95-2.1,10.27-2.1,5.11,0,8.89,1,11.35,3.02,2.45,2.02,4.03,4.69,4.75,8,.36,1.65,.59,3.45,.7,5.4,.11,1.94,.16,3.86,.16,5.73v30.47h-14.69v-29.82c0-1.59-.05-3.07-.16-4.44-.12-1.36-.39-2.54-.87-3.51-.47-.98-1.23-1.73-2.26-2.27-1.06-.54-2.51-.81-4.39-.81-2.66,0-4.95,.56-6.86,1.67-1.9,1.12-2.86,2.51-2.86,4.16v35.01h.01Z"/>
  <path class="cls-4" d="M302,364.37h-14.96v-7.59h23.83v30.25c-.49,.64-1.41,1.44-2.73,2.4-1.32,.96-3.03,1.92-5.13,2.89-2.1,.96-4.57,1.78-7.43,2.46-2.85,.67-6.03,1.01-9.52,1.01-5.48,0-10.22-.93-14.22-2.78-3.99-1.85-7.28-4.45-9.88-7.8-2.6-3.35-4.52-7.33-5.78-11.91-1.25-4.6-1.87-9.64-1.87-15.13s.64-10.28,1.93-14.81c1.28-4.52,3.24-8.4,5.87-11.65,2.63-3.23,6-5.78,10.1-7.63,4.1-1.86,8.92-2.79,14.48-2.79,2.57,0,5.09,.31,7.59,.91,2.49,.6,4.7,1.39,6.63,2.35,1.92,.96,3.49,2.03,4.7,3.21,1.21,1.17,1.82,2.3,1.82,3.36,0,.85-.29,1.82-.86,2.89-.56,1.07-1.21,2.03-1.92,2.88h-1.82c-.64-.78-1.48-1.61-2.51-2.51-1.03-.89-2.26-1.69-3.69-2.4-1.43-.71-3.03-1.3-4.81-1.76-1.78-.47-3.7-.7-5.78-.7-4.34,0-7.94,.83-10.79,2.46-2.85,1.64-5.13,3.79-6.84,6.47-1.71,2.67-2.91,5.72-3.58,9.15-.68,3.42-1.01,6.94-1.01,10.57s.37,7.44,1.12,11c.74,3.57,2.03,6.74,3.85,9.52s4.21,5.02,7.16,6.74c2.96,1.7,6.65,2.57,11.07,2.57,1.99,0,3.83-.18,5.5-.54,1.68-.35,3.16-.78,4.44-1.28,1.28-.49,2.33-1.01,3.15-1.55,.83-.53,1.45-1.01,1.87-1.44v-18.82h.02Z"/>
  <path class="cls-4" d="M320.77,343.75c.57-.07,1.01-.11,1.34-.11h.58c1.64,0,3.12,.41,4.44,1.23s2.12,2.19,2.4,4.12c1-1.5,2.49-2.91,4.49-4.22,1.99-1.32,4.31-1.98,6.95-1.98,.78,0,1.61,.07,2.5,.22,.9,.14,1.73,.38,2.51,.7,.79,.31,1.43,.77,1.93,1.34,.49,.57,.74,1.32,.74,2.24,0,1.14-.28,2.38-.85,3.69-.57,1.32-1.14,2.41-1.71,3.26-.92-.85-1.92-1.52-2.99-1.98-1.07-.46-2.42-.69-4.06-.69-1.21,0-2.37,.2-3.47,.59-1.1,.39-2.09,.92-2.94,1.6s-1.53,1.44-2.03,2.3-.75,1.75-.75,2.67v35.49h-9.09v-50.47h.01Z"/>
  <path class="cls-4" d="M396.92,368.86c0,3.5-.43,6.86-1.29,10.1-.85,3.25-2.22,6.11-4.11,8.61-1.89,2.49-4.33,4.48-7.33,5.98-2.99,1.5-6.63,2.24-10.9,2.24s-7.8-.71-10.8-2.13c-2.99-1.43-5.42-3.33-7.26-5.72-1.86-2.39-3.21-5.2-4.06-8.44-.86-3.25-1.28-6.68-1.28-10.31s.49-6.95,1.5-10.15c1-3.21,2.49-6.01,4.48-8.39,2-2.39,4.48-4.3,7.44-5.71,2.95-1.43,6.43-2.14,10.41-2.14s7.69,.72,10.64,2.14c2.96,1.42,5.36,3.33,7.21,5.71,1.86,2.39,3.21,5.15,4.06,8.29,.86,3.12,1.29,6.43,1.29,9.92m-9.62,.11c0-2.22-.2-4.4-.59-6.57-.39-2.17-1.09-4.13-2.08-5.87-1-1.75-2.39-3.16-4.17-4.22-1.78-1.07-4.1-1.61-6.94-1.61s-4.97,.54-6.79,1.61c-1.82,1.07-3.26,2.48-4.33,4.22s-1.83,3.7-2.3,5.87c-.47,2.17-.69,4.36-.69,6.57s.19,4.43,.58,6.68c.39,2.24,1.12,4.29,2.19,6.14,1.08,1.85,2.49,3.36,4.28,4.54,1.78,1.17,4.06,1.77,6.84,1.77s5.2-.59,7.05-1.77c1.86-1.17,3.28-2.67,4.28-4.48,1-1.82,1.7-3.87,2.08-6.14,.39-2.28,.59-4.53,.59-6.74"/>
  <path class="cls-4" d="M439.6,356.57c-1.21-1.43-2.78-2.76-4.7-4.01-1.93-1.25-4.53-1.87-7.81-1.87-2.71,0-5.02,.46-6.94,1.38-1.92,.93-3.52,2.23-4.76,3.91-1.24,1.67-2.15,3.62-2.72,5.87s-.86,4.65-.86,7.23,.29,5.1,.86,7.42c.57,2.32,1.48,4.33,2.72,6.05,1.25,1.7,2.87,3.06,4.87,4.06,1.99,1,4.38,1.5,7.16,1.5,1.93,0,3.65-.3,5.18-.91,1.53-.6,2.83-1.3,3.9-2.08,1.43-.92,2.57-1.93,3.43-3,.28,.29,.62,.66,1,1.12,.39,.47,.79,.97,1.18,1.5,.39,.54,.71,1.09,.96,1.65,.25,.57,.38,1.11,.38,1.61,0,1-.75,2.14-2.24,3.43-1.35,1.21-3.3,2.24-5.83,3.09s-5.61,1.28-9.25,1.28c-2.28,0-4.79-.32-7.53-.96-2.74-.64-5.31-1.93-7.7-3.85-2.39-1.93-4.39-4.61-6.04-8.06-1.64-3.46-2.46-8.04-2.46-13.74,0-5.27,.85-9.62,2.57-13.04,1.71-3.42,3.81-6.11,6.31-8.07,2.49-1.96,5.14-3.33,7.96-4.11,2.81-.78,5.28-1.17,7.43-1.17,2.57,0,4.86,.27,6.9,.79,2.03,.55,3.78,1.22,5.23,2.04,1.46,.82,2.58,1.69,3.37,2.61,.78,.92,1.18,1.82,1.18,2.67s-.29,1.82-.85,2.89c-.57,1.08-1.14,2-1.71,2.78h-1.19Z"/>
  <path class="cls-4" d="M456.57,370.79c.22,5.19,1.59,9.38,4.12,12.56s6.43,4.75,11.7,4.75c1.99,0,3.78-.21,5.35-.64,1.57-.42,2.92-.94,4.06-1.55,1.14-.6,2.08-1.26,2.83-1.97,.74-.72,1.36-1.35,1.87-1.93,.78,1,1.48,2.06,2.09,3.21,.6,1.14,.91,2.03,.91,2.67,0,.57-.18,1.15-.54,1.76-.36,.61-.96,1.23-1.81,1.87-1.64,1.21-3.75,2.22-6.31,3.04-2.56,.83-5.66,1.23-9.29,1.23-3.35,0-6.5-.48-9.46-1.44-2.96-.97-5.54-2.52-7.75-4.65s-3.96-4.93-5.24-8.39c-1.28-3.45-1.92-7.67-1.92-12.66,0-4.48,.65-8.37,1.97-11.65,1.32-3.27,3.05-5.96,5.18-8.06,2.14-2.11,4.58-3.65,7.32-4.65,2.74-1,5.58-1.51,8.5-1.51,3.63,0,6.74,.61,9.35,1.82,2.6,1.21,4.72,2.83,6.36,4.87,1.63,2.03,2.84,4.38,3.63,7.05,.78,2.67,1.17,5.44,1.17,8.28,0,1-.02,2.02-.05,3.05-.04,1.03-.13,2.02-.27,2.94h-33.77Zm25.01-6.84c0-1.92-.2-3.7-.58-5.35-.39-1.64-1.06-3.09-1.98-4.32-.92-1.26-2.15-2.23-3.69-2.94-1.53-.71-3.41-1.07-5.61-1.07-3.7,0-6.75,1.21-9.14,3.63s-3.72,5.77-4.01,10.05h25.01Z"/>
  <path class="cls-4" d="M499.81,343.75c.57-.07,1.01-.11,1.34-.11h.58c1.64,0,3.12,.41,4.44,1.23s2.12,2.19,2.4,4.12c1-1.5,2.49-2.91,4.49-4.22,1.99-1.32,4.31-1.98,6.94-1.98,.79,0,1.62,.07,2.51,.22s1.73,.38,2.51,.7c.79,.31,1.43,.77,1.93,1.34,.49,.57,.74,1.32,.74,2.24,0,1.14-.29,2.38-.85,3.69-.57,1.32-1.15,2.41-1.71,3.26-.92-.85-1.92-1.52-2.99-1.98-1.08-.46-2.43-.69-4.07-.69-1.2,0-2.36,.2-3.47,.59-1.1,.39-2.08,.92-2.93,1.6s-1.53,1.44-2.04,2.3c-.5,.86-.74,1.75-.74,2.67v35.49h-9.09v-50.47h.01Z"/>
  <path class="cls-4" d="M561.84,355.72c-1.21-1.5-2.97-2.8-5.29-3.9-2.31-1.1-4.79-1.66-7.43-1.66-.92,0-1.94,.09-3.05,.27-1.1,.17-2.13,.49-3.09,.96s-1.77,1.12-2.4,1.97c-.65,.86-.96,1.93-.96,3.21,0,1.15,.26,2.1,.8,2.89,.53,.78,1.28,1.45,2.24,2.03,.96,.57,2.09,1.05,3.37,1.44,1.27,.39,2.66,.76,4.17,1.12,2.13,.5,4.2,1.12,6.19,1.87,2,.74,3.77,1.7,5.29,2.89,1.53,1.17,2.74,2.65,3.64,4.43,.89,1.78,1.33,3.99,1.33,6.63s-.53,4.93-1.6,6.9c-1.08,1.96-2.5,3.6-4.28,4.91-1.78,1.32-3.87,2.31-6.25,3-2.39,.67-4.87,1.01-7.43,1.01s-4.74-.2-6.74-.59c-1.99-.39-3.68-.87-5.03-1.44-1.78-.71-3.02-1.44-3.74-2.19-.71-.74-1.07-1.52-1.07-2.3,0-.93,.25-1.89,.75-2.89s1.14-2.13,1.92-3.42c.5,.42,1.19,.94,2.09,1.54,.89,.61,1.96,1.21,3.21,1.82,1.24,.6,2.61,1.1,4.11,1.5,1.5,.39,3.1,.58,4.82,.58,1.27,0,2.52-.12,3.74-.37,1.2-.25,2.29-.66,3.26-1.23,.96-.57,1.75-1.35,2.35-2.35,.61-1,.91-2.25,.91-3.75s-.32-2.73-.97-3.69c-.64-.96-1.5-1.77-2.57-2.4-1.07-.65-2.26-1.16-3.58-1.55-1.32-.39-2.65-.73-4.01-1.01-2.06-.43-4.05-.98-5.93-1.66-1.89-.67-3.56-1.58-5.03-2.72-1.45-1.14-2.63-2.56-3.52-4.22-.89-1.68-1.34-3.76-1.34-6.26,0-2.35,.5-4.43,1.5-6.25,1-1.81,2.35-3.31,4.06-4.48,1.71-1.18,3.65-2.07,5.83-2.68,2.17-.61,4.43-.91,6.78-.91,2.71,0,5.18,.28,7.44,.85,2.24,.57,4.05,1.25,5.4,2.03,1.42,.79,2.38,1.52,2.88,2.19,.5,.68,.75,1.35,.75,1.98,0,.79-.21,1.7-.59,2.73-.39,1.03-.87,2.04-1.44,3.05l-1.49,.12Z"/>
</svg>