<svg xmlns="http://www.w3.org/2000/svg" width="200" height="40" fill="none"><g clip-path="url(#a)"><path fill="#006B67" d="M141.663 30q2.32 0 3.409 1.183t1.088 2.914q0 .666-.201 1.52-.202.854-.777 1.767a5.3 5.3 0 0 1-1.492 1.55q-.919.638-1.764.852a7.3 7.3 0 0 1-1.795.214q-2.174.001-3.394-1.048-1.22-1.05-1.22-2.942 0-.991.302-1.93a6.4 6.4 0 0 1 .9-1.775 5.4 5.4 0 0 1 1.475-1.399q.877-.562 1.726-.734a8.7 8.7 0 0 1 1.743-.172m-30.389 0q1.44 0 2.318.606.877.608.877 1.506 0 .565-.314 1.008a3.1 3.1 0 0 1-.795.773q-.485.329-1.22.697-.166.076-.325.166l1.261 1.463c.194-.227.42-.481.678-.752q.116-.126.152-.179l1.731 1.229q-.444.588-1.017 1.177.145.12.865.759L113.906 40a11 11 0 0 1-.815-.642 3 3 0 0 0-.257-.21q-.873.52-1.579.687-.707.165-1.682.164-2.094-.001-3.054-.803-.964-.805-.964-1.9 0-2.092 2.913-3.12-.555-.925-.555-1.741 0-1.17.959-1.802.96-.632 2.402-.633m43.278.165q1.496 0 2.189.745.693.746.693 1.794 0 1.137-.737 1.982-.736.851-2.357 1.087.964.745 2.294 4.063h-3.338q-.458-1.156-.973-2.292-.559-1.245-.839-1.44a1.13 1.13 0 0 0-.674-.199h-.163l-.878 3.93h-3.149l2.154-9.67zm-27.076 0 .38 6.13h.028l3.222-6.13h3.957l-2.191 9.67h-2.608l1.876-7.387h-.041l-3.773 7.388h-2.313l-.427-7.337h-.028l-1.462 7.337h-2.615l2.168-9.672zm40.579 0-.466 2.078h-5.156l-.344 1.542h4.971l-.457 1.954h-4.953l-.424 1.895h5.575l-.499 2.202h-8.717l2.168-9.672zm-58.502 5.548q-1.25.613-1.25 1.377 0 .257.142.542t.426.45q.285.17.701.17.768 0 1.697-.61c-.733-.73-1.308-1.372-1.716-1.93m31.765-3.512q-.856 0-1.471.597-.617.599-.927 1.591-.31.996-.31 1.693 0 .74.455 1.228.454.49 1.26.488.902 0 1.532-.653t.921-1.647q.288-.992.289-1.415 0-.931-.492-1.405a1.65 1.65 0 0 0-.571-.361 1.8 1.8 0 0 0-.686-.116m11.763-.083h-1.591l-.441 1.977h.595q1.496 0 1.936-.132.44-.134.655-.446.214-.314.214-.604 0-.372-.257-.582-.255-.212-1.111-.213m-41.743-.678a1 1 0 0 0-.387.062.9.9 0 0 0-.323.201.85.85 0 0 0-.269.637q-.002.334.427.945.704-.309 1.036-.643.332-.336.332-.61 0-.236-.231-.414a.94.94 0 0 0-.585-.178"/><path fill="#9461A8" d="m91.923 9.29-1.193.27-2.473 1.164-2.031.697-1.942.039-.619.66-.308 2.364-.266 1.628-.088 1.356.045 1.473-.353 2.133.043 1.51-1.368 1.513-.177 1.744.089 2.326.485 1.86 2.075.66 2.164-.854 1.855-.388 3.046-1.627.617-1.163q2.758-.12 3.974-.892 1.218-.771 1.59-2.636l2.561-1.512.749-1.278.753-1.744 1.72-1.357.619-2.055-.264-2.17-2.032-1.82z"/><path fill="#54B847" d="m101.293.563 1.887.827 1.965 1.995.708 1.31 1.334 1.376 2.674 3.03-1.652 1.445-2.2 1.24-.549 1.427-2.28-.944-.393.757-2.277-.758-1.337.964h-1.179l-1.179-1.034-1.415-.206-1.65.276-.785-.551-.158-2.616-.392-2.41.55-1.79.55-.138 4.321-3.305zm-9.625 5.5.472 1.101.197 2.204-1.532.275-1.495 1.102-1.728 1.033-1.964.137-1.65-.274.078-.414-.942-.482.156-.825 1.73-.896-.237-1.032-.864-.895 2.75-.758 3.693.068z"/><path fill="#000" d="M104.043 1.05c.253.393.234.752.035 1.035l-.072.092 1.45.647.234.112c.414.2.574.316.66.547l.026.19-.015.179-.037.515.044.013.474.123c.737.221 1.007.65.801 1.49.614.365 1.144.867 1.602 1.472.372.489.631.941.889 1.476l.045.194c0 1.415-1.982 2.426-3.645 2.69.391 1.092-.062 1.786-1.187 1.832-.428.017-.981-.083-1.447-.227.667 1.544.481 2.906-.377 4.029-.561.732-1.45 1.344-2.106 1.594l-.058.283-.157.787c-.454 2.115-1.242 2.965-3.59 3.076-.094 2.873-2.87 4.319-5.565 3.979-.617 1.838-3.033 3.092-5.247 2.73-1.23 1.457-3.728 1.79-5.068.691-1.048-.857-1.115-2.355-.468-3.186l.102-.12-.296-.454c-.92-1.474-.698-2.895 1.412-4.485-.412-.757-.337-1.388.078-2.257l.271-.543.094-.221c.096-.26.106-.441.055-.58-.638-1.007-.57-1.841-.063-2.913l.304-.647a.2.2 0 0 1 .031-.052c-.741-.663-.77-1.588-.345-2.626q.177-.426.421-.823l-.093-.038-.091-.042c-.681-.318-1.039-.836-.652-1.458.201-.323.542-.61 1.038-.918l.334-.2.595-.329-.318-.242-.471-.342-.413-.31c-.167-.136-.21-.205-.246-.358-.236-1.02 4.102-1.81 7.722-1.668l.27.013.064-.056a.56.56 0 0 0 .171-.316 2 2 0 0 1 .054-.24l.222-.671c.136-.468.163-.881.057-1.48-.14-.794-.147-1.42-.012-1.81.23-.673.978-.79 1.483-.247l.096.103.023.132c.136.756.364 1.287.647 1.633.106.131.202.22.282.277 3.506-3.268 8.729-3.996 9.953-2.076M82.477 27.675l-.016.027a1 1 0 0 1-.073.083l-.172.15c-.368.397-.37 1.407.28 1.939.889.728 2.796.41 3.563-.773l.014-.02a2.5 2.5 0 0 1-.315-.274c-.281-.29-.46-.62-.488-.979-1.013.269-1.956.22-2.793-.153m8.137-2.602a3.2 3.2 0 0 1-.973.352c-.732.14-1.502.057-2.248-.164l-.243-.078c-.068.406-.244.802-.515 1.229l-.144.216-.48.66-.087.136a.4.4 0 0 0-.039.087c-.088.35.042.67.323.957q.082.085.16.148l.074.058.122.08a.27.27 0 0 1 .107.11l.035.01c1.868.486 4.125-.724 4.349-2.335l.056-.396a3 3 0 0 0-.149-.397l-.103-.211zm-6.12-2.318-.322.004-.497.013-.129.09c-1.937 1.341-2.187 2.288-1.567 3.375l.13.214.156.236.162.257q.038.07.066.137l-.063-.034c.807.476 1.748.558 2.812.245l.121-.04q.057-.111.13-.215l.453-.623.18-.269c.263-.416.418-.79.456-1.163l.001-.031-.062-.032c-.656-.37-1.306-1.253-1.414-2.095l-.046-.023c-.083-.027-.276-.044-.568-.046m11.958-.1c-1.118 1.003-2.804 1.052-4.002.414l-.083.149-.215.397-.095.156c-.198.303-.468.579-.964.968l.027.063.038.074.24.443c.141.273.244.524.312.79l.04.01c2.36.526 4.93-.721 4.732-3.37l-.008-.076zm-8.377-3-.06.053-.302.251-.165.13-.596.454c-.682.534-1.005.958-1.23 1.753-.218.775.533 1.895 1.19 2.22l.28.12q.156.06.39.131c.653.194 1.322.267 1.932.15.387-.072.748-.23 1.048-.46.544-.415.804-.673.983-.945l.08-.134.344-.626a2.7 2.7 0 0 1-.59-.653c-.307-.493-.369-1.032-.068-1.58-1.135.115-2.386-.223-3.236-.864m6.437-.937-.094.044-.136.075-.063.039a5 5 0 0 1-.209.23c-.538.553-1.738 1.208-1.827 1.212l-.004-.006-.106.111c-.418.47-.45.902-.24 1.315l.065.111c.053.085.096.142.17.228.926 1.09 3.028 1.275 4.162.015l.091-.11c.009-.219.07-.46.222-.863l.148-.38.722-1.702c-1.193-.63-2.156-.652-2.9-.319m-7.357-.259c-1 .497-2.105.752-3.032.57a2 2 0 0 1-.135.62l-.096.229-.296.596c-.355.739-.359 1.124.078 1.737l.027.038.656-.014c.335-.006.58.005.768.042l.023-.106c.235-.832.582-1.33 1.228-1.869l.246-.197.536-.407.231-.183.272-.232-.129-.151a2.2 2.2 0 0 1-.376-.674zm11.598-.037-.503.38-.047.041a.6.6 0 0 0-.077.089l-.067.108a3 3 0 0 0-.081.161l-.107.235-.608 1.442-.13.33c-.187.495-.23.721-.21.964l.007.05h.112c2.244 0 2.703-.467 3.099-2.488l.199-.976.002-.01a4 4 0 0 1-.552 0c-.407-.03-.76-.133-1.037-.326m-6.164-3.787c-.292.278-.602.496-.873.58a4.5 4.5 0 0 1-1.664.187c-.184.99-1.158 2.042-2.367 2.77.296 1.274 2.331 2.102 3.898 1.779l.18-.043a.3.3 0 0 1 .053-.01l.027-.018.182-.1.5-.246.223-.125c.219-.13.421-.277.619-.455l.194-.188.063-.066.151-.166q.108-.09.234-.16l.097-.053c.3-.278.2-.81-.023-1.47-.695-.418-1.227-1.168-1.494-2.216m5.041 2.048a3.8 3.8 0 0 1-1.953.592c-.343.45-.135.634.01.724l-.012-.01c.537.02 1.123.165 1.754.458l.257.127.079-.08.103-.09.497-.375-.05-.063c-.391-.502-.585-.865-.685-1.283m-13.204-1.63-.085.056a1.3 1.3 0 0 1-.051.333 2 2 0 0 1-.091.253l-.149.322-.035.072-.146.315c-.308.72-.311 1.232.126 1.937l.047.125.06.02c1.905.521 5.08-1.514 5.37-3.177-.387-.095-.726-.256-.975-.492l-.23-.221c-.227-.226-.327-.349-.4-.489a1 1 0 0 1-.077-.191l-.081-.343c-.616-.072-1.583.363-3.284 1.48m15.649-2.49-.035.05-.066.123c-.083.139-.21.347-.353.57l-.325.502-.212.304-.096.031a.2.2 0 0 1 .037.105c.061.753-.285 1.476-.869 2.027.067.55.238.902.793 1.582.183.222.485.342.89.372a3.7 3.7 0 0 0 .946-.067l.191-.04.126-.033h.018c.418-.195 1.065-.652 1.472-1.183.745-.974.831-2.177-.006-3.66-.612.104-1.198-.055-1.921-.405l-.37-.18a3 3 0 0 0-.22-.098m-4.316-.185c-.435.201-1.08.34-1.745.398q-.172.015-.345.025a.2.2 0 0 1 .016.082c0 .3-.254.774-.608 1.22l.006.016c.339 1.977 1.535 2.835 3.007 2.597a3.16 3.16 0 0 0 1.532-.703.2.2 0 0 1 .047-.046c.505-.449.81-1.046.768-1.656-.062.01-.084.004-.096-.016l-.013-.032c-.042-.023-.042-.023-.058-.036l-.803-.629-.504-.389-.594-.436q-.128-.09-.26-.18l-.221-.14zM92.07 9.607l-.111.02-.201.03-.484.064-.243.039c-.168.032-.257.059-.285.086l-.398.367-.187.164-.386.326-1.306 1.054a1.2 1.2 0 0 1-.372.199l.037.895.116.452.11.472q.016.06.044.115.07.12.17.222l.076.079.28.273c.504.478 1.697.543 2.586.263.539-.17 1.453-1.272 1.567-1.755l.019-.148.008-.02c-.61-.038-.956-.232-.912-.738.05-.565-.012-1.49-.128-2.459m-7.526 2.203.086-.112c-.727.916-1.236 2.162-.553 2.775l.089.102c1.616-1.056 2.628-1.534 3.41-1.532l-.031-.155-.007-.126-.028-.712a7 7 0 0 1-1.03-.049l-.243-.027-.872-.11-.294-.031a4 4 0 0 0-.313-.021h-.082l-.13.006zm12.135-5.28-.028-.097c.297.94.456 1.892.398 2.788-.055.858-.308 1.614-.793 2.236.147.079.32.19.527.336l.337.24.373.277.392.296.604.473q.127-.194.236-.378l.316-.539c.09-.142.18-.256.296-.365a1 1 0 0 1 .173-.13l.1.183q-.225-.395-.43-.822a17 17 0 0 1-1.117-3.073l-.131-.53-.08-.363a20 20 0 0 1-1.173-.533m4.825 1.774.012.025c.25.622.526 1.243.818 1.821.442.869.88 1.562 1.294 2.006l.037.05q.089.05.173.118c.152.12.995.364 1.458.345.392-.015.446-.152-.069-1.046l-.265-.46-.244-.279-.447-.54-.362-.464c-.404-.535-.62-.901-.627-1.138q-.896-.196-1.778-.438m-2.922-.95.118.47a16.7 16.7 0 0 0 1.081 2.98q.191.393.399.76.125.02.254.063c.119.04.241.09.397.166l.557.268c.526.234.877.284 1.233.149l.015-.008a.6.6 0 0 1 .144-.092c-.346-.455-.694-1.04-1.041-1.726a24 24 0 0 1-.841-1.863l-.173-.439q-1.087-.326-2.143-.727m-4.13-2.282-.02.016q-.075.063-.169.16l-.227.233a2.3 2.3 0 0 1-.273.232l-.155.102-.491.273c-.208.129-.337.247-.427.408.316 1.41.678 3.923.644 5.316.156.007.353 0 .57-.018.617-.053 1.227-.202 1.422-.337q.095-.068.204-.113l-.059.066c.572-.571.867-1.324.925-2.222.053-.824-.094-1.715-.375-2.6a10 10 0 0 0-.176-.504c-.596-.346-1.07-.688-1.394-1.012m-6.908 5.086-.079.056c-.82.568-1.541.932-2.257 1.11l.058.003 1.287.157c.708.074 1.16.063 1.407-.046l-.04-.348c-.066-.535-.157-.782-.376-.932m2.508-2.013L88.78 9.208a24 24 0 0 1-.769.61c.296.238.417.591.494 1.202l.937-.755.484-.418.381-.35c-.01-.297-.124-.846-.213-1.196zm-4.04-1.059a15 15 0 0 0-1.325.286l-.206.06.525.383.243.19q.108.085.193.162c.327.295.456.465.334.782-.072.195-.18.287-.484.464l-.858.476-.23.137c-.378.235-.625.437-.73.608 0 .006.004.012.032.027l.164.078c.198.093.427.156.59.188 1.231-.037 2.41-.695 4.127-2.108l.064-.054-.31-.004c-.374 0-.628.013-.854.038l-.22.032-.631.1a.32.32 0 0 1-.219-.045.26.26 0 0 1-.119-.171.24.24 0 0 1 .035-.17.3.3 0 0 1 .145-.112l.067-.016.737-.118c.232-.032.472-.05.804-.056l.21-.002h.238l.488.008a.3.3 0 0 1 .179.058l.992-.828v-.018h.02l.416-.332c.184-.144.332-.254.464-.344l.227.012a22.7 22.7 0 0 0-5.109.29m17.991 1.809c.059.107.157.259.287.44l.202.276.312.4.439.529.312.364h.172c.345 0 1.256-.198 1.948-.479.639-.26 1.073-.565 1.266-.892l.047.003a35.5 35.5 0 0 1-4.985-.641M91.65 6.968l-.074.04q-.404.223-.754.512l-.345.276c.234.36.372.95.412 1.458l.262-.042.7-.095.153-.028a32 32 0 0 0-.354-2.12m15.03-.331-.143.085a10 10 0 0 0-.807.54c-.519.39-.885.769-1.032 1.1l-.037.096a36 36 0 0 0 4.25.497c-.552-1.037-1.228-1.842-2.184-2.295zm-.992-1.44-.032.011-.505.185q-.965.362-1.873.83c-.765.397-1.395.814-1.847 1.241l-.182.183q1.325.402 2.772.69.026-.093.069-.186c.195-.438.623-.882 1.215-1.327q.276-.206.571-.396l.417-.255.165-.093.137-.383c.06-.175.052-.214-.05-.244l-.395-.097-.199-.056-.08-.026-.129-.05zm-.475-1.028h-.006l-.235.022-.315.034-.184.023-.415.057c-.865.128-1.731.308-2.537.547-1.341.397-2.367.92-2.961 1.565l-.14.164.013.061q1.026.439 2.163.807l.027-.032c.512-.603 1.312-1.165 2.323-1.69.62-.323 1.283-.611 1.946-.864l.308-.111.004-.017-.008-.093a5 5 0 0 1 .017-.473m-2.956-1.797-.161.03-.322.07-.381.092c-.796.203-1.592.469-2.332.804-1.147.52-2.044 1.156-2.613 1.914l-.148.21.043.106c.429.25.921.51 1.462.761.64-.898 1.867-1.566 3.508-2.054a19 19 0 0 1 2.639-.568q.315-.048.596-.08l.231-.026-1.274-.57-.325-.158a7 7 0 0 1-.581-.318zm-2.078-1.26c-1.885.283-3.84 1.256-5.52 2.932l-.08.08.013.021.02.067.609.631-.02.002q.226.175.525.373l-.076.12c.614-1.021 1.697-1.839 3.111-2.481.89-.399 1.825-.71 2.79-.929l-.017-.008.237-.041.248-.052.313-.056a.4.4 0 0 1 .081-.005l.401-.07a1 1 0 0 0 .132-.036l.151-.063q.017-.005.006-.016l-.089-.113c-.333-.344-1.476-.56-2.835-.355"/><path fill="#EA2D2E" d="M187.015 10.947c4.733 0 7.429 2.693 7.429 7.205 0 .551 0 .843-.036 1.071h-10.451c0 3.505 1.528 6.168 4.877 6.168q2.513 0 4.481-1.461l.438.291-.802 1.818c-1.203.81-2.805 1.461-5.537 1.461-4.735 0-8.849-2.532-8.849-8.212 0-5.615 3.569-8.34 8.45-8.34m-129.854-.006c3.862 0 6.668 1.46 6.668 5.292 0 2.76-.11 5.034-.11 7.37 0 2.046.655 2.24 2.15 2.24v.78c-1.384.65-2.222.877-3.352.877-1.785 0-2.879-.91-3.462-2.37-1.128 1.363-2.512 2.37-4.735 2.37-3.68 0-5.209-2.176-5.209-4.254 0-2.824 2.112-4.025 5.392-4.74 4.08-.876 4.444-1.138 4.444-2.305 0-1.558-1.312-2.824-3.498-2.824-1.676 0-3.642.876-4.372 1.785h-.255l-.472-1.947c1.967-1.463 4.517-2.274 6.811-2.274M44.374 5.616l.365.228c-.183 1.395-.328 3.8-.328 5.747l3.204-.065q-.104.434-.108.876c0 .26.036.552.11.812l-3.206-.067c-.147 1.95-.254 5.489-.254 7.243 0 4.513.362 5.26 2.038 5.26.913 0 1.24-.098 1.676-.327v1.334c-.947.519-2.586.843-3.97.843-3.024 0-4.626-1.754-4.626-5.034 0-2.499.255-6.558.255-9.284l-2.552.032c.073-.26.11-.552.11-.812 0-.291-.037-.551-.11-.877l2.552.098c0-1.364-.038-2.339-.146-3.994a92 92 0 0 0 4.99-2.013m-18.397 5.326c5.61 0 8.926 3.083 8.926 7.953 0 5.292-3.682 8.604-8.926 8.604-4.336 0-8.927-2.142-8.927-7.889 0-5.811 4.336-8.669 8.927-8.669zm-7.25-6.268q-.173.706-.182 1.43c0 .485.072.94.181 1.427-1.967-.227-5.028-.422-6.484-.422-.063.394-.071 1.324-.073 2.369v8.605c0 3.637.073 6.137.29 8.994-.8-.064-1.784-.162-2.985-.162-1.204 0-2.187.098-2.989.162.206-2.68.283-5.042.293-8.324V9.24c-.006-.946-.024-1.766-.111-2.13-1.421 0-4.482.195-6.668.422.11-.488.183-.941.183-1.428A6.4 6.4 0 0 0 0 4.674c1.06.031 1.95.059 2.819.082l.646.017c1.623.04 3.298.064 6.009.064 4.517 0 6.156-.066 9.252-.163m136.055 6.692c-.218 2.273-.291 4.578-.291 7.207v1.297c0 2.63.073 4.934.291 7.207a26 26 0 0 0-2.733-.162c-1.129 0-2.075.098-2.731.162.22-2.273.292-4.577.292-7.207v-1.297c0-2.629-.072-4.934-.292-7.207.656.066 1.602.162 2.731.162 1.131 0 2.115-.096 2.733-.162m14.931-.42c3.644 0 5.682 1.816 5.682 5.973 0 2.206-.146 3.764-.146 5.45 0 1.365.11 3.053.184 4.708-.62-.098-1.675-.162-2.732-.162s-2.113.063-2.73.162c.327-2.337.399-5.454.399-9.316 0-2.693-1.092-3.959-2.986-3.959-2.188 0-3.17 1.784-3.17 4.77v1.299c0 2.628.074 4.934.292 7.206a26 26 0 0 0-2.732-.162c-1.128 0-2.076.097-2.732.162.22-2.272.292-4.578.292-7.207v-1.297c0-2.629-.072-4.934-.292-7.206.876.066 1.712.162 2.587.162.874 0 1.711-.096 2.659-.162l-.147 2.435h.073c1.349-1.754 3.206-2.857 5.499-2.857M147.387 4.68a760 760 0 0 0-5.057 13.21l-.331.897-.165.448-.328.892a220 220 0 0 0-2.422 6.95l-.928-.105a9 9 0 0 0-.929-.057c-.62 0-1.276.097-1.895.162-1.565-5.324-3.569-10.614-5.754-15.937h-.073c-1.712 4.415-4.698 11.36-6.228 15.937l-.929-.105a9 9 0 0 0-.927-.057c-.62 0-1.277.097-1.895.162-.599-2.173-1.731-5.754-2.93-9.426l-.556-1.697c-1.768-5.366-3.529-10.493-3.834-11.274 1.055.098 2.075.163 3.059.163.983 0 1.968-.065 2.95-.163 1.493 5.552 3.387 11.847 4.772 16.393h.071c.645-1.636 1.376-3.495 2.109-5.375l.366-.942c1.587-4.08 3.128-8.113 3.79-10.076.62.098 1.203.163 1.821.163.619 0 1.202-.065 1.822-.163.366 1.613 1.708 5.197 3.049 8.794l.336.899c.945 2.54 1.85 5.005 2.368 6.7h.074c.537-1.576 1.158-3.395 1.787-5.248l.579-1.713c1.347-3.99 2.616-7.836 3.025-9.432a8.4 8.4 0 0 0 1.528.163 10 10 0 0 0 1.675-.163M74.247 2.5a213 213 0 0 0-.291 11.234v2.11c0 4.253.11 7.566.292 11.234-.62-.098-1.676-.162-2.732-.162-1.058 0-2.114.063-2.731.162.181-3.668.29-6.981.29-11.234v-2.11c0-4.254-.109-7.566-.29-11.234.617.097 1.673.162 2.73.162s2.113-.065 2.733-.162M26.05 12.401c-2.222 0-3.607 2.339-3.607 7.241 0 3.638.875 6.397 3.57 6.397 2.26 0 3.498-2.598 3.498-7.63 0-3.734-1.055-6.008-3.46-6.008m32.97 6.235c-2.075 1.039-4.808.878-4.808 4.157 0 1.59.802 2.467 2.075 2.467 1.605 0 2.696-1.104 2.696-3.215 0-1.883.038-2.663.038-3.41m127.849-6.23c-2.149 0-2.84 2.824-2.912 5.356h5.608c-.074-3.246-.801-5.356-2.696-5.356m10.957-1.499c1.208 0 2.175.88 2.175 1.956a1.8 1.8 0 0 1-.162.754c-.11.24-.27.457-.473.64a2.2 2.2 0 0 1-.711.425 2.4 2.4 0 0 1-.838.146 2.4 2.4 0 0 1-.839-.146 2.2 2.2 0 0 1-.713-.425 1.95 1.95 0 0 1-.477-.639 1.8 1.8 0 0 1-.168-.755c0-1.077.987-1.956 2.197-1.956zm-.009.393h-.011c-.916 0-1.658.704-1.658 1.574 0 .877.742 1.564 1.669 1.564.924.008 1.678-.687 1.678-1.564 0-.87-.753-1.574-1.678-1.574m-.118.47c.419 0 .674.06.838.173.138.095.216.243.216.469 0 .263-.206.443-.469.505v.016c.215.037.351.21.391.531.046.34.097.47.135.54h-.538c-.057-.078-.096-.27-.145-.565-.038-.235-.193-.33-.458-.33h-.234v.894h-.517V11.83c.194-.026.409-.06.781-.06m.02.347c-.129 0-.215 0-.285.01v.624h.245c.302 0 .536-.088.536-.313 0-.182-.145-.321-.496-.321m-45.669-7.872c1.605 0 2.877 1.137 2.877 2.564 0 1.429-1.272 2.564-2.877 2.564-1.601 0-2.876-1.135-2.876-2.564 0-.338.074-.674.219-.987s.357-.597.625-.835c.267-.239.585-.427.934-.554s.723-.191 1.099-.188z"/></g><defs><clipPath id="a"><path fill="#fff" d="M0 0h200v40H0z"/></clipPath></defs></svg>