<?xml version="1.0" encoding="UTF-8"?>
<svg id="Layer_1" data-name="Layer 1" xmlns="http://www.w3.org/2000/svg" viewBox="0 0 211.64 72.34">
  <defs>
    <style>
      .cls-1 {
        fill: #006b67;
      }

      .cls-2 {
        fill: #ea2d2e;
      }

      .cls-3 {
        fill: #9461a8;
      }

      .cls-4 {
        fill: #54b847;
      }
    </style>
  </defs>
  <path class="cls-1" d="M149.36,46.62c1.62,0,2.8,.41,3.56,1.24,.76,.82,1.14,1.84,1.14,3.05,0,.46-.07,.99-.21,1.59-.14,.59-.41,1.21-.81,1.85-.4,.64-.93,1.19-1.56,1.62-.64,.44-1.25,.74-1.84,.89-.61,.15-1.24,.23-1.88,.22-1.51,0-2.7-.36-3.55-1.1-.85-.73-1.27-1.76-1.27-3.07,0-.69,.11-1.36,.32-2.02,.21-.66,.53-1.29,.94-1.85,.42-.58,.94-1.08,1.54-1.46,.61-.39,1.21-.65,1.8-.77,.6-.12,1.21-.18,1.82-.18m-31.76,0c1,0,1.81,.21,2.42,.63,.61,.42,.92,.95,.92,1.57,0,.39-.11,.74-.33,1.05-.23,.32-.51,.59-.83,.81-.34,.23-.76,.47-1.27,.73-.12,.05-.23,.11-.34,.17l1.32,1.53c.2-.24,.44-.5,.71-.79,.08-.09,.13-.15,.16-.19l1.81,1.28c-.31,.41-.66,.82-1.06,1.23,.1,.08,.4,.35,.9,.79l-1.65,1.62c-.29-.21-.58-.43-.85-.67-.09-.08-.18-.15-.27-.22-.61,.36-1.16,.6-1.65,.72-.49,.11-1.08,.17-1.76,.17-1.46,0-2.52-.28-3.19-.84-.67-.56-1.01-1.22-1.01-1.99,0-1.46,1.01-2.54,3.04-3.26-.39-.64-.58-1.25-.58-1.82,0-.82,.33-1.44,1-1.88,.67-.44,1.51-.66,2.51-.66m45.23,.17c1.04,0,1.8,.26,2.29,.78,.48,.52,.72,1.14,.72,1.87,0,.79-.26,1.48-.77,2.07-.51,.59-1.33,.97-2.46,1.14,.67,.52,1.47,1.93,2.4,4.25h-3.49c-.32-.81-.66-1.6-1.02-2.4-.39-.87-.68-1.37-.88-1.5-.21-.14-.45-.22-.7-.21h-.17l-.92,4.11h-3.29l2.25-10.11h6.04Zm-28.3,0l.4,6.41h.03l3.37-6.41h4.14l-2.29,10.11h-2.73l1.96-7.72h-.04l-3.94,7.72h-2.42l-.45-7.67h-.03l-1.53,7.67h-2.73l2.27-10.11h4Zm42.41,0l-.49,2.17h-5.39l-.36,1.61h5.19l-.48,2.04h-5.18l-.44,1.98h5.83l-.52,2.3h-9.11l2.27-10.11h8.68Zm-61.14,5.8c-.87,.43-1.31,.91-1.31,1.44,0,.18,.05,.37,.15,.57,.1,.2,.25,.36,.45,.47,.2,.12,.44,.18,.73,.18,.54,0,1.13-.21,1.77-.64-.77-.76-1.37-1.43-1.79-2.02m33.2-3.67c-.6,0-1.11,.21-1.54,.62-.43,.42-.75,.97-.97,1.66-.22,.69-.32,1.28-.32,1.77,0,.52,.16,.94,.48,1.28,.32,.34,.76,.51,1.32,.51,.63,0,1.16-.23,1.6-.68s.76-1.03,.96-1.72c.2-.69,.3-1.18,.3-1.48,0-.65-.17-1.14-.51-1.47-.17-.17-.37-.29-.6-.38-.23-.09-.47-.13-.72-.12m12.29-.09h-1.66l-.46,2.07h.62c1.04,0,1.72-.05,2.02-.14,.31-.09,.53-.25,.68-.47,.15-.22,.22-.43,.22-.63,0-.26-.09-.46-.27-.61-.18-.15-.56-.22-1.16-.22m-43.62-.71c-.14,0-.28,.02-.4,.06-.13,.05-.24,.12-.34,.21-.18,.17-.29,.41-.28,.67,0,.23,.15,.56,.45,.99,.49-.22,.85-.44,1.08-.67,.23-.23,.35-.45,.35-.64,0-.16-.08-.31-.24-.43-.18-.13-.39-.19-.61-.19"/>
  <path class="cls-3" d="M97.38,24.98l-1.25,.28-2.58,1.22-2.12,.73-2.03,.04-.65,.69-.32,2.47-.28,1.7-.09,1.42,.05,1.54-.37,2.23,.04,1.58-1.43,1.58-.18,1.82,.09,2.43,.51,1.94,2.17,.69,2.26-.89,1.94-.41,3.18-1.7,.64-1.22c1.92-.08,3.31-.39,4.15-.93,.85-.54,1.4-1.46,1.66-2.75l2.68-1.58,.78-1.34,.79-1.82,1.8-1.42,.65-2.15-.28-2.27-2.12-1.9-9.69-1.99Z"/>
  <path class="cls-4" d="M107.17,15.86l1.97,.86,2.05,2.08,.74,1.37,1.39,1.44,2.79,3.17-1.73,1.51-2.3,1.3-.57,1.49-2.38-.99-.41,.79-2.38-.79-1.4,1.01h-1.23l-1.23-1.08-1.48-.22-1.72,.29-.82-.58-.17-2.73-.41-2.52,.57-1.87,.57-.14,4.52-3.45,3.61-.94Zm-10.06,5.75l.49,1.15,.21,2.3-1.6,.29-1.56,1.15-1.81,1.08-2.05,.14-1.72-.29,.08-.43-.98-.5,.16-.86,1.81-.94-.25-1.08-.9-.94,2.87-.79,3.86,.07,1.4-.36Z"/>
  <path d="M110.05,16.36c.26,.41,.24,.79,.04,1.08l-.08,.1,1.52,.68,.24,.12c.43,.21,.6,.33,.69,.57l.03,.2-.02,.19-.04,.54h.05s.5,.14,.5,.14c.77,.23,1.05,.68,.84,1.56,.64,.38,1.2,.91,1.67,1.54,.39,.51,.66,.98,.93,1.54l.05,.2c0,1.48-2.07,2.54-3.81,2.81,.41,1.14-.06,1.87-1.24,1.91-.45,.02-1.03-.09-1.51-.24,.7,1.61,.5,3.04-.39,4.21-.59,.76-1.52,1.4-2.2,1.67l-.06,.3-.16,.82c-.47,2.21-1.3,3.1-3.75,3.21-.1,3-3,4.51-5.82,4.16-.64,1.92-3.17,3.23-5.48,2.85-1.29,1.52-3.9,1.87-5.3,.72-1.1-.9-1.17-2.46-.49-3.33l.11-.13-.31-.47c-.96-1.54-.73-3.03,1.48-4.69-.43-.79-.35-1.45,.08-2.36l.28-.57,.1-.23c.1-.27,.11-.46,.06-.61-.67-1.05-.6-1.92-.07-3.04l.32-.68s.02-.04,.03-.05c-.77-.69-.8-1.66-.36-2.74,.12-.3,.27-.58,.44-.86l-.1-.04-.1-.04c-.71-.33-1.09-.87-.68-1.52,.21-.34,.57-.64,1.08-.96l.35-.21,.62-.34-.33-.25-.49-.36-.43-.32c-.17-.14-.22-.21-.26-.37-.25-1.07,4.29-1.89,8.07-1.74h.28s.07-.04,.07-.04c.09-.09,.16-.2,.18-.33,.01-.08,.03-.17,.06-.25l.23-.7c.14-.49,.17-.92,.06-1.55-.15-.83-.15-1.48-.01-1.89,.24-.7,1.02-.83,1.55-.26l.1,.11,.02,.14c.14,.79,.38,1.34,.68,1.71,.11,.14,.21,.23,.29,.29,3.66-3.42,9.12-4.18,10.4-2.17m-22.54,27.83l-.02,.03s-.05,.06-.08,.09l-.18,.16c-.38,.41-.39,1.47,.29,2.03,.93,.76,2.92,.43,3.72-.81v-.02c-.1-.09-.21-.18-.31-.29-.29-.3-.48-.65-.51-1.02-1.06,.28-2.04,.23-2.92-.16m8.5-2.72c-.32,.18-.66,.3-1.02,.37-.76,.15-1.57,.06-2.35-.17l-.25-.08c-.07,.42-.25,.84-.54,1.28l-.15,.23-.5,.69-.09,.14s-.03,.06-.04,.09c-.09,.37,.04,.7,.34,1,.06,.06,.11,.11,.17,.15l.08,.06,.13,.08s.09,.07,.11,.11h.04c1.95,.52,4.31-.75,4.54-2.43l.06-.41c-.04-.14-.09-.28-.16-.41l-.11-.22-.26-.48Zm-6.4-2.42h-.34s-.52,.02-.52,.02l-.13,.09c-2.02,1.4-2.29,2.39-1.64,3.53l.14,.22,.16,.25,.17,.27s.05,.1,.07,.14l-.07-.04c.84,.5,1.83,.58,2.94,.26l.13-.04c.04-.08,.09-.15,.14-.22l.47-.65,.19-.28c.27-.43,.44-.83,.48-1.22v-.03s-.06-.03-.06-.03c-.69-.39-1.36-1.31-1.48-2.19l-.05-.02c-.09-.03-.29-.05-.59-.05m12.5-.1c-1.17,1.05-2.93,1.1-4.18,.43l-.09,.16-.22,.41-.1,.16c-.21,.32-.49,.61-1.01,1.01l.03,.07,.04,.08,.25,.46c.15,.29,.25,.55,.33,.83h.04c2.47,.56,5.15-.74,4.95-3.51v-.08s-.03-.02-.03-.02Zm-8.75-3.14l-.06,.06-.32,.26-.17,.14-.62,.47c-.71,.56-1.05,1-1.29,1.83-.23,.81,.56,1.98,1.24,2.32l.29,.13c.11,.04,.24,.09,.41,.14,.68,.2,1.38,.28,2.02,.16,.4-.08,.78-.24,1.1-.48,.57-.43,.84-.7,1.03-.99l.08-.14,.36-.65c-.24-.19-.45-.42-.62-.68-.32-.52-.39-1.08-.07-1.65-1.19,.12-2.49-.23-3.38-.9m6.73-.98l-.1,.05-.14,.08-.07,.04c-.07,.08-.14,.16-.22,.24-.56,.58-1.82,1.26-1.91,1.27h0s-.11,.11-.11,.11c-.44,.49-.47,.94-.25,1.37l.07,.12c.06,.09,.1,.15,.18,.24,.97,1.14,3.16,1.33,4.35,.02l.1-.11c0-.23,.07-.48,.23-.9l.15-.4,.75-1.78c-1.25-.66-2.25-.68-3.03-.33m-7.69-.27c-1.05,.52-2.2,.79-3.17,.6-.01,.22-.06,.44-.14,.65l-.1,.24-.31,.62c-.37,.77-.38,1.17,.08,1.82l.03,.04h.69c.35-.02,.61,0,.8,.03l.02-.11c.25-.87,.61-1.39,1.28-1.95l.26-.21,.56-.43,.24-.19,.28-.24-.13-.16c-.17-.21-.3-.45-.39-.7h0Zm12.12-.04l-.53,.4-.05,.04s-.06,.06-.08,.09l-.07,.11c-.03,.06-.06,.11-.08,.17l-.11,.25-.64,1.51-.14,.34c-.2,.52-.24,.75-.22,1.01v.05h.12c2.35,0,2.82-.49,3.24-2.6l.21-1.02h0c-.19,0-.38,0-.58-.01-.43-.03-.79-.14-1.08-.34m-6.44-3.96c-.31,.29-.63,.52-.91,.61-.56,.17-1.15,.24-1.74,.2-.19,1.03-1.21,2.13-2.47,2.89,.31,1.33,2.44,2.2,4.07,1.86l.19-.04s.04,0,.06-.01l.03-.02,.19-.1,.52-.26,.23-.13c.23-.14,.44-.29,.65-.48l.2-.2,.07-.07,.16-.17c.08-.06,.16-.12,.24-.17l.1-.06c.31-.29,.21-.85-.02-1.54-.73-.44-1.28-1.22-1.56-2.32m5.27,2.14c-.61,.39-1.32,.6-2.04,.62-.36,.47-.14,.66,.01,.76h-.01c.56,.01,1.17,.16,1.83,.47l.27,.13,.08-.08,.11-.09,.52-.39-.05-.07c-.41-.52-.61-.9-.72-1.34m-13.8-1.7l-.09,.06c0,.12-.02,.23-.05,.35-.03,.09-.06,.18-.1,.26l-.16,.34-.04,.08-.15,.33c-.32,.75-.33,1.29,.13,2.02l.05,.13,.06,.02c1.99,.54,5.31-1.58,5.61-3.32-.4-.1-.76-.27-1.02-.51l-.24-.23c-.24-.24-.34-.36-.42-.51-.03-.06-.06-.13-.08-.2l-.08-.36c-.64-.08-1.65,.38-3.43,1.55m16.35-2.6l-.04,.05-.07,.13c-.09,.15-.22,.36-.37,.6l-.34,.52-.22,.32-.1,.03s.04,.07,.04,.11c.06,.79-.3,1.54-.91,2.12,.07,.57,.25,.94,.83,1.65,.19,.23,.51,.36,.93,.39,.33,.02,.66,0,.99-.07l.2-.04,.13-.03h.02c.44-.2,1.11-.68,1.54-1.24,.78-1.02,.87-2.28,0-3.82-.64,.11-1.25-.06-2.01-.42l-.39-.19c-.08-.04-.15-.07-.23-.1m-4.51-.19c-.45,.21-1.13,.36-1.82,.42-.12,.01-.24,.02-.36,.03,.01,.03,.02,.06,.02,.09,0,.31-.27,.81-.64,1.27v.02c.36,2.07,1.61,2.96,3.15,2.71,.59-.1,1.14-.35,1.6-.73,.01-.02,.03-.03,.05-.05,.53-.47,.85-1.09,.8-1.73-.06,.01-.09,0-.1-.02v-.03q-.06-.02-.07-.04l-.84-.66-.53-.41-.62-.46c-.09-.06-.18-.13-.27-.19l-.23-.15-.13-.08Zm-3.85-2.9l-.12,.02-.21,.03-.51,.07-.25,.04c-.18,.03-.27,.06-.3,.09l-.42,.38-.2,.17-.4,.34-1.36,1.1c-.12,.09-.25,.16-.39,.21l.04,.94,.12,.47,.11,.49s.03,.08,.05,.12c.05,.08,.11,.16,.18,.23l.08,.08,.29,.29c.53,.5,1.77,.57,2.7,.27,.56-.18,1.52-1.33,1.64-1.83l.02-.15v-.02c-.63-.04-.99-.24-.94-.77,.05-.59-.01-1.56-.13-2.57m-7.87,2.3l.09-.12c-.76,.96-1.29,2.26-.58,2.9l.09,.11c1.69-1.1,2.75-1.6,3.56-1.6l-.03-.16v-.13s-.04-.74-.04-.74c-.36,0-.72,0-1.08-.05l-.25-.03-.91-.11-.31-.03c-.11-.01-.22-.02-.33-.02h-.22s0,0,0,0Zm12.68-5.52l-.03-.1c.31,.98,.48,1.98,.42,2.91-.06,.9-.32,1.69-.83,2.34,.15,.08,.33,.2,.55,.35l.35,.25,.39,.29,.41,.31,.63,.49c.09-.14,.17-.27,.25-.4l.33-.56c.09-.15,.19-.27,.31-.38,.06-.05,.12-.1,.18-.14l.1,.19c-.16-.28-.31-.56-.45-.86-.49-1.03-.88-2.11-1.17-3.21l-.14-.55-.08-.38c-.41-.17-.82-.36-1.23-.56m5.04,1.85v.03c.27,.65,.56,1.3,.87,1.9,.46,.91,.92,1.63,1.35,2.1l.04,.05c.06,.03,.12,.08,.18,.12,.16,.13,1.04,.38,1.52,.36,.41-.02,.47-.16-.07-1.09l-.28-.48-.25-.29-.47-.56-.38-.48c-.42-.56-.65-.94-.66-1.19-.62-.14-1.24-.29-1.86-.46m-3.05-.99l.12,.49c.28,1.07,.66,2.11,1.13,3.11,.13,.27,.27,.54,.42,.79,.09,.01,.18,.04,.27,.07,.12,.04,.25,.09,.41,.17l.58,.28c.55,.24,.92,.3,1.29,.16h.02s.1-.08,.15-.1c-.36-.48-.73-1.09-1.09-1.8-.32-.64-.61-1.29-.88-1.95l-.18-.46c-.76-.23-1.5-.48-2.24-.76m-4.32-2.38l-.02,.02c-.05,.04-.11,.1-.18,.17l-.24,.24c-.09,.09-.18,.17-.29,.24l-.16,.11-.51,.29c-.22,.13-.35,.26-.45,.43,.33,1.47,.71,4.1,.67,5.56,.16,0,.37,0,.6-.02,.64-.06,1.28-.21,1.49-.35,.07-.05,.14-.09,.21-.12l-.06,.07c.6-.6,.91-1.38,.97-2.32,.06-.86-.1-1.79-.39-2.72-.06-.18-.12-.35-.18-.53-.62-.36-1.12-.72-1.46-1.06m-7.22,5.32l-.08,.06c-.86,.59-1.61,.97-2.36,1.16h.06s1.34,.17,1.34,.17c.74,.08,1.21,.07,1.47-.05l-.04-.36c-.07-.56-.16-.82-.39-.97m2.62-2.1l-1.33,1.11c-.26,.22-.53,.43-.8,.64,.31,.25,.44,.62,.52,1.26l.98-.79,.51-.44,.4-.37c-.01-.31-.13-.88-.22-1.25l-.04-.16Zm-4.22-1.11c-.47,.08-.93,.18-1.38,.3l-.22,.06,.55,.4,.25,.2c.08,.06,.14,.12,.2,.17,.34,.31,.48,.49,.35,.82-.08,.2-.19,.3-.51,.48l-.9,.5-.24,.14c-.4,.25-.65,.46-.76,.64,0,0,0,.01,.03,.03l.17,.08c.21,.1,.45,.16,.62,.2,1.29-.04,2.52-.73,4.31-2.2l.07-.06h-.32c-.39,0-.66,0-.89,.04l-.23,.03-.66,.1c-.08,.01-.16,0-.23-.05-.06-.04-.11-.1-.12-.18-.01-.06,0-.13,.04-.18,.04-.05,.09-.09,.15-.12l.07-.02,.77-.12c.24-.03,.49-.05,.84-.06h.22s.25,0,.25,0h.51c.07,0,.13,.03,.19,.07l1.04-.87v-.02h.02l.43-.35c.19-.15,.35-.27,.48-.36h.24c-1.79-.09-3.58,.01-5.34,.32m18.8,1.89c.06,.11,.16,.27,.3,.46l.21,.29,.33,.42,.46,.55,.33,.38h.18c.36,0,1.31-.21,2.04-.5,.67-.27,1.12-.59,1.32-.93h.05c-1.75-.1-3.49-.32-5.21-.67m-12.91-2.01l-.08,.04c-.28,.16-.54,.33-.79,.54l-.36,.29c.24,.38,.39,.99,.43,1.52l.27-.04,.73-.1,.16-.03c-.1-.74-.22-1.48-.37-2.22m15.71-.35l-.15,.09c-.29,.17-.57,.36-.84,.56-.54,.41-.92,.8-1.08,1.15l-.04,.1c1.47,.26,2.95,.43,4.44,.52-.58-1.08-1.28-1.92-2.28-2.4l-.05-.02Zm-1.04-1.5h-.03s-.53,.2-.53,.2c-.67,.25-1.32,.54-1.96,.87-.8,.41-1.46,.85-1.93,1.3l-.19,.19c.92,.28,1.89,.52,2.9,.72,.02-.06,.04-.13,.07-.19,.2-.46,.65-.92,1.27-1.39,.19-.14,.39-.28,.6-.41l.44-.27,.17-.1,.14-.4c.06-.18,.05-.22-.05-.25l-.41-.1-.21-.06-.08-.03-.13-.05-.06-.03Zm-.5-1.07h0l-.25,.02-.33,.04-.19,.02-.43,.06c-.9,.13-1.81,.32-2.65,.57-1.4,.41-2.47,.96-3.09,1.64l-.15,.17v.06c.73,.31,1.48,.59,2.27,.84l.03-.03c.54-.63,1.37-1.22,2.43-1.77,.65-.34,1.34-.64,2.03-.9l.32-.12v-.02s0-.1,0-.1c0-.16,0-.33,.02-.49m-3.09-1.88l-.17,.03-.34,.07-.4,.1c-.83,.21-1.66,.49-2.44,.84-1.2,.54-2.14,1.21-2.73,2l-.15,.22,.04,.11c.45,.26,.96,.53,1.53,.8,.67-.94,1.95-1.64,3.67-2.15,.9-.26,1.83-.46,2.76-.59,.22-.03,.43-.06,.62-.08l.24-.03-1.33-.6-.34-.17c-.21-.1-.41-.21-.61-.33l-.36-.22Zm-2.17-1.32c-1.97,.3-4.01,1.31-5.77,3.06l-.08,.08v.02s.03,.07,.03,.07l.64,.66h-.02c.16,.12,.34,.25,.55,.39l-.08,.13c.64-1.07,1.77-1.92,3.25-2.59,.93-.42,1.91-.74,2.92-.97h-.02s.25-.05,.25-.05l.26-.05,.33-.06s.06,0,.08,0l.42-.07s.09-.02,.14-.04l.16-.07s.01,0,0-.02l-.09-.12c-.35-.36-1.54-.59-2.96-.37"/>
  <path class="cls-2" d="M196.76,26.71c4.95,0,7.76,2.81,7.76,7.53,0,.58,0,.88-.04,1.12h-10.92c0,3.66,1.6,6.45,5.1,6.45,1.75,0,3.31-.51,4.68-1.53l.46,.3-.84,1.9c-1.26,.85-2.93,1.53-5.79,1.53-4.95,0-9.25-2.65-9.25-8.58s3.73-8.72,8.83-8.72m-135.7,0c4.04,0,6.97,1.53,6.97,5.53,0,2.88-.11,5.26-.11,7.7,0,2.14,.68,2.34,2.25,2.34v.82c-1.45,.68-2.32,.92-3.5,.92-1.87,0-3.01-.95-3.62-2.48-1.18,1.42-2.63,2.48-4.95,2.48-3.85,0-5.44-2.27-5.44-4.45,0-2.95,2.21-4.21,5.63-4.95,4.26-.92,4.64-1.19,4.64-2.41,0-1.63-1.37-2.95-3.66-2.95-1.75,0-3.81,.92-4.57,1.87h-.27l-.49-2.03c2.06-1.53,4.72-2.38,7.12-2.38m-13.36-5.57l.38,.24c-.19,1.46-.34,3.97-.34,6.01l3.35-.07c-.07,.3-.11,.61-.11,.92,0,.27,.04,.58,.11,.85l-3.35-.07c-.15,2.04-.27,5.74-.27,7.57,0,4.72,.38,5.5,2.13,5.5,.95,0,1.3-.1,1.75-.34v1.39c-.99,.54-2.7,.88-4.15,.88-3.16,0-4.83-1.83-4.83-5.26,0-2.61,.27-6.85,.27-9.7l-2.67,.03c.08-.27,.11-.58,.11-.85,0-.3-.04-.58-.11-.92l2.67,.1c0-1.43-.04-2.44-.15-4.17,1.76-.65,3.5-1.35,5.21-2.1m-19.23,5.57c5.86,0,9.33,3.22,9.33,8.31,0,5.53-3.85,8.99-9.33,8.99-4.53,0-9.33-2.24-9.33-8.24s4.53-9.06,9.33-9.06h0Zm-7.58-6.55c-.12,.49-.18,.99-.19,1.49,0,.51,.08,.98,.19,1.49-2.06-.24-5.25-.44-6.78-.44-.07,.41-.07,1.38-.08,2.48v8.99c0,3.8,.08,6.41,.3,9.4-.84-.07-1.86-.17-3.12-.17s-2.29,.1-3.12,.17c.22-2.8,.3-5.27,.31-8.7v-9.94c0-.99-.03-1.85-.12-2.23-1.49,0-4.68,.2-6.97,.44,.11-.51,.19-.98,.19-1.49,0-.5-.07-1.01-.19-1.49,1.11,.03,2.04,.06,2.95,.09l.68,.02c1.7,.04,3.45,.07,6.28,.07,4.72,0,6.43-.07,9.67-.17m142.18,6.99c-.23,2.38-.3,4.78-.3,7.53v1.36c0,2.75,.08,5.16,.3,7.53-.95-.11-1.9-.16-2.86-.17-1.18,0-2.17,.1-2.85,.17,.23-2.38,.31-4.78,.31-7.53v-1.36c0-2.75-.08-5.16-.31-7.53,.69,.07,1.67,.17,2.85,.17s2.21-.1,2.86-.17m15.6-.44c3.81,0,5.94,1.9,5.94,6.24,0,2.31-.15,3.93-.15,5.7,0,1.43,.11,3.19,.19,4.92-.65-.1-1.75-.17-2.86-.17s-2.21,.07-2.85,.17c.34-2.44,.42-5.7,.42-9.74,0-2.81-1.14-4.14-3.12-4.14-2.29,0-3.31,1.86-3.31,4.98v1.36c0,2.75,.08,5.16,.31,7.53-.95-.11-1.9-.16-2.86-.17-1.18,0-2.17,.1-2.86,.17,.23-2.37,.31-4.78,.31-7.53v-1.36c0-2.75-.08-5.16-.31-7.53,.92,.07,1.79,.17,2.7,.17s1.79-.1,2.78-.17l-.15,2.54h.08c1.41-1.83,3.35-2.99,5.75-2.99m-23.33-6.55c-1.8,4.59-3.57,9.19-5.28,13.81l-.35,.94-.17,.47-.34,.93c-.88,2.41-1.73,4.83-2.53,7.26l-.97-.11c-.32-.04-.65-.06-.97-.06-.65,0-1.33,.1-1.98,.17-1.64-5.56-3.73-11.09-6.01-16.66h-.08c-1.79,4.61-4.91,11.87-6.51,16.66l-.97-.11c-.32-.04-.65-.06-.97-.06-.65,0-1.33,.1-1.98,.17-.63-2.27-1.81-6.01-3.06-9.85l-.58-1.77c-1.85-5.61-3.69-10.97-4.01-11.78,1.1,.1,2.17,.17,3.2,.17s2.06-.07,3.08-.17c1.56,5.8,3.54,12.38,4.99,17.13h.07c.67-1.71,1.44-3.65,2.2-5.62l.38-.98c1.66-4.26,3.27-8.48,3.96-10.53,.65,.1,1.26,.17,1.9,.17s1.26-.07,1.9-.17c.38,1.69,1.78,5.43,3.19,9.19l.35,.94c.99,2.65,1.93,5.23,2.47,7h.08c.56-1.65,1.21-3.55,1.87-5.48l.61-1.79c1.41-4.17,2.73-8.19,3.16-9.86,.53,.11,1.06,.16,1.6,.17,.59,0,1.17-.06,1.75-.17m-76.44-2.28c-.2,3.91-.31,7.82-.3,11.74v2.21c0,4.44,.11,7.91,.31,11.74-.65-.1-1.75-.17-2.86-.17s-2.21,.07-2.85,.17c.19-3.83,.3-7.3,.3-11.74v-2.21c0-4.45-.11-7.91-.3-11.74,.64,.1,1.75,.17,2.85,.17s2.21-.07,2.86-.17M28.54,28.23c-2.32,0-3.77,2.44-3.77,7.57,0,3.8,.91,6.69,3.73,6.69,2.36,0,3.66-2.72,3.66-7.97,0-3.9-1.1-6.28-3.62-6.28m34.46,6.52c-2.17,1.09-5.02,.92-5.02,4.34,0,1.66,.84,2.58,2.17,2.58,1.68,0,2.82-1.15,2.82-3.36,0-1.97,.04-2.78,.04-3.56m133.61-6.51c-2.25,0-2.97,2.95-3.04,5.6h5.86c-.08-3.39-.84-5.6-2.82-5.6m11.45-1.57c1.26,0,2.27,.92,2.27,2.04,0,.27-.06,.54-.17,.79-.11,.25-.28,.48-.49,.67-.22,.19-.47,.34-.74,.44-.28,.1-.58,.15-.88,.15-.3,0-.6-.05-.88-.15-.27-.1-.53-.25-.75-.44-.21-.19-.38-.41-.5-.67-.12-.25-.17-.52-.18-.79,0-1.13,1.03-2.04,2.3-2.04h0Zm0,.41h-.01c-.96,0-1.73,.74-1.73,1.64s.78,1.63,1.74,1.63c.97,0,1.75-.72,1.75-1.63s-.79-1.64-1.75-1.64m-.12,.49c.44,0,.7,.06,.88,.18,.14,.1,.23,.25,.23,.49,0,.27-.22,.46-.49,.53v.02c.22,.04,.37,.22,.41,.55,.05,.36,.1,.49,.14,.56h-.56c-.06-.08-.1-.28-.15-.59-.04-.25-.2-.34-.48-.34h-.24v.93h-.54v-2.27c.2-.03,.43-.06,.82-.06m.02,.36c-.13,0-.22,0-.3,.01v.65h.26c.32,0,.56-.09,.56-.33,0-.19-.15-.34-.52-.34m-47.73-8.23c1.68,0,3.01,1.19,3.01,2.68s-1.33,2.68-3.01,2.68-3.01-1.19-3.01-2.68c0-.35,.08-.7,.23-1.03s.37-.62,.65-.87c.28-.25,.61-.45,.98-.58s.76-.2,1.15-.2h0Z"/>
</svg>