<svg width="80" height="112" viewBox="0 0 80 112" fill="none" xmlns="http://www.w3.org/2000/svg">
<g clip-path="url(#clip0_398_70)">
<path d="M79.1665 65.6413C79.1083 64.6347 78.2574 63.8667 77.2608 63.9278L73.732 64.0761C72.7383 64.114 71.6514 63.3954 71.3018 62.4499L66.8958 53.3614C66.4005 52.5294 66.4995 51.226 67.2105 50.4783L69.4077 48.0258C70.0895 47.2927 70.0225 46.1348 69.3086 45.4599L63.6351 40.3164C63.2417 39.9614 62.7347 39.8131 62.2452 39.8538C61.8081 39.8916 61.3826 40.0894 61.0679 40.4327L58.8591 42.8852C58.4424 43.3332 57.8247 43.6038 57.204 43.6591L57.0962 43.6678C56.9796 43.6736 56.866 43.6736 56.7523 43.662C56.4784 43.6387 56.2103 43.5718 55.9714 43.4525L45.1052 39.6851C44.1523 39.4727 43.2869 38.4981 43.2578 37.5002L43.1033 34.3262C43.0305 33.3225 42.1912 32.5458 41.1947 32.5923L33.5484 32.956C33.5251 32.956 33.496 32.956 33.4697 32.9618C32.4965 33.0491 31.7563 33.8898 31.803 34.8673L31.9749 38.3061C32.0332 39.3214 31.2814 40.4182 30.3431 40.744L22.9241 44.3457L21.4409 45.0672C21.2544 45.1806 21.0446 45.265 20.829 45.3203C20.7037 45.3523 20.5725 45.3755 20.4443 45.3843C19.7654 45.4424 19.0485 45.2446 18.5532 44.8082L16.0238 42.5157C15.6479 42.1637 15.1467 42.0154 14.6601 42.059C14.2172 42.0968 13.7888 42.2976 13.477 42.6496L8.3164 48.2993C7.65202 49.0412 7.70447 50.1874 8.43588 50.8595L10.9652 53.1432C11.6849 53.824 11.9443 55.1069 11.5422 56.0059L7.73652 66.9505C7.53837 67.8785 6.59134 68.7193 5.59767 68.8066C5.57728 68.8066 5.55688 68.8124 5.53648 68.8124L2.17668 68.9491C2.15628 68.9491 2.13588 68.9491 2.11549 68.9549C1.13639 69.0393 0.41373 69.883 0.454526 70.8547L0.818771 78.4943C0.842083 79.5009 1.72501 80.2806 2.71576 80.2312L6.3961 80.0653C7.39268 80.0042 8.49416 80.717 8.82343 81.6596L13.1274 90.4717C13.6548 91.3183 13.5528 92.6216 12.8389 93.3606L10.4349 96.0342C9.7559 96.7557 9.82584 97.9106 10.5514 98.571L16.2424 103.72C16.6329 104.075 17.1428 104.229 17.6323 104.186C18.0636 104.151 18.4832 103.956 18.7921 103.616L21.2253 100.948C21.6187 100.5 22.2364 100.229 22.8571 100.177C23.2825 100.139 23.7109 100.203 24.0693 100.378L34.8277 104.131C35.8271 104.331 36.6576 105.335 36.7072 106.315L36.8703 109.801C36.9228 110.828 37.7708 111.587 38.7673 111.54L46.4398 111.177C46.4689 111.177 46.4981 111.177 46.5243 111.171C47.4626 111.089 48.1998 110.24 48.1678 109.286L47.9755 105.55C47.9492 104.555 48.6486 103.473 49.6189 103.127L58.6114 98.7514C58.8912 98.5768 59.2263 98.475 59.576 98.443C60.2549 98.3848 60.9892 98.5885 61.4759 99.0161L64.1334 101.413C64.5122 101.765 65.0047 101.92 65.4797 101.876C65.9197 101.838 66.348 101.634 66.6744 101.268L71.8146 95.6298C72.4936 94.8879 72.4382 93.7359 71.7126 93.0696L69.0784 90.6782C68.3616 90.0033 68.0964 88.7378 68.551 87.833L72.2634 77.1765C72.479 76.2106 73.4406 75.4193 74.4197 75.3291C74.4372 75.3291 74.4576 75.3291 74.478 75.3291L77.8028 75.1865H77.8407C78.8198 75.0963 79.5745 74.2527 79.5279 73.2752L79.1549 65.6413H79.1665ZM53.2031 84.0452C50.0677 87.4926 45.892 89.4273 41.5881 89.8055C36.7858 90.2302 31.8263 88.7291 27.974 85.238C23.8216 81.4618 21.8576 76.1495 22.184 70.9332C22.2685 69.5426 22.5162 68.1636 22.9328 66.8195C23.6759 64.3903 24.9581 62.0833 26.7851 60.0817C29.9205 56.6343 34.0933 54.7026 38.3943 54.3185C43.1936 53.8938 48.1474 55.4037 51.9909 58.9006C54.2055 60.9022 55.7966 63.3314 56.7552 65.9439C56.8805 66.2813 56.9971 66.6246 57.0991 66.9708C58.8358 72.7486 57.577 79.2653 53.2031 84.0423V84.0452Z" stroke="black" stroke-width="3.15" stroke-miterlimit="10"/>
<path d="M38.8752 0C32.9161 0 28.0906 4.84098 28.0906 10.8166C28.0906 16.7921 32.9161 21.6331 38.8752 21.6331C44.8342 21.6331 49.6597 16.7485 49.6597 10.8166C49.6597 4.88462 44.7934 0 38.8752 0Z" fill="black"/>
<path d="M56.7523 41.4306V65.9439C55.7965 63.3314 54.2026 60.9022 51.988 58.9006C48.1445 55.4037 43.1907 53.8938 38.3914 54.3186C34.0904 54.7026 29.9176 56.6343 26.7822 60.0818C24.9551 62.0833 23.6701 64.3875 22.9299 66.8196V41.4306C22.9299 32.0832 30.5179 24.4727 39.8426 24.4727C49.1673 24.4727 56.7552 32.0832 56.7552 41.4306H56.7523Z" fill="black"/>
<path d="M45.2364 66.0979L37.1006 74.4532L33.8487 70.9389L31.567 73.2808L37.1006 79.1197L47.5181 68.4224L45.2364 66.0979Z" fill="black"/>
</g>
<defs>
<clipPath id="clip0_398_70">
<rect width="80" height="112" fill="white"/>
</clipPath>
</defs>
</svg>
