<svg xmlns="http://www.w3.org/2000/svg" width="256" height="188" fill="none"><path fill="#00539F" d="M49.068 77.138c-6.17 7.654-12.338 15.933-18.318 23.754-.341.458-.53 1.04-.795 1.54-.946 2.621-.227 5.741 1.627 7.488 3.444.083 6.775.166 10.37 0-.037-.333-.302-.541-.454-.832-1.249-2.038-1.249-5.034-.075-7.072 6.055-8.238 12.3-16.267 18.659-24.504.075-.083.189-.291 0-.374-1.59.041-3.18 0-4.77-.042-1.21 0-2.384-.042-3.52-.042-.907 0-1.816 0-2.724.084"/><path fill="#00A0E0" d="m55.767 84.418-.038.416 8.137 10.9c1.59 2.246 3.407 4.285 4.807 6.656 1.022 2.371.643 5.533-.87 7.572l.037.166h10.106c.643-.125.984-.873 1.438-1.414 1.097-2.164 1.173-5.159-.038-7.239-5.904-7.988-11.922-16.1-17.902-24.004l-.265-.042z"/><path fill="#00539F" d="M51.982 92.655c-1.552 3.994 1.514 6.948 2.914 10.193.87-2.08 2.688-3.87 3.218-6.2 1.097-3.535-1.514-6.364-3.104-9.11-1.06 1.664-2.27 3.328-3.028 5.117"/><path fill="#00A0E0" d="M159.47 88.37c-1.325.832-2.574 2.288-3.861 3.287-1.854 2.205-5.223 0-7.002 2.371-.34.208-.643 1.206-1.135.832 0-.874.189-1.997-.719-2.371-1.287-.208-2.725-.042-3.974.125-.568.083-1.136.208-1.514.665-.606 1.165.908 1.456 1.022 2.496.303 3.828.303 7.53-.114 11.15-.189.79-1.173 1.289-.87 2.246.076.458.53.541.87.707 1.439.042 2.877.208 4.391.125.757-.041 1.665 0 2.081-.79.492-.957-.492-1.54-.757-2.372-.378-2.496 0-5.533-.037-8.237l.227-.582c.87-1.79 2.876-1.54 4.466-1.581.567.166 1.4-.083 1.779.624.302 1.706.113 3.703.037 5.283.076 2.289-.719 4.785.568 6.698 1.817 1.456 4.277.957 6.396.708 1.931-1.581-1.135-2.289-1.362-3.661-.227-3.245-.152-6.033.038-9.36.681-1 1.93-.25 2.687-1.083.378-.665.265-1.497.265-2.33-.189-.706-.757-.706-1.363-.706-.454 0-.908 0-1.211-.292-.303-1.165.227-2.33-.113-3.453-.076-.374-.417-.582-.795-.582.038.083 0 .083 0 .083m-69.262 9.943c.076-2.038.833-3.869 1.439-5.7.113-.374.492-.748.908-.832 1.249.125 1.135 1.706 1.4 2.705.114 1.248.682 2.454.606 3.702-.379.541-1.173.416-1.703.5-.984-.042-1.817-.042-2.65-.375m13.55-10.317c-2.195 1.081.643 2.371.341 3.91.34 4.202.302 9.111.151 13.147-.114.873-.038 1.872-.568 2.579-.227.166-.492.333-.795.208-.529-.25-.719-.957-.946-1.498-1.589-6.198-2.876-12.522-4.504-18.68-.189-.457-.53-.956-.946-1.164l-1.892-.291c-.455 0-.947-.042-1.476-.083-1.25-.084-2.536-.167-3.596.374-.34.291-.34.749-.303 1.248.87 1.04.076 2.455-.151 3.578-1.438 3.952-2.612 7.946-4.088 11.856-.53 1.956-1.438 3.703-1.74 5.7.302 1.539 2.005 1.165 3.179 1.331.68-.083 1.513.042 1.892-.707.454-1.206-1.287-1.747-.606-3.12.53-2.039 1.022-4.036 1.704-6.032l.302-.042 1.439 1.456c.719.416 1.59.374 2.46.374.643 0 1.287 0 1.854.125.53.915.53 2.205.833 3.287.908 1.539-.909 2.496-.417 3.952.379.624 1.174.624 1.855.749l8.743-.083c1.4-.042 2.952.083 4.125-.5 1.022-1.414-1.059-2.08-.87-3.453-.265-5.99.038-12.647.227-19.053l-.114-.666c-.189-.582-.757-.582-1.173-.624-1.817.54-3.368 1.456-4.92 2.122"/><path fill="#00A0E0" d="M164.731 93.03c-2.044 1.165-1.817 3.785-1.741 5.949.189 2.288 2.157 3.494 3.936 4.118 1.362.749 3.368.957 3.898 2.746 0 .499-.076.999-.454 1.331-1.438.624-3.179.25-4.39-.624-1.249-.541-1.06-2.745-2.688-2.537-1.135.707-.605 2.745-.492 4.035.076 2.205 2.347 1.747 3.672 2.247 2.573.166 5.639.457 7.569-1.498 1.136-1.29 1.401-3.412 1.287-5.159-.416-4.451-4.882-3.702-7.191-5.99-.379-.541-.719-1.207-.416-1.873.492-.956 1.551-.873 2.46-.915.265.375.757.208 1.022.624.681.957-.417 1.706-.455 2.704.114.458.568.624.984.707 1.098.25 1.741-.831 2.309-1.622.568-1.082 1.211-2.662.454-3.827l-.378-.291c-1.476-.75-3.179-1.124-4.845-1.124a9.8 9.8 0 0 0-4.541.999m46.287.457c-1.551 1.79-.984 4.785-.605 6.906 1.173 2.08 3.33 2.538 5.223 3.245.946.458 2.346.624 2.574 1.955-.076.5-.152 1.041-.644 1.29-1.097.583-2.536.291-3.709-.041-1.211-.416-1.817-1.789-2.649-2.663a2.5 2.5 0 0 0-.795 0c-1.06.707-.379 2.247-.568 3.411l-.113.125a2.9 2.9 0 0 1-1.022-.832c-1.249-3.661-1.893-7.655-2.952-11.482-.227-.998-.568-1.955-1.174-2.829-.832-.998-2.384-.666-3.406-.25-1.06.458-2.006 1.29-3.103 1.665-.417-.25-.19-.832-.379-1.249-.757-.956-2.119-.416-3.217-.374-.946.208-1.968.208-2.687 1.04-.606 1.082.795 1.747.87 2.787.265 3.204.379 7.031.152 10.443-.19.79-.947 1.331-.871 2.204.152.999 1.136.999 1.855 1.165.416-.041.87 0 1.362 0 1.401.042 2.915.083 3.861-.915.34-.957-.53-1.456-.833-2.205-.416-2.621-.341-5.575-.303-8.154-.075-.624.038-1.123.341-1.54.265-.332.681-.332 1.06-.332h.113c.53.25.909.707 1.098 1.248.984 3.411 1.627 7.156 2.498 10.692.189.624.795.998 1.362 1.206 1.779.125 3.52.208 5.185-.374.303-.125.379-.583.682-.583 1.476 1.29 3.482 1.249 5.374 1.207.568 0 1.173-.042 1.703 0 1.287-.167 2.687-.167 3.709-1.04 1.817-1.248 2.12-3.536 1.968-5.783-.378-3.578-4.049-3.744-6.282-4.867-.757-.458-1.704-1.165-1.59-2.247.114-.416.114-.832.454-1.123.606-.54 1.552-.5 2.309-.291.378.25.53.665.605 1.123.152.832-.681 1.331-.529 2.288 0 .25.265.416.416.54.984.375 1.817-.165 2.536-.79.87-1.081 1.211-2.704.946-4.201-.908-1.664-2.763-1.623-4.315-1.83-.378 0-.795-.042-1.211-.042-1.854-.125-3.86.124-5.299 1.497m-28.348 13.479c-.908-1.123-1.097-2.579-1.211-4.118 0-2.33-.605-5.367.455-7.572.681-.582 1.968-.665 2.8-.208 1.211 1.581 1.06 3.91 1.325 5.866-.038 1.831.53 3.994-.265 5.7-.151.208-.416.291-.492.582v-.083c-.416.083-.908.208-1.4.208-.455.041-.871-.042-1.212-.375m-3.974-14.144c-2.233 1.497-2.422 4.41-2.611 7.114 0 3.661-.114 8.403 3.406 9.984 2.687.915 5.98.749 8.705-.042 1.59-.457 2.687-2.288 2.915-4.035.189-3.619-.152-7.239-1.06-10.608-.379-1.248-1.363-2.33-2.536-2.705-1.4-.29-3.028-.54-4.617-.54-1.476 0-2.953.208-4.202.832m-60.934 14.311c-.795-1.29-.492-3.12-.568-4.701.113-1.623-.152-3.37.34-5.076.265-.457.72-.582 1.174-.665 1.4.499 1.438 2.288 1.854 3.577.265 1.956.909 4.077.341 6.033-.303.582-.795.957-1.4 1.165a2 2 0 0 1-.492.083c-.417 0-.871-.167-1.249-.416m-1.212-20.635c-1.703.79-3.33 1.664-4.92 2.87-1.287 1.249.909 1.665.681 2.913.265 5.034.265 9.86-.113 14.935-.265.582-.606 1.165-.606 1.914.152.54.606.79 1.06.915 2.612.208 5.412.25 8.1.041 1.211-.291 2.497-.208 3.519-1.081 2.385-2.33 1.893-6.074 1.476-9.153-.681-2.413-1.021-5.117-2.838-7.03-1.855-1.373-3.596.416-5.223 1.04l-.227-.25c.038-2.205.34-4.66.038-6.864a1.03 1.03 0 0 0-.757-.291c-.076.041-.114.041-.19.041"/><path fill="#00539F" d="M45.7 98.688h-1.25l-.113.083c-.152 1.373-.038 2.829.53 4.077 1.287 2.787 3.936 4.035 6.737 3.702 1.514.25 2.838 1.456 3.179 3.079.454-.874.984-2.163 2.006-2.621 1.93-.915 4.504-.042 6.131-1.581 2.044-1.414 3.066-4.119 2.536-6.656-.53 0-1.098 0-1.628-.042-1.968-.041-4.011-.125-5.525 1.082-1.703 1.081-2.801 2.912-3.407 4.867-.567-1.705-1.514-3.494-2.914-4.534-1.438-1.249-3.293-1.415-5.185-1.415-.34-.041-.72-.041-1.098-.041"/><path fill="#00A0E0" d="M133.544 107.382a3.74 3.74 0 0 1-1.135-3.078c1.135-.791 2.535-.915 3.822-1.331.492-.084 1.174.041 1.287.707.151 1.497-.341 3.037-1.514 3.827-.416.125-.87.25-1.287.25-.416-.042-.794-.125-1.173-.375m-1.287-8.86c.152-1.29.038-2.955 1.249-3.579.568-.166 1.287-.166 1.741.291.719 1.29.946 3.08.568 4.702-.606 1.04-1.93 1.081-2.99 1.164-.871-.54-.492-1.705-.568-2.579m-3.936-3.787c-1.4 3.91-1.438 9.111-.303 13.063.417 1.124 1.514 1.623 2.423 2.039 2.46.582 5.109.832 7.38-.333 1.627-.957 2.687-2.871 2.574-4.867-.038-1.29-1.212-1.581-1.969-2.205v-.167c.682-.416 1.59-.499 1.931-1.414.492-2.247-.038-4.493-.984-6.407-.568-.874-1.211-1.58-2.12-1.872-1.173-.208-2.536-.458-3.898-.458-2.006.042-3.974.583-5.034 2.621m95.641-3.91h.644c.265 0 .605.041.605.416 0 .457-.416.457-.719.457H224zm.72-.25h-.984v2.496h.264v-1.165h.492l.644 1.165h.34l-.681-1.165c.417 0 .719-.208.719-.707 0-.208-.075-.416-.265-.54a1.1 1.1 0 0 0-.492-.126c0 .042 0 .042-.037.042m-2.006 1.29c0-1.082.794-1.956 1.778-1.997.985 0 1.817.874 1.817 1.955 0 1.082-.795 1.997-1.779 1.997-1.022 0-1.816-.874-1.816-1.955m1.778-2.288c-1.135 0-2.043 1.04-2.043 2.246 0 1.248.946 2.247 2.043 2.247 1.136 0 2.044-1.04 2.006-2.247.038-1.248-.87-2.246-2.006-2.246"/></svg>