<svg xmlns="http://www.w3.org/2000/svg" width="138" height="174" fill="none"><path fill="#000" d="M42.68 95.08c0-6.42-.05-12.83.02-19.25.02-2.16-.82-3.01-2.97-2.93-2.83.12-5.67.17-8.49.03-.96-.05-2.35-.53-2.7-1.23-.34-.67.15-2.09.73-2.84 10.71-13.92 21.48-27.8 32.25-41.67 2.23-2.87 3.55-2.91 5.84.02 6.76 8.66 13.43 17.39 20.16 26.07 3.82 4.93 7.74 9.8 11.49 14.79.73.97 1.47 2.6 1.12 3.5-.3.77-2.15 1.23-3.34 1.29-3.32.16-6.66.09-10 .02-2.29-.04-3.46.87-3.27 3.27.07.83.2 1.75-.08 2.47-.27.69-1.07 1.68-1.6 1.65-.77-.04-2.1-.83-2.13-1.37-.16-2.65-.18-5.35.21-7.95.12-.78 1.72-1.77 2.72-1.88 2.64-.28 5.33-.05 7.99-.18.82-.04 1.61-.59 2.42-.9-.32-.71-.5-1.53-.96-2.13-8.42-10.96-16.86-21.89-25.31-32.82-1.82-2.36-2.8-2.25-4.69.2-5.16 6.64-10.4 13.2-15.59 19.81-3.34 4.25-6.67 8.52-9.93 12.83-.45.6-.86 1.67-.61 2.22.22.49 1.36.74 2.11.79 1.99.13 4 .1 6 .1 1.88 0 2.68.92 2.67 2.8-.01 11.33.02 22.66.03 34 0 2.92.02 5.83.04 8.75.01 1.44-.42 2.44-2.09 2.48-1.73.04-2.07-1.01-2.06-2.44.01-6.5 0-13 0-19.5z"/><path fill="#000" d="M120.12 112.48c.61 15.89-12.97 29.12-28.88 28.97-16.12-.15-28.78-12.84-28.73-28.96.05-16.45 12.83-29 29.61-28.87 15.48.12 28.65 13.67 28 28.86m-4.02-.25c.28-13.18-11-25.02-25.63-24.56-13.11.41-24.6 11.39-23.92 26.1.61 13.23 11.64 24.08 25.61 23.65 13.2-.4 24.49-11.28 23.95-25.19zm-81.53 2.76v11.98c0 1.33-.06 2.56-1.91 2.52-1.69-.03-2.07-1.03-2.06-2.47q.03-12.105 0-24.21c0-1.37.42-2.21 1.98-2.23 1.58-.03 1.99.8 1.99 2.18-.03 4.08 0 8.15 0 12.23m24.44-27.05c0 3.24-.01 6.49 0 9.73 0 1.37-.39 2.23-1.98 2.2-1.55-.02-1.98-.82-1.98-2.21 0-6.49-.03-12.98-.06-19.47 0-1.29.44-2.04 1.87-2.05 1.45-.01 2.15.57 2.14 2.07-.03 3.24 0 6.49 0 9.73zM44.3 122.21c2.24.2 2.48 1.14 2.47 2.52-.02 1.28-.32 2.11-1.76 2.09-1.47-.02-2.53-.64-2.21-2.22.18-.86.98-1.59 1.5-2.39m1.37 10.32c.22.39.93 1.12 1.03 1.92.16 1.32-.63 2.37-2.05 2-.78-.2-1.78-1.09-1.93-1.82-.29-1.45.65-2.27 2.94-2.1z"/><path fill="#000" d="M100.7 119.29c-.04 3.75-1.62 6.29-4.98 7.14-1.91.49-2.39 1.49-2.33 3.17.04 1.32-.27 2.28-1.92 2.24-1.47-.03-2.15-.67-2.1-2.13.07-1.88-.93-2.8-2.67-3.38-2.98-1-4.76-3.5-4.61-6.38.03-.67.7-1.87.99-1.85.94.08 2.05.4 2.72 1.02.96.9 1.43 2.89 2.4 3.1 2.12.46 4.45.33 6.62-.04.75-.13 1.63-1.61 1.8-2.59.29-1.62-.27-3.19-2.07-3.83-2.51-.9-5.04-1.71-7.55-2.58-3.3-1.14-5.1-3.82-5.08-7.49.02-3.14 1.99-6.02 5.04-7 1.66-.53 2.6-1.3 2.42-3.16-.14-1.43.58-2.14 2.06-2.16 1.6-.01 2.04.92 1.91 2.26-.16 1.65.69 2.39 2.13 2.87 3.14 1.05 4.95 3.26 5.29 6.58.11 1.09.2 2.27-1.43 2.35-1.23.06-2.42.07-2.56-1.59-.16-1.88-1.12-3.46-2.95-3.47-2.31-.01-4.87.19-6.85 1.22-1.85.95-.88 4.76 1.37 5.74 2.35 1.02 4.84 1.74 7.26 2.6 3.51 1.25 5.14 3.61 5.1 7.37z"/></svg>