<svg xmlns="http://www.w3.org/2000/svg" width="111" height="120" fill="none"><path fill="#fff" d="M20.852 30.308v-2.257c0-5.88-.055-11.76.054-17.641.014-.906.562-2.272 1.178-2.54.602-.252 1.725.505 2.41 1.1.958.86 1.711 1.974 2.656 3.118 1.027-1.01 1.999-1.946 2.957-2.881 2.246-2.198 2.397-2.198 4.6-.06.973.95 1.945 1.901 3.013 2.926.972-1.173 1.808-2.361 2.834-3.312.59-.55 1.685-1.217 2.164-.965.63.327 1.218 1.515 1.232 2.331.11 5.94.055 11.88.055 17.82v2.227h23.7v-8.39H56.014c-1.876 0-2.396-.534-2.396-2.494q-.021-8.376 0-16.75c0-1.99.52-2.54 2.355-2.54h34.996c1.794 0 2.355.609 2.369 2.569.013 5.583.027 11.167 0 16.75 0 1.842-.589 2.45-2.287 2.465-3.93.015-7.859 0-11.898 0v8.51h20.031c2.068 0 2.52.474 2.533 2.702 0 4.574.151 9.147-.027 13.721-.26 6.534.575 12.86 1.985 19.186 2.369 10.543 4.478 21.16 6.682 31.763.137.683.219 1.41.219 2.109q.021 8.642 0 17.285c0 2.242-.452 2.747-2.492 2.747H2.6c-2.012 0-2.505-.535-2.505-2.747 0-5.762-.26-11.538.082-17.285.219-3.742 1.26-7.44 2.026-11.152C4.34 78.258 6.53 67.907 8.68 57.543c.178-.862.26-1.753.273-2.644.028-7.306 0-14.612.014-21.918 0-2.198.48-2.703 2.533-2.703h9.352zm3.97-15.547c-.123.104-.232.207-.356.311v31.14h15.91V14.85q-2.615 2.435-5.148-.045c-.917-.906-1.834-1.797-2.793-2.732a491 491 0 0 0-4.012 3.92c-.985.965-1.944.98-2.861-.089-.288-.342-.493-.757-.74-1.129zm48.552 35.861c5.737 0 11.488-.03 17.224.03 1.329 0 1.876-.445 1.835-1.945a161 161 0 0 1 0-8.539c.041-1.455-.424-1.99-1.794-1.975q-17.231.068-34.462 0c-1.424 0-1.794.639-1.753 2.02.055 2.732.083 5.465 0 8.182-.054 1.678.425 2.302 2.054 2.272 5.627-.09 11.269-.03 16.896-.03zM57.135 17.85h32.546V3.95H57.135zM29.697 71.367c3.395 0 6.79.015 10.186 0 5.669-.044 4.615.743 5.19-5.301.233-2.51-.069-2.806-2.369-2.806-7.996 0-15.992.059-23.988-.045-1.849-.03-2.739.638-2.972 2.599-.123.995-.465 1.945-.698 2.925-.479 2.064-.096 2.628 1.849 2.628H29.71zm65.105 22.245c1.862 0 3.724.03 5.586 0 1.26-.03 1.794-.757 1.479-2.108-.342-1.5-.603-3.03-1.137-4.44-.246-.654-1.068-1.441-1.656-1.456-3.492-.133-6.997-.074-10.502-.06-1.26 0-1.794.684-1.547 2.05.274 1.455.561 2.896.78 4.366.178 1.232.808 1.707 1.917 1.693 1.698-.03 3.396 0 5.094 0zm-58.752 0h5.408c1.068 0 1.602-.564 1.684-1.722.096-1.411.192-2.837.329-4.247.137-1.53-.452-2.168-1.876-2.154-3.327.045-6.668.045-9.995 0-1.205-.014-1.835.476-1.958 1.812-.123 1.292-.356 2.569-.52 3.86-.26 1.857.15 2.407 1.862 2.436 1.697.03 3.382 0 5.08 0zm-19.717 0h5.409c1.04 0 1.615-.475 1.793-1.618.233-1.456.534-2.896.794-4.351.26-1.426-.26-2.154-1.629-2.139-2.19.015-4.368 0-6.558 0-5.518 0-5.49 0-6.614 5.91-.287 1.485.22 2.168 1.548 2.183 1.752.03 3.491 0 5.244 0zm58.93 0c1.753 0 3.492-.015 5.244 0 1.424.015 2-.698 1.767-2.212a241 241 0 0 1-.616-4.381c-.137-1.07-.699-1.515-1.684-1.5-3.492.015-6.983 0-10.489 0-1.19 0-1.697.668-1.615 1.9.096 1.47.233 2.956.342 4.426.082 1.218.671 1.797 1.807 1.782 1.753-.03 3.492 0 5.244 0zm-19.716 0h5.422c1.232 0 1.835-.594 1.78-1.945-.055-1.485-.137-2.97-.178-4.44-.027-1.173-.561-1.723-1.643-1.708H50.413c-1.082 0-1.602.609-1.643 1.752-.042 1.426-.014 2.852-.11 4.277-.11 1.589.602 2.123 1.958 2.094 1.643-.045 3.286 0 4.929 0zM18.688 82.46q6.682 0 7.627-5.643s.027-.119.027-.178c.233-1.648-.15-2.242-1.684-2.272a124 124 0 0 0-5.75 0c-6.422.119-4.807-1.07-6.614 5.732-.452 1.708.014 2.331 1.63 2.361 1.588.03 3.176 0 4.764 0m73.827 0c1.753 0 3.492.03 5.244 0 1.178-.015 1.712-.683 1.424-1.96-.356-1.604-.67-3.252-1.205-4.782-.191-.564-.958-1.247-1.492-1.262-3.327-.119-6.654-.089-9.982-.044-1.245 0-1.752.772-1.478 2.123.287 1.44.589 2.896.808 4.351.178 1.143.725 1.619 1.78 1.604 1.643-.03 3.272 0 4.915 0zm-55.438 0c1.697 0 3.395-.03 5.093 0 1.15.03 1.725-.505 1.807-1.752.096-1.426.178-2.837.329-4.262.164-1.455-.397-2.109-1.739-2.094-2.355.03-4.71 0-7.051.03-4.34.06-4.012-.698-4.628 4.187-.069.594-.165 1.174-.247 1.753-.205 1.425.315 2.138 1.685 2.108 1.588-.03 3.176 0 4.764 0zm36.845 0h5.257c1.274 0 1.78-.668 1.589-2.034-.206-1.47-.384-2.94-.562-4.41-.137-1.114-.698-1.664-1.766-1.664-3.231.015-6.463 0-9.68 0-1.246 0-1.78.698-1.657 2.034.123 1.352.26 2.718.301 4.084.041 1.41.616 2.035 1.945 1.99 1.533-.06 3.066 0 4.6-.015zm-18.28 0c1.644 0 3.273-.03 4.916 0 1.315.045 1.93-.564 1.849-2.02a89 89 0 0 1-.15-4.261c0-1.277-.603-1.827-1.726-1.827h-9.667c-1.136 0-1.711.609-1.725 1.856-.027 1.426-.04 2.852-.11 4.262-.082 1.485.576 2.02 1.877 1.975 1.588-.044 3.162 0 4.75 0zm33.56-19.215c-1.534 0-3.067-.015-4.6 0-1.22.015-1.85.653-1.603 2.034.274 1.515.439 3.074.918 4.514.205.639 1.04 1.456 1.615 1.485 3.163.149 6.353.09 9.516.06 1.164 0 1.725-.669 1.452-1.96-.356-1.62-.644-3.267-1.192-4.797-.219-.594-1.054-1.203-1.67-1.277-1.451-.178-2.944-.06-4.422-.06zm-16.239 8.108h4.765c1.191 0 1.712-.654 1.56-1.916-.19-1.589-.3-3.208-.711-4.737-.15-.594-.986-1.366-1.547-1.396-3.054-.134-6.12-.074-9.188-.06-1.15 0-1.711.64-1.615 1.901.11 1.485.233 2.955.342 4.44.082 1.218.644 1.812 1.807 1.768 1.534-.045 3.067 0 4.6 0zm-17.252 0c1.534 0 3.067-.03 4.6 0 1.274.03 1.794-.654 1.74-1.975-.055-1.426-.123-2.852-.137-4.277 0-1.262-.562-1.871-1.712-1.871h-9.036c-1.068 0-1.643.564-1.684 1.708-.055 1.544-.083 3.088-.124 4.633-.027 1.173.507 1.767 1.589 1.767h4.764zm-.37 42.44c2.712 0 4.916-2.346 4.944-5.272.027-2.91-2.178-5.361-4.847-5.42-2.725-.059-5.053 2.45-5.04 5.405.015 2.911 2.233 5.287 4.944 5.287m20.1-83.574v-8.286h-3.957v8.286zm-54.685 11.88c-1.26.49-2.383.742-3.286 1.366-.288.193-.247 1.782.055 1.975.917.579 2.04.802 3.245 1.218v-4.56zm23.372 0v4.692c1.314-.55 2.41-.876 3.327-1.5.274-.178.247-1.663-.027-1.841-.931-.594-2.04-.876-3.3-1.351"/></svg>