<svg xmlns="http://www.w3.org/2000/svg" width="224" height="224" fill="none"><path fill="#fff" d="M105 139.772h9.844c2.215 0 3.308 1.067 3.317 3.254v3.61c.019 1.722-.793 2.916-2.324 3.636a55 55 0 0 1-3.117 1.313c-4.439 1.722-7.1 4.931-8.057 9.579-.42 2.042-1.276 2.78-3.373 2.789h-8.093c-2.097 0-2.972-.747-3.382-2.771-.911-4.52-3.509-7.701-7.766-9.451-2.114-.875-4.247-1.787-6.453-2.297-3.317-.766-6.435.082-9.224 2.014-1.686 1.167-2.889 1.085-4.356-.383a852 852 0 0 1-5.797-5.797c-1.395-1.403-1.477-2.679-.392-4.284 2.534-3.746 2.962-7.747 1.321-11.958a87 87 0 0 0-1.622-3.937c-1.869-4.193-5.022-6.791-9.58-7.611-1.63-.292-2.579-1.313-2.597-2.999a359 359 0 0 1 0-8.859c.018-1.668.966-2.698 2.634-2.971 3.163-.52 5.843-1.978 7.702-4.558 2.26-3.126 3.746-6.672 4.311-10.5.456-3.044-.392-5.851-2.133-8.376-1.148-1.677-1.066-2.926.374-4.375q2.925-2.955 5.879-5.87c1.376-1.349 2.607-1.403 4.202-.319 3.782 2.57 7.82 2.953 12.067 1.294a103 103 0 0 0 3.728-1.55c4.23-1.822 6.818-4.985 7.72-9.506.383-1.914 1.258-2.698 3.209-2.707q4.21-.027 8.422 0c1.932.01 2.807.793 3.19 2.716.948 4.685 3.582 7.948 8.112 9.644 1.093.41 2.169.856 3.217 1.367 1.431.702 2.188 1.868 2.188 3.5v3.61c-.01 2.205-1.094 3.299-3.282 3.29-5.724-.019-11.448-.028-17.162-.055-14.757-.082-26.88 9.78-29.778 24.236-3.208 16.023 7.775 32.11 23.88 34.845 2.388.401 4.859.41 7.292.51 1.969.082 3.938.018 5.906.018v-.073z"/><path fill="#fff" d="M118.426 107.27h-17.71c-2.442 0-3.272-.93-3.39-3.364-.164-3.536.92-4.43 4.365-4.402 10.674.091 21.356.018 32.029.055 1.413 0 2.497-.41 3.491-1.431 3.081-3.154 6.243-6.226 9.333-9.38 1.577-1.613 3.427-2.35 5.67-2.333 5.031.046 10.062 0 15.084.028.729 0 1.14-.164 1.504-.875 2.343-4.603 7.511-6.772 12.378-5.278 4.849 1.486 7.957 6.29 7.337 11.32-.62 5.014-4.785 8.969-9.889 9.161-4.403.164-7.72-1.805-9.817-5.697-.373-.683-.756-.902-1.504-.893q-6.728.056-13.444 0c-1.257-.01-2.224.401-3.108 1.294-3.144 3.2-6.353 6.326-9.488 9.525-1.522 1.55-3.3 2.288-5.469 2.279-5.797-.037-11.584-.009-17.381-.009zm59.655-12.013c2.716.018 4.958-2.17 4.995-4.877.036-2.734-2.243-5.04-4.977-5.022a4.96 4.96 0 0 0-4.913 4.95 4.92 4.92 0 0 0 4.895 4.949m-56.511 18.302c7.037 0 14.073-.009 21.11.018.738 0 1.139-.192 1.494-.902a10.404 10.404 0 0 1 12.506-5.223c4.867 1.558 7.829 6.334 7.155 11.539-.629 4.867-4.94 8.805-9.99 8.923-4.22.1-7.474-1.759-9.516-5.46-.519-.938-1.066-1.148-2.032-1.148-13.854.027-27.708.018-41.553.027-1.103 0-2.115-.136-2.835-1.084-.839-1.094-.82-4.576.036-5.642.648-.811 1.523-1.048 2.525-1.039 7.037.009 14.073 0 21.109 0zm31.92 8.823c2.725 0 4.912-2.206 4.912-4.941 0-2.716-2.196-4.949-4.903-4.967-2.744-.018-4.995 2.251-4.977 5.004.018 2.716 2.242 4.904 4.968 4.894z"/><path fill="#fff" d="M97.253 89.232c.109-.711.1-1.477.364-2.124.501-1.212 1.55-1.604 2.844-1.604 7 .018 14 0 20.991.027 1.34 0 2.37-.41 3.263-1.422a204 204 0 0 1 5.031-5.468c.456-.483.565-.82.255-1.486-1.823-3.965-1.458-7.784 1.313-11.165 2.734-3.345 6.389-4.585 10.582-3.546 4.22 1.048 6.881 3.856 7.775 8.14 1.513 7.273-4.904 13.662-12.296 12.268-.693-.128-1.057.045-1.486.52-2.278 2.515-4.593 4.985-6.872 7.491-1.458 1.605-3.227 2.388-5.414 2.38-7.438-.028-14.875-.01-22.303-.01-3.282 0-3.947-.674-4.047-3.992zm42.164-11.703c2.725 0 4.94-2.197 4.949-4.913.009-2.698-2.206-4.95-4.904-4.986-2.734-.036-4.995 2.224-4.985 4.986a4.9 4.9 0 0 0 4.931 4.904zm-27.107 50.048c3.755 0 7.501.036 11.256-.009 2.461-.037 4.439.838 6.034 2.725 1.55 1.841 3.209 3.582 4.767 5.414.492.574.948.693 1.677.547 5.588-1.103 11.02 2.452 12.232 7.957 1.231 5.596-2.169 11.138-7.756 12.46-4.166.984-7.766-.201-10.5-3.473s-3.218-7.027-1.504-10.947c.364-.829.255-1.285-.31-1.877a70 70 0 0 1-3.172-3.61c-.83-1.011-1.823-1.44-3.136-1.431-7.027.028-14.063.019-21.091.019-2.497 0-3.354-.948-3.472-3.409-.183-3.774 1.203-4.485 4.384-4.384 3.527.109 7.064.027 10.6.027zm25.685 23.871a4.967 4.967 0 0 0 5.013-4.858c.054-2.671-2.179-4.968-4.867-5.031-2.735-.055-5.041 2.196-5.059 4.94-.018 2.698 2.197 4.922 4.913 4.949"/></svg>