<svg xmlns="http://www.w3.org/2000/svg" width="113" height="116" fill="none"><g fill="#030303" clip-path="url(#a)"><path d="M68.658 92.236c-4.987 0-9.975-.011-14.968 0-3.097.005-5.866.94-8.08 3.139-.411.405-.713 1.187-.653 1.75.324 2.926-.533 5.377-2.625 7.444-3.444 3.397-6.844 6.837-10.294 10.228-1.68 1.652-3.383 1.586-5.152-.17-7.25-7.203-14.49-14.417-21.734-21.631-1.324-1.318-2.664-2.63-3.971-3.97-1.604-1.647-1.571-3.397.06-5.027 3.477-3.479 6.932-6.98 10.447-10.414 2.252-2.204 4.966-3.046 8.058-2.128.895.268 1.318-.016 1.79-.7C27.59 61.99 35.96 57.987 46.59 59.113c2.532.268 4.96 1.471 7.459 2.166 1.691.47 3.416 1.11 5.14 1.148 6.13.143 12.266.066 18.396.05 2.246-.006 4.388.339 6.223 1.733.73.553 1.131.175 1.62-.3 3.933-3.801 7.91-7.553 11.793-11.404 2.389-2.368 5.031-3.96 8.53-3.347 6.849 1.203 9.518 8.931 5.053 14.357-6.97 8.483-13.89 17.004-20.806 25.53-1.725 2.128-3.862 3.211-6.646 3.179-4.894-.06-9.794-.017-14.688-.017zm-1.285-4.797c5.218 0 10.43-.033 15.648.022 1.417.016 2.422-.476 3.296-1.559 4.295-5.305 8.634-10.583 12.946-15.878 2.735-3.352 5.498-6.678 8.162-10.085 1.346-1.723 1.016-3.708-.632-5.114-1.4-1.198-3.636-1.181-5.014.137-4.576 4.37-9.113 8.784-13.7 13.137-.713.678-.889 1.33-.79 2.275.379 3.725-1.483 6.848-4.834 8.571-2.12 1.094-4.366.837-6.585.848-5.487.027-10.98.022-16.473-.006-1.51-.005-2.455-.94-2.499-2.33-.044-1.361.89-2.335 2.39-2.439.593-.044 1.186-.022 1.785-.022 5.81 0 11.622.006 17.428-.01 1.576 0 2.845-.63 3.597-2.08.687-1.334.61-2.635-.258-3.872-.868-1.236-2.109-1.63-3.57-1.624-6.498.017-12.995.104-19.488-.055-2.005-.049-4.169-.426-5.954-1.29-5.74-2.768-11.48-3.145-17.379-.782-4.24 1.7-7.557 4.528-10.018 8.357-.423.662-.753 1.28.027 2.05a2608 2608 0 0 1 15.61 15.54c.654.65 1.066.688 1.791.027 2.807-2.555 6.113-3.873 9.97-3.835 4.85.05 9.7.011 14.55.011zm-37.927 22.835c.308-.192.483-.257.61-.383 3.108-3.069 6.261-6.099 9.293-9.238 1.275-1.318 1.093-3.21-.258-4.562a5251 5251 0 0 0-19.18-19.077c-1.44-1.422-3.433-1.334-4.872.093-2.834 2.817-5.663 5.64-8.536 8.418-.84.81-.686 1.323.094 2.094 6.217 6.142 12.391 12.328 18.581 18.492 1.412 1.406 2.85 2.779 4.268 4.163"/><path d="M36.834 37.717c2.295 2.395 4.317 4.54 6.382 6.65 1.714 1.756 1.747 1.75 3.455.017a621 621 0 0 0 5.608-5.792c.209-.219.362-.487.566-.76-3.005-.815-3.466-1.657-3.054-4.748 1.554-11.551 11.743-19.64 23.058-19.367 8.832.219 17.033 6.18 20.224 14.396C97.22 38.789 92.672 50.99 82.23 56.22c-6.174 3.09-12.54 3.336-18.95.612-1.504-.64-2.043-1.733-1.51-3.013.483-1.165 1.758-1.52 3.268-.941 4.098 1.575 8.195 1.87 12.48.541 8.2-2.554 13.71-10.763 12.545-19.602-1.181-8.959-9.14-15.85-18.208-15.74-7.877.092-15.506 6.202-17.401 13.875-.247 1.012.017 1.34 1.022 1.296 1.005-.043 2.048-.164 3.01.055.714.164 1.62.684 1.878 1.285.253.602.077 1.745-.373 2.226-4.395 4.693-8.871 9.31-13.353 13.914-1.01 1.034-2.395.985-3.422-.076-4.378-4.523-8.766-9.041-13.05-13.646-.506-.542-.736-1.767-.49-2.456.22-.596 1.253-1.083 2.011-1.258.912-.213 1.911-.098 2.873-.038.966.055 1.373-.29 1.488-1.285 1.17-10.01 5.795-18.175 13.748-24.306C59.03.53 69.52-1.597 80.874 1.176 91.77 3.84 99.653 10.419 104.76 20.302c1.895 3.676 2.922 7.652 3.471 11.743.149 1.088-.082 2.133-1.153 2.521-.665.241-1.631.154-2.269-.175-.472-.246-.807-1.077-.889-1.69-1.214-8.898-5.23-16.25-12.408-21.702-8.267-6.284-17.588-8.128-27.628-5.491-10.596 2.784-17.802 9.555-21.762 19.651-1 2.549-1.444 5.366-1.763 8.106-.258 2.21-.764 3.932-3.532 4.457z"/><path d="M72.887 28.944c-1.411.115-2.383.323-2.73 1.51-.335 1.137.143 1.99 1.099 2.543 1.5.864 3.07 1.608 4.57 2.472 2.252 1.296 3.438 3.221 3.208 5.868-.231 2.686-1.489 4.666-4.136 5.552-.912.306-1.16.82-1.16 1.717.006 1.444-.626 2.21-1.658 2.226-1.06.017-1.686-.689-1.675-2.176.005-.947-.434-1.253-1.242-1.466-.966-.257-1.944-.553-2.828-1.001-1.192-.602-1.55-1.838-.973-2.883.55-1 1.632-1.252 2.868-.809 1.06.383 2.153.744 3.262.88 1.071.132 2.148-.147 2.565-1.356.462-1.329-.11-2.34-1.23-3.019-1.445-.87-2.972-1.602-4.416-2.477-3.34-2.019-4.29-5.492-2.203-8.658.654-.985 1.835-1.729 2.922-2.292.835-.432 1.291-.782 1.275-1.778-.028-1.504.582-2.198 1.67-2.193 1.032 0 1.686.771 1.664 2.21-.011.973.406 1.34 1.285 1.597a7.2 7.2 0 0 1 2.175 1.094c.868.634 1.137 1.51.505 2.51-.637 1.012-1.5 1.242-2.592.793-.835-.339-1.686-.645-2.225-.853zm35.637 8.959c.016 1.252-.885 2.177-2.126 2.177-1.181 0-2.186-.985-2.186-2.144 0-1.078.999-2.106 2.082-2.139 1.164-.038 2.213.957 2.23 2.111zm-1.989 3.369c1.17.016 2.115 1.012 2.104 2.22a2.083 2.083 0 0 1-2.192 2.106c-1.104-.044-2.065-1.023-2.081-2.127-.017-1.116 1.065-2.21 2.169-2.194zM17.89 81.92c1.526 0 2.806 1.253 2.795 2.74-.01 1.455-1.35 2.779-2.812 2.768-1.489-.005-2.774-1.296-2.774-2.784 0-1.531 1.22-2.73 2.79-2.73z"/></g><defs><clipPath id="a"><path fill="#fff" d="M0 0h113v116H0z"/></clipPath></defs></svg>