<svg xmlns="http://www.w3.org/2000/svg" width="217" height="217" fill="none"><path fill="#fff" d="M108.677 122.045H59.089c-2.985 0-4.442-1.448-4.442-4.397V54.603c0-2.817 1.493-4.326 4.3-4.326h99.494c2.834 0 4.335 1.483 4.335 4.29v63.151c0 2.817-1.501 4.327-4.3 4.327zm-47.134-7.417h94.337V57.694H61.543zm47.107 23.946c-14.693 0-29.385.018-44.078-.009-3.93 0-7.69-.741-11.178-2.728-2.632-1.501-5.36-2.843-8.044-4.247-1.404-.733-2.067-1.863-1.802-3.135.292-1.404 1.378-2.243 3.038-2.243 5.898-.017 11.796 0 17.695 0 9.889 0 19.778.018 29.668-.017 1.28 0 2.348.291 3.222 1.254 1.422 1.571 3.179 2.154 5.307 2.11 4.344-.097 8.689-.053 13.033-.018 1.686.018 3.17-.45 4.291-1.695 1.192-1.333 2.614-1.669 4.344-1.66 15.435.044 30.869.035 46.304.018 1.448 0 2.684.291 3.284 1.774.512 1.272.036 2.711-1.209 3.373-3.577 1.908-7.117 3.912-10.79 5.616-2.738 1.272-5.766 1.616-8.795 1.616h-44.29z"/></svg>