<svg xmlns="http://www.w3.org/2000/svg" width="30" height="19" fill="none"><g clip-path="url(#a)"><path fill="#2CF5D0" d="M14.962 19c-.768-.773-1.517-1.533-2.272-2.288C8.756 12.772 4.816 8.835.885 4.89-.68 3.32-.08.74 1.993.133c1.11-.325 2.081-.045 2.898.773l8.507 8.52.947.939c.51.506.791.51 1.295.006l8.363-8.368c.412-.413.814-.837 1.239-1.236C26.349-.273 28.1-.245 29.159.82c1.087 1.09 1.138 2.854.054 3.944-4.7 4.726-9.418 9.436-14.13 14.151-.019.02-.045.033-.12.086"/></g><defs><clipPath id="a"><path fill="#fff" d="M0 0h30v19H0z"/></clipPath></defs></svg>