<svg xmlns="http://www.w3.org/2000/svg" width="1074" height="649" fill="none"><g clip-path="url(#a)"><path fill="#2CF5D0" d="M666.366 815.609c225.13 0 407.634-182.58 407.634-407.805C1074 182.58 891.496 0 666.366 0S258.732 182.58 258.732 407.804c0 225.225 182.504 407.805 407.634 407.805" opacity=".096"/><mask id="b" width="752" height="752" x="-117" y="209" maskUnits="userSpaceOnUse" style="mask-type:luminance"><path fill="#fff" d="M258.732 961c207.511 0 375.732-168.291 375.732-375.889s-168.221-375.89-375.732-375.89S-117 377.513-117 585.111 51.221 961 258.732 961"/></mask><g stroke="#2CF5D0" stroke-linecap="square" stroke-width="3" mask="url(#b)" opacity=".628"><path d="m-186.499 144.482 998.312 996.508M256.347 144.482l998.313 996.508M-627.266 144.482l998.312 996.508M35.963 144.482l998.317 996.508M478.809 144.482l998.311 996.508M-849.729 144.482l998.312 996.508m-555.466-996.508 998.312 996.508M-74.228 144.482l998.311 996.508M366.538 144.482l998.312 996.508M-959.921 144.482 38.391 1140.99m-555.466-996.508 998.312 996.508M146.155 144.482l998.315 996.508M-737.458 144.482l998.312 996.508m-557.545-996.508 998.312 996.508m-850.697-996.508 998.312 996.508M293.77 144.482l998.31 996.508M-591.922 144.482 406.39 1140.99M73.387 144.482 1071.7 1140.99M514.154 144.482l998.316 996.508M-812.305 144.482l998.312 996.508m-555.466-996.508 998.312 996.508M-38.884 144.482l998.312 996.508M403.962 144.482l998.308 996.508M-922.497 144.482 75.815 1140.99m-555.466-996.508 998.312 996.508M183.578 144.482l998.312 996.508M-702.114 144.482l998.312 996.508m-555.465-996.508 998.311 996.508m-850.696-996.508L886.66 1140.99M331.194 144.482l998.316 996.508M-997.344 144.482.968 1140.99m-555.466-996.508 998.312 996.508M108.731 144.482l998.309 996.508M551.578 144.482l998.312 996.508M-774.882 144.482 223.43 1140.99m-555.466-996.508 998.312 996.508M-1.46 144.482l998.312 996.508M441.386 144.482 1439.7 1140.99M-885.073 144.482l998.311 996.508m-557.544-996.508 998.311 996.508M218.923 144.482l998.317 996.508M-664.69 144.482l998.312 996.508m-555.466-996.508 998.312 996.508"/></g></g><defs><clipPath id="a"><path fill="#fff" d="M-117 0h1191v961H-117z"/></clipPath></defs></svg>