<svg xmlns="http://www.w3.org/2000/svg" width="151" height="135" fill="none"><g fill-rule="evenodd" clip-path="url(#a)" clip-rule="evenodd"><path fill="#fff" d="M0 0h151v135H0z"/><path fill="#000" d="M53.856 78.435c.827.194 1.838.333 2.708.333.888 0 1.908-.138 2.77-.357 2.584-.648 4.755-2.512 5.67-4.854.44-1.086.756-2.31.756-3.468 0-1.151-.317-2.39-.73-3.436-.94-2.268-3.086-4.156-5.644-4.83a13 13 0 0 0-2.778-.331 11.7 11.7 0 0 0-2.769.356c-2.55.648-4.72 2.577-5.661 4.87-.413 1.045-.704 2.309-.704 3.509 0 1.133.29 2.447.72 3.622h-7.91c-1.76 0-3.183-1.378-3.183-2.998l-.026-14.74h-4.87v14.74c0 4.132 3.64 7.495 8.105 7.495h8.949v-2.869c1.134 1.394 2.804 2.529 4.597 2.958M52.3 71.96c-.044-.51-.166-1.183-.166-1.734 0-.6.097-1.378.193-1.905.062-.47.325-1.02.519-1.426.624-1.337 2.145-2.18 3.745-2.18 1.591 0 3.13.843 3.78 2.18.22.421.44 1.005.51 1.442.097.486.22 1.2.22 1.75 0 .56-.168 1.313-.247 1.848-.044.47-.308 1.02-.501 1.402-.677 1.354-2.155 2.268-3.789 2.268-1.59 0-3.094-.915-3.718-2.244-.195-.405-.502-.955-.546-1.401m30.988 2.974c-1.248 2.422-3.93 3.962-6.848 3.962-1.759 0-3.622-.673-4.959-1.742v1.183h-4.518V56.103h4.588v7.033c1.358-1.051 3.092-1.634 4.888-1.645 1.16 0 2.434.284 3.43.73 1.589.753 2.943 2.228 3.664 3.8.528 1.272.889 2.755.889 4.173 0 1.58-.405 3.315-1.134 4.74m-11.622-7.09c.088-.373.378-.778.598-1.11A4.08 4.08 0 0 1 75.596 65c.774 0 1.617.226 2.215.623.94.665 1.697 1.783 1.838 2.91.07.461.14 1.134.14 1.645 0 .462-.096 1.021-.14 1.467-.07.729-.484 1.506-.897 2.13-.67.98-1.925 1.63-3.227 1.63-1.6 0-3.068-.94-3.596-2.318-.333-.891-.57-2.043-.57-3.022 0-.715.14-1.581.307-2.221m18.601 10.501h-4.65V56.111h4.65zm13.082-5.097c.07-.664.183-1.531.183-2.22 0-.356-.07-.753-.07-1.086-.395.195-.958.422-1.432.51l-2.875.625c-.484.088-.993.282-1.451.461-.5.203-1.037.535-1.345.916-.273.283-.387.689-.387 1.054 0 .161.045.356.096.494.29.64.915 1.247 1.636 1.467a6 6 0 0 0 1.52.218 5.7 5.7 0 0 0 3.235-1.046c.458-.33.845-.866.89-1.393m4.509 2.82c0 .826.212 1.62.599 2.269h-4.51a28 28 0 0 1-.264-1.468c-1.486 1.175-3.42 1.849-5.399 1.849-1.757 0-3.595-.584-4.966-1.557-.993-.697-1.714-1.783-1.864-2.941 0-.105-.016-.283-.016-.397 0-1.531.843-2.973 2.214-3.816a9.3 9.3 0 0 1 3.14-1.247c1.159-.292 2.628-.446 3.734-.576.387-.073 1.038-.202 1.451-.226.8-.09 1.389-.714 1.389-1.443a1.5 1.5 0 0 0-.131-.648 2.12 2.12 0 0 0-1.134-.973 4.8 4.8 0 0 0-2.03-.445c-.599 0-1.232.105-1.812.332-.913.332-1.537 1.135-1.617 2.042h-4.025c.07-.802.343-1.734.702-2.447a4.24 4.24 0 0 1 1.398-1.507c.483-.316 1.108-.648 1.662-.802a13.5 13.5 0 0 1 3.788-.576c1.495 0 3.138.284 4.431.754 1.089.445 2.056 1.199 2.628 2.13.385.779.65 1.938.65 2.828zm5.029 2.277-5.381-16.344h4.582l3.26 10.388 2.91-10.388h4.203l3.321 10.502 2.92-10.502h4.633l-5.231 16.344h-4.272l-3.349-11.028-3.307 11.028zm29.396-13.427c.897.268 1.573 1.045 1.644 1.912h4.175c-.026-1.824-1.186-3.557-2.944-4.335-2.602-1.11-5.047-1.224-7.772-.486-2.751.754-4.096 2.285-4.096 4.708 0 1.207.598 2.43 1.565 3.209 1.089.866 2.725 1.312 4.105 1.555l3.708.665c1.504.243 2.392 1.702 1.091 2.795-1.23 1.021-3.042.932-4.492.422-1.133-.397-1.95-1.426-2.048-2.553h-4.193c.043.997.334 2.042.888 2.869.624.931 1.661 1.823 2.751 2.268 2.682 1.062 5.142 1.126 7.886.438 2.654-.689 4.228-2.512 4.228-4.975 0-1.775-.774-3.242-2.462-4.084a11.3 11.3 0 0 0-2.997-.916l-4.553-.754c-1.328-.178-1.865-1.401-.925-2.269 1.259-1.02 2.93-.85 4.441-.469"/><path fill="#CC2229" d="M14.283 56.11H2.22v11.118c0 6.126 5.593 11.126 12.435 11.126H27.09l.018-10.81-8.057.008c-2.62-.008-4.768-1.912-4.768-4.262z"/><path fill="#E0922F" d="M18.688 56.11h-3.661v7.188c0 1.977 1.812 3.581 4.024 3.59h8.039v-3.283l-5.093.01c-1.822-.01-3.308-1.33-3.308-2.95zm4.024 0h-3.28v4.563c0 1.255 1.15 2.269 2.556 2.277h5.102v-2.901h-2.41c-1.07 0-1.94-.786-1.958-1.759zm4.378 0h-3.625l.01 2.18c.008.608.543 1.094 1.196 1.094h2.42z"/></g><defs><clipPath id="a"><path fill="#fff" d="M0 0h151v135H0z"/></clipPath></defs></svg>