<svg xmlns="http://www.w3.org/2000/svg" width="496" height="684" fill="none"><g fill="#7662EE" fill-opacity=".31" clip-path="url(#a)"><path d="m443.742 677.951 12.434-.102c11.856-6.804 23.779-13.644 36.061-20.688l-.052-6.977c-16.167 9.224-32.277 18.531-48.443 27.767m49.593-56.019c-.46.169-.919.373-1.356.601-1.165.553-2.296 1.235-3.427 1.882-19.715 11.308-39.43 22.64-59.145 33.972-11.565 6.648-23.176 13.214-34.684 19.968l12.21-.101c16.827-9.631 33.318-19.095 49.809-28.558 11.755-6.744 23.465-13.594 35.288-20.232.325-.18.639-.36.963-.54 2.643-1.474 2.627-3.552 2.227-5.922-.082-.483-1.414-1.251-1.885-1.07m-3.522-25.947c-19.984 11.428-39.957 22.868-59.941 34.297-11.095 6.361-22.201 12.698-33.296 19.071-17.073 9.81-34.112 19.644-51.197 29.407l12.479-.102c9.751-5.63 19.502-11.271 29.276-16.866 14.297-8.193 28.639-16.317 42.936-24.522 19.805-11.356 39.587-22.759 59.392-34.104 1.03-.587 1.813-1.124 2.36-1.684 1.428-1.417 1.338-2.951-.044-5.809a7 7 0 0 0-.239-.505c-.572.264-1.177.494-1.726.817m-5.703-24.536c-14.163 8.051-28.269 16.231-42.398 24.329-14.308 8.194-28.639 16.341-42.947 24.523-20.297 11.632-40.595 23.287-60.881 34.93-13.86 7.966-27.732 15.861-41.523 23.933l12.209-.101c13.905-7.99 27.53-15.812 41.155-23.61 14.218-8.146 28.471-16.245 42.689-24.391 23.097-13.237 46.193-26.485 69.278-39.722 8.307-4.768 16.626-9.5 24.91-14.291 2.497-1.437 3.343-4.148 1.786-6.332-1.58-2.23-3.047.037-4.278.732M132.749 78.048c-13.881 8.167-27.921 16.051-41.905 24.042-13.311 7.63-26.634 15.249-39.946 22.892-19.715 11.32-39.419 22.663-59.145 33.971-14.05 8.062-28.135 16.077-42.186 24.127-19.972 11.452-39.934 22.927-59.895 34.391-11.912 6.84-23.813 13.715-35.725 20.543-2.721 1.557-5.498 3.021-8.555 4.687l.058 7.84c.266-.522.6-.974 1.014-1.225 15.651-9.09 31.358-18.075 47.066-27.059 14.218-8.146 28.46-16.245 42.678-24.403 19.727-11.308 39.43-22.663 59.157-33.971 14.05-8.062 28.124-16.077 42.185-24.127 19.962-11.452 39.923-22.939 59.896-34.379 14.051-8.062 28.135-16.065 42.185-24.127.818-.479 1.509-1.216 2.37-1.92-3.112-2.678-5.77-3.33-9.252-1.282m-26.493-12.57c-3.388 2.567-7.355 4.288-11.061 6.397C81.133 79.913 67.06 87.928 53.01 95.99c-19.727 11.32-39.43 22.675-59.146 33.983-14.386 8.242-28.807 16.425-43.193 24.654a62399 62399 0 0 0-61.139 35.075c-11.666 6.696-23.309 13.451-34.974 20.147-2.967 1.713-5.99 3.367-9.372 5.237l.055 7.426c.424-.488.938-.917 1.408-1.18 20.51-11.846 41.054-23.622 61.609-35.397 23.667-13.573 47.346-27.133 71.014-40.693C.152 133.275 21.02 121.296 41.9 109.34c22.615-12.925 45.253-25.816 67.868-38.754 2.228-1.27 4.376-2.693 6.704-4.129-3.53-2.922-6.482-3.795-10.216-.978M79.594 52.995c-8.24 4.672-16.446 9.404-24.664 14.111-19.972 11.464-39.923 22.94-59.895 34.391-14.14 8.098-28.303 16.149-42.443 24.259a50318 50318 0 0 0-60.389 34.655c-11.834 6.792-23.645 13.619-35.478 20.411-3.795 2.192-7.625 4.313-11.745 6.614l.055 7.356c.412-.535.959-.988 1.676-1.372 3.74-2.05 7.423-4.182 11.129-6.302 14.23-8.122 28.471-16.233 42.69-24.391 22.189-12.721 44.356-25.502 66.534-38.224 14.308-8.193 28.639-16.328 42.947-24.522A57586 57586 0 0 0 78.785 60.52c3.493-2 6.963-4.048 10.568-6.155-4.015-3.167-6.075-3.469-9.758-1.373M49.831 42.14c-4.229 2.88-8.799 5.22-13.243 7.76C22.526 57.95 8.453 65.976-5.598 74.026c-20.476 11.716-40.93 23.467-61.396 35.195-11.341 6.504-22.694 12.973-34.046 19.478-17.42 9.991-34.829 19.993-52.261 29.971-.56.324-1.176.565-1.927.866l.057 7.663c.401-.499.949-.929 1.643-1.324 24.921-14.244 49.797-28.57 74.685-42.872 17.834-10.23 35.658-20.484 53.492-30.69 27.8-15.897 55.61-31.77 83.397-47.667.84-.48 1.61-1.1 2.73-1.876-3.929-2.058-7.164-3.2-10.945-.63M19.084 32.06C9.837 37.462.544 42.781-8.748 48.1c-14.308 8.182-28.628 16.329-42.936 24.522a62783 62783 0 0 0-60.646 34.799c-11.744 6.744-23.465 13.535-35.22 20.267-2.486 1.426-5.017 2.769-7.883 4.339l.056 7.533a4.8 4.8 0 0 1 1.139-1.013c4.623-2.813 9.314-5.473 14.005-8.156 14.476-8.266 28.975-16.497 43.44-24.786 22.02-12.638 44.008-25.334 66.041-37.96C-13.41 57.702 3.966 47.83 21.32 37.91c2.821-1.605 5.574-3.317 8.574-5.112-4.902-3.053-6.859-3.049-10.81-.738m-32.304-9.203c-12.101 7.1-24.35 13.908-36.52 20.88-19.973 11.44-39.935 22.915-59.896 34.379-11.991 6.888-23.97 13.799-35.971 20.687-3.157 1.809-6.337 3.559-10.032 5.62l.055 7.391c.368-.428.837-.81 1.24-1.073 2.641-1.675 5.407-3.15 8.116-4.707 20.79-11.92 41.58-23.85 62.382-35.758 22.2-12.698 44.425-25.373 66.626-38.07 4.814-2.756 9.605-5.582 15.18-8.827-4.27-1.099-7.419-2.738-11.18-.522m-35.126-7.705c-7.097 4.19-14.296 8.205-21.45 12.302-11.095 6.35-22.201 12.687-33.296 19.06-16.76 9.618-33.497 19.284-50.256 28.903-.728.42-1.513.698-2.499 1.095l.06 8.135c.778-1.234 1.997-2.177 3.62-3.076 14.646-8.15 29.177-16.522 43.732-24.86 22.772-13.033 45.52-26.114 68.28-39.194.729-.42 1.388-.968 2.081-1.458-3.57-.915-6.734-3.002-10.272-.907m-39.67-5.022c-6.1 3.84-12.495 7.151-18.73 10.745-11.588 6.648-23.141 13.355-34.728 19.992-4.714 2.707-9.461 5.32-14.578 8.195l.056 7.521a5.5 5.5 0 0 1 1.206-1.037c6.683-3.975 13.411-7.856 20.151-11.713 17.029-9.74 34.069-19.443 51.086-29.183 2.508-1.437 4.982-2.957 7.467-4.43-4.078-.982-7.846-2.674-11.93-.09m-62.969 8.322c-1.59.922-3.213 1.786-5.274 2.9l.055 7.356c.39-.452.916-.834 1.565-1.193 8.678-4.854 17.309-9.813 25.93-14.76 3.515-2.013 6.974-4.107 10.78-6.358-1.083-.487-1.737-.777-2.392-1.079l-8.432.07c-7.41 4.358-14.81 8.729-22.232 13.064m317.591 75.009c-5.128 2.97-10.165 5.905-15.225 8.816-22.593 12.973-45.174 25.957-67.778 38.907-14.386 8.241-28.796 16.424-43.182 24.666-19.727 11.308-39.42 22.651-59.146 33.971-11.251 6.457-22.537 12.879-33.788 19.335-20.13 11.548-40.26 23.095-60.377 34.667-4.367 2.515-8.664 5.195-13.978 4.235-1.182-.214-2.364-.37-4.357-.684 3.135-1.88 5.574-3.399 8.06-4.813 17.353-9.919 34.73-19.779 52.071-29.722 24.407-13.991 48.768-28.065 73.174-42.068 14.375-8.254 28.807-16.413 43.182-24.655 22.514-12.901 45.017-25.85 67.531-38.763 15.528-8.912 31.068-17.801 46.607-26.69 2.094-1.198 4.552-.285 7.206 2.822zM-89.55 261.223c4.142-2.42 8.261-4.874 12.426-7.258 16.939-9.691 33.9-19.335 50.828-29.038 22.022-12.626 44.01-25.323 66.031-37.96 14.375-8.254 28.807-16.413 43.182-24.667 19.727-11.308 39.431-22.651 59.146-33.971a21976 21976 0 0 1 39.699-22.76c3.135-1.797 4.622-1.384 8.168 2.211-2.888 1.724-5.652 3.435-8.473 5.053a100307 100307 0 0 1-77.16 44.25c-14.218 8.146-28.471 16.233-42.69 24.379-22.267 12.769-44.512 25.586-66.78 38.355-13.636 7.835-27.295 15.633-40.932 23.444-10.77 6.169-21.563 12.279-32.299 18.508-3.773 2.191-7.336.815-11.124-.57zm301.439-138.25c-2.35 1.424-4.644 2.883-6.984 4.225-14.05 8.05-28.124 16.065-42.185 24.127-20.052 11.488-40.091 23.011-60.143 34.511-14.05 8.05-28.135 16.065-42.185 24.126-19.715 11.309-39.42 22.652-59.146 33.972-11.251 6.457-22.525 12.89-33.8 19.335-3.705 2.108-7.548 3.982-11.094 6.349-3.636 2.427-6.697.551-10.776-.608 2.664-1.64 4.61-2.919 6.626-4.069 16.939-9.691 33.9-19.336 50.828-29.039 22.022-12.626 44.01-25.322 66.031-37.96 14.465-8.301 28.975-16.497 43.44-24.798 19.637-11.26 39.262-22.568 58.888-33.84a12911 12911 0 0 1 32.557-18.639c3.504-2.001 4.969-1.576 7.944 2.331zM-22.602 278.43c4.914-2.862 9.37-5.485 13.848-8.048 25.638-14.71 51.264-29.42 76.913-44.119 14.308-8.194 28.64-16.317 42.936-24.522 19.391-11.129 38.758-22.304 58.149-33.432 11.419-6.553 22.862-13.058 34.292-19.611 7.065-4.049 14.14-8.086 21.182-12.194 3.873-2.263 4.988-2.071 8.268 2.117-2.417 1.484-4.756 3.003-7.174 4.38-25 14.304-50.011 28.572-75 42.875-18.249 10.446-36.497 20.915-54.735 31.373a265212 265212 0 0 0-79.153 45.365c-9.617 5.51-19.314 10.88-28.771 16.672-3.806 2.322-6.828 1.107-10.755-.844zm28.621 11.383c4.847-2.838 8.977-5.293 13.153-7.689 14.308-8.182 28.64-16.316 42.936-24.522 22.19-12.722 44.356-25.49 66.535-38.224 13.557-7.786 27.127-15.537 40.684-23.311 20.634-11.824 41.256-23.647 61.89-35.47 5.261-3.019 10.512-6.049 15.785-9.033 2.172-1.234 3.448-.536 6.187 3.409-4.668 2.718-9.291 5.448-13.937 8.12a69183 69183 0 0 1-70.029 40.142c-16.939 9.691-33.9 19.335-50.828 29.038-22.022 12.626-44.01 25.334-66.042 37.96-12.573 7.212-25.202 14.317-37.775 21.528-3.303 1.893-5.28-.889-8.56-1.948m267.059-118.544c-4.176 2.478-7.69 4.644-11.273 6.693-22.615 12.925-45.242 25.816-67.857 38.754-20.88 11.943-41.748 23.922-62.628 35.889a134175 134175 0 0 0-70.006 40.154c-6.247 3.581-12.449 7.234-18.684 10.851-4.321 2.503-5.278 2.369-9.646-1.432 2.406-1.461 4.7-2.908 7.051-4.25 14.8-8.458 29.636-16.856 44.436-25.338 19.313-11.068 38.58-22.219 57.892-33.3 14.218-8.157 28.459-16.244 42.678-24.39 19.883-11.404 39.755-22.831 59.638-34.235a4381 4381 0 0 1 21.743-12.364c3.146-1.774 4.059 1.489 6.644 2.968zM56.61 316.376c5.35-3.125 9.828-5.772 14.34-8.347 19.817-11.321 39.645-22.618 59.45-33.951 26.22-14.998 52.417-30.043 78.626-45.065 20.869-11.967 41.737-23.922 62.606-35.889 4.355-2.492 8.664-5.066 13.042-7.534 2.161-1.222 4.957-.136 5.571 2.292.151.601-.75 1.848-1.455 2.267-7.434 4.371-14.912 8.647-22.391 12.936-20.454 11.739-40.897 23.478-61.363 35.194-14.296 8.194-28.627 16.317-42.924 24.51-19.391 11.117-38.747 22.292-58.127 33.421-13.222 7.594-26.455 15.153-39.7 22.724-3.145 1.797-4.609-1.414-7.675-2.546zm23.19 14.509c4.22-2.478 8.183-4.872 12.203-7.172 27.866-15.933 55.754-31.843 83.632-47.787a49653 49653 0 0 0 62.616-35.889c21.44-12.303 42.868-24.629 64.307-36.931 3.236-1.857 3.679 1.788 5.926 3.092-1.33 1.003-2.213 1.813-3.22 2.4-16.928 9.703-33.89 19.335-50.817 29.05-22.022 12.626-43.998 25.322-66.02 37.948-14.543 8.338-29.132 16.593-43.675 24.93a35843 35843 0 0 0-57.903 33.241c-2.463 1.414-3.85.929-7.037-2.882zm181.652 347.054c-1.518-4.521-.989-6.037 2.403-7.989 27.261-15.657 54.51-31.348 81.783-46.993 17.33-9.942 34.729-19.767 52.06-29.71 24.395-13.991 48.767-28.041 73.151-42.068 3.202-1.845 6.381-3.725 9.651-5.44.986-.516 2.445-2.263 3.237-.18.631 1.671 2.02 3.986-.488 5.494a654 654 0 0 1-11.765 6.898c-22.917 13.153-45.823 26.317-68.752 39.446-14.543 8.326-29.132 16.581-43.675 24.919-22.01 12.625-43.997 25.31-66.008 37.948-9.941 5.702-19.917 11.345-29.882 17-.47.275-1.02.41-1.704.687zm63.531-453.08c-2.071 1.269-4.119 2.596-6.223 3.806-19.817 11.333-39.656 22.618-59.461 33.963-28.773 16.471-57.523 32.978-86.284 49.461-18.249 10.458-36.487 20.904-54.735 31.373-3.124 1.785-6.259 3.57-9.325 5.461-4.063 2.501-4.93 2.355-8.246-2.081 1.925-1.197 3.782-2.44 5.719-3.554 17.017-9.739 34.069-19.419 51.075-29.182 27.194-15.597 54.353-31.264 81.559-46.872 17.341-9.943 34.729-19.791 52.071-29.722 8.8-5.032 17.554-10.145 26.32-15.235 4.086-2.372 5.01-2.096 7.541 2.571zm152.747 294.75c2.177 5.402 2.257 5.543-1.807 7.914-11.374 6.635-22.816 13.152-34.224 19.704-20.286 11.644-40.573 23.299-60.87 34.919-14.297 8.193-28.628 16.328-42.925 24.522-19.805 11.344-39.587 22.736-59.381 34.103a4507 4507 0 0 1-16.513 9.464c-.627.359-1.345.554-2.007.819-2-4.411-1.539-5.902 2.122-7.999 25.716-14.734 51.421-29.504 77.149-44.226 17.342-9.931 34.729-19.768 52.06-29.71 24.809-14.22 49.596-28.498 74.405-42.74 3.919-2.252 7.871-4.434 11.992-6.746zM341.009 243.536c-2.664 1.593-5.138 3.136-7.657 4.574-19.816 11.332-39.655 22.63-59.471 33.962-23.769 13.597-47.515 27.217-71.272 40.825-20.879 11.967-41.759 23.923-62.628 35.901-4.108 2.36-8.171 4.802-12.292 7.139-3.907 2.204-4.978 1.871-7.742-2.428 2.395-1.46 4.768-2.956 7.186-4.345 17.185-9.823 34.405-19.611 51.579-29.446 22.111-12.674 44.188-25.407 66.288-38.092 13.972-8.014 27.967-15.981 41.939-23.995 14.957-8.577 29.903-17.166 44.86-25.754.493-.288.986-.563 1.489-.839q4.435-2.433 7.721 2.498m130.29 251.957c2.519 4.513 2.413 5.435-1.248 7.555-11.542 6.718-23.129 13.355-34.705 20.015a44726 44726 0 0 1-60.87 34.918c-14.129 8.098-28.292 16.149-42.421 24.247-19.637 11.26-39.24 22.568-58.877 33.828-5.329 3.054-10.692 6.039-16.022 9.046-2.41-3.617-1.898-5.829 1.516-7.782 19.805-11.344 39.588-22.735 59.381-34.091 13.715-7.87 27.452-15.705 41.178-23.575 20.04-11.5 40.08-23.023 60.131-34.511 14.375-8.242 28.784-16.437 43.171-24.655 2.933-1.677 5.866-3.342 8.777-4.995zM138.122 380.858c3.728-2.203 7.432-4.465 11.183-6.61 17.342-9.919 34.73-19.767 52.06-29.71 24.395-13.991 48.756-28.065 73.151-42.056 14.454-8.302 28.953-16.521 43.429-24.787 10.692-6.109 21.349-12.278 32.087-18.281.997-.563 2.907-.697 3.687-.066 2.806 2.267 2.533 3.391-.624 5.2-22.761 13.045-45.499 26.114-68.259 39.159-14.297 8.194-28.628 16.329-42.925 24.523-19.805 11.344-39.587 22.735-59.381 34.103-12.897 7.403-25.805 14.782-38.68 22.209-3.459 2-3.836-1.846-5.766-2.728.009-.318.018-.626.038-.944zm113.065 214.149c.423-.475 1.066-1.697 2.063-2.272 9.481-5.568 19.009-11.042 28.536-16.505 20.454-11.739 40.908-23.49 61.385-35.206 14.555-8.326 29.143-16.581 43.686-24.93 22.022-12.626 44.021-25.311 66.031-37.96 3.034-1.749 6.045-3.58 9.159-5.152.84-.421 2.729-.424 2.945.023.754 1.528 2.072 3.395.105 5.017-1.016.846-2.204 1.482-3.345 2.141-25.638 14.71-51.265 29.432-76.914 44.106-14.711 8.422-29.468 16.761-44.179 25.194-19.39 11.117-38.758 22.304-58.137 33.432a4194 4194 0 0 1-27.162 15.467c-2.978 1.689-4.006 1.001-4.151-3.367zm-96.592-195.854c2.732-1.616 5.451-3.292 8.228-4.873 17.353-9.907 34.718-19.779 52.06-29.71 22.022-12.626 43.998-25.322 66.009-37.948 14.453-8.289 28.952-16.508 43.428-24.774 13.401-7.655 26.78-15.357 40.215-22.942.963-.539 2.693-.778 3.473-.229 2.735 1.937 2.479 3.722-.455 5.4-22.201 12.686-44.402 25.349-66.592 38.047-20.88 11.943-41.737 23.922-62.605 35.877-23.668 13.561-47.324 27.121-70.992 40.681-1.892 1.078-3.738 2.239-5.642 3.294-4.154 2.277-4.47 2.15-7.104-2.823zm89.398 170.563c.953-.385 1.951-.677 2.836-1.192 9.617-5.51 19.211-11.068 28.817-16.578a54522 54522 0 0 1 61.127-35.062c14.387-8.242 28.807-16.413 43.182-24.655 19.727-11.308 39.42-22.651 59.135-33.971 5.016-2.875 10.043-5.727 15.058-8.59 1.187-.682 2.485-1.531 3.253.387.687 1.718 2.017 3.655-.48 5.093-2.877 1.653-5.754 3.294-8.631 4.947-16.94 9.68-33.901 19.324-50.829 29.039-22.022 12.626-44.009 25.322-66.031 37.96-14.464 8.301-28.963 16.508-43.439 24.798-12.741 7.295-25.459 14.638-38.211 21.909-3.235 1.845-4.535.994-4.631-2.842l-1.178-1.219zm136.894-272.218c.864 1.244 1.952 2.428 2.547 3.852.183.447-.818 1.813-1.557 2.232-10.568 6.144-21.182 12.194-31.784 18.268-20.298 11.643-40.584 23.298-60.893 34.93-14.218 8.146-28.471 16.245-42.689 24.391-19.883 11.404-39.755 22.831-59.638 34.247-3.695 2.12-7.401 4.24-11.129 6.29-2.229 1.223-4.36.402-5.053-2.131-.197-.695.591-2.177 1.307-2.596 7.668-4.538 15.416-8.935 23.129-13.367 20.208-11.596 40.416-23.203 60.635-34.787 14.14-8.098 28.303-16.149 42.432-24.259 19.559-11.212 39.094-22.471 58.642-33.696 7.154-4.096 14.331-8.134 21.507-12.184.65-.372 1.356-.649 2.521-1.19zm66.966 128.23c.593 1.07 1.511 2.089 1.666 3.221.131.979-.307 2.565-1.012 3.067-2.404 1.696-5.025 3.028-7.578 4.478-22.917 13.141-45.823 26.294-68.752 39.435-14.05 8.05-28.124 16.053-42.174 24.114-20.04 11.488-40.08 23.012-60.12 34.5-9.124 5.222-18.249 10.434-27.408 15.586-1.175.659-2.67 2.183-3.645-.324-.756-1.942-1.534-3.695 1.064-5.157 16.234-9.178 32.412-18.461 48.589-27.757 22.01-12.637 43.987-25.322 66.008-37.948 14.7-8.433 29.457-16.772 44.168-25.193 15.45-8.841 30.888-17.717 46.327-26.57.739-.419 1.512-.78 2.856-1.464zM184.5 437.942c.379-.322.926-.941 1.609-1.324a9274 9274 0 0 1 29.555-17.021c20.376-11.691 40.741-23.395 61.128-35.062 14.386-8.242 28.807-16.413 43.182-24.655 22.514-12.901 45.017-25.85 67.531-38.763 1.478-.851 3.036-1.56 4.468-2.481 1.589-1.017 2.493-.469 3.426 1.034 1.73 2.785 1.72 2.985-1.102 4.602-22.514 12.914-45.005 25.874-67.52 38.764-14.789 8.481-29.635 16.856-44.436 25.326-22.1 12.673-44.177 25.406-66.277 38.092a4270 4270 0 0 1-26.668 15.19c-2.027 1.139-4.909-.809-4.896-3.702m253.899-34.653c.637 1.011 1.645 1.97 1.856 3.114.176.943-.296 2.576-.989 3.031-3.57 2.343-7.287 4.44-10.981 6.549-16.939 9.691-33.89 19.323-50.818 29.038-22.021 12.626-43.998 25.322-66.019 37.948-14.465 8.29-28.964 16.509-43.429 24.787-11.341 6.492-22.67 13.02-34 19.537-1.142.659-2.427 1.744-3.262-.221-.744-1.742-2.344-3.689.433-5.246 5.777-3.248 11.52-6.565 17.275-9.86 22.76-13.057 45.498-26.125 68.27-39.171 14.297-8.193 28.628-16.328 42.924-24.522 19.805-11.356 39.588-22.736 59.381-34.103a4733 4733 0 0 1 16.771-9.596c.65-.371 1.345-.672 2.599-1.285zm-32.324-64.744c.796 1.198 1.839 2.323 2.309 3.653.207.577-.558 1.976-1.23 2.372-12.852 7.473-25.76 14.852-38.646 22.255-19.704 11.32-39.408 22.652-59.112 33.96-11.42 6.552-22.862 13.046-34.27 19.598-19.962 11.452-39.901 22.915-59.863 34.367-4.355 2.492-8.801 4.831-13.099 7.417-2.373 1.424-3.059-.164-4.061-1.833-1.185-1.997-.111-2.785 1.367-3.624 19.245-10.985 38.491-21.959 57.702-32.98 27.183-15.596 54.343-31.251 81.526-46.848 16.916-9.703 33.878-19.347 50.806-29.027 4.601-2.635 9.18-5.306 13.781-7.953.728-.419 1.524-.733 2.801-1.345zM209.229 479.312c.346-.31.859-.952 1.519-1.335 11.419-6.553 22.873-13.047 34.293-19.587 19.961-11.44 39.912-22.916 59.884-34.367 13.972-8.014 27.956-15.981 41.928-23.983 20.208-11.584 40.416-23.191 60.624-34.787 2.463-1.413 4.949-2.792 7.377-4.276 1.78-1.089 3.071-1.347 4.37.933 1.276 2.221.71 3.264-1.216 4.355-8.565 4.864-17.073 9.834-25.615 14.733-20.79 11.919-41.569 23.838-62.37 35.746-14.465 8.277-28.964 16.496-43.429 24.786-22.1 12.674-44.177 25.394-66.266 38.092-1.97 1.138-3.986 2.181-5.945 3.343-2.485 1.473-5.026-.053-5.154-3.642zm219.234-98.186c.73 1.352 1.65 2.573 2.02 3.963.173.671-.491 2.023-1.14 2.418-5.116 3.076-10.322 6-15.494 8.971-25.884 14.842-51.768 29.696-77.664 44.514-17.017 9.739-34.069 19.42-51.075 29.171-19.559 11.212-39.094 22.483-58.63 33.719-.493.287-.985.587-1.501.815-1.356.602-2.716 2.136-3.893-.44-1.006-2.2-1.432-3.578 1.244-5.075 18.239-10.269 36.364-20.738 54.523-31.171 22.01-12.65 44.009-25.334 66.03-37.96 14.375-8.254 28.796-16.425 43.194-24.655 13.401-7.666 26.802-15.345 40.203-23.012.571-.323 1.142-.647 2.195-1.246zm63.926 296.426.495-.004c-.168.096-.336.191-.493.286z"/><path d="M492.993 628.924c-.324.18-.638.36-.962.539l-.052-6.929a12 12 0 0 1 1.356-.602c.47-.18 1.803.588 1.885 1.071.4 2.37.415 4.447-2.227 5.921m-1.171-27.442-.044-5.808c1.382 2.858 1.472 4.392.044 5.808m.567 76.07.495-.004c-.168.096-.336.191-.493.286z"/></g><defs><clipPath id="a"><path fill="#fff" d="m-151.323 683.129-5.053-677.513L490.756.294l5.053 677.513z"/></clipPath></defs></svg>