<svg xmlns="http://www.w3.org/2000/svg" width="425" height="532" fill="none"><mask id="a" width="506" height="532" x="0" y="0" maskUnits="userSpaceOnUse" style="mask-type:luminance"><path fill="#fff" d="M252.696 531.982c139.561 0 252.697-119.075 252.697-265.961S392.257.06 252.696.06C113.136.06 0 119.135 0 266.02s113.136 265.961 252.696 265.961"/></mask><g stroke="#7662EE" stroke-linecap="square" stroke-width="3" mask="url(#a)" opacity=".628"><path d="m-46.741-45.747 671.408 705.08M251.092-45.747l671.409 705.08M-641.01-45.747l671.409 705.08m-373.576-705.08 671.409 705.08M102.875-45.747l671.408 705.08M400.708-45.747l671.412 705.08M-492.792-45.747l671.408 705.08m-373.575-705.08 671.409 705.08M28.766-45.747l671.408 705.08M325.201-45.747l671.409 705.08M-566.901-45.747l671.408 705.08m-373.575-705.08 671.409 705.08M176.983-45.747l671.409 705.08M-417.285-45.747l671.408 705.08M-120.85-45.747l671.409 705.08M-21.572-45.747l671.408 705.08M276.261-45.747l671.409 705.08M-615.841-45.747l671.409 705.08m-374.974-705.08 671.409 705.08M128.044-45.747l671.408 705.08M424.479-45.747l671.411 705.08M-467.623-45.747l671.408 705.08M-169.79-45.747l671.409 705.08M52.537-45.747l671.408 705.08M350.37-45.747l671.41 705.08M-541.732-45.747l671.408 705.08m-373.575-705.08 671.409 705.08M202.152-45.747l671.409 705.08M-393.515-45.747l671.409 705.08M-95.681-45.747l671.409 705.08M3.597-45.747l671.408 705.08M301.43-45.747l671.409 705.08M-592.07-45.747l671.408 705.08m-373.575-705.08 671.409 705.08M151.814-45.747l671.409 705.08M-442.454-45.747l671.408 705.08m-373.575-705.08 671.409 705.08M77.706-45.747l671.408 705.08M375.539-45.747l671.411 705.08M-516.563-45.747l671.408 705.08m-374.973-705.08 671.409 705.08M225.923-45.747l671.409 705.08M-666.179-45.747 5.23 659.333m-373.576-705.08 671.409 705.08M-70.512-45.747l671.409 705.08"/></g></svg>